<svg width="282" height="72" viewBox="0 0 282 72" fill="none" xmlns="http://www.w3.org/2000/svg">
<path d="M132.772 10.84C132.798 11 132.825 11.0933 132.852 11.12C132.878 11.1333 132.972 11.1267 133.132 11.1C134.185 10.9 135.238 10.86 136.292 10.98C136.358 10.98 136.412 10.9867 136.452 11C136.492 11.0133 136.538 11.0267 136.592 11.04C136.818 11.16 136.938 11.3333 136.952 11.56C136.978 11.7733 136.898 11.96 136.712 12.12C136.578 12.24 136.418 12.3333 136.232 12.4C136.058 12.4667 135.878 12.5133 135.692 12.54C135.278 12.5933 134.865 12.6533 134.452 12.72C134.038 12.7867 133.618 12.86 133.192 12.94C133.058 12.9533 132.978 12.9733 132.952 13C132.925 13.0267 132.918 13.1133 132.932 13.26C132.998 14.0733 133.058 14.8733 133.112 15.66C133.138 16.0733 133.165 16.48 133.192 16.88C133.232 17.28 133.272 17.6867 133.312 18.1C133.338 18.2867 133.358 18.48 133.372 18.68C133.398 18.8667 133.458 19.0533 133.552 19.24C133.605 19.36 133.612 19.4867 133.572 19.62C133.532 19.7533 133.458 19.8667 133.352 19.96C133.232 20.0533 133.092 20.1 132.932 20.1C132.785 20.1 132.652 20.06 132.532 19.98C132.438 19.8867 132.358 19.7867 132.292 19.68C132.225 19.56 132.158 19.44 132.092 19.32C131.972 18.96 131.865 18.5933 131.772 18.22C131.692 17.8467 131.618 17.4667 131.552 17.08C131.312 15.88 131.152 14.6667 131.072 13.44C131.018 12.6933 130.972 11.9533 130.932 11.22C130.905 10.4733 130.878 9.73333 130.852 9C130.838 8.62667 130.818 8.26 130.792 7.9C130.778 7.54 130.778 7.18 130.792 6.82C130.792 6.76667 130.785 6.71333 130.772 6.66C130.772 6.60667 130.752 6.56 130.712 6.52C130.392 6.18667 130.278 5.85333 130.372 5.52C130.465 5.17333 130.725 4.92667 131.152 4.78C131.525 4.66 131.898 4.56667 132.272 4.5C132.818 4.43333 133.358 4.37333 133.892 4.32C134.438 4.26667 134.985 4.24 135.532 4.24C135.838 4.21333 136.138 4.21333 136.432 4.24C136.725 4.26667 137.018 4.32667 137.312 4.42C137.712 4.5 138.052 4.72 138.332 5.08C138.465 5.26667 138.512 5.46667 138.472 5.68C138.432 5.84 138.338 5.97333 138.192 6.08C138.045 6.18667 137.892 6.21333 137.732 6.16C137.318 6.01333 136.912 5.96 136.512 6C136.112 6.04 135.718 6.07333 135.332 6.1C134.945 6.11333 134.558 6.14 134.172 6.18C133.785 6.22 133.398 6.25333 133.012 6.28C132.852 6.29333 132.758 6.31333 132.732 6.34C132.705 6.36667 132.692 6.46667 132.692 6.64C132.692 6.81333 132.692 7.09333 132.692 7.48C132.705 7.85333 132.712 8.26667 132.712 8.72C132.725 9.17333 132.738 9.59333 132.752 9.98C132.765 10.3667 132.772 10.6533 132.772 10.84ZM140.589 13.48C140.683 13.4133 140.743 13.3467 140.769 13.28C140.796 13.2 140.823 13.1333 140.849 13.08C140.969 12.8533 141.109 12.64 141.269 12.44C141.429 12.2267 141.623 12.0533 141.849 11.92C142.156 11.7333 142.456 11.6267 142.749 11.6C143.056 11.56 143.363 11.6333 143.669 11.82C143.896 11.94 144.063 12.12 144.169 12.36C144.289 12.6 144.323 12.84 144.269 13.08C144.229 13.3333 144.123 13.5 143.949 13.58C143.776 13.66 143.576 13.6333 143.349 13.5C143.229 13.4333 143.129 13.4 143.049 13.4C142.969 13.4 142.876 13.4533 142.769 13.56C142.716 13.6133 142.663 13.68 142.609 13.76C142.569 13.84 142.523 13.9133 142.469 13.98C142.376 14.1933 142.296 14.4067 142.229 14.62C142.163 14.82 142.096 15.0267 142.029 15.24C141.909 15.6533 141.796 16.0733 141.689 16.5C141.596 16.9133 141.516 17.3333 141.449 17.76C141.423 18.0267 141.396 18.2933 141.369 18.56C141.343 18.8267 141.329 19.0933 141.329 19.36C141.329 19.4533 141.323 19.5533 141.309 19.66C141.309 19.7667 141.289 19.8733 141.249 19.98C141.116 20.38 140.843 20.58 140.429 20.58C140.016 20.62 139.716 20.4533 139.529 20.08C139.476 19.9733 139.436 19.86 139.409 19.74C139.396 19.62 139.376 19.5133 139.349 19.42C139.256 18.86 139.176 18.3067 139.109 17.76C139.043 17.2 138.976 16.64 138.909 16.08C138.856 15.5333 138.823 14.98 138.809 14.42C138.796 13.8467 138.796 13.2733 138.809 12.7C138.809 12.3267 138.949 12.0533 139.229 11.88C139.469 11.7333 139.716 11.7133 139.969 11.82C140.223 11.9133 140.389 12.0933 140.469 12.36C140.549 12.5733 140.589 12.7867 140.589 13C140.576 13.0667 140.569 13.14 140.569 13.22C140.583 13.3 140.589 13.3867 140.589 13.48ZM145.196 16.42C145.196 15.7933 145.282 15.1933 145.456 14.62C145.642 14.0333 145.882 13.46 146.176 12.9C146.322 12.6333 146.496 12.38 146.696 12.14C146.896 11.9 147.122 11.6933 147.376 11.52C147.722 11.28 148.082 11.14 148.456 11.1C148.856 11.0733 149.216 11.16 149.536 11.36C149.856 11.56 150.102 11.8333 150.276 12.18C150.449 12.5133 150.502 12.8933 150.436 13.32C150.422 13.44 150.396 13.5667 150.356 13.7C150.316 13.8333 150.262 13.96 150.196 14.08C150.022 14.4133 149.816 14.7333 149.576 15.04C149.349 15.3333 149.069 15.5933 148.736 15.82C148.522 15.9667 148.296 16.0933 148.056 16.2C147.829 16.2933 147.582 16.3333 147.316 16.32C147.222 16.32 147.162 16.3333 147.136 16.36C147.122 16.3867 147.116 16.4467 147.116 16.54C147.102 16.7533 147.116 16.9667 147.156 17.18C147.196 17.3933 147.249 17.6067 147.316 17.82C147.396 17.9933 147.469 18.0933 147.536 18.12C147.602 18.1467 147.722 18.1067 147.896 18C148.149 17.8667 148.376 17.6867 148.576 17.46C148.696 17.3533 148.816 17.26 148.936 17.18C149.056 17.0867 149.176 16.9933 149.296 16.9C149.349 16.8467 149.429 16.7933 149.536 16.74C149.736 16.6733 149.902 16.6933 150.036 16.8C150.182 16.8933 150.256 17.0467 150.256 17.26C150.256 17.3533 150.249 17.4467 150.236 17.54C150.222 17.6333 150.202 17.7267 150.176 17.82C150.002 18.3267 149.756 18.7667 149.436 19.14C149.116 19.5133 148.682 19.7867 148.136 19.96C147.376 20.16 146.716 19.98 146.156 19.42C145.862 19.1267 145.656 18.8 145.536 18.44C145.416 18.08 145.322 17.7067 145.256 17.32C145.242 17.1733 145.229 17.0267 145.216 16.88C145.216 16.72 145.209 16.5667 145.196 16.42ZM148.936 13.12C148.936 13.0267 148.929 12.9467 148.916 12.88C148.902 12.8 148.862 12.7467 148.796 12.72C148.702 12.6667 148.582 12.7 148.436 12.82C148.382 12.8467 148.336 12.88 148.296 12.92C148.256 12.96 148.209 13.0067 148.156 13.06C147.982 13.2733 147.836 13.5067 147.716 13.76C147.609 14.0133 147.509 14.2667 147.416 14.52C147.349 14.6133 147.356 14.6867 147.436 14.74C147.462 14.7667 147.496 14.78 147.536 14.78C147.589 14.7667 147.629 14.7533 147.656 14.74C148.256 14.4067 148.676 13.9133 148.916 13.26C148.929 13.2333 148.936 13.2067 148.936 13.18C148.936 13.14 148.936 13.12 148.936 13.12ZM151.973 16.42C151.973 15.7933 152.06 15.1933 152.233 14.62C152.42 14.0333 152.66 13.46 152.953 12.9C153.1 12.6333 153.273 12.38 153.473 12.14C153.673 11.9 153.9 11.6933 154.153 11.52C154.5 11.28 154.86 11.14 155.233 11.1C155.633 11.0733 155.993 11.16 156.313 11.36C156.633 11.56 156.88 11.8333 157.053 12.18C157.226 12.5133 157.28 12.8933 157.213 13.32C157.2 13.44 157.173 13.5667 157.133 13.7C157.093 13.8333 157.04 13.96 156.973 14.08C156.8 14.4133 156.593 14.7333 156.353 15.04C156.126 15.3333 155.846 15.5933 155.513 15.82C155.3 15.9667 155.073 16.0933 154.833 16.2C154.606 16.2933 154.36 16.3333 154.093 16.32C154 16.32 153.94 16.3333 153.913 16.36C153.9 16.3867 153.893 16.4467 153.893 16.54C153.88 16.7533 153.893 16.9667 153.933 17.18C153.973 17.3933 154.026 17.6067 154.093 17.82C154.173 17.9933 154.246 18.0933 154.313 18.12C154.38 18.1467 154.5 18.1067 154.673 18C154.926 17.8667 155.153 17.6867 155.353 17.46C155.473 17.3533 155.593 17.26 155.713 17.18C155.833 17.0867 155.953 16.9933 156.073 16.9C156.126 16.8467 156.206 16.7933 156.313 16.74C156.513 16.6733 156.68 16.6933 156.813 16.8C156.96 16.8933 157.033 17.0467 157.033 17.26C157.033 17.3533 157.026 17.4467 157.013 17.54C157 17.6333 156.98 17.7267 156.953 17.82C156.78 18.3267 156.533 18.7667 156.213 19.14C155.893 19.5133 155.46 19.7867 154.913 19.96C154.153 20.16 153.493 19.98 152.933 19.42C152.64 19.1267 152.433 18.8 152.313 18.44C152.193 18.08 152.1 17.7067 152.033 17.32C152.02 17.1733 152.006 17.0267 151.993 16.88C151.993 16.72 151.986 16.5667 151.973 16.42ZM155.713 13.12C155.713 13.0267 155.706 12.9467 155.693 12.88C155.68 12.8 155.64 12.7467 155.573 12.72C155.48 12.6667 155.36 12.7 155.213 12.82C155.16 12.8467 155.113 12.88 155.073 12.92C155.033 12.96 154.986 13.0067 154.933 13.06C154.76 13.2733 154.613 13.5067 154.493 13.76C154.386 14.0133 154.286 14.2667 154.193 14.52C154.126 14.6133 154.133 14.6867 154.213 14.74C154.24 14.7667 154.273 14.78 154.313 14.78C154.366 14.7667 154.406 14.7533 154.433 14.74C155.033 14.4067 155.453 13.9133 155.693 13.26C155.706 13.2333 155.713 13.2067 155.713 13.18C155.713 13.14 155.713 13.12 155.713 13.12ZM164.862 19.12C165.169 18.8933 165.409 18.6533 165.582 18.4C165.822 18.0667 166.056 17.7267 166.282 17.38C166.522 17.0333 166.729 16.6733 166.902 16.3C166.916 16.2467 166.929 16.2067 166.942 16.18C166.956 16.14 166.962 16.1 166.962 16.06C166.976 15.78 167.136 15.6067 167.442 15.54C167.749 15.5133 167.976 15.6267 168.122 15.88C168.202 15.9733 168.249 16.0733 168.262 16.18C168.289 16.2733 168.302 16.38 168.302 16.5C168.249 17.2067 168.062 17.8867 167.742 18.54C167.342 19.3267 166.809 19.98 166.142 20.5C165.996 20.62 165.842 20.72 165.682 20.8C165.536 20.8933 165.369 20.96 165.182 21C164.849 21.08 164.516 21.0467 164.182 20.9C163.849 20.7667 163.582 20.5533 163.382 20.26C163.262 20.06 163.156 19.8533 163.062 19.64C162.969 19.4133 162.889 19.1867 162.822 18.96C162.649 18.4667 162.522 17.96 162.442 17.44C162.362 16.92 162.289 16.4 162.222 15.88C162.116 15.1333 162.036 14.3733 161.982 13.6C161.916 12.8267 161.882 12.0533 161.882 11.28C161.882 11.1333 161.869 11.0467 161.842 11.02C161.816 10.9933 161.722 10.9933 161.562 11.02C161.389 11.06 161.216 11.1067 161.042 11.16C160.856 11.2 160.669 11.2333 160.482 11.26C160.256 11.3133 160.016 11.28 159.762 11.16C159.522 11.0133 159.389 10.8133 159.362 10.56C159.336 10.2933 159.416 10.0667 159.602 9.88C159.789 9.72 159.989 9.60667 160.202 9.54C160.442 9.47333 160.682 9.40667 160.922 9.34C161.149 9.27333 161.382 9.21333 161.622 9.16C161.782 9.13333 161.882 9.10667 161.922 9.08C161.949 9.04 161.969 8.93333 161.982 8.76C161.996 8.30667 162.036 7.86 162.102 7.42C162.156 6.96667 162.242 6.51333 162.362 6.06C162.416 5.9 162.462 5.74 162.502 5.58C162.556 5.40667 162.629 5.24667 162.722 5.1C162.802 4.99333 162.882 4.9 162.962 4.82C163.042 4.72667 163.136 4.65333 163.242 4.6C163.496 4.42667 163.776 4.41333 164.082 4.56C164.216 4.65333 164.296 4.76667 164.322 4.9C164.362 5.03333 164.369 5.17333 164.342 5.32C164.316 5.61333 164.262 5.90667 164.182 6.2C164.102 6.48 164.049 6.77333 164.022 7.08C163.996 7.33333 163.962 7.58667 163.922 7.84C163.896 8.09333 163.869 8.35333 163.842 8.62C163.842 8.74 163.849 8.81333 163.862 8.84C163.889 8.85333 163.969 8.86 164.102 8.86C164.369 8.86 164.622 8.85333 164.862 8.84C165.102 8.82667 165.349 8.82 165.602 8.82C166.056 8.82 166.436 8.99333 166.742 9.34C166.822 9.40667 166.882 9.48667 166.922 9.58C166.976 9.66 167.009 9.74667 167.022 9.84C167.049 10.0667 166.976 10.2667 166.802 10.44C166.629 10.6 166.449 10.64 166.262 10.56C166.236 10.56 166.202 10.56 166.162 10.56C166.136 10.5467 166.102 10.5467 166.062 10.56C165.769 10.6667 165.469 10.7133 165.162 10.7C164.869 10.6867 164.569 10.7 164.262 10.74H163.982C163.822 10.74 163.742 10.82 163.742 10.98C163.769 11.2333 163.782 11.4867 163.782 11.74C163.782 11.98 163.789 12.2267 163.802 12.48C163.829 13.1333 163.876 13.7867 163.942 14.44C164.009 15.0933 164.096 15.74 164.202 16.38C164.242 16.7133 164.289 17.0467 164.342 17.38C164.409 17.7 164.489 18.0267 164.582 18.36C164.609 18.48 164.649 18.6 164.702 18.72C164.756 18.84 164.809 18.9733 164.862 19.12ZM175.784 15.58C175.718 16.8867 175.238 18.1067 174.344 19.24C174.184 19.4533 173.998 19.64 173.784 19.8C173.571 19.9467 173.331 20.06 173.064 20.14C172.544 20.26 172.044 20.2 171.564 19.96C171.391 19.8533 171.224 19.7267 171.064 19.58C170.904 19.42 170.771 19.2533 170.664 19.08C170.318 18.5333 170.084 17.9733 169.964 17.4C169.844 16.8133 169.804 16.2133 169.844 15.6C169.898 15.0533 170.018 14.5333 170.204 14.04C170.391 13.5333 170.664 13.0733 171.024 12.66C171.331 12.3267 171.698 12.12 172.124 12.04C172.324 11.9867 172.504 11.9867 172.664 12.04C172.824 12.08 172.978 12.16 173.124 12.28C173.164 12.32 173.211 12.3467 173.264 12.36C173.318 12.36 173.378 12.36 173.444 12.36C173.804 12.32 174.124 12.3733 174.404 12.52C174.698 12.6667 174.951 12.8867 175.164 13.18C175.404 13.5133 175.564 13.8733 175.644 14.26C175.738 14.6333 175.784 15.0733 175.784 15.58ZM172.944 14.08C172.798 14.08 172.644 14.1 172.484 14.14C172.351 14.14 172.251 14.1733 172.184 14.24C172.118 14.3067 172.058 14.4 172.004 14.52C171.818 15.0133 171.718 15.5067 171.704 16C171.704 16.4933 171.778 16.9933 171.924 17.5C172.004 17.7133 172.131 17.9333 172.304 18.16C172.398 18.2533 172.464 18.3067 172.504 18.32C172.558 18.32 172.631 18.2733 172.724 18.18C172.844 18.06 172.958 17.94 173.064 17.82C173.184 17.6867 173.284 17.5467 173.364 17.4C173.431 17.24 173.498 17.0733 173.564 16.9C173.644 16.7267 173.704 16.5533 173.744 16.38C173.811 16.1267 173.864 15.8733 173.904 15.62C173.944 15.3533 173.931 15.0867 173.864 14.82C173.798 14.54 173.698 14.3467 173.564 14.24C173.431 14.1333 173.224 14.08 172.944 14.08ZM186.257 18.46C186.164 18.5267 186.09 18.6133 186.037 18.72C185.997 18.8133 185.944 18.8933 185.877 18.96C185.744 19.16 185.597 19.3467 185.437 19.52C185.277 19.68 185.084 19.8067 184.857 19.9C184.484 20.0733 184.104 20.0867 183.717 19.94C183.344 19.78 183.084 19.5067 182.937 19.12C182.644 18.3733 182.557 17.66 182.677 16.98C182.81 16.3 183.117 15.6533 183.597 15.04C183.864 14.7067 184.177 14.4733 184.537 14.34C184.91 14.1933 185.317 14.1667 185.757 14.26C185.784 14.26 185.804 14.2667 185.817 14.28C185.844 14.28 185.87 14.28 185.897 14.28C185.95 14.1733 185.964 14.08 185.937 14C185.91 13.9067 185.89 13.8133 185.877 13.72C185.824 13.4267 185.757 13.1467 185.677 12.88C185.61 12.6133 185.524 12.3533 185.417 12.1C185.257 11.7533 185.11 11.5667 184.977 11.54C184.857 11.5133 184.657 11.62 184.377 11.86C183.937 12.2333 183.557 12.68 183.237 13.2C183.13 13.3333 183.077 13.4667 183.077 13.6C183.077 13.8933 182.937 14.08 182.657 14.16C182.564 14.1867 182.45 14.1733 182.317 14.12C182.184 14.0667 182.077 13.9933 181.997 13.9C181.824 13.6333 181.764 13.34 181.817 13.02C181.87 12.7133 181.957 12.4267 182.077 12.16C182.197 11.88 182.344 11.62 182.517 11.38C182.704 11.1133 182.904 10.8733 183.117 10.66C183.33 10.4333 183.57 10.2333 183.837 10.06C184.264 9.79333 184.724 9.68 185.217 9.72C185.724 9.74667 186.17 9.98 186.557 10.42C186.73 10.5933 186.864 10.7867 186.957 11C187.064 11.2 187.164 11.4133 187.257 11.64C187.404 12.0533 187.524 12.4733 187.617 12.9C187.724 13.3267 187.804 13.76 187.857 14.2C187.924 14.8 187.984 15.3933 188.037 15.98C188.09 16.5667 188.137 17.16 188.177 17.76C188.217 18.1067 188.217 18.46 188.177 18.82C188.15 19.22 187.984 19.5067 187.677 19.68C187.37 19.84 187.05 19.8133 186.717 19.6C186.584 19.5067 186.49 19.3933 186.437 19.26C186.384 19.1267 186.344 18.9867 186.317 18.84C186.304 18.7733 186.297 18.7133 186.297 18.66C186.297 18.5933 186.284 18.5267 186.257 18.46ZM184.557 18C184.77 17.7733 184.977 17.5533 185.177 17.34C185.377 17.1133 185.55 16.8667 185.697 16.6C185.737 16.52 185.73 16.4267 185.677 16.32C185.637 16.2 185.57 16.1133 185.477 16.06C185.384 15.9933 185.31 15.9867 185.257 16.04C185.217 16.08 185.164 16.1133 185.097 16.14C185.084 16.1667 185.064 16.1933 185.037 16.22C185.01 16.2467 184.99 16.2733 184.977 16.3C184.804 16.5533 184.677 16.82 184.597 17.1C184.517 17.3667 184.504 17.6667 184.557 18ZM193.144 19.12C193.45 18.8933 193.69 18.6533 193.864 18.4C194.104 18.0667 194.337 17.7267 194.564 17.38C194.804 17.0333 195.01 16.6733 195.184 16.3C195.197 16.2467 195.21 16.2067 195.224 16.18C195.237 16.14 195.244 16.1 195.244 16.06C195.257 15.78 195.417 15.6067 195.724 15.54C196.03 15.5133 196.257 15.6267 196.404 15.88C196.484 15.9733 196.53 16.0733 196.544 16.18C196.57 16.2733 196.584 16.38 196.584 16.5C196.53 17.2067 196.344 17.8867 196.024 18.54C195.624 19.3267 195.09 19.98 194.424 20.5C194.277 20.62 194.124 20.72 193.964 20.8C193.817 20.8933 193.65 20.96 193.464 21C193.13 21.08 192.797 21.0467 192.464 20.9C192.13 20.7667 191.864 20.5533 191.664 20.26C191.544 20.06 191.437 19.8533 191.344 19.64C191.25 19.4133 191.17 19.1867 191.104 18.96C190.93 18.4667 190.804 17.96 190.724 17.44C190.644 16.92 190.57 16.4 190.504 15.88C190.397 15.1333 190.317 14.3733 190.264 13.6C190.197 12.8267 190.164 12.0533 190.164 11.28C190.164 11.1333 190.15 11.0467 190.124 11.02C190.097 10.9933 190.004 10.9933 189.844 11.02C189.67 11.06 189.497 11.1067 189.324 11.16C189.137 11.2 188.95 11.2333 188.764 11.26C188.537 11.3133 188.297 11.28 188.044 11.16C187.804 11.0133 187.67 10.8133 187.644 10.56C187.617 10.2933 187.697 10.0667 187.884 9.88C188.07 9.72 188.27 9.60667 188.484 9.54C188.724 9.47333 188.964 9.40667 189.204 9.34C189.43 9.27333 189.664 9.21333 189.904 9.16C190.064 9.13333 190.164 9.10667 190.204 9.08C190.23 9.04 190.25 8.93333 190.264 8.76C190.277 8.30667 190.317 7.86 190.384 7.42C190.437 6.96667 190.524 6.51333 190.644 6.06C190.697 5.9 190.744 5.74 190.784 5.58C190.837 5.40667 190.91 5.24667 191.004 5.1C191.084 4.99333 191.164 4.9 191.244 4.82C191.324 4.72667 191.417 4.65333 191.524 4.6C191.777 4.42667 192.057 4.41333 192.364 4.56C192.497 4.65333 192.577 4.76667 192.604 4.9C192.644 5.03333 192.65 5.17333 192.624 5.32C192.597 5.61333 192.544 5.90667 192.464 6.2C192.384 6.48 192.33 6.77333 192.304 7.08C192.277 7.33333 192.244 7.58667 192.204 7.84C192.177 8.09333 192.15 8.35333 192.124 8.62C192.124 8.74 192.13 8.81333 192.144 8.84C192.17 8.85333 192.25 8.86 192.384 8.86C192.65 8.86 192.904 8.85333 193.144 8.84C193.384 8.82667 193.63 8.82 193.884 8.82C194.337 8.82 194.717 8.99333 195.024 9.34C195.104 9.40667 195.164 9.48667 195.204 9.58C195.257 9.66 195.29 9.74667 195.304 9.84C195.33 10.0667 195.257 10.2667 195.084 10.44C194.91 10.6 194.73 10.64 194.544 10.56C194.517 10.56 194.484 10.56 194.444 10.56C194.417 10.5467 194.384 10.5467 194.344 10.56C194.05 10.6667 193.75 10.7133 193.444 10.7C193.15 10.6867 192.85 10.7 192.544 10.74H192.264C192.104 10.74 192.024 10.82 192.024 10.98C192.05 11.2333 192.064 11.4867 192.064 11.74C192.064 11.98 192.07 12.2267 192.084 12.48C192.11 13.1333 192.157 13.7867 192.224 14.44C192.29 15.0933 192.377 15.74 192.484 16.38C192.524 16.7133 192.57 17.0467 192.624 17.38C192.69 17.7 192.77 18.0267 192.864 18.36C192.89 18.48 192.93 18.6 192.984 18.72C193.037 18.84 193.09 18.9733 193.144 19.12ZM201.835 19.12C202.142 18.8933 202.382 18.6533 202.555 18.4C202.795 18.0667 203.028 17.7267 203.255 17.38C203.495 17.0333 203.702 16.6733 203.875 16.3C203.888 16.2467 203.902 16.2067 203.915 16.18C203.928 16.14 203.935 16.1 203.935 16.06C203.948 15.78 204.108 15.6067 204.415 15.54C204.722 15.5133 204.948 15.6267 205.095 15.88C205.175 15.9733 205.222 16.0733 205.235 16.18C205.262 16.2733 205.275 16.38 205.275 16.5C205.222 17.2067 205.035 17.8867 204.715 18.54C204.315 19.3267 203.782 19.98 203.115 20.5C202.968 20.62 202.815 20.72 202.655 20.8C202.508 20.8933 202.342 20.96 202.155 21C201.822 21.08 201.488 21.0467 201.155 20.9C200.822 20.7667 200.555 20.5533 200.355 20.26C200.235 20.06 200.128 19.8533 200.035 19.64C199.942 19.4133 199.862 19.1867 199.795 18.96C199.622 18.4667 199.495 17.96 199.415 17.44C199.335 16.92 199.262 16.4 199.195 15.88C199.088 15.1333 199.008 14.3733 198.955 13.6C198.888 12.8267 198.855 12.0533 198.855 11.28C198.855 11.1333 198.842 11.0467 198.815 11.02C198.788 10.9933 198.695 10.9933 198.535 11.02C198.362 11.06 198.188 11.1067 198.015 11.16C197.828 11.2 197.642 11.2333 197.455 11.26C197.228 11.3133 196.988 11.28 196.735 11.16C196.495 11.0133 196.362 10.8133 196.335 10.56C196.308 10.2933 196.388 10.0667 196.575 9.88C196.762 9.72 196.962 9.60667 197.175 9.54C197.415 9.47333 197.655 9.40667 197.895 9.34C198.122 9.27333 198.355 9.21333 198.595 9.16C198.755 9.13333 198.855 9.10667 198.895 9.08C198.922 9.04 198.942 8.93333 198.955 8.76C198.968 8.30667 199.008 7.86 199.075 7.42C199.128 6.96667 199.215 6.51333 199.335 6.06C199.388 5.9 199.435 5.74 199.475 5.58C199.528 5.40667 199.602 5.24667 199.695 5.1C199.775 4.99333 199.855 4.9 199.935 4.82C200.015 4.72667 200.108 4.65333 200.215 4.6C200.468 4.42667 200.748 4.41333 201.055 4.56C201.188 4.65333 201.268 4.76667 201.295 4.9C201.335 5.03333 201.342 5.17333 201.315 5.32C201.288 5.61333 201.235 5.90667 201.155 6.2C201.075 6.48 201.022 6.77333 200.995 7.08C200.968 7.33333 200.935 7.58667 200.895 7.84C200.868 8.09333 200.842 8.35333 200.815 8.62C200.815 8.74 200.822 8.81333 200.835 8.84C200.862 8.85333 200.942 8.86 201.075 8.86C201.342 8.86 201.595 8.85333 201.835 8.84C202.075 8.82667 202.322 8.82 202.575 8.82C203.028 8.82 203.408 8.99333 203.715 9.34C203.795 9.40667 203.855 9.48667 203.895 9.58C203.948 9.66 203.982 9.74667 203.995 9.84C204.022 10.0667 203.948 10.2667 203.775 10.44C203.602 10.6 203.422 10.64 203.235 10.56C203.208 10.56 203.175 10.56 203.135 10.56C203.108 10.5467 203.075 10.5467 203.035 10.56C202.742 10.6667 202.442 10.7133 202.135 10.7C201.842 10.6867 201.542 10.7 201.235 10.74H200.955C200.795 10.74 200.715 10.82 200.715 10.98C200.742 11.2333 200.755 11.4867 200.755 11.74C200.755 11.98 200.762 12.2267 200.775 12.48C200.802 13.1333 200.848 13.7867 200.915 14.44C200.982 15.0933 201.068 15.74 201.175 16.38C201.215 16.7133 201.262 17.0467 201.315 17.38C201.382 17.7 201.462 18.0267 201.555 18.36C201.582 18.48 201.622 18.6 201.675 18.72C201.728 18.84 201.782 18.9733 201.835 19.12ZM206.797 16.42C206.797 15.7933 206.884 15.1933 207.057 14.62C207.244 14.0333 207.484 13.46 207.777 12.9C207.924 12.6333 208.097 12.38 208.297 12.14C208.497 11.9 208.724 11.6933 208.977 11.52C209.324 11.28 209.684 11.14 210.057 11.1C210.457 11.0733 210.817 11.16 211.137 11.36C211.457 11.56 211.704 11.8333 211.877 12.18C212.05 12.5133 212.104 12.8933 212.037 13.32C212.024 13.44 211.997 13.5667 211.957 13.7C211.917 13.8333 211.864 13.96 211.797 14.08C211.624 14.4133 211.417 14.7333 211.177 15.04C210.95 15.3333 210.67 15.5933 210.337 15.82C210.124 15.9667 209.897 16.0933 209.657 16.2C209.43 16.2933 209.184 16.3333 208.917 16.32C208.824 16.32 208.764 16.3333 208.737 16.36C208.724 16.3867 208.717 16.4467 208.717 16.54C208.704 16.7533 208.717 16.9667 208.757 17.18C208.797 17.3933 208.85 17.6067 208.917 17.82C208.997 17.9933 209.07 18.0933 209.137 18.12C209.204 18.1467 209.324 18.1067 209.497 18C209.75 17.8667 209.977 17.6867 210.177 17.46C210.297 17.3533 210.417 17.26 210.537 17.18C210.657 17.0867 210.777 16.9933 210.897 16.9C210.95 16.8467 211.03 16.7933 211.137 16.74C211.337 16.6733 211.504 16.6933 211.637 16.8C211.784 16.8933 211.857 17.0467 211.857 17.26C211.857 17.3533 211.85 17.4467 211.837 17.54C211.824 17.6333 211.804 17.7267 211.777 17.82C211.604 18.3267 211.357 18.7667 211.037 19.14C210.717 19.5133 210.284 19.7867 209.737 19.96C208.977 20.16 208.317 19.98 207.757 19.42C207.464 19.1267 207.257 18.8 207.137 18.44C207.017 18.08 206.924 17.7067 206.857 17.32C206.844 17.1733 206.83 17.0267 206.817 16.88C206.817 16.72 206.81 16.5667 206.797 16.42ZM210.537 13.12C210.537 13.0267 210.53 12.9467 210.517 12.88C210.504 12.8 210.464 12.7467 210.397 12.72C210.304 12.6667 210.184 12.7 210.037 12.82C209.984 12.8467 209.937 12.88 209.897 12.92C209.857 12.96 209.81 13.0067 209.757 13.06C209.584 13.2733 209.437 13.5067 209.317 13.76C209.21 14.0133 209.11 14.2667 209.017 14.52C208.95 14.6133 208.957 14.6867 209.037 14.74C209.064 14.7667 209.097 14.78 209.137 14.78C209.19 14.7667 209.23 14.7533 209.257 14.74C209.857 14.4067 210.277 13.9133 210.517 13.26C210.53 13.2333 210.537 13.2067 210.537 13.18C210.537 13.14 210.537 13.12 210.537 13.12ZM217.534 14.7C217.294 14.9133 217.121 15.1333 217.014 15.36C216.734 15.8533 216.508 16.3733 216.334 16.92C216.161 17.4667 216.028 18.0267 215.934 18.6C215.921 18.7333 215.894 18.8667 215.854 19C215.814 19.1333 215.761 19.2533 215.694 19.36C215.494 19.6933 215.228 19.84 214.894 19.8C214.721 19.8 214.574 19.7533 214.454 19.66C214.334 19.5667 214.228 19.4467 214.134 19.3C214.081 19.18 214.041 19.0533 214.014 18.92C214.001 18.7867 213.981 18.6533 213.954 18.52C213.888 17.9867 213.814 17.4533 213.734 16.92C213.668 16.3733 213.621 15.8333 213.594 15.3C213.568 14.94 213.568 14.58 213.594 14.22C213.621 13.86 213.661 13.5 213.714 13.14C213.714 13.0733 213.728 13.0133 213.754 12.96C213.781 12.8933 213.801 12.8333 213.814 12.78C213.934 12.4467 214.154 12.3 214.474 12.34C214.608 12.3533 214.728 12.4133 214.834 12.52C214.941 12.6267 215.001 12.7533 215.014 12.9C215.054 13.22 215.088 13.5333 215.114 13.84C215.154 14.1467 215.201 14.4533 215.254 14.76C215.268 14.8133 215.274 14.88 215.274 14.96C215.274 15.0267 215.294 15.0933 215.334 15.16C215.401 15.1333 215.441 15.1 215.454 15.06C215.468 15.0067 215.481 14.96 215.494 14.92C215.628 14.6533 215.761 14.3933 215.894 14.14C216.028 13.8733 216.181 13.6333 216.354 13.42C216.434 13.3133 216.514 13.2133 216.594 13.12C216.674 13.0133 216.768 12.92 216.874 12.84C217.221 12.56 217.594 12.4533 217.994 12.52C218.394 12.5733 218.721 12.7933 218.974 13.18C219.094 13.3933 219.188 13.62 219.254 13.86C219.321 14.0867 219.368 14.32 219.394 14.56C219.461 14.96 219.514 15.3667 219.554 15.78C219.608 16.18 219.661 16.58 219.714 16.98C219.741 17.22 219.774 17.46 219.814 17.7C219.868 17.9267 219.908 18.16 219.934 18.4C219.961 18.4933 219.994 18.5733 220.034 18.64C220.074 18.7067 220.141 18.7733 220.234 18.84C220.514 18.9867 220.601 19.22 220.494 19.54C220.374 19.8733 220.168 20.08 219.874 20.16C219.581 20.24 219.301 20.1733 219.034 19.96C218.914 19.8533 218.814 19.74 218.734 19.62C218.654 19.5 218.581 19.3733 218.514 19.24C218.301 18.8533 218.141 18.46 218.034 18.06C217.928 17.66 217.848 17.24 217.794 16.8C217.754 16.4933 217.721 16.18 217.694 15.86C217.668 15.54 217.621 15.2267 217.554 14.92C217.554 14.8933 217.548 14.8667 217.534 14.84C217.534 14.8 217.534 14.7533 217.534 14.7ZM226.233 17.32C226.113 17.5333 226.006 17.7267 225.913 17.9C225.833 18.06 225.74 18.2267 225.633 18.4C225.46 18.6533 225.28 18.8867 225.093 19.1C224.906 19.3 224.686 19.4867 224.433 19.66C223.953 19.98 223.453 20.1 222.933 20.02C222.346 19.9 221.893 19.5667 221.573 19.02C221.413 18.74 221.3 18.4533 221.233 18.16C221.166 17.8533 221.133 17.5333 221.133 17.2C221.146 16.3333 221.32 15.5467 221.653 14.84C221.986 14.1333 222.453 13.4867 223.053 12.9C223.24 12.74 223.433 12.5867 223.633 12.44C223.833 12.2933 224.06 12.2 224.313 12.16C224.54 12.1067 224.753 12.0867 224.953 12.1C225.166 12.1133 225.38 12.1533 225.593 12.22C225.62 12.2333 225.66 12.2467 225.713 12.26C225.766 12.26 225.82 12.2467 225.873 12.22C225.873 12.0067 225.873 11.7867 225.873 11.56C225.886 11.32 225.886 11.0867 225.873 10.86C225.873 10.34 225.893 9.83333 225.933 9.34C225.946 9.03333 225.946 8.73333 225.933 8.44C225.933 8.14667 225.933 7.85333 225.933 7.56C225.946 7.30667 225.953 7.04667 225.953 6.78C225.966 6.51333 225.986 6.25333 226.013 6C226.04 5.81333 226.073 5.63333 226.113 5.46C226.166 5.28667 226.246 5.12667 226.353 4.98C226.446 4.76667 226.606 4.66 226.833 4.66C227.1 4.62 227.3 4.72667 227.433 4.98C227.526 5.12667 227.593 5.28667 227.633 5.46C227.686 5.62 227.72 5.79333 227.733 5.98C227.773 6.31333 227.793 6.65333 227.793 7C227.806 7.34667 227.806 7.69333 227.793 8.04C227.793 8.84 227.786 9.64667 227.773 10.46C227.76 11.26 227.746 12.0667 227.733 12.88C227.733 13.3333 227.733 13.7867 227.733 14.24C227.746 14.68 227.746 15.1267 227.733 15.58C227.72 16.0333 227.713 16.4933 227.713 16.96C227.713 17.4133 227.74 17.8733 227.793 18.34C227.793 18.54 227.82 18.74 227.873 18.94C228.006 19.2867 227.906 19.5467 227.573 19.72C227.293 19.8533 227.033 19.7733 226.793 19.48C226.74 19.3867 226.693 19.2867 226.653 19.18C226.613 19.0733 226.58 18.9733 226.553 18.88C226.5 18.64 226.446 18.3933 226.393 18.14C226.353 17.8733 226.3 17.6 226.233 17.32ZM225.233 13.9C225.086 13.8733 224.96 13.8867 224.853 13.94C224.746 13.98 224.646 14.0333 224.553 14.1C224.433 14.18 224.326 14.2733 224.233 14.38C224.14 14.4733 224.046 14.58 223.953 14.7C223.633 15.1133 223.386 15.5467 223.213 16C223.053 16.4533 223 16.94 223.053 17.46C223.053 17.58 223.06 17.7133 223.073 17.86C223.1 17.9933 223.173 18.0733 223.293 18.1C223.4 18.1267 223.493 18.0933 223.573 18C223.666 17.8933 223.74 17.7933 223.793 17.7C224.06 17.34 224.273 16.9733 224.433 16.6C224.606 16.2267 224.753 15.8333 224.873 15.42C224.953 15.1667 225.02 14.92 225.073 14.68C225.126 14.4267 225.18 14.1667 225.233 13.9ZM231.153 18.66C231.153 18.7533 231.147 18.8333 231.133 18.9C231.133 18.9667 231.12 19.04 231.093 19.12C231 19.3867 230.887 19.66 230.753 19.94C230.62 20.2067 230.493 20.4733 230.373 20.74C230.293 20.9133 230.167 21.04 229.993 21.12C229.913 21.1467 229.84 21.16 229.773 21.16C229.707 21.1733 229.64 21.1533 229.573 21.1C229.44 21.02 229.407 20.88 229.473 20.68C229.567 20.3333 229.653 19.9867 229.733 19.64C229.813 19.2933 229.9 18.9467 229.993 18.6C230.007 18.56 230.02 18.5133 230.033 18.46C230.047 18.4067 230.06 18.3533 230.073 18.3C230.127 18.1933 230.193 18.1067 230.273 18.04C230.353 17.9733 230.46 17.94 230.593 17.94C230.833 17.94 231 18.06 231.093 18.3C231.12 18.3533 231.133 18.42 231.133 18.5C231.147 18.5667 231.153 18.62 231.153 18.66ZM117.304 36.84C117.224 37.0667 117.164 37.2867 117.124 37.5C117.084 37.7133 117.051 37.9267 117.024 38.14C116.984 38.6867 116.957 39.2467 116.944 39.82C116.944 40.38 116.944 40.94 116.944 41.5C116.944 41.6867 117.031 41.7533 117.204 41.7C117.604 41.6333 118.017 41.6133 118.444 41.64C118.911 41.68 119.131 41.92 119.104 42.36C119.104 42.5067 119.051 42.6267 118.944 42.72C118.851 42.8133 118.751 42.8933 118.644 42.96C118.431 43.0667 118.217 43.16 118.004 43.24C117.804 43.3067 117.597 43.3733 117.384 43.44C117.211 43.4933 117.111 43.5467 117.084 43.6C117.057 43.64 117.051 43.76 117.064 43.96C117.077 44.1333 117.091 44.3133 117.104 44.5C117.117 44.6867 117.111 44.8733 117.084 45.06C117.084 45.8333 117.064 46.5933 117.024 47.34C117.024 47.42 117.017 47.4867 117.004 47.54C117.004 47.6067 116.991 47.6733 116.964 47.74C116.817 47.9933 116.611 48.1133 116.344 48.1C116.224 48.1 116.111 48.0467 116.004 47.94C115.897 47.8467 115.817 47.7267 115.764 47.58C115.737 47.4467 115.704 47.3067 115.664 47.16C115.637 47.0133 115.611 46.8733 115.584 46.74C115.531 46.3667 115.464 45.9933 115.384 45.62C115.304 45.26 115.251 44.8867 115.224 44.5C115.211 44.42 115.204 44.3333 115.204 44.24C115.204 44.16 115.191 44.0867 115.164 44.02C115.164 43.9133 115.151 43.8133 115.124 43.72C115.111 43.6267 115.064 43.5333 114.984 43.44C114.771 43.1733 114.764 42.8733 114.964 42.54C115.057 42.38 115.104 42.2333 115.104 42.1C115.051 40.9533 115.051 39.8333 115.104 38.74C115.131 38.3533 115.164 37.96 115.204 37.56C115.257 37.1467 115.344 36.7467 115.464 36.36C115.544 36.1333 115.637 35.92 115.744 35.72C115.864 35.52 116.011 35.3467 116.184 35.2C116.451 34.9733 116.737 34.8467 117.044 34.82C117.351 34.7933 117.644 34.88 117.924 35.08C118.044 35.1467 118.151 35.2333 118.244 35.34C118.337 35.4467 118.424 35.56 118.504 35.68C118.837 36.2133 119.057 36.78 119.164 37.38C119.177 37.5267 119.177 37.68 119.164 37.84C119.164 38.1333 119.031 38.32 118.764 38.4C118.631 38.4533 118.511 38.46 118.404 38.42C118.297 38.3667 118.211 38.2933 118.144 38.2C118.091 38.1067 118.031 38.02 117.964 37.94C117.911 37.8467 117.871 37.7533 117.844 37.66C117.764 37.5133 117.684 37.3733 117.604 37.24C117.537 37.0933 117.437 36.96 117.304 36.84ZM125.583 42.24C125.53 42.3333 125.47 42.42 125.403 42.5C125.35 42.58 125.29 42.6667 125.223 42.76C125.13 42.8933 125.023 43.0267 124.903 43.16C124.797 43.28 124.677 43.3933 124.543 43.5C124.103 43.82 123.67 43.9467 123.243 43.88C122.817 43.8133 122.457 43.66 122.163 43.42C121.803 43.1133 121.543 42.7533 121.383 42.34C121.01 41.5 120.79 40.64 120.723 39.76C120.67 38.88 120.743 38 120.943 37.12C121.023 36.7067 121.203 36.3867 121.483 36.16C121.603 36.0533 121.73 35.98 121.863 35.94C121.997 35.8867 122.137 35.9 122.283 35.98C122.43 36.0333 122.537 36.1267 122.603 36.26C122.67 36.38 122.703 36.5133 122.703 36.66C122.703 36.78 122.703 36.9 122.703 37.02C122.703 37.14 122.697 37.2533 122.683 37.36C122.63 37.7733 122.603 38.1933 122.603 38.62C122.603 39.0333 122.63 39.4533 122.683 39.88C122.71 40.1733 122.75 40.4667 122.803 40.76C122.87 41.04 122.97 41.3133 123.103 41.58C123.13 41.6333 123.157 41.6733 123.183 41.7C123.263 41.8467 123.337 41.9333 123.403 41.96C123.47 41.9867 123.577 41.96 123.723 41.88C124.03 41.6933 124.27 41.4533 124.443 41.16C124.643 40.9067 124.797 40.6333 124.903 40.34C125.01 40.0467 125.097 39.7533 125.163 39.46C125.283 38.98 125.363 38.4933 125.403 38C125.443 37.5067 125.457 37.0133 125.443 36.52C125.443 36.1067 125.603 35.7867 125.923 35.56C126.19 35.3733 126.483 35.3333 126.803 35.44C127.137 35.5467 127.35 35.8067 127.443 36.22C127.497 36.4333 127.523 36.6533 127.523 36.88C127.537 37.0933 127.53 37.3133 127.503 37.54C127.49 38.2333 127.477 38.9267 127.463 39.62C127.45 40.3 127.463 40.9867 127.503 41.68C127.53 42.0133 127.537 42.36 127.523 42.72C127.51 43.08 127.497 43.4333 127.483 43.78C127.443 44.0733 127.29 44.28 127.023 44.4C126.89 44.4533 126.757 44.4533 126.623 44.4C126.49 44.3467 126.377 44.2667 126.283 44.16C126.203 44.0667 126.137 43.98 126.083 43.9C126.043 43.8067 126.01 43.7133 125.983 43.62C125.903 43.3933 125.83 43.1667 125.763 42.94C125.71 42.7133 125.65 42.48 125.583 42.24ZM130.923 42.1C130.923 42.2867 130.93 42.48 130.943 42.68C130.957 42.88 130.95 43.0867 130.923 43.3C130.923 43.3533 130.923 43.42 130.923 43.5C130.923 43.5667 130.917 43.64 130.903 43.72C130.863 43.9867 130.723 44.1467 130.483 44.2C130.217 44.2133 130.003 44.1333 129.843 43.96C129.75 43.8533 129.677 43.7333 129.623 43.6C129.583 43.4667 129.537 43.3333 129.483 43.2C129.43 42.96 129.383 42.72 129.343 42.48C129.317 42.24 129.297 42 129.283 41.76C129.203 41.0267 129.15 40.2933 129.123 39.56C129.11 38.8267 129.09 38.0933 129.063 37.36C129.05 36.3067 129.037 35.26 129.023 34.22C129.023 33.18 129.03 32.1333 129.043 31.08C129.043 30.9867 129.043 30.9 129.043 30.82C129.057 30.7267 129.077 30.6333 129.103 30.54C129.17 30.3533 129.277 30.2 129.423 30.08C129.57 29.9467 129.743 29.88 129.943 29.88C130.357 29.88 130.623 30.1 130.743 30.54C130.783 30.66 130.803 30.78 130.803 30.9C130.857 31.7667 130.89 32.6333 130.903 33.5C130.93 34.3667 130.95 35.2333 130.963 36.1C130.963 36.1933 130.963 36.4133 130.963 36.76C130.963 37.1067 130.963 37.52 130.963 38C130.963 38.4667 130.957 38.96 130.943 39.48C130.943 40 130.943 40.4933 130.943 40.96C130.943 41.4133 130.937 41.7933 130.923 42.1ZM134.341 42.1C134.341 42.2867 134.348 42.48 134.361 42.68C134.375 42.88 134.368 43.0867 134.341 43.3C134.341 43.3533 134.341 43.42 134.341 43.5C134.341 43.5667 134.335 43.64 134.321 43.72C134.281 43.9867 134.141 44.1467 133.901 44.2C133.635 44.2133 133.421 44.1333 133.261 43.96C133.168 43.8533 133.095 43.7333 133.041 43.6C133.001 43.4667 132.955 43.3333 132.901 43.2C132.848 42.96 132.801 42.72 132.761 42.48C132.735 42.24 132.715 42 132.701 41.76C132.621 41.0267 132.568 40.2933 132.541 39.56C132.528 38.8267 132.508 38.0933 132.481 37.36C132.468 36.3067 132.455 35.26 132.441 34.22C132.441 33.18 132.448 32.1333 132.461 31.08C132.461 30.9867 132.461 30.9 132.461 30.82C132.475 30.7267 132.495 30.6333 132.521 30.54C132.588 30.3533 132.695 30.2 132.841 30.08C132.988 29.9467 133.161 29.88 133.361 29.88C133.775 29.88 134.041 30.1 134.161 30.54C134.201 30.66 134.221 30.78 134.221 30.9C134.275 31.7667 134.308 32.6333 134.321 33.5C134.348 34.3667 134.368 35.2333 134.381 36.1C134.381 36.1933 134.381 36.4133 134.381 36.76C134.381 37.1067 134.381 37.52 134.381 38C134.381 38.4667 134.375 38.96 134.361 39.48C134.361 40 134.361 40.4933 134.361 40.96C134.361 41.4133 134.355 41.7933 134.341 42.1ZM140.219 41.1C140.099 41.2733 139.986 41.44 139.879 41.6C139.786 41.76 139.679 41.9133 139.559 42.06C139.412 42.2333 139.252 42.3933 139.079 42.54C138.919 42.6867 138.732 42.8067 138.519 42.9C138.012 43.0867 137.559 43.04 137.159 42.76C136.986 42.64 136.839 42.4933 136.719 42.32C136.612 42.1467 136.512 41.96 136.419 41.76C136.246 41.3867 136.112 41 136.019 40.6C135.939 40.1867 135.892 39.7733 135.879 39.36C135.879 39.0533 135.886 38.74 135.899 38.42C135.926 38.1 135.986 37.7933 136.079 37.5C136.132 37.2867 136.232 37.0867 136.379 36.9C136.459 36.8333 136.546 36.78 136.639 36.74C136.746 36.7 136.859 36.6933 136.979 36.72C137.192 36.7733 137.312 36.9333 137.339 37.2C137.366 37.3733 137.379 37.5533 137.379 37.74C137.379 37.9133 137.386 38.0933 137.399 38.28C137.399 38.76 137.419 39.2333 137.459 39.7C137.499 40.1667 137.579 40.6333 137.699 41.1C137.726 41.2067 137.759 41.3267 137.799 41.46C137.839 41.58 137.919 41.6533 138.039 41.68C138.159 41.7067 138.259 41.68 138.339 41.6C138.419 41.5067 138.499 41.42 138.579 41.34C138.766 41.1533 138.919 40.9533 139.039 40.74C139.172 40.5267 139.286 40.3 139.379 40.06C139.552 39.74 139.686 39.4133 139.779 39.08C139.886 38.7467 139.986 38.4133 140.079 38.08C140.106 37.96 140.112 37.84 140.099 37.72C140.099 37.6 140.099 37.48 140.099 37.36C140.099 37.1733 140.106 36.9933 140.119 36.82C140.132 36.6333 140.146 36.4533 140.159 36.28C140.199 36.0533 140.259 35.8733 140.339 35.74C140.512 35.5133 140.732 35.4067 140.999 35.42C141.266 35.4333 141.459 35.5667 141.579 35.82C141.672 35.9933 141.732 36.1733 141.759 36.36C141.786 36.5333 141.806 36.7133 141.819 36.9C141.886 37.38 141.926 37.8667 141.939 38.36C141.952 38.8533 141.959 39.3467 141.959 39.84C141.959 40.5867 141.959 41.3467 141.959 42.12C141.959 42.88 141.952 43.6333 141.939 44.38C141.926 44.8067 141.899 45.2333 141.859 45.66C141.819 46.1 141.746 46.5333 141.639 46.96C141.559 47.2667 141.446 47.5533 141.299 47.82C141.166 48.1 140.966 48.3533 140.699 48.58C140.526 48.7267 140.339 48.8267 140.139 48.88C139.939 48.9333 139.726 48.92 139.499 48.84C139.259 48.7733 139.072 48.6467 138.939 48.46C138.819 48.2733 138.739 48.0733 138.699 47.86C138.579 47.3533 138.546 46.86 138.599 46.38C138.626 46.2733 138.659 46.1667 138.699 46.06C138.739 45.9667 138.799 45.8867 138.879 45.82C138.919 45.7533 138.972 45.7 139.039 45.66C139.119 45.6333 139.192 45.6333 139.259 45.66C139.446 45.7267 139.546 45.84 139.559 46C139.559 46.04 139.566 46.0867 139.579 46.14C139.592 46.1933 139.599 46.2467 139.599 46.3C139.599 46.5667 139.666 46.8133 139.799 47.04C139.879 47.0267 139.932 46.9933 139.959 46.94C139.986 46.9 140.006 46.8533 140.019 46.8C140.086 46.5867 140.132 46.3733 140.159 46.16C140.199 45.96 140.219 45.7533 140.219 45.54C140.246 45.26 140.272 44.9733 140.299 44.68C140.326 44.4 140.339 44.12 140.339 43.84C140.326 43.3867 140.319 42.9333 140.319 42.48C140.319 42.0133 140.286 41.5533 140.219 41.1ZM150.429 36.84C150.349 37.0667 150.289 37.2867 150.249 37.5C150.209 37.7133 150.176 37.9267 150.149 38.14C150.109 38.6867 150.082 39.2467 150.069 39.82C150.069 40.38 150.069 40.94 150.069 41.5C150.069 41.6867 150.156 41.7533 150.329 41.7C150.729 41.6333 151.142 41.6133 151.569 41.64C152.036 41.68 152.256 41.92 152.229 42.36C152.229 42.5067 152.176 42.6267 152.069 42.72C151.976 42.8133 151.876 42.8933 151.769 42.96C151.556 43.0667 151.342 43.16 151.129 43.24C150.929 43.3067 150.722 43.3733 150.509 43.44C150.336 43.4933 150.236 43.5467 150.209 43.6C150.182 43.64 150.176 43.76 150.189 43.96C150.202 44.1333 150.216 44.3133 150.229 44.5C150.242 44.6867 150.236 44.8733 150.209 45.06C150.209 45.8333 150.189 46.5933 150.149 47.34C150.149 47.42 150.142 47.4867 150.129 47.54C150.129 47.6067 150.116 47.6733 150.089 47.74C149.942 47.9933 149.736 48.1133 149.469 48.1C149.349 48.1 149.236 48.0467 149.129 47.94C149.022 47.8467 148.942 47.7267 148.889 47.58C148.862 47.4467 148.829 47.3067 148.789 47.16C148.762 47.0133 148.736 46.8733 148.709 46.74C148.656 46.3667 148.589 45.9933 148.509 45.62C148.429 45.26 148.376 44.8867 148.349 44.5C148.336 44.42 148.329 44.3333 148.329 44.24C148.329 44.16 148.316 44.0867 148.289 44.02C148.289 43.9133 148.276 43.8133 148.249 43.72C148.236 43.6267 148.189 43.5333 148.109 43.44C147.896 43.1733 147.889 42.8733 148.089 42.54C148.182 42.38 148.229 42.2333 148.229 42.1C148.176 40.9533 148.176 39.8333 148.229 38.74C148.256 38.3533 148.289 37.96 148.329 37.56C148.382 37.1467 148.469 36.7467 148.589 36.36C148.669 36.1333 148.762 35.92 148.869 35.72C148.989 35.52 149.136 35.3467 149.309 35.2C149.576 34.9733 149.862 34.8467 150.169 34.82C150.476 34.7933 150.769 34.88 151.049 35.08C151.169 35.1467 151.276 35.2333 151.369 35.34C151.462 35.4467 151.549 35.56 151.629 35.68C151.962 36.2133 152.182 36.78 152.289 37.38C152.302 37.5267 152.302 37.68 152.289 37.84C152.289 38.1333 152.156 38.32 151.889 38.4C151.756 38.4533 151.636 38.46 151.529 38.42C151.422 38.3667 151.336 38.2933 151.269 38.2C151.216 38.1067 151.156 38.02 151.089 37.94C151.036 37.8467 150.996 37.7533 150.969 37.66C150.889 37.5133 150.809 37.3733 150.729 37.24C150.662 37.0933 150.562 36.96 150.429 36.84ZM158.708 42.24C158.655 42.3333 158.595 42.42 158.528 42.5C158.475 42.58 158.415 42.6667 158.348 42.76C158.255 42.8933 158.148 43.0267 158.028 43.16C157.922 43.28 157.802 43.3933 157.668 43.5C157.228 43.82 156.795 43.9467 156.368 43.88C155.942 43.8133 155.582 43.66 155.288 43.42C154.928 43.1133 154.668 42.7533 154.508 42.34C154.135 41.5 153.915 40.64 153.848 39.76C153.795 38.88 153.868 38 154.068 37.12C154.148 36.7067 154.328 36.3867 154.608 36.16C154.728 36.0533 154.855 35.98 154.988 35.94C155.122 35.8867 155.262 35.9 155.408 35.98C155.555 36.0333 155.662 36.1267 155.728 36.26C155.795 36.38 155.828 36.5133 155.828 36.66C155.828 36.78 155.828 36.9 155.828 37.02C155.828 37.14 155.822 37.2533 155.808 37.36C155.755 37.7733 155.728 38.1933 155.728 38.62C155.728 39.0333 155.755 39.4533 155.808 39.88C155.835 40.1733 155.875 40.4667 155.928 40.76C155.995 41.04 156.095 41.3133 156.228 41.58C156.255 41.6333 156.282 41.6733 156.308 41.7C156.388 41.8467 156.462 41.9333 156.528 41.96C156.595 41.9867 156.702 41.96 156.848 41.88C157.155 41.6933 157.395 41.4533 157.568 41.16C157.768 40.9067 157.922 40.6333 158.028 40.34C158.135 40.0467 158.222 39.7533 158.288 39.46C158.408 38.98 158.488 38.4933 158.528 38C158.568 37.5067 158.582 37.0133 158.568 36.52C158.568 36.1067 158.728 35.7867 159.048 35.56C159.315 35.3733 159.608 35.3333 159.928 35.44C160.262 35.5467 160.475 35.8067 160.568 36.22C160.622 36.4333 160.648 36.6533 160.648 36.88C160.662 37.0933 160.655 37.3133 160.628 37.54C160.615 38.2333 160.602 38.9267 160.588 39.62C160.575 40.3 160.588 40.9867 160.628 41.68C160.655 42.0133 160.662 42.36 160.648 42.72C160.635 43.08 160.622 43.4333 160.608 43.78C160.568 44.0733 160.415 44.28 160.148 44.4C160.015 44.4533 159.882 44.4533 159.748 44.4C159.615 44.3467 159.502 44.2667 159.408 44.16C159.328 44.0667 159.262 43.98 159.208 43.9C159.168 43.8067 159.135 43.7133 159.108 43.62C159.028 43.3933 158.955 43.1667 158.888 42.94C158.835 42.7133 158.775 42.48 158.708 42.24ZM166.128 38.7C165.888 38.9133 165.715 39.1333 165.608 39.36C165.328 39.8533 165.102 40.3733 164.928 40.92C164.755 41.4667 164.622 42.0267 164.528 42.6C164.515 42.7333 164.488 42.8667 164.448 43C164.408 43.1333 164.355 43.2533 164.288 43.36C164.088 43.6933 163.822 43.84 163.488 43.8C163.315 43.8 163.168 43.7533 163.048 43.66C162.928 43.5667 162.822 43.4467 162.728 43.3C162.675 43.18 162.635 43.0533 162.608 42.92C162.595 42.7867 162.575 42.6533 162.548 42.52C162.482 41.9867 162.408 41.4533 162.328 40.92C162.262 40.3733 162.215 39.8333 162.188 39.3C162.162 38.94 162.162 38.58 162.188 38.22C162.215 37.86 162.255 37.5 162.308 37.14C162.308 37.0733 162.322 37.0133 162.348 36.96C162.375 36.8933 162.395 36.8333 162.408 36.78C162.528 36.4467 162.748 36.3 163.068 36.34C163.202 36.3533 163.322 36.4133 163.428 36.52C163.535 36.6267 163.595 36.7533 163.608 36.9C163.648 37.22 163.682 37.5333 163.708 37.84C163.748 38.1467 163.795 38.4533 163.848 38.76C163.862 38.8133 163.868 38.88 163.868 38.96C163.868 39.0267 163.888 39.0933 163.928 39.16C163.995 39.1333 164.035 39.1 164.048 39.06C164.062 39.0067 164.075 38.96 164.088 38.92C164.222 38.6533 164.355 38.3933 164.488 38.14C164.622 37.8733 164.775 37.6333 164.948 37.42C165.028 37.3133 165.108 37.2133 165.188 37.12C165.268 37.0133 165.362 36.92 165.468 36.84C165.815 36.56 166.188 36.4533 166.588 36.52C166.988 36.5733 167.315 36.7933 167.568 37.18C167.688 37.3933 167.782 37.62 167.848 37.86C167.915 38.0867 167.962 38.32 167.988 38.56C168.055 38.96 168.108 39.3667 168.148 39.78C168.202 40.18 168.255 40.58 168.308 40.98C168.335 41.22 168.368 41.46 168.408 41.7C168.462 41.9267 168.502 42.16 168.528 42.4C168.555 42.4933 168.588 42.5733 168.628 42.64C168.668 42.7067 168.735 42.7733 168.828 42.84C169.108 42.9867 169.195 43.22 169.088 43.54C168.968 43.8733 168.762 44.08 168.468 44.16C168.175 44.24 167.895 44.1733 167.628 43.96C167.508 43.8533 167.408 43.74 167.328 43.62C167.248 43.5 167.175 43.3733 167.108 43.24C166.895 42.8533 166.735 42.46 166.628 42.06C166.522 41.66 166.442 41.24 166.388 40.8C166.348 40.4933 166.315 40.18 166.288 39.86C166.262 39.54 166.215 39.2267 166.148 38.92C166.148 38.8933 166.142 38.8667 166.128 38.84C166.128 38.8 166.128 38.7533 166.128 38.7ZM174.827 41.32C174.707 41.5333 174.6 41.7267 174.507 41.9C174.427 42.06 174.333 42.2267 174.227 42.4C174.053 42.6533 173.873 42.8867 173.687 43.1C173.5 43.3 173.28 43.4867 173.027 43.66C172.547 43.98 172.047 44.1 171.527 44.02C170.94 43.9 170.487 43.5667 170.167 43.02C170.007 42.74 169.893 42.4533 169.827 42.16C169.76 41.8533 169.727 41.5333 169.727 41.2C169.74 40.3333 169.913 39.5467 170.247 38.84C170.58 38.1333 171.047 37.4867 171.647 36.9C171.833 36.74 172.027 36.5867 172.227 36.44C172.427 36.2933 172.653 36.2 172.907 36.16C173.133 36.1067 173.347 36.0867 173.547 36.1C173.76 36.1133 173.973 36.1533 174.187 36.22C174.213 36.2333 174.253 36.2467 174.307 36.26C174.36 36.26 174.413 36.2467 174.467 36.22C174.467 36.0067 174.467 35.7867 174.467 35.56C174.48 35.32 174.48 35.0867 174.467 34.86C174.467 34.34 174.487 33.8333 174.527 33.34C174.54 33.0333 174.54 32.7333 174.527 32.44C174.527 32.1467 174.527 31.8533 174.527 31.56C174.54 31.3067 174.547 31.0467 174.547 30.78C174.56 30.5133 174.58 30.2533 174.607 30C174.633 29.8133 174.667 29.6333 174.707 29.46C174.76 29.2867 174.84 29.1267 174.947 28.98C175.04 28.7667 175.2 28.66 175.427 28.66C175.693 28.62 175.893 28.7267 176.027 28.98C176.12 29.1267 176.187 29.2867 176.227 29.46C176.28 29.62 176.313 29.7933 176.327 29.98C176.367 30.3133 176.387 30.6533 176.387 31C176.4 31.3467 176.4 31.6933 176.387 32.04C176.387 32.84 176.38 33.6467 176.367 34.46C176.353 35.26 176.34 36.0667 176.327 36.88C176.327 37.3333 176.327 37.7867 176.327 38.24C176.34 38.68 176.34 39.1267 176.327 39.58C176.313 40.0333 176.307 40.4933 176.307 40.96C176.307 41.4133 176.333 41.8733 176.387 42.34C176.387 42.54 176.413 42.74 176.467 42.94C176.6 43.2867 176.5 43.5467 176.167 43.72C175.887 43.8533 175.627 43.7733 175.387 43.48C175.333 43.3867 175.287 43.2867 175.247 43.18C175.207 43.0733 175.173 42.9733 175.147 42.88C175.093 42.64 175.04 42.3933 174.987 42.14C174.947 41.8733 174.893 41.6 174.827 41.32ZM173.827 37.9C173.68 37.8733 173.553 37.8867 173.447 37.94C173.34 37.98 173.24 38.0333 173.147 38.1C173.027 38.18 172.92 38.2733 172.827 38.38C172.733 38.4733 172.64 38.58 172.547 38.7C172.227 39.1133 171.98 39.5467 171.807 40C171.647 40.4533 171.593 40.94 171.647 41.46C171.647 41.58 171.653 41.7133 171.667 41.86C171.693 41.9933 171.767 42.0733 171.887 42.1C171.993 42.1267 172.087 42.0933 172.167 42C172.26 41.8933 172.333 41.7933 172.387 41.7C172.653 41.34 172.867 40.9733 173.027 40.6C173.2 40.2267 173.347 39.8333 173.467 39.42C173.547 39.1667 173.613 38.92 173.667 38.68C173.72 38.4267 173.773 38.1667 173.827 37.9ZM178.047 40.42C178.047 39.7933 178.134 39.1933 178.307 38.62C178.494 38.0333 178.734 37.46 179.027 36.9C179.174 36.6333 179.347 36.38 179.547 36.14C179.747 35.9 179.974 35.6933 180.227 35.52C180.574 35.28 180.934 35.14 181.307 35.1C181.707 35.0733 182.067 35.16 182.387 35.36C182.707 35.56 182.954 35.8333 183.127 36.18C183.3 36.5133 183.354 36.8933 183.287 37.32C183.274 37.44 183.247 37.5667 183.207 37.7C183.167 37.8333 183.114 37.96 183.047 38.08C182.874 38.4133 182.667 38.7333 182.427 39.04C182.2 39.3333 181.92 39.5933 181.587 39.82C181.374 39.9667 181.147 40.0933 180.907 40.2C180.68 40.2933 180.434 40.3333 180.167 40.32C180.074 40.32 180.014 40.3333 179.987 40.36C179.974 40.3867 179.967 40.4467 179.967 40.54C179.954 40.7533 179.967 40.9667 180.007 41.18C180.047 41.3933 180.1 41.6067 180.167 41.82C180.247 41.9933 180.32 42.0933 180.387 42.12C180.454 42.1467 180.574 42.1067 180.747 42C181 41.8667 181.227 41.6867 181.427 41.46C181.547 41.3533 181.667 41.26 181.787 41.18C181.907 41.0867 182.027 40.9933 182.147 40.9C182.2 40.8467 182.28 40.7933 182.387 40.74C182.587 40.6733 182.754 40.6933 182.887 40.8C183.034 40.8933 183.107 41.0467 183.107 41.26C183.107 41.3533 183.1 41.4467 183.087 41.54C183.074 41.6333 183.054 41.7267 183.027 41.82C182.854 42.3267 182.607 42.7667 182.287 43.14C181.967 43.5133 181.534 43.7867 180.987 43.96C180.227 44.16 179.567 43.98 179.007 43.42C178.714 43.1267 178.507 42.8 178.387 42.44C178.267 42.08 178.174 41.7067 178.107 41.32C178.094 41.1733 178.08 41.0267 178.067 40.88C178.067 40.72 178.06 40.5667 178.047 40.42ZM181.787 37.12C181.787 37.0267 181.78 36.9467 181.767 36.88C181.754 36.8 181.714 36.7467 181.647 36.72C181.554 36.6667 181.434 36.7 181.287 36.82C181.234 36.8467 181.187 36.88 181.147 36.92C181.107 36.96 181.06 37.0067 181.007 37.06C180.834 37.2733 180.687 37.5067 180.567 37.76C180.46 38.0133 180.36 38.2667 180.267 38.52C180.2 38.6133 180.207 38.6867 180.287 38.74C180.314 38.7667 180.347 38.78 180.387 38.78C180.44 38.7667 180.48 38.7533 180.507 38.74C181.107 38.4067 181.527 37.9133 181.767 37.26C181.78 37.2333 181.787 37.2067 181.787 37.18C181.787 37.14 181.787 37.12 181.787 37.12ZM189.924 41.32C189.804 41.5333 189.698 41.7267 189.604 41.9C189.524 42.06 189.431 42.2267 189.324 42.4C189.151 42.6533 188.971 42.8867 188.784 43.1C188.598 43.3 188.378 43.4867 188.124 43.66C187.644 43.98 187.144 44.1 186.624 44.02C186.038 43.9 185.584 43.5667 185.264 43.02C185.104 42.74 184.991 42.4533 184.924 42.16C184.858 41.8533 184.824 41.5333 184.824 41.2C184.838 40.3333 185.011 39.5467 185.344 38.84C185.678 38.1333 186.144 37.4867 186.744 36.9C186.931 36.74 187.124 36.5867 187.324 36.44C187.524 36.2933 187.751 36.2 188.004 36.16C188.231 36.1067 188.444 36.0867 188.644 36.1C188.858 36.1133 189.071 36.1533 189.284 36.22C189.311 36.2333 189.351 36.2467 189.404 36.26C189.458 36.26 189.511 36.2467 189.564 36.22C189.564 36.0067 189.564 35.7867 189.564 35.56C189.578 35.32 189.578 35.0867 189.564 34.86C189.564 34.34 189.584 33.8333 189.624 33.34C189.638 33.0333 189.638 32.7333 189.624 32.44C189.624 32.1467 189.624 31.8533 189.624 31.56C189.638 31.3067 189.644 31.0467 189.644 30.78C189.658 30.5133 189.678 30.2533 189.704 30C189.731 29.8133 189.764 29.6333 189.804 29.46C189.858 29.2867 189.938 29.1267 190.044 28.98C190.138 28.7667 190.298 28.66 190.524 28.66C190.791 28.62 190.991 28.7267 191.124 28.98C191.218 29.1267 191.284 29.2867 191.324 29.46C191.378 29.62 191.411 29.7933 191.424 29.98C191.464 30.3133 191.484 30.6533 191.484 31C191.498 31.3467 191.498 31.6933 191.484 32.04C191.484 32.84 191.478 33.6467 191.464 34.46C191.451 35.26 191.438 36.0667 191.424 36.88C191.424 37.3333 191.424 37.7867 191.424 38.24C191.438 38.68 191.438 39.1267 191.424 39.58C191.411 40.0333 191.404 40.4933 191.404 40.96C191.404 41.4133 191.431 41.8733 191.484 42.34C191.484 42.54 191.511 42.74 191.564 42.94C191.698 43.2867 191.598 43.5467 191.264 43.72C190.984 43.8533 190.724 43.7733 190.484 43.48C190.431 43.3867 190.384 43.2867 190.344 43.18C190.304 43.0733 190.271 42.9733 190.244 42.88C190.191 42.64 190.138 42.3933 190.084 42.14C190.044 41.8733 189.991 41.6 189.924 41.32ZM188.924 37.9C188.778 37.8733 188.651 37.8867 188.544 37.94C188.438 37.98 188.338 38.0333 188.244 38.1C188.124 38.18 188.018 38.2733 187.924 38.38C187.831 38.4733 187.738 38.58 187.644 38.7C187.324 39.1133 187.078 39.5467 186.904 40C186.744 40.4533 186.691 40.94 186.744 41.46C186.744 41.58 186.751 41.7133 186.764 41.86C186.791 41.9933 186.864 42.0733 186.984 42.1C187.091 42.1267 187.184 42.0933 187.264 42C187.358 41.8933 187.431 41.7933 187.484 41.7C187.751 41.34 187.964 40.9733 188.124 40.6C188.298 40.2267 188.444 39.8333 188.564 39.42C188.644 39.1667 188.711 38.92 188.764 38.68C188.818 38.4267 188.871 38.1667 188.924 37.9ZM199.637 37.14C199.704 37.0733 199.764 37 199.817 36.92C199.884 36.84 199.944 36.7667 199.997 36.7C200.437 36.22 200.944 35.98 201.517 35.98C202.09 35.9667 202.597 36.2333 203.037 36.78C203.29 37.1 203.477 37.4533 203.597 37.84C203.717 38.2133 203.777 38.6 203.777 39C203.804 39.8267 203.704 40.62 203.477 41.38C203.25 42.1267 202.864 42.8333 202.317 43.5C202.13 43.7267 201.917 43.92 201.677 44.08C201.41 44.2533 201.13 44.4 200.837 44.52C200.557 44.6533 200.257 44.7333 199.937 44.76C199.777 44.7867 199.697 44.8867 199.697 45.06C199.697 45.3133 199.697 45.5667 199.697 45.82C199.71 46.0733 199.73 46.3333 199.757 46.6C199.81 47.12 199.864 47.6333 199.917 48.14C199.984 48.66 200.03 49.1867 200.057 49.72C200.057 49.84 200.057 49.9533 200.057 50.06C200.057 50.1667 200.05 50.2733 200.037 50.38C199.93 50.82 199.657 51.06 199.217 51.1C198.83 51.1267 198.55 50.9267 198.377 50.5C198.297 50.2067 198.237 49.9333 198.197 49.68C198.104 48.9733 198.024 48.2733 197.957 47.58C197.904 46.9 197.844 46.2133 197.777 45.52C197.737 44.7333 197.704 43.9533 197.677 43.18C197.664 42.4067 197.65 41.6333 197.637 40.86C197.624 40.3667 197.617 39.8733 197.617 39.38C197.63 38.8867 197.644 38.3933 197.657 37.9C197.684 37.6733 197.71 37.4467 197.737 37.22C197.764 36.9933 197.79 36.7667 197.817 36.54C197.844 36.4067 197.884 36.2733 197.937 36.14C197.99 35.9933 198.07 35.8667 198.177 35.76C198.417 35.52 198.677 35.4333 198.957 35.5C199.25 35.5667 199.45 35.7533 199.557 36.06C199.584 36.1667 199.604 36.28 199.617 36.4C199.644 36.52 199.644 36.64 199.617 36.76C199.604 36.8133 199.59 36.8733 199.577 36.94C199.577 36.9933 199.577 37.0533 199.577 37.12C199.604 37.12 199.617 37.1267 199.617 37.14C199.63 37.14 199.637 37.14 199.637 37.14ZM201.437 37.86C200.93 38.6867 200.564 39.5533 200.337 40.46C200.11 41.3533 199.93 42.2667 199.797 43.2C199.917 43.1867 200.004 43.1533 200.057 43.1C200.124 43.0333 200.184 42.98 200.237 42.94C200.89 42.4067 201.337 41.8 201.577 41.12C201.817 40.4267 201.924 39.6733 201.897 38.86C201.884 38.6867 201.844 38.52 201.777 38.36C201.724 38.2 201.61 38.0333 201.437 37.86ZM207.093 37.48C207.187 37.4133 207.247 37.3467 207.273 37.28C207.3 37.2 207.327 37.1333 207.353 37.08C207.473 36.8533 207.613 36.64 207.773 36.44C207.933 36.2267 208.127 36.0533 208.353 35.92C208.66 35.7333 208.96 35.6267 209.253 35.6C209.56 35.56 209.867 35.6333 210.173 35.82C210.4 35.94 210.567 36.12 210.673 36.36C210.793 36.6 210.827 36.84 210.773 37.08C210.733 37.3333 210.627 37.5 210.453 37.58C210.28 37.66 210.08 37.6333 209.853 37.5C209.733 37.4333 209.633 37.4 209.553 37.4C209.473 37.4 209.38 37.4533 209.273 37.56C209.22 37.6133 209.167 37.68 209.113 37.76C209.073 37.84 209.027 37.9133 208.973 37.98C208.88 38.1933 208.8 38.4067 208.733 38.62C208.667 38.82 208.6 39.0267 208.533 39.24C208.413 39.6533 208.3 40.0733 208.193 40.5C208.1 40.9133 208.02 41.3333 207.953 41.76C207.927 42.0267 207.9 42.2933 207.873 42.56C207.847 42.8267 207.833 43.0933 207.833 43.36C207.833 43.4533 207.827 43.5533 207.813 43.66C207.813 43.7667 207.793 43.8733 207.753 43.98C207.62 44.38 207.347 44.58 206.933 44.58C206.52 44.62 206.22 44.4533 206.033 44.08C205.98 43.9733 205.94 43.86 205.913 43.74C205.9 43.62 205.88 43.5133 205.853 43.42C205.76 42.86 205.68 42.3067 205.613 41.76C205.547 41.2 205.48 40.64 205.413 40.08C205.36 39.5333 205.327 38.98 205.313 38.42C205.3 37.8467 205.3 37.2733 205.313 36.7C205.313 36.3267 205.453 36.0533 205.733 35.88C205.973 35.7333 206.22 35.7133 206.473 35.82C206.727 35.9133 206.893 36.0933 206.973 36.36C207.053 36.5733 207.093 36.7867 207.093 37C207.08 37.0667 207.073 37.14 207.073 37.22C207.087 37.3 207.093 37.3867 207.093 37.48ZM217.659 39.58C217.593 40.8867 217.113 42.1067 216.219 43.24C216.059 43.4533 215.873 43.64 215.659 43.8C215.446 43.9467 215.206 44.06 214.939 44.14C214.419 44.26 213.919 44.2 213.439 43.96C213.266 43.8533 213.099 43.7267 212.939 43.58C212.779 43.42 212.646 43.2533 212.539 43.08C212.193 42.5333 211.959 41.9733 211.839 41.4C211.719 40.8133 211.679 40.2133 211.719 39.6C211.773 39.0533 211.893 38.5333 212.079 38.04C212.266 37.5333 212.539 37.0733 212.899 36.66C213.206 36.3267 213.573 36.12 213.999 36.04C214.199 35.9867 214.379 35.9867 214.539 36.04C214.699 36.08 214.853 36.16 214.999 36.28C215.039 36.32 215.086 36.3467 215.139 36.36C215.193 36.36 215.253 36.36 215.319 36.36C215.679 36.32 215.999 36.3733 216.279 36.52C216.573 36.6667 216.826 36.8867 217.039 37.18C217.279 37.5133 217.439 37.8733 217.519 38.26C217.613 38.6333 217.659 39.0733 217.659 39.58ZM214.819 38.08C214.673 38.08 214.519 38.1 214.359 38.14C214.226 38.14 214.126 38.1733 214.059 38.24C213.993 38.3067 213.933 38.4 213.879 38.52C213.693 39.0133 213.593 39.5067 213.579 40C213.579 40.4933 213.653 40.9933 213.799 41.5C213.879 41.7133 214.006 41.9333 214.179 42.16C214.273 42.2533 214.339 42.3067 214.379 42.32C214.433 42.32 214.506 42.2733 214.599 42.18C214.719 42.06 214.833 41.94 214.939 41.82C215.059 41.6867 215.159 41.5467 215.239 41.4C215.306 41.24 215.373 41.0733 215.439 40.9C215.519 40.7267 215.579 40.5533 215.619 40.38C215.686 40.1267 215.739 39.8733 215.779 39.62C215.819 39.3533 215.806 39.0867 215.739 38.82C215.673 38.54 215.573 38.3467 215.439 38.24C215.306 38.1333 215.099 38.08 214.819 38.08ZM223.16 40.96C223.107 41.08 223.047 41.2 222.98 41.32C222.927 41.44 222.867 41.56 222.8 41.68C222.733 41.84 222.647 42 222.54 42.16C222.433 42.32 222.313 42.46 222.18 42.58C221.847 42.8867 221.48 43.0333 221.08 43.02C220.68 43.0067 220.327 42.8267 220.02 42.48C219.847 42.2933 219.707 42.08 219.6 41.84C219.507 41.5867 219.427 41.3333 219.36 41.08C219.053 39.92 219.113 38.78 219.54 37.66C219.673 37.3 219.84 36.96 220.04 36.64C220.253 36.32 220.527 36.0467 220.86 35.82C221.193 35.5933 221.533 35.4533 221.88 35.4C222.227 35.3333 222.587 35.3733 222.96 35.52C223.067 35.5467 223.16 35.5667 223.24 35.58C223.333 35.5933 223.427 35.5733 223.52 35.52C223.787 35.4133 224.047 35.44 224.3 35.6C224.567 35.7467 224.727 35.96 224.78 36.24C224.86 36.5867 224.913 36.9333 224.94 37.28C224.967 37.6267 224.987 37.9733 225 38.32C225.04 39.0667 225.067 39.82 225.08 40.58C225.093 41.3267 225.087 42.0733 225.06 42.82C225.047 43.18 225.02 43.5467 224.98 43.92C224.953 44.28 224.88 44.64 224.76 45C224.64 45.4133 224.473 45.7933 224.26 46.14C224.06 46.5 223.807 46.82 223.5 47.1C223.26 47.3133 222.987 47.4533 222.68 47.52C222.293 47.6 221.92 47.5133 221.56 47.26C221.213 47.0067 221.007 46.6867 220.94 46.3C220.913 46.06 220.987 45.8867 221.16 45.78C221.227 45.74 221.3 45.7133 221.38 45.7C221.473 45.6867 221.567 45.7067 221.66 45.76C221.74 45.8 221.807 45.84 221.86 45.88C221.913 45.9333 221.967 45.9933 222.02 46.06C222.14 46.1533 222.26 46.1333 222.38 46C222.633 45.64 222.807 45.26 222.9 44.86C223.047 44.2333 223.133 43.5933 223.16 42.94C223.187 42.2733 223.187 41.6133 223.16 40.96ZM221.34 40.98C221.473 40.8733 221.573 40.7533 221.64 40.62C221.72 40.4733 221.8 40.3133 221.88 40.14C222.04 39.74 222.173 39.3267 222.28 38.9C222.4 38.46 222.493 38.0133 222.56 37.56C222.6 37.2533 222.473 37.1467 222.18 37.24C222.02 37.2933 221.88 37.38 221.76 37.5C221.653 37.62 221.567 37.74 221.5 37.86C221.433 37.98 221.367 38.1133 221.3 38.26C221.167 38.5933 221.093 38.94 221.08 39.3C221.067 39.66 221.08 40.02 221.12 40.38C221.147 40.4867 221.167 40.5933 221.18 40.7C221.207 40.7933 221.26 40.8867 221.34 40.98ZM228.402 37.48C228.495 37.4133 228.555 37.3467 228.582 37.28C228.608 37.2 228.635 37.1333 228.662 37.08C228.782 36.8533 228.922 36.64 229.082 36.44C229.242 36.2267 229.435 36.0533 229.662 35.92C229.968 35.7333 230.268 35.6267 230.562 35.6C230.868 35.56 231.175 35.6333 231.482 35.82C231.708 35.94 231.875 36.12 231.982 36.36C232.102 36.6 232.135 36.84 232.082 37.08C232.042 37.3333 231.935 37.5 231.762 37.58C231.588 37.66 231.388 37.6333 231.162 37.5C231.042 37.4333 230.942 37.4 230.862 37.4C230.782 37.4 230.688 37.4533 230.582 37.56C230.528 37.6133 230.475 37.68 230.422 37.76C230.382 37.84 230.335 37.9133 230.282 37.98C230.188 38.1933 230.108 38.4067 230.042 38.62C229.975 38.82 229.908 39.0267 229.842 39.24C229.722 39.6533 229.608 40.0733 229.502 40.5C229.408 40.9133 229.328 41.3333 229.262 41.76C229.235 42.0267 229.208 42.2933 229.182 42.56C229.155 42.8267 229.142 43.0933 229.142 43.36C229.142 43.4533 229.135 43.5533 229.122 43.66C229.122 43.7667 229.102 43.8733 229.062 43.98C228.928 44.38 228.655 44.58 228.242 44.58C227.828 44.62 227.528 44.4533 227.342 44.08C227.288 43.9733 227.248 43.86 227.222 43.74C227.208 43.62 227.188 43.5133 227.162 43.42C227.068 42.86 226.988 42.3067 226.922 41.76C226.855 41.2 226.788 40.64 226.722 40.08C226.668 39.5333 226.635 38.98 226.622 38.42C226.608 37.8467 226.608 37.2733 226.622 36.7C226.622 36.3267 226.762 36.0533 227.042 35.88C227.282 35.7333 227.528 35.7133 227.782 35.82C228.035 35.9133 228.202 36.0933 228.282 36.36C228.362 36.5733 228.402 36.7867 228.402 37C228.388 37.0667 228.382 37.14 228.382 37.22C228.395 37.3 228.402 37.3867 228.402 37.48ZM237.468 42.46C237.375 42.5267 237.301 42.6133 237.248 42.72C237.208 42.8133 237.155 42.8933 237.088 42.96C236.955 43.16 236.808 43.3467 236.648 43.52C236.488 43.68 236.295 43.8067 236.068 43.9C235.695 44.0733 235.315 44.0867 234.928 43.94C234.555 43.78 234.295 43.5067 234.148 43.12C233.855 42.3733 233.768 41.66 233.888 40.98C234.021 40.3 234.328 39.6533 234.808 39.04C235.075 38.7067 235.388 38.4733 235.748 38.34C236.121 38.1933 236.528 38.1667 236.968 38.26C236.995 38.26 237.015 38.2667 237.028 38.28C237.055 38.28 237.081 38.28 237.108 38.28C237.161 38.1733 237.175 38.08 237.148 38C237.121 37.9067 237.101 37.8133 237.088 37.72C237.035 37.4267 236.968 37.1467 236.888 36.88C236.821 36.6133 236.735 36.3533 236.628 36.1C236.468 35.7533 236.321 35.5667 236.188 35.54C236.068 35.5133 235.868 35.62 235.588 35.86C235.148 36.2333 234.768 36.68 234.448 37.2C234.341 37.3333 234.288 37.4667 234.288 37.6C234.288 37.8933 234.148 38.08 233.868 38.16C233.775 38.1867 233.661 38.1733 233.528 38.12C233.395 38.0667 233.288 37.9933 233.208 37.9C233.035 37.6333 232.975 37.34 233.028 37.02C233.081 36.7133 233.168 36.4267 233.288 36.16C233.408 35.88 233.555 35.62 233.728 35.38C233.915 35.1133 234.115 34.8733 234.328 34.66C234.541 34.4333 234.781 34.2333 235.048 34.06C235.475 33.7933 235.935 33.68 236.428 33.72C236.935 33.7467 237.381 33.98 237.768 34.42C237.941 34.5933 238.075 34.7867 238.168 35C238.275 35.2 238.375 35.4133 238.468 35.64C238.615 36.0533 238.735 36.4733 238.828 36.9C238.935 37.3267 239.015 37.76 239.068 38.2C239.135 38.8 239.195 39.3933 239.248 39.98C239.301 40.5667 239.348 41.16 239.388 41.76C239.428 42.1067 239.428 42.46 239.388 42.82C239.361 43.22 239.195 43.5067 238.888 43.68C238.581 43.84 238.261 43.8133 237.928 43.6C237.795 43.5067 237.701 43.3933 237.648 43.26C237.595 43.1267 237.555 42.9867 237.528 42.84C237.515 42.7733 237.508 42.7133 237.508 42.66C237.508 42.5933 237.495 42.5267 237.468 42.46ZM235.768 42C235.981 41.7733 236.188 41.5533 236.388 41.34C236.588 41.1133 236.761 40.8667 236.908 40.6C236.948 40.52 236.941 40.4267 236.888 40.32C236.848 40.2 236.781 40.1133 236.688 40.06C236.595 39.9933 236.521 39.9867 236.468 40.04C236.428 40.08 236.375 40.1133 236.308 40.14C236.295 40.1667 236.275 40.1933 236.248 40.22C236.221 40.2467 236.201 40.2733 236.188 40.3C236.015 40.5533 235.888 40.82 235.808 41.1C235.728 41.3667 235.715 41.6667 235.768 42ZM243.038 38.74C243.078 38.62 243.118 38.5 243.158 38.38C243.198 38.26 243.244 38.1467 243.298 38.04C243.551 37.4133 243.911 36.8733 244.378 36.42C244.524 36.3 244.664 36.2 244.798 36.12C244.944 36.04 245.104 36 245.278 36C245.571 36 245.804 36.0733 245.978 36.22C246.151 36.3667 246.298 36.5533 246.418 36.78C246.484 36.9 246.531 37.0267 246.558 37.16C246.584 37.2933 246.618 37.4267 246.658 37.56C246.738 37.52 246.791 37.4733 246.818 37.42C246.844 37.3533 246.864 37.2933 246.878 37.24C247.011 36.9733 247.151 36.72 247.298 36.48C247.458 36.24 247.644 36.02 247.858 35.82C248.244 35.4867 248.671 35.3133 249.138 35.3C249.604 35.2867 250.011 35.5333 250.358 36.04C250.544 36.2933 250.678 36.56 250.758 36.84C250.838 37.12 250.904 37.4 250.958 37.68C251.051 38.2533 251.111 38.82 251.138 39.38C251.164 39.94 251.144 40.5067 251.078 41.08C251.024 41.3467 250.991 41.6133 250.978 41.88C250.964 42.1333 250.944 42.3933 250.918 42.66C250.904 42.7933 250.918 42.9467 250.958 43.12C250.984 43.2667 250.958 43.4067 250.878 43.54C250.811 43.6733 250.704 43.76 250.558 43.8C250.424 43.8533 250.291 43.86 250.158 43.82C250.038 43.7667 249.931 43.6733 249.838 43.54C249.758 43.3533 249.698 43.1733 249.658 43C249.604 42.5867 249.544 42.1733 249.478 41.76C249.411 41.3467 249.344 40.94 249.278 40.54C249.251 40.2733 249.231 40.0067 249.218 39.74C249.218 39.4733 249.218 39.2067 249.218 38.94C249.204 38.7133 249.178 38.4933 249.138 38.28C249.098 38.0667 249.064 37.8467 249.038 37.62C249.024 37.5533 249.004 37.4867 248.978 37.42C248.964 37.3533 248.924 37.2933 248.858 37.24C248.711 37.3067 248.584 37.4 248.478 37.52C248.371 37.6267 248.264 37.7533 248.158 37.9C247.984 38.1667 247.818 38.4533 247.658 38.76C247.511 39.0533 247.378 39.3533 247.258 39.66C247.164 39.9533 247.071 40.2533 246.978 40.56C246.898 40.8533 246.831 41.1533 246.778 41.46C246.764 41.5667 246.758 41.6733 246.758 41.78C246.758 41.8733 246.744 41.9667 246.718 42.06C246.691 42.5267 246.471 42.78 246.058 42.82C245.671 42.8867 245.411 42.6933 245.278 42.24C245.211 42.0133 245.164 41.7867 245.138 41.56C245.124 41.3333 245.091 41.1133 245.038 40.9C244.998 40.5133 244.964 40.1333 244.938 39.76C244.924 39.3867 244.911 39.0133 244.898 38.64C244.898 38.56 244.878 38.5133 244.838 38.5C244.758 38.54 244.704 38.6 244.678 38.68C244.651 38.7467 244.624 38.8133 244.598 38.88C244.051 40.2533 243.758 41.6667 243.718 43.12C243.718 43.2133 243.711 43.32 243.698 43.44C243.684 43.56 243.644 43.6733 243.578 43.78C243.404 44.0333 243.178 44.1667 242.898 44.18C242.618 44.2067 242.371 44.1 242.158 43.86C242.024 43.6867 241.924 43.46 241.858 43.18C241.738 42.7267 241.631 42.2667 241.538 41.8C241.444 41.3333 241.364 40.8733 241.298 40.42C241.204 39.86 241.124 39.3067 241.058 38.76C240.991 38.2 240.958 37.64 240.958 37.08C240.944 36.8933 240.944 36.7 240.958 36.5C240.971 36.3 241.011 36.1067 241.078 35.92C241.158 35.7733 241.271 35.6467 241.418 35.54C241.564 35.4333 241.711 35.3867 241.858 35.4C242.031 35.4 242.178 35.4533 242.298 35.56C242.431 35.6667 242.524 35.8067 242.578 35.98C242.644 36.14 242.678 36.3067 242.678 36.48C242.691 36.64 242.711 36.8133 242.738 37C242.804 37.4933 242.864 38.0133 242.918 38.56C242.918 38.6267 242.958 38.6867 243.038 38.74Z" fill="black"/>
<g clip-path="url(#clip0_144_989)">
<path d="M114 22.4965C114 22.4965 167.058 21.5319 220.499 23.071C228.15 23.2908 228.762 25.1703 219.088 24.6833C193.675 23.402 138.093 23.2885 133.242 25.4422C126.321 28.5155 150.478 24.915 184.554 24.915C218.63 24.915 219.833 27.7519 219.833 27.7519" fill="white"/>
<path d="M114 22.4964C149.04 21.7919 184.186 21.8108 219.21 22.721C221.676 22.799 224.279 22.8013 226.361 23.5318C227.165 23.8297 227.277 24.39 226.313 24.6784C225.365 24.9787 224.162 25.0331 223.129 25.0732C221.5 25.1229 219.881 25.0567 218.332 24.9787C209.051 24.5484 199.723 24.3569 190.395 24.2316C174.858 24.0519 159.252 23.9574 143.774 24.6146C140.782 24.7754 137.603 24.9196 134.808 25.3829C134.11 25.5012 133.706 25.6383 133.216 25.9031C132.998 26.0189 132.801 26.1513 132.747 26.2293C132.726 26.2695 132.747 26.2553 132.726 26.2458C134.02 26.4941 135.745 26.3546 137.177 26.3381C146.468 25.9598 155.749 25.3333 165.077 25.0567C177.526 24.6477 190.07 24.6004 202.497 25.1773C207.129 25.416 211.847 25.7234 216.181 26.5177C217.544 26.8038 219.157 27.1135 219.823 27.7518C219.525 27.4255 218.848 27.2151 218.215 27.0284C217.288 26.7541 216.09 26.5555 215.047 26.383C204.957 25.0449 194.239 25.1158 183.798 25.0898C168.181 25.0945 152.762 26.13 137.278 26.9291C136.086 26.9716 134.877 27.0071 133.663 26.9645C132.955 26.9244 132.05 26.896 131.549 26.5532C130.878 26.0023 132.273 25.4231 133.104 25.0922C134.872 24.5886 136.991 24.4515 138.94 24.2765C143.582 23.9267 148.284 23.7777 152.975 23.6548C174.821 23.2103 196.725 23.3593 218.486 24.3215C220.691 24.4208 223.007 24.5602 225.067 24.2482C225.355 24.2009 225.557 24.1134 225.557 24.1063C225.546 24.1063 225.557 24.1205 225.546 24.1016C225.158 23.851 224.354 23.7281 223.576 23.617C222.133 23.4255 220.643 23.3876 219.115 23.3498C184.133 22.3782 149.045 22.1796 114 22.4964Z" fill="black"/>
</g>
<g clip-path="url(#clip1_144_989)">
<path d="M24.76 60.99C15 65.6 11.96 70.74 11.96 70.74C11.96 70.74 8.88 71.66 0.500003 55.39" stroke="black" stroke-miterlimit="10" stroke-linecap="round"/>
<path opacity="0.95" d="M11.9609 64.53C11.9609 64.53 17.1309 36.96 54.6809 33.18C87.8709 29.84 102.111 39.94 102.111 39.94" stroke="black" stroke-miterlimit="10" stroke-linecap="round"/>
</g>
<path d="M269.801 47.025C269.251 47.025 268.78 46.825 268.388 46.425C267.997 46.025 267.801 45.55 267.801 45C267.801 44.45 267.997 43.9792 268.388 43.5875C268.78 43.1958 269.251 43 269.801 43L270.401 42.425C270.534 42.2917 270.688 42.1875 270.863 42.1125C271.038 42.0375 271.217 42 271.401 42C271.784 42 272.113 42.1417 272.388 42.425C272.663 42.7083 272.801 43.0417 272.801 43.425V43.85C272.801 44.1833 272.909 44.4583 273.126 44.675C273.342 44.8917 273.617 45 273.951 45C274.201 45 274.426 44.925 274.626 44.775C274.826 44.625 274.967 44.4333 275.051 44.2L275.351 43.375C275.501 42.975 275.742 42.6458 276.076 42.3875C276.409 42.1292 276.792 42 277.226 42C277.409 41.5333 277.555 41.05 277.663 40.55C277.772 40.05 277.826 39.5333 277.826 39C277.826 37.5167 277.455 36.1625 276.713 34.9375C275.972 33.7125 275.001 32.75 273.801 32.05V33C273.801 33.55 273.605 34.0208 273.213 34.4125C272.822 34.8042 272.351 35 271.801 35H270.801V37C270.801 37.2833 270.705 37.5208 270.513 37.7125C270.322 37.9042 270.084 38 269.801 38H268.801V39.7C268.801 40.0667 268.676 40.375 268.426 40.625C268.176 40.875 267.867 41 267.501 41C267.267 41 267.055 40.95 266.863 40.85C266.672 40.75 266.517 40.6083 266.401 40.425L264.801 38H263.801V39C263.801 39.5167 263.626 39.9583 263.276 40.325C262.926 40.6917 262.509 40.9083 262.026 40.975C262.459 42.7083 263.397 44.15 264.838 45.3C266.28 46.45 267.934 47.025 269.801 47.025ZM271.801 41C271.517 41 271.28 40.9042 271.088 40.7125C270.897 40.5208 270.801 40.2833 270.801 40C270.801 39.7167 270.897 39.4792 271.088 39.2875C271.28 39.0958 271.517 39 271.801 39H272.801C273.084 39 273.322 39.0958 273.513 39.2875C273.705 39.4792 273.801 39.7167 273.801 40C273.801 40.2833 273.705 40.5208 273.513 40.7125C273.322 40.9042 273.084 41 272.801 41H271.801ZM274.126 38C273.792 38 273.53 37.8708 273.338 37.6125C273.147 37.3542 273.101 37.0667 273.201 36.75L273.576 35.65C273.642 35.45 273.759 35.2917 273.926 35.175C274.092 35.0583 274.276 35 274.476 35C274.809 35 275.072 35.1292 275.263 35.3875C275.455 35.6458 275.501 35.9333 275.401 36.25L275.026 37.35C274.959 37.55 274.842 37.7083 274.676 37.825C274.509 37.9417 274.326 38 274.126 38ZM269.801 49C268.417 49 267.117 48.7375 265.901 48.2125C264.684 47.6875 263.626 46.975 262.726 46.075C261.826 45.175 261.113 44.1167 260.588 42.9C260.063 41.6833 259.801 40.3833 259.801 39C259.801 37.6167 260.063 36.3167 260.588 35.1C261.113 33.8833 261.826 32.825 262.726 31.925C263.626 31.025 264.684 30.3125 265.901 29.7875C267.117 29.2625 268.417 29 269.801 29C271.184 29 272.484 29.2625 273.701 29.7875C274.917 30.3125 275.976 31.025 276.876 31.925C277.776 32.825 278.488 33.8833 279.013 35.1C279.538 36.3167 279.801 37.6167 279.801 39C279.801 40.3833 279.538 41.6833 279.013 42.9C278.488 44.1167 277.776 45.175 276.876 46.075C275.976 46.975 274.917 47.6875 273.701 48.2125C272.484 48.7375 271.184 49 269.801 49Z" fill="black"/>
<defs>
<clipPath id="clip0_144_989">
<rect width="113" height="5.75426" fill="white" transform="translate(114 22)"/>
</clipPath>
<clipPath id="clip1_144_989">
<rect width="102.61" height="39.25" fill="white" transform="matrix(1 1.74846e-07 1.74846e-07 -1 0 71.25)"/>
</clipPath>
</defs>
</svg>
