<svg width="320" height="59" viewBox="0 0 320 59" fill="none" xmlns="http://www.w3.org/2000/svg">
<path d="M16.2334 9.3C16.2868 9.9 16.3201 10.5 16.3334 11.1C16.3601 11.7 16.4001 12.3 16.4534 12.9C16.4801 13.2867 16.5001 13.6733 16.5134 14.06C16.5401 14.4467 16.5668 14.8333 16.5934 15.22C16.6201 15.7933 16.6468 16.36 16.6734 16.92C16.7134 17.4667 16.7601 18.02 16.8134 18.58C16.8268 18.6733 16.8468 18.7733 16.8734 18.88C16.9001 18.9733 16.9201 19.0733 16.9334 19.18C16.9468 19.2733 16.9334 19.3733 16.8934 19.48C16.8534 19.5867 16.7868 19.6733 16.6934 19.74C16.4934 19.8733 16.2801 19.8533 16.0534 19.68C15.8801 19.5467 15.7534 19.36 15.6734 19.12C15.5534 18.8533 15.4601 18.5733 15.3934 18.28C15.3268 17.9733 15.2668 17.6733 15.2134 17.38C15.0801 16.54 14.9734 15.6933 14.8934 14.84C14.8134 13.9867 14.7534 13.1333 14.7134 12.28C14.7001 11.9733 14.6801 11.6667 14.6534 11.36C14.6268 11.04 14.6068 10.7333 14.5934 10.44C14.5534 9.4 14.5334 8.36 14.5334 7.32C14.5334 7.09333 14.5401 6.87333 14.5534 6.66C14.5668 6.43333 14.5868 6.21333 14.6134 6C14.6401 5.86667 14.6401 5.78667 14.6134 5.76C14.6001 5.72 14.5334 5.7 14.4134 5.7C13.8801 5.71333 13.3468 5.73333 12.8134 5.76C12.2801 5.78667 11.7601 5.84 11.2534 5.92C11.1601 5.93333 11.0601 5.94667 10.9534 5.96C10.8601 5.96 10.7601 5.95333 10.6534 5.94C10.3601 5.87333 10.1601 5.69333 10.0534 5.4C9.97344 5.08 10.0868 4.82 10.3934 4.62C10.5268 4.51333 10.6934 4.44667 10.8934 4.42C11.4534 4.27333 12.0068 4.17333 12.5534 4.12C13.1134 4.05333 13.6801 4.01333 14.2534 4C14.7334 4 15.2134 4.01333 15.6934 4.04C16.1734 4.06667 16.6534 4.1 17.1334 4.14C17.7201 4.19333 18.3001 4.26 18.8734 4.34C19.4601 4.42 20.0334 4.55333 20.5934 4.74C20.6868 4.76667 20.7734 4.8 20.8534 4.84C20.9468 4.86667 21.0401 4.90667 21.1334 4.96C21.4934 5.10667 21.6401 5.34667 21.5734 5.68C21.5068 6 21.2868 6.16 20.9134 6.16C20.5268 6.16 20.1401 6.15333 19.7534 6.14C19.3801 6.12667 19.0001 6.09333 18.6134 6.04C18.2668 5.98667 17.9134 5.94667 17.5534 5.92C17.1934 5.88 16.8334 5.84 16.4734 5.8C16.3534 5.77333 16.2801 5.78 16.2534 5.82C16.2401 5.84667 16.2334 5.92 16.2334 6.04C16.2068 6.30667 16.2001 6.58 16.2134 6.86C16.2268 7.14 16.2334 7.41333 16.2334 7.68V9.3ZM21.7391 13.56C21.7924 13.4133 21.8324 13.2667 21.8591 13.12C21.8991 12.96 21.9391 12.8 21.9791 12.64C22.0324 12.4533 22.0991 12.28 22.1791 12.12C22.2591 11.96 22.3657 11.8133 22.4991 11.68C22.7257 11.4533 22.9857 11.3133 23.2791 11.26C23.5724 11.2067 23.8591 11.2667 24.1391 11.44C24.4857 11.6667 24.7391 11.9867 24.8991 12.4C25.0591 12.7733 25.1724 13.16 25.2391 13.56C25.3191 13.96 25.3857 14.36 25.4391 14.76C25.4791 15.36 25.4791 15.9533 25.4391 16.54C25.3991 17.1267 25.3457 17.7133 25.2791 18.3C25.2657 18.4067 25.2391 18.5133 25.1991 18.62C25.1724 18.7133 25.1191 18.8067 25.0391 18.9C24.9724 19.0067 24.8724 19.0867 24.7391 19.14C24.6191 19.1933 24.4991 19.1933 24.3791 19.14C24.1524 19.0867 24.0257 18.9067 23.9991 18.6C23.9457 18.1067 23.8857 17.6133 23.8191 17.12C23.7657 16.6267 23.7057 16.1333 23.6391 15.64C23.5857 15.3467 23.5524 15.06 23.5391 14.78C23.5257 14.5 23.4857 14.2267 23.4191 13.96C23.3657 13.96 23.3324 13.98 23.3191 14.02C23.3057 14.0467 23.2924 14.0733 23.2791 14.1C22.9857 14.78 22.7457 15.4733 22.5591 16.18C22.3857 16.8733 22.2657 17.5933 22.1991 18.34C22.1857 18.5533 22.1591 18.7667 22.1191 18.98C22.0924 19.1933 22.0657 19.4067 22.0391 19.62C21.9724 20.0467 21.7324 20.28 21.3191 20.32C21.1591 20.32 21.0057 20.2533 20.8591 20.12C20.7124 20 20.6257 19.8467 20.5991 19.66C20.5591 19.4467 20.5257 19.24 20.4991 19.04C20.4857 18.84 20.4724 18.6333 20.4591 18.42C20.4057 17.9533 20.3524 17.4867 20.2991 17.02C20.2457 16.54 20.1991 16.0667 20.1591 15.6C20.1057 15.0533 20.0524 14.5133 19.9991 13.98C19.9457 13.4333 19.9057 12.8933 19.8791 12.36C19.8524 11.88 19.8324 11.4067 19.8191 10.94C19.8057 10.4733 19.7991 10 19.7991 9.52C19.7991 9.01333 19.7991 8.5 19.7991 7.98C19.8124 7.44667 19.8724 6.92667 19.9791 6.42C20.0057 6.26 20.0391 6.10667 20.0791 5.96C20.1324 5.8 20.2057 5.65333 20.2991 5.52C20.4057 5.36 20.5391 5.24 20.6991 5.16C20.8724 5.08 21.0391 5.07333 21.1991 5.14C21.5591 5.22 21.7391 5.48 21.7391 5.92C21.7657 6.70667 21.7524 7.5 21.6991 8.3C21.6591 9.1 21.6457 9.89333 21.6591 10.68C21.6724 11.16 21.6724 11.64 21.6591 12.12C21.6591 12.6 21.6591 13.08 21.6591 13.56H21.7391ZM28.1866 10.12C27.7999 10.2933 27.4666 10.24 27.1866 9.96C27.0932 9.85333 27.0332 9.71333 27.0066 9.54C26.9799 9.36667 26.9999 9.2 27.0666 9.04C27.1466 8.86667 27.2799 8.72667 27.4666 8.62C27.6532 8.5 27.8399 8.44 28.0266 8.44C28.4132 8.44 28.6732 8.62 28.8066 8.98C28.8732 9.14 28.8799 9.30667 28.8266 9.48C28.7866 9.64 28.6932 9.78 28.5466 9.9C28.4932 9.95333 28.4332 10 28.3666 10.04C28.3132 10.0667 28.2532 10.0933 28.1866 10.12ZM28.9866 18.42C29.0399 18.7 28.9532 18.9 28.7266 19.02C28.4866 19.14 28.2466 19.1133 28.0066 18.94C27.8999 18.8467 27.8199 18.74 27.7666 18.62C27.7132 18.5 27.6599 18.3733 27.6066 18.24C27.5666 18.0533 27.5266 17.86 27.4866 17.66C27.4599 17.46 27.4332 17.2667 27.4066 17.08C27.3266 16.4133 27.2599 15.7467 27.2066 15.08C27.1666 14.4 27.1732 13.7267 27.2266 13.06C27.2399 12.9133 27.2599 12.7667 27.2866 12.62C27.3132 12.46 27.3732 12.3133 27.4666 12.18C27.5332 12.0467 27.6199 11.94 27.7266 11.86C27.8466 11.78 27.9866 11.74 28.1466 11.74C28.4532 11.7533 28.6732 11.9133 28.8066 12.22C28.9266 12.46 28.9866 12.72 28.9866 13V15.76C28.9732 15.92 28.9599 16.1133 28.9466 16.34C28.9332 16.5667 28.9266 16.8133 28.9266 17.08C28.9266 17.2933 28.9266 17.5133 28.9266 17.74C28.9399 17.9667 28.9599 18.1933 28.9866 18.42ZM34.0017 18.48C33.9084 18.4533 33.8151 18.4267 33.7217 18.4C33.6417 18.36 33.5551 18.3267 33.4617 18.3C31.6484 17.6067 30.6684 16.3067 30.5217 14.4C30.4684 13.7867 30.5617 13.22 30.8017 12.7C31.0417 12.18 31.4151 11.74 31.9217 11.38C32.2417 11.1533 32.5751 11.0067 32.9217 10.94C33.2684 10.8733 33.6284 10.94 34.0017 11.14C34.1217 11.1933 34.2351 11.2667 34.3417 11.36C34.4617 11.4533 34.5551 11.56 34.6217 11.68C35.3284 12.7467 35.4484 13.8733 34.9817 15.06C34.9417 15.2067 34.8484 15.32 34.7017 15.4C34.5684 15.48 34.4351 15.5067 34.3017 15.48C33.9951 15.4533 33.8217 15.2467 33.7817 14.86C33.7817 14.6733 33.7817 14.4933 33.7817 14.32C33.7951 14.1333 33.7884 13.9533 33.7617 13.78C33.7484 13.6333 33.7151 13.4933 33.6617 13.36C33.6217 13.2133 33.5551 13.08 33.4617 12.96C33.3151 12.8 33.1617 12.78 33.0017 12.9C32.8417 13.0333 32.7151 13.1933 32.6217 13.38C32.5284 13.5533 32.4551 13.7467 32.4017 13.96C32.3351 14.4133 32.4284 14.8667 32.6817 15.32C32.9484 15.7733 33.2684 16.1 33.6417 16.3C33.8684 16.42 34.0951 16.52 34.3217 16.6C34.5484 16.6667 34.7884 16.7267 35.0417 16.78C35.1617 16.8067 35.2751 16.84 35.3817 16.88C35.5017 16.92 35.6217 16.9533 35.7417 16.98C36.0484 17.1 36.2684 17.3 36.4017 17.58C36.5351 17.8467 36.5617 18.14 36.4817 18.46C36.4284 18.7533 36.2817 19.02 36.0417 19.26C35.7484 19.5933 35.4151 19.8733 35.0417 20.1C34.6684 20.3267 34.2884 20.5467 33.9017 20.76C33.6617 20.88 33.4217 20.9867 33.1817 21.08C32.9551 21.1867 32.7084 21.26 32.4417 21.3C32.3217 21.3133 32.2017 21.3133 32.0817 21.3C31.9751 21.2867 31.8617 21.2667 31.7417 21.24C31.4084 21.1333 31.2084 20.94 31.1417 20.66C31.0751 20.3933 31.0884 20.1467 31.1817 19.92C31.2484 19.7333 31.3484 19.5733 31.4817 19.44C31.5884 19.3467 31.6951 19.2867 31.8017 19.26C31.9217 19.2333 32.0351 19.2533 32.1417 19.32C32.2351 19.3733 32.3151 19.3933 32.3817 19.38C32.4484 19.3667 32.5151 19.3467 32.5817 19.32C32.7684 19.2133 32.9551 19.1133 33.1417 19.02C33.3417 18.9267 33.5351 18.8267 33.7217 18.72C33.7751 18.6933 33.8284 18.66 33.8817 18.62C33.9351 18.58 33.9751 18.5333 34.0017 18.48ZM42.5139 16.42C42.5139 15.7933 42.6006 15.1933 42.7739 14.62C42.9606 14.0333 43.2006 13.46 43.4939 12.9C43.6406 12.6333 43.8139 12.38 44.0139 12.14C44.2139 11.9 44.4406 11.6933 44.6939 11.52C45.0406 11.28 45.4006 11.14 45.7739 11.1C46.1739 11.0733 46.5339 11.16 46.8539 11.36C47.1739 11.56 47.4206 11.8333 47.5939 12.18C47.7672 12.5133 47.8206 12.8933 47.7539 13.32C47.7406 13.44 47.7139 13.5667 47.6739 13.7C47.6339 13.8333 47.5806 13.96 47.5139 14.08C47.3406 14.4133 47.1339 14.7333 46.8939 15.04C46.6672 15.3333 46.3872 15.5933 46.0539 15.82C45.8406 15.9667 45.6139 16.0933 45.3739 16.2C45.1472 16.2933 44.9006 16.3333 44.6339 16.32C44.5406 16.32 44.4806 16.3333 44.4539 16.36C44.4406 16.3867 44.4339 16.4467 44.4339 16.54C44.4206 16.7533 44.4339 16.9667 44.4739 17.18C44.5139 17.3933 44.5672 17.6067 44.6339 17.82C44.7139 17.9933 44.7872 18.0933 44.8539 18.12C44.9206 18.1467 45.0406 18.1067 45.2139 18C45.4672 17.8667 45.6939 17.6867 45.8939 17.46C46.0139 17.3533 46.1339 17.26 46.2539 17.18C46.3739 17.0867 46.4939 16.9933 46.6139 16.9C46.6672 16.8467 46.7472 16.7933 46.8539 16.74C47.0539 16.6733 47.2206 16.6933 47.3539 16.8C47.5006 16.8933 47.5739 17.0467 47.5739 17.26C47.5739 17.3533 47.5672 17.4467 47.5539 17.54C47.5406 17.6333 47.5206 17.7267 47.4939 17.82C47.3206 18.3267 47.0739 18.7667 46.7539 19.14C46.4339 19.5133 46.0006 19.7867 45.4539 19.96C44.6939 20.16 44.0339 19.98 43.4739 19.42C43.1806 19.1267 42.9739 18.8 42.8539 18.44C42.7339 18.08 42.6406 17.7067 42.5739 17.32C42.5606 17.1733 42.5472 17.0267 42.5339 16.88C42.5339 16.72 42.5272 16.5667 42.5139 16.42ZM46.2539 13.12C46.2539 13.0267 46.2472 12.9467 46.2339 12.88C46.2206 12.8 46.1806 12.7467 46.1139 12.72C46.0206 12.6667 45.9006 12.7 45.7539 12.82C45.7006 12.8467 45.6539 12.88 45.6139 12.92C45.5739 12.96 45.5272 13.0067 45.4739 13.06C45.3006 13.2733 45.1539 13.5067 45.0339 13.76C44.9272 14.0133 44.8272 14.2667 44.7339 14.52C44.6672 14.6133 44.6739 14.6867 44.7539 14.74C44.7806 14.7667 44.8139 14.78 44.8539 14.78C44.9072 14.7667 44.9472 14.7533 44.9739 14.74C45.5739 14.4067 45.9939 13.9133 46.2339 13.26C46.2472 13.2333 46.2539 13.2067 46.2539 13.18C46.2539 13.14 46.2539 13.12 46.2539 13.12ZM51.6913 17.2C51.7579 17.0267 51.8113 16.8733 51.8513 16.74C51.8913 16.5933 51.9246 16.4533 51.9513 16.32C52.0979 15.8267 52.2313 15.3267 52.3513 14.82C52.4713 14.3133 52.5979 13.8067 52.7313 13.3C52.7846 13.0467 52.8779 12.7867 53.0113 12.52C53.1046 12.28 53.2379 12.0733 53.4113 11.9C53.5979 11.7267 53.8046 11.58 54.0313 11.46C54.3113 11.3267 54.5513 11.36 54.7513 11.56C54.9379 11.7467 54.9446 11.9533 54.7713 12.18C54.7179 12.2867 54.6846 12.4 54.6713 12.52C54.6579 12.6267 54.6446 12.7333 54.6313 12.84C54.5379 13.3067 54.4246 13.7667 54.2913 14.22C54.1713 14.6733 54.0646 15.1333 53.9713 15.6C53.8779 16.0533 53.7846 16.5 53.6913 16.94C53.5979 17.38 53.4779 17.8267 53.3313 18.28C53.2779 18.4933 53.2179 18.7 53.1513 18.9C53.0846 19.0867 53.0046 19.2867 52.9113 19.5C52.8713 19.5933 52.8246 19.6867 52.7713 19.78C52.7179 19.86 52.6579 19.94 52.5913 20.02C52.3379 20.3133 52.0379 20.46 51.6913 20.46C51.3446 20.46 51.0446 20.3133 50.7913 20.02C50.6579 19.8733 50.5513 19.7133 50.4713 19.54C50.3913 19.3533 50.3179 19.16 50.2513 18.96C50.0246 18.3333 49.8513 17.6933 49.7313 17.04C49.6113 16.3733 49.5113 15.7133 49.4313 15.06C49.3913 14.78 49.3579 14.5 49.3313 14.22C49.3179 13.9267 49.3046 13.64 49.2913 13.36C49.2913 13.1733 49.2979 12.9933 49.3113 12.82C49.3379 12.6333 49.3779 12.4533 49.4313 12.28C49.4713 12.1467 49.5313 12.0133 49.6113 11.88C49.7979 11.6533 50.0046 11.5467 50.2313 11.56C50.4713 11.5733 50.6579 11.7133 50.7913 11.98C50.8579 12.1267 50.9113 12.28 50.9513 12.44C50.9913 12.6 51.0179 12.7667 51.0312 12.94C51.0979 13.5667 51.1713 14.2 51.2513 14.84C51.3446 15.4667 51.4513 16.0933 51.5713 16.72C51.5846 16.7867 51.5979 16.86 51.6113 16.94C51.6379 17.0067 51.6646 17.0933 51.6913 17.2ZM55.9514 16.42C55.9514 15.7933 56.0381 15.1933 56.2114 14.62C56.3981 14.0333 56.6381 13.46 56.9314 12.9C57.0781 12.6333 57.2514 12.38 57.4514 12.14C57.6514 11.9 57.8781 11.6933 58.1314 11.52C58.4781 11.28 58.8381 11.14 59.2114 11.1C59.6114 11.0733 59.9714 11.16 60.2914 11.36C60.6114 11.56 60.8581 11.8333 61.0314 12.18C61.2047 12.5133 61.2581 12.8933 61.1914 13.32C61.1781 13.44 61.1514 13.5667 61.1114 13.7C61.0714 13.8333 61.0181 13.96 60.9514 14.08C60.7781 14.4133 60.5714 14.7333 60.3314 15.04C60.1047 15.3333 59.8247 15.5933 59.4914 15.82C59.2781 15.9667 59.0514 16.0933 58.8114 16.2C58.5847 16.2933 58.3381 16.3333 58.0714 16.32C57.9781 16.32 57.9181 16.3333 57.8914 16.36C57.8781 16.3867 57.8714 16.4467 57.8714 16.54C57.8581 16.7533 57.8714 16.9667 57.9114 17.18C57.9514 17.3933 58.0047 17.6067 58.0714 17.82C58.1514 17.9933 58.2247 18.0933 58.2914 18.12C58.3581 18.1467 58.4781 18.1067 58.6514 18C58.9047 17.8667 59.1314 17.6867 59.3314 17.46C59.4514 17.3533 59.5714 17.26 59.6914 17.18C59.8114 17.0867 59.9314 16.9933 60.0514 16.9C60.1047 16.8467 60.1847 16.7933 60.2914 16.74C60.4914 16.6733 60.6581 16.6933 60.7914 16.8C60.9381 16.8933 61.0114 17.0467 61.0114 17.26C61.0114 17.3533 61.0047 17.4467 60.9914 17.54C60.9781 17.6333 60.9581 17.7267 60.9314 17.82C60.7581 18.3267 60.5114 18.7667 60.1914 19.14C59.8714 19.5133 59.4381 19.7867 58.8914 19.96C58.1314 20.16 57.4714 19.98 56.9114 19.42C56.6181 19.1267 56.4114 18.8 56.2914 18.44C56.1714 18.08 56.0781 17.7067 56.0114 17.32C55.9981 17.1733 55.9847 17.0267 55.9714 16.88C55.9714 16.72 55.9647 16.5667 55.9514 16.42ZM59.6914 13.12C59.6914 13.0267 59.6847 12.9467 59.6714 12.88C59.6581 12.8 59.6181 12.7467 59.5514 12.72C59.4581 12.6667 59.3381 12.7 59.1914 12.82C59.1381 12.8467 59.0914 12.88 59.0514 12.92C59.0114 12.96 58.9647 13.0067 58.9114 13.06C58.7381 13.2733 58.5914 13.5067 58.4714 13.76C58.3647 14.0133 58.2647 14.2667 58.1714 14.52C58.1047 14.6133 58.1114 14.6867 58.1914 14.74C58.2181 14.7667 58.2514 14.78 58.2914 14.78C58.3447 14.7667 58.3847 14.7533 58.4114 14.74C59.0114 14.4067 59.4314 13.9133 59.6714 13.26C59.6847 13.2333 59.6914 13.2067 59.6914 13.18C59.6914 13.14 59.6914 13.12 59.6914 13.12ZM66.6888 14.7C66.4488 14.9133 66.2754 15.1333 66.1688 15.36C65.8888 15.8533 65.6621 16.3733 65.4888 16.92C65.3154 17.4667 65.1821 18.0267 65.0888 18.6C65.0754 18.7333 65.0488 18.8667 65.0088 19C64.9688 19.1333 64.9154 19.2533 64.8488 19.36C64.6488 19.6933 64.3821 19.84 64.0488 19.8C63.8754 19.8 63.7288 19.7533 63.6088 19.66C63.4888 19.5667 63.3821 19.4467 63.2887 19.3C63.2354 19.18 63.1954 19.0533 63.1688 18.92C63.1554 18.7867 63.1354 18.6533 63.1088 18.52C63.0421 17.9867 62.9688 17.4533 62.8888 16.92C62.8221 16.3733 62.7754 15.8333 62.7488 15.3C62.7221 14.94 62.7221 14.58 62.7488 14.22C62.7754 13.86 62.8154 13.5 62.8688 13.14C62.8688 13.0733 62.8821 13.0133 62.9088 12.96C62.9354 12.8933 62.9554 12.8333 62.9688 12.78C63.0888 12.4467 63.3088 12.3 63.6288 12.34C63.7621 12.3533 63.8821 12.4133 63.9888 12.52C64.0954 12.6267 64.1554 12.7533 64.1688 12.9C64.2088 13.22 64.2421 13.5333 64.2688 13.84C64.3088 14.1467 64.3554 14.4533 64.4088 14.76C64.4221 14.8133 64.4288 14.88 64.4288 14.96C64.4288 15.0267 64.4488 15.0933 64.4888 15.16C64.5554 15.1333 64.5954 15.1 64.6087 15.06C64.6221 15.0067 64.6354 14.96 64.6488 14.92C64.7821 14.6533 64.9154 14.3933 65.0488 14.14C65.1821 13.8733 65.3354 13.6333 65.5088 13.42C65.5888 13.3133 65.6688 13.2133 65.7488 13.12C65.8288 13.0133 65.9221 12.92 66.0288 12.84C66.3754 12.56 66.7488 12.4533 67.1488 12.52C67.5488 12.5733 67.8754 12.7933 68.1288 13.18C68.2488 13.3933 68.3421 13.62 68.4088 13.86C68.4754 14.0867 68.5221 14.32 68.5488 14.56C68.6154 14.96 68.6688 15.3667 68.7088 15.78C68.7621 16.18 68.8154 16.58 68.8688 16.98C68.8954 17.22 68.9288 17.46 68.9688 17.7C69.0221 17.9267 69.0621 18.16 69.0888 18.4C69.1154 18.4933 69.1488 18.5733 69.1888 18.64C69.2288 18.7067 69.2954 18.7733 69.3888 18.84C69.6688 18.9867 69.7554 19.22 69.6488 19.54C69.5288 19.8733 69.3221 20.08 69.0288 20.16C68.7354 20.24 68.4554 20.1733 68.1888 19.96C68.0688 19.8533 67.9688 19.74 67.8888 19.62C67.8088 19.5 67.7354 19.3733 67.6688 19.24C67.4554 18.8533 67.2954 18.46 67.1888 18.06C67.0821 17.66 67.0021 17.24 66.9488 16.8C66.9088 16.4933 66.8754 16.18 66.8488 15.86C66.8221 15.54 66.7754 15.2267 66.7088 14.92C66.7088 14.8933 66.7021 14.8667 66.6888 14.84C66.6888 14.8 66.6888 14.7533 66.6888 14.7ZM72.8058 19.12C73.1124 18.8933 73.3524 18.6533 73.5258 18.4C73.7658 18.0667 73.9991 17.7267 74.2258 17.38C74.4658 17.0333 74.6724 16.6733 74.8458 16.3C74.8591 16.2467 74.8724 16.2067 74.8858 16.18C74.8991 16.14 74.9058 16.1 74.9058 16.06C74.9191 15.78 75.0791 15.6067 75.3858 15.54C75.6924 15.5133 75.9191 15.6267 76.0658 15.88C76.1458 15.9733 76.1924 16.0733 76.2058 16.18C76.2324 16.2733 76.2458 16.38 76.2458 16.5C76.1924 17.2067 76.0058 17.8867 75.6858 18.54C75.2858 19.3267 74.7524 19.98 74.0858 20.5C73.9391 20.62 73.7858 20.72 73.6258 20.8C73.4791 20.8933 73.3124 20.96 73.1258 21C72.7924 21.08 72.4591 21.0467 72.1258 20.9C71.7924 20.7667 71.5258 20.5533 71.3258 20.26C71.2058 20.06 71.0991 19.8533 71.0058 19.64C70.9124 19.4133 70.8324 19.1867 70.7658 18.96C70.5924 18.4667 70.4658 17.96 70.3858 17.44C70.3058 16.92 70.2324 16.4 70.1658 15.88C70.0591 15.1333 69.9791 14.3733 69.9258 13.6C69.8591 12.8267 69.8258 12.0533 69.8258 11.28C69.8258 11.1333 69.8124 11.0467 69.7858 11.02C69.7591 10.9933 69.6658 10.9933 69.5058 11.02C69.3324 11.06 69.1591 11.1067 68.9858 11.16C68.7991 11.2 68.6124 11.2333 68.4258 11.26C68.1991 11.3133 67.9591 11.28 67.7058 11.16C67.4658 11.0133 67.3324 10.8133 67.3058 10.56C67.2791 10.2933 67.3591 10.0667 67.5458 9.88C67.7324 9.72 67.9324 9.60667 68.1458 9.54C68.3858 9.47333 68.6258 9.40667 68.8658 9.34C69.0924 9.27333 69.3258 9.21333 69.5658 9.16C69.7258 9.13333 69.8258 9.10667 69.8658 9.08C69.8924 9.04 69.9124 8.93333 69.9258 8.76C69.9391 8.30667 69.9791 7.86 70.0458 7.42C70.0991 6.96667 70.1858 6.51333 70.3058 6.06C70.3591 5.9 70.4058 5.74 70.4458 5.58C70.4991 5.40667 70.5724 5.24667 70.6658 5.1C70.7458 4.99333 70.8258 4.9 70.9058 4.82C70.9858 4.72667 71.0791 4.65333 71.1858 4.6C71.4391 4.42667 71.7191 4.41333 72.0258 4.56C72.1591 4.65333 72.2391 4.76667 72.2658 4.9C72.3058 5.03333 72.3124 5.17333 72.2858 5.32C72.2591 5.61333 72.2058 5.90667 72.1258 6.2C72.0458 6.48 71.9924 6.77333 71.9658 7.08C71.9391 7.33333 71.9058 7.58667 71.8658 7.84C71.8391 8.09333 71.8124 8.35333 71.7858 8.62C71.7858 8.74 71.7924 8.81333 71.8058 8.84C71.8324 8.85333 71.9124 8.86 72.0458 8.86C72.3124 8.86 72.5658 8.85333 72.8058 8.84C73.0458 8.82667 73.2924 8.82 73.5458 8.82C73.9991 8.82 74.3791 8.99333 74.6858 9.34C74.7658 9.40667 74.8258 9.48667 74.8658 9.58C74.9191 9.66 74.9524 9.74667 74.9658 9.84C74.9924 10.0667 74.9191 10.2667 74.7458 10.44C74.5724 10.6 74.3924 10.64 74.2058 10.56C74.1791 10.56 74.1458 10.56 74.1058 10.56C74.0791 10.5467 74.0458 10.5467 74.0058 10.56C73.7124 10.6667 73.4124 10.7133 73.1058 10.7C72.8124 10.6867 72.5124 10.7 72.2058 10.74H71.9258C71.7658 10.74 71.6858 10.82 71.6858 10.98C71.7124 11.2333 71.7258 11.4867 71.7258 11.74C71.7258 11.98 71.7324 12.2267 71.7458 12.48C71.7724 13.1333 71.8191 13.7867 71.8858 14.44C71.9524 15.0933 72.0391 15.74 72.1458 16.38C72.1858 16.7133 72.2324 17.0467 72.2858 17.38C72.3524 17.7 72.4324 18.0267 72.5258 18.36C72.5524 18.48 72.5924 18.6 72.6458 18.72C72.6991 18.84 72.7524 18.9733 72.8058 19.12ZM83.46 10.12C83.0733 10.2933 82.74 10.24 82.46 9.96C82.3667 9.85333 82.3067 9.71333 82.28 9.54C82.2533 9.36667 82.2733 9.2 82.34 9.04C82.42 8.86667 82.5533 8.72667 82.74 8.62C82.9267 8.5 83.1133 8.44 83.3 8.44C83.6867 8.44 83.9467 8.62 84.08 8.98C84.1467 9.14 84.1533 9.30667 84.1 9.48C84.06 9.64 83.9667 9.78 83.82 9.9C83.7667 9.95333 83.7067 10 83.64 10.04C83.5867 10.0667 83.5267 10.0933 83.46 10.12ZM84.26 18.42C84.3133 18.7 84.2267 18.9 84 19.02C83.76 19.14 83.52 19.1133 83.28 18.94C83.1733 18.8467 83.0933 18.74 83.04 18.62C82.9867 18.5 82.9333 18.3733 82.88 18.24C82.84 18.0533 82.8 17.86 82.76 17.66C82.7333 17.46 82.7067 17.2667 82.68 17.08C82.6 16.4133 82.5333 15.7467 82.48 15.08C82.44 14.4 82.4467 13.7267 82.5 13.06C82.5133 12.9133 82.5333 12.7667 82.56 12.62C82.5867 12.46 82.6467 12.3133 82.74 12.18C82.8067 12.0467 82.8933 11.94 83 11.86C83.12 11.78 83.26 11.74 83.42 11.74C83.7267 11.7533 83.9467 11.9133 84.08 12.22C84.2 12.46 84.26 12.72 84.26 13V15.76C84.2467 15.92 84.2333 16.1133 84.22 16.34C84.2067 16.5667 84.2 16.8133 84.2 17.08C84.2 17.2933 84.2 17.5133 84.2 17.74C84.2133 17.9667 84.2333 18.1933 84.26 18.42ZM89.2752 18.48C89.1818 18.4533 89.0885 18.4267 88.9952 18.4C88.9152 18.36 88.8285 18.3267 88.7352 18.3C86.9218 17.6067 85.9418 16.3067 85.7952 14.4C85.7418 13.7867 85.8352 13.22 86.0752 12.7C86.3152 12.18 86.6885 11.74 87.1952 11.38C87.5152 11.1533 87.8485 11.0067 88.1952 10.94C88.5418 10.8733 88.9018 10.94 89.2752 11.14C89.3952 11.1933 89.5085 11.2667 89.6152 11.36C89.7352 11.4533 89.8285 11.56 89.8952 11.68C90.6018 12.7467 90.7218 13.8733 90.2552 15.06C90.2152 15.2067 90.1218 15.32 89.9752 15.4C89.8418 15.48 89.7085 15.5067 89.5752 15.48C89.2685 15.4533 89.0952 15.2467 89.0552 14.86C89.0552 14.6733 89.0552 14.4933 89.0552 14.32C89.0685 14.1333 89.0618 13.9533 89.0352 13.78C89.0218 13.6333 88.9885 13.4933 88.9352 13.36C88.8952 13.2133 88.8285 13.08 88.7352 12.96C88.5885 12.8 88.4352 12.78 88.2752 12.9C88.1152 13.0333 87.9885 13.1933 87.8952 13.38C87.8018 13.5533 87.7285 13.7467 87.6752 13.96C87.6085 14.4133 87.7018 14.8667 87.9552 15.32C88.2218 15.7733 88.5418 16.1 88.9152 16.3C89.1418 16.42 89.3685 16.52 89.5952 16.6C89.8218 16.6667 90.0618 16.7267 90.3152 16.78C90.4352 16.8067 90.5485 16.84 90.6552 16.88C90.7752 16.92 90.8952 16.9533 91.0152 16.98C91.3218 17.1 91.5418 17.3 91.6752 17.58C91.8085 17.8467 91.8352 18.14 91.7552 18.46C91.7018 18.7533 91.5552 19.02 91.3152 19.26C91.0218 19.5933 90.6885 19.8733 90.3152 20.1C89.9418 20.3267 89.5618 20.5467 89.1752 20.76C88.9352 20.88 88.6952 20.9867 88.4552 21.08C88.2285 21.1867 87.9818 21.26 87.7152 21.3C87.5952 21.3133 87.4752 21.3133 87.3552 21.3C87.2485 21.2867 87.1352 21.2667 87.0152 21.24C86.6818 21.1333 86.4818 20.94 86.4152 20.66C86.3485 20.3933 86.3618 20.1467 86.4552 19.92C86.5218 19.7333 86.6218 19.5733 86.7552 19.44C86.8618 19.3467 86.9685 19.2867 87.0752 19.26C87.1952 19.2333 87.3085 19.2533 87.4152 19.32C87.5085 19.3733 87.5885 19.3933 87.6552 19.38C87.7218 19.3667 87.7885 19.3467 87.8552 19.32C88.0418 19.2133 88.2285 19.1133 88.4152 19.02C88.6152 18.9267 88.8085 18.8267 88.9952 18.72C89.0485 18.6933 89.1018 18.66 89.1552 18.62C89.2085 18.58 89.2485 18.5333 89.2752 18.48ZM100.247 12.84C100.167 13.0667 100.107 13.2867 100.067 13.5C100.027 13.7133 99.994 13.9267 99.9673 14.14C99.9273 14.6867 99.9007 15.2467 99.8873 15.82C99.8873 16.38 99.8873 16.94 99.8873 17.5C99.8873 17.6867 99.974 17.7533 100.147 17.7C100.547 17.6333 100.961 17.6133 101.387 17.64C101.854 17.68 102.074 17.92 102.047 18.36C102.047 18.5067 101.994 18.6267 101.887 18.72C101.794 18.8133 101.694 18.8933 101.587 18.96C101.374 19.0667 101.161 19.16 100.947 19.24C100.747 19.3067 100.541 19.3733 100.327 19.44C100.154 19.4933 100.054 19.5467 100.027 19.6C100.001 19.64 99.994 19.76 100.007 19.96C100.021 20.1333 100.034 20.3133 100.047 20.5C100.061 20.6867 100.054 20.8733 100.027 21.06C100.027 21.8333 100.007 22.5933 99.9673 23.34C99.9673 23.42 99.9607 23.4867 99.9473 23.54C99.9473 23.6067 99.934 23.6733 99.9073 23.74C99.7607 23.9933 99.554 24.1133 99.2873 24.1C99.1673 24.1 99.054 24.0467 98.9473 23.94C98.8407 23.8467 98.7607 23.7267 98.7073 23.58C98.6807 23.4467 98.6473 23.3067 98.6073 23.16C98.5807 23.0133 98.554 22.8733 98.5273 22.74C98.474 22.3667 98.4073 21.9933 98.3273 21.62C98.2473 21.26 98.194 20.8867 98.1673 20.5C98.154 20.42 98.1473 20.3333 98.1473 20.24C98.1473 20.16 98.134 20.0867 98.1073 20.02C98.1073 19.9133 98.094 19.8133 98.0673 19.72C98.054 19.6267 98.0073 19.5333 97.9273 19.44C97.714 19.1733 97.7073 18.8733 97.9073 18.54C98.0007 18.38 98.0473 18.2333 98.0473 18.1C97.994 16.9533 97.994 15.8333 98.0473 14.74C98.074 14.3533 98.1073 13.96 98.1473 13.56C98.2007 13.1467 98.2873 12.7467 98.4073 12.36C98.4873 12.1333 98.5807 11.92 98.6873 11.72C98.8073 11.52 98.954 11.3467 99.1273 11.2C99.394 10.9733 99.6807 10.8467 99.9873 10.82C100.294 10.7933 100.587 10.88 100.867 11.08C100.987 11.1467 101.094 11.2333 101.187 11.34C101.281 11.4467 101.367 11.56 101.447 11.68C101.781 12.2133 102.001 12.78 102.107 13.38C102.121 13.5267 102.121 13.68 102.107 13.84C102.107 14.1333 101.974 14.32 101.707 14.4C101.574 14.4533 101.454 14.46 101.347 14.42C101.241 14.3667 101.154 14.2933 101.087 14.2C101.034 14.1067 100.974 14.02 100.907 13.94C100.854 13.8467 100.814 13.7533 100.787 13.66C100.707 13.5133 100.627 13.3733 100.547 13.24C100.481 13.0933 100.381 12.96 100.247 12.84ZM109.607 15.58C109.54 16.8867 109.06 18.1067 108.167 19.24C108.007 19.4533 107.82 19.64 107.607 19.8C107.393 19.9467 107.153 20.06 106.887 20.14C106.367 20.26 105.867 20.2 105.387 19.96C105.213 19.8533 105.047 19.7267 104.887 19.58C104.727 19.42 104.593 19.2533 104.487 19.08C104.14 18.5333 103.907 17.9733 103.787 17.4C103.667 16.8133 103.627 16.2133 103.667 15.6C103.72 15.0533 103.84 14.5333 104.027 14.04C104.213 13.5333 104.487 13.0733 104.847 12.66C105.153 12.3267 105.52 12.12 105.947 12.04C106.147 11.9867 106.327 11.9867 106.487 12.04C106.647 12.08 106.8 12.16 106.947 12.28C106.987 12.32 107.033 12.3467 107.087 12.36C107.14 12.36 107.2 12.36 107.267 12.36C107.627 12.32 107.947 12.3733 108.227 12.52C108.52 12.6667 108.773 12.8867 108.987 13.18C109.227 13.5133 109.387 13.8733 109.467 14.26C109.56 14.6333 109.607 15.0733 109.607 15.58ZM106.767 14.08C106.62 14.08 106.467 14.1 106.307 14.14C106.173 14.14 106.073 14.1733 106.007 14.24C105.94 14.3067 105.88 14.4 105.827 14.52C105.64 15.0133 105.54 15.5067 105.527 16C105.527 16.4933 105.6 16.9933 105.747 17.5C105.827 17.7133 105.953 17.9333 106.127 18.16C106.22 18.2533 106.287 18.3067 106.327 18.32C106.38 18.32 106.453 18.2733 106.547 18.18C106.667 18.06 106.78 17.94 106.887 17.82C107.007 17.6867 107.107 17.5467 107.187 17.4C107.253 17.24 107.32 17.0733 107.387 16.9C107.467 16.7267 107.527 16.5533 107.567 16.38C107.633 16.1267 107.687 15.8733 107.727 15.62C107.767 15.3533 107.753 15.0867 107.687 14.82C107.62 14.54 107.52 14.3467 107.387 14.24C107.253 14.1333 107.047 14.08 106.767 14.08ZM112.927 13.48C113.021 13.4133 113.081 13.3467 113.107 13.28C113.134 13.2 113.161 13.1333 113.187 13.08C113.307 12.8533 113.447 12.64 113.607 12.44C113.767 12.2267 113.961 12.0533 114.187 11.92C114.494 11.7333 114.794 11.6267 115.087 11.6C115.394 11.56 115.701 11.6333 116.007 11.82C116.234 11.94 116.401 12.12 116.507 12.36C116.627 12.6 116.661 12.84 116.607 13.08C116.567 13.3333 116.461 13.5 116.287 13.58C116.114 13.66 115.914 13.6333 115.687 13.5C115.567 13.4333 115.467 13.4 115.387 13.4C115.307 13.4 115.214 13.4533 115.107 13.56C115.054 13.6133 115.001 13.68 114.947 13.76C114.907 13.84 114.861 13.9133 114.807 13.98C114.714 14.1933 114.634 14.4067 114.567 14.62C114.501 14.82 114.434 15.0267 114.367 15.24C114.247 15.6533 114.134 16.0733 114.027 16.5C113.934 16.9133 113.854 17.3333 113.787 17.76C113.761 18.0267 113.734 18.2933 113.707 18.56C113.681 18.8267 113.667 19.0933 113.667 19.36C113.667 19.4533 113.661 19.5533 113.647 19.66C113.647 19.7667 113.627 19.8733 113.587 19.98C113.454 20.38 113.181 20.58 112.767 20.58C112.354 20.62 112.054 20.4533 111.867 20.08C111.814 19.9733 111.774 19.86 111.747 19.74C111.734 19.62 111.714 19.5133 111.687 19.42C111.594 18.86 111.514 18.3067 111.447 17.76C111.381 17.2 111.314 16.64 111.247 16.08C111.194 15.5333 111.161 14.98 111.147 14.42C111.134 13.8467 111.134 13.2733 111.147 12.7C111.147 12.3267 111.287 12.0533 111.567 11.88C111.807 11.7333 112.054 11.7133 112.307 11.82C112.561 11.9133 112.727 12.0933 112.807 12.36C112.887 12.5733 112.927 12.7867 112.927 13C112.914 13.0667 112.907 13.14 112.907 13.22C112.921 13.3 112.927 13.3867 112.927 13.48ZM124.251 19.12C124.558 18.8933 124.798 18.6533 124.971 18.4C125.211 18.0667 125.444 17.7267 125.671 17.38C125.911 17.0333 126.118 16.6733 126.291 16.3C126.304 16.2467 126.318 16.2067 126.331 16.18C126.344 16.14 126.351 16.1 126.351 16.06C126.364 15.78 126.524 15.6067 126.831 15.54C127.138 15.5133 127.364 15.6267 127.511 15.88C127.591 15.9733 127.638 16.0733 127.651 16.18C127.678 16.2733 127.691 16.38 127.691 16.5C127.638 17.2067 127.451 17.8867 127.131 18.54C126.731 19.3267 126.198 19.98 125.531 20.5C125.384 20.62 125.231 20.72 125.071 20.8C124.924 20.8933 124.758 20.96 124.571 21C124.238 21.08 123.904 21.0467 123.571 20.9C123.238 20.7667 122.971 20.5533 122.771 20.26C122.651 20.06 122.544 19.8533 122.451 19.64C122.358 19.4133 122.278 19.1867 122.211 18.96C122.038 18.4667 121.911 17.96 121.831 17.44C121.751 16.92 121.678 16.4 121.611 15.88C121.504 15.1333 121.424 14.3733 121.371 13.6C121.304 12.8267 121.271 12.0533 121.271 11.28C121.271 11.1333 121.258 11.0467 121.231 11.02C121.204 10.9933 121.111 10.9933 120.951 11.02C120.778 11.06 120.604 11.1067 120.431 11.16C120.244 11.2 120.058 11.2333 119.871 11.26C119.644 11.3133 119.404 11.28 119.151 11.16C118.911 11.0133 118.778 10.8133 118.751 10.56C118.724 10.2933 118.804 10.0667 118.991 9.88C119.178 9.72 119.378 9.60667 119.591 9.54C119.831 9.47333 120.071 9.40667 120.311 9.34C120.538 9.27333 120.771 9.21333 121.011 9.16C121.171 9.13333 121.271 9.10667 121.311 9.08C121.338 9.04 121.358 8.93333 121.371 8.76C121.384 8.30667 121.424 7.86 121.491 7.42C121.544 6.96667 121.631 6.51333 121.751 6.06C121.804 5.9 121.851 5.74 121.891 5.58C121.944 5.40667 122.018 5.24667 122.111 5.1C122.191 4.99333 122.271 4.9 122.351 4.82C122.431 4.72667 122.524 4.65333 122.631 4.6C122.884 4.42667 123.164 4.41333 123.471 4.56C123.604 4.65333 123.684 4.76667 123.711 4.9C123.751 5.03333 123.758 5.17333 123.731 5.32C123.704 5.61333 123.651 5.90667 123.571 6.2C123.491 6.48 123.438 6.77333 123.411 7.08C123.384 7.33333 123.351 7.58667 123.311 7.84C123.284 8.09333 123.258 8.35333 123.231 8.62C123.231 8.74 123.238 8.81333 123.251 8.84C123.278 8.85333 123.358 8.86 123.491 8.86C123.758 8.86 124.011 8.85333 124.251 8.84C124.491 8.82667 124.738 8.82 124.991 8.82C125.444 8.82 125.824 8.99333 126.131 9.34C126.211 9.40667 126.271 9.48667 126.311 9.58C126.364 9.66 126.398 9.74667 126.411 9.84C126.438 10.0667 126.364 10.2667 126.191 10.44C126.018 10.6 125.838 10.64 125.651 10.56C125.624 10.56 125.591 10.56 125.551 10.56C125.524 10.5467 125.491 10.5467 125.451 10.56C125.158 10.6667 124.858 10.7133 124.551 10.7C124.258 10.6867 123.958 10.7 123.651 10.74H123.371C123.211 10.74 123.131 10.82 123.131 10.98C123.158 11.2333 123.171 11.4867 123.171 11.74C123.171 11.98 123.178 12.2267 123.191 12.48C123.218 13.1333 123.264 13.7867 123.331 14.44C123.398 15.0933 123.484 15.74 123.591 16.38C123.631 16.7133 123.678 17.0467 123.731 17.38C123.798 17.7 123.878 18.0267 123.971 18.36C123.998 18.48 124.038 18.6 124.091 18.72C124.144 18.84 124.198 18.9733 124.251 19.12ZM131.153 13.56C131.206 13.4133 131.246 13.2667 131.273 13.12C131.313 12.96 131.353 12.8 131.393 12.64C131.446 12.4533 131.513 12.28 131.593 12.12C131.673 11.96 131.78 11.8133 131.913 11.68C132.14 11.4533 132.4 11.3133 132.693 11.26C132.986 11.2067 133.273 11.2667 133.553 11.44C133.9 11.6667 134.153 11.9867 134.313 12.4C134.473 12.7733 134.586 13.16 134.653 13.56C134.733 13.96 134.8 14.36 134.853 14.76C134.893 15.36 134.893 15.9533 134.853 16.54C134.813 17.1267 134.76 17.7133 134.693 18.3C134.68 18.4067 134.653 18.5133 134.613 18.62C134.586 18.7133 134.533 18.8067 134.453 18.9C134.386 19.0067 134.286 19.0867 134.153 19.14C134.033 19.1933 133.913 19.1933 133.793 19.14C133.566 19.0867 133.44 18.9067 133.413 18.6C133.36 18.1067 133.3 17.6133 133.233 17.12C133.18 16.6267 133.12 16.1333 133.053 15.64C133 15.3467 132.966 15.06 132.953 14.78C132.94 14.5 132.9 14.2267 132.833 13.96C132.78 13.96 132.746 13.98 132.733 14.02C132.72 14.0467 132.706 14.0733 132.693 14.1C132.4 14.78 132.16 15.4733 131.973 16.18C131.8 16.8733 131.68 17.5933 131.613 18.34C131.6 18.5533 131.573 18.7667 131.533 18.98C131.506 19.1933 131.48 19.4067 131.453 19.62C131.386 20.0467 131.146 20.28 130.733 20.32C130.573 20.32 130.42 20.2533 130.273 20.12C130.126 20 130.04 19.8467 130.013 19.66C129.973 19.4467 129.94 19.24 129.913 19.04C129.9 18.84 129.886 18.6333 129.873 18.42C129.82 17.9533 129.766 17.4867 129.713 17.02C129.66 16.54 129.613 16.0667 129.573 15.6C129.52 15.0533 129.466 14.5133 129.413 13.98C129.36 13.4333 129.32 12.8933 129.293 12.36C129.266 11.88 129.246 11.4067 129.233 10.94C129.22 10.4733 129.213 10 129.213 9.52C129.213 9.01333 129.213 8.5 129.213 7.98C129.226 7.44667 129.286 6.92667 129.393 6.42C129.42 6.26 129.453 6.10667 129.493 5.96C129.546 5.8 129.62 5.65333 129.713 5.52C129.82 5.36 129.953 5.24 130.113 5.16C130.286 5.08 130.453 5.07333 130.613 5.14C130.973 5.22 131.153 5.48 131.153 5.92C131.18 6.70667 131.166 7.5 131.113 8.3C131.073 9.1 131.06 9.89333 131.073 10.68C131.086 11.16 131.086 11.64 131.073 12.12C131.073 12.6 131.073 13.08 131.073 13.56H131.153ZM136.401 16.42C136.401 15.7933 136.487 15.1933 136.661 14.62C136.847 14.0333 137.087 13.46 137.381 12.9C137.527 12.6333 137.701 12.38 137.901 12.14C138.101 11.9 138.327 11.6933 138.581 11.52C138.927 11.28 139.287 11.14 139.661 11.1C140.061 11.0733 140.421 11.16 140.741 11.36C141.061 11.56 141.307 11.8333 141.481 12.18C141.654 12.5133 141.707 12.8933 141.641 13.32C141.627 13.44 141.601 13.5667 141.561 13.7C141.521 13.8333 141.467 13.96 141.401 14.08C141.227 14.4133 141.021 14.7333 140.781 15.04C140.554 15.3333 140.274 15.5933 139.941 15.82C139.727 15.9667 139.501 16.0933 139.261 16.2C139.034 16.2933 138.787 16.3333 138.521 16.32C138.427 16.32 138.367 16.3333 138.341 16.36C138.327 16.3867 138.321 16.4467 138.321 16.54C138.307 16.7533 138.321 16.9667 138.361 17.18C138.401 17.3933 138.454 17.6067 138.521 17.82C138.601 17.9933 138.674 18.0933 138.741 18.12C138.807 18.1467 138.927 18.1067 139.101 18C139.354 17.8667 139.581 17.6867 139.781 17.46C139.901 17.3533 140.021 17.26 140.141 17.18C140.261 17.0867 140.381 16.9933 140.501 16.9C140.554 16.8467 140.634 16.7933 140.741 16.74C140.941 16.6733 141.107 16.6933 141.241 16.8C141.387 16.8933 141.461 17.0467 141.461 17.26C141.461 17.3533 141.454 17.4467 141.441 17.54C141.427 17.6333 141.407 17.7267 141.381 17.82C141.207 18.3267 140.961 18.7667 140.641 19.14C140.321 19.5133 139.887 19.7867 139.341 19.96C138.581 20.16 137.921 19.98 137.361 19.42C137.067 19.1267 136.861 18.8 136.741 18.44C136.621 18.08 136.527 17.7067 136.461 17.32C136.447 17.1733 136.434 17.0267 136.421 16.88C136.421 16.72 136.414 16.5667 136.401 16.42ZM140.141 13.12C140.141 13.0267 140.134 12.9467 140.121 12.88C140.107 12.8 140.067 12.7467 140.001 12.72C139.907 12.6667 139.787 12.7 139.641 12.82C139.587 12.8467 139.541 12.88 139.501 12.92C139.461 12.96 139.414 13.0067 139.361 13.06C139.187 13.2733 139.041 13.5067 138.921 13.76C138.814 14.0133 138.714 14.2667 138.621 14.52C138.554 14.6133 138.561 14.6867 138.641 14.74C138.667 14.7667 138.701 14.78 138.741 14.78C138.794 14.7667 138.834 14.7533 138.861 14.74C139.461 14.4067 139.881 13.9133 140.121 13.26C140.134 13.2333 140.141 13.2067 140.141 13.18C140.141 13.14 140.141 13.12 140.141 13.12ZM149.67 13.14C149.737 13.0733 149.797 13 149.85 12.92C149.917 12.84 149.977 12.7667 150.03 12.7C150.47 12.22 150.977 11.98 151.55 11.98C152.123 11.9667 152.63 12.2333 153.07 12.78C153.323 13.1 153.51 13.4533 153.63 13.84C153.75 14.2133 153.81 14.6 153.81 15C153.837 15.8267 153.737 16.62 153.51 17.38C153.283 18.1267 152.897 18.8333 152.35 19.5C152.163 19.7267 151.95 19.92 151.71 20.08C151.443 20.2533 151.163 20.4 150.87 20.52C150.59 20.6533 150.29 20.7333 149.97 20.76C149.81 20.7867 149.73 20.8867 149.73 21.06C149.73 21.3133 149.73 21.5667 149.73 21.82C149.743 22.0733 149.763 22.3333 149.79 22.6C149.843 23.12 149.897 23.6333 149.95 24.14C150.017 24.66 150.063 25.1867 150.09 25.72C150.09 25.84 150.09 25.9533 150.09 26.06C150.09 26.1667 150.083 26.2733 150.07 26.38C149.963 26.82 149.69 27.06 149.25 27.1C148.863 27.1267 148.583 26.9267 148.41 26.5C148.33 26.2067 148.27 25.9333 148.23 25.68C148.137 24.9733 148.057 24.2733 147.99 23.58C147.937 22.9 147.877 22.2133 147.81 21.52C147.77 20.7333 147.737 19.9533 147.71 19.18C147.697 18.4067 147.683 17.6333 147.67 16.86C147.657 16.3667 147.65 15.8733 147.65 15.38C147.663 14.8867 147.677 14.3933 147.69 13.9C147.717 13.6733 147.743 13.4467 147.77 13.22C147.797 12.9933 147.823 12.7667 147.85 12.54C147.877 12.4067 147.917 12.2733 147.97 12.14C148.023 11.9933 148.103 11.8667 148.21 11.76C148.45 11.52 148.71 11.4333 148.99 11.5C149.283 11.5667 149.483 11.7533 149.59 12.06C149.617 12.1667 149.637 12.28 149.65 12.4C149.677 12.52 149.677 12.64 149.65 12.76C149.637 12.8133 149.623 12.8733 149.61 12.94C149.61 12.9933 149.61 13.0533 149.61 13.12C149.637 13.12 149.65 13.1267 149.65 13.14C149.663 13.14 149.67 13.14 149.67 13.14ZM151.47 13.86C150.963 14.6867 150.597 15.5533 150.37 16.46C150.143 17.3533 149.963 18.2667 149.83 19.2C149.95 19.1867 150.037 19.1533 150.09 19.1C150.157 19.0333 150.217 18.98 150.27 18.94C150.923 18.4067 151.37 17.8 151.61 17.12C151.85 16.4267 151.957 15.6733 151.93 14.86C151.917 14.6867 151.877 14.52 151.81 14.36C151.757 14.2 151.643 14.0333 151.47 13.86ZM157.206 18.1C157.206 18.2867 157.213 18.48 157.226 18.68C157.24 18.88 157.233 19.0867 157.206 19.3C157.206 19.3533 157.206 19.42 157.206 19.5C157.206 19.5667 157.2 19.64 157.186 19.72C157.146 19.9867 157.006 20.1467 156.766 20.2C156.5 20.2133 156.286 20.1333 156.126 19.96C156.033 19.8533 155.96 19.7333 155.906 19.6C155.866 19.4667 155.82 19.3333 155.766 19.2C155.713 18.96 155.666 18.72 155.626 18.48C155.6 18.24 155.58 18 155.566 17.76C155.486 17.0267 155.433 16.2933 155.406 15.56C155.393 14.8267 155.373 14.0933 155.346 13.36C155.333 12.3067 155.32 11.26 155.306 10.22C155.306 9.18 155.313 8.13333 155.326 7.08C155.326 6.98667 155.326 6.9 155.326 6.82C155.34 6.72667 155.36 6.63333 155.386 6.54C155.453 6.35333 155.56 6.2 155.706 6.08C155.853 5.94667 156.026 5.88 156.226 5.88C156.64 5.88 156.906 6.1 157.026 6.54C157.066 6.66 157.086 6.78 157.086 6.9C157.14 7.76667 157.173 8.63333 157.186 9.5C157.213 10.3667 157.233 11.2333 157.246 12.1C157.246 12.1933 157.246 12.4133 157.246 12.76C157.246 13.1067 157.246 13.52 157.246 14C157.246 14.4667 157.24 14.96 157.226 15.48C157.226 16 157.226 16.4933 157.226 16.96C157.226 17.4133 157.22 17.7933 157.206 18.1ZM163.204 18.46C163.111 18.5267 163.038 18.6133 162.984 18.72C162.944 18.8133 162.891 18.8933 162.824 18.96C162.691 19.16 162.544 19.3467 162.384 19.52C162.224 19.68 162.031 19.8067 161.804 19.9C161.431 20.0733 161.051 20.0867 160.664 19.94C160.291 19.78 160.031 19.5067 159.884 19.12C159.591 18.3733 159.504 17.66 159.624 16.98C159.758 16.3 160.064 15.6533 160.544 15.04C160.811 14.7067 161.124 14.4733 161.484 14.34C161.858 14.1933 162.264 14.1667 162.704 14.26C162.731 14.26 162.751 14.2667 162.764 14.28C162.791 14.28 162.818 14.28 162.844 14.28C162.898 14.1733 162.911 14.08 162.884 14C162.858 13.9067 162.838 13.8133 162.824 13.72C162.771 13.4267 162.704 13.1467 162.624 12.88C162.558 12.6133 162.471 12.3533 162.364 12.1C162.204 11.7533 162.058 11.5667 161.924 11.54C161.804 11.5133 161.604 11.62 161.324 11.86C160.884 12.2333 160.504 12.68 160.184 13.2C160.078 13.3333 160.024 13.4667 160.024 13.6C160.024 13.8933 159.884 14.08 159.604 14.16C159.511 14.1867 159.398 14.1733 159.264 14.12C159.131 14.0667 159.024 13.9933 158.944 13.9C158.771 13.6333 158.711 13.34 158.764 13.02C158.818 12.7133 158.904 12.4267 159.024 12.16C159.144 11.88 159.291 11.62 159.464 11.38C159.651 11.1133 159.851 10.8733 160.064 10.66C160.278 10.4333 160.518 10.2333 160.784 10.06C161.211 9.79333 161.671 9.68 162.164 9.72C162.671 9.74667 163.118 9.98 163.504 10.42C163.678 10.5933 163.811 10.7867 163.904 11C164.011 11.2 164.111 11.4133 164.204 11.64C164.351 12.0533 164.471 12.4733 164.564 12.9C164.671 13.3267 164.751 13.76 164.804 14.2C164.871 14.8 164.931 15.3933 164.984 15.98C165.038 16.5667 165.084 17.16 165.124 17.76C165.164 18.1067 165.164 18.46 165.124 18.82C165.098 19.22 164.931 19.5067 164.624 19.68C164.318 19.84 163.998 19.8133 163.664 19.6C163.531 19.5067 163.438 19.3933 163.384 19.26C163.331 19.1267 163.291 18.9867 163.264 18.84C163.251 18.7733 163.244 18.7133 163.244 18.66C163.244 18.5933 163.231 18.5267 163.204 18.46ZM161.504 18C161.718 17.7733 161.924 17.5533 162.124 17.34C162.324 17.1133 162.498 16.8667 162.644 16.6C162.684 16.52 162.678 16.4267 162.624 16.32C162.584 16.2 162.518 16.1133 162.424 16.06C162.331 15.9933 162.258 15.9867 162.204 16.04C162.164 16.08 162.111 16.1133 162.044 16.14C162.031 16.1667 162.011 16.1933 161.984 16.22C161.958 16.2467 161.938 16.2733 161.924 16.3C161.751 16.5533 161.624 16.82 161.544 17.1C161.464 17.3667 161.451 17.6667 161.504 18ZM170.634 14.7C170.394 14.9133 170.221 15.1333 170.114 15.36C169.834 15.8533 169.607 16.3733 169.434 16.92C169.261 17.4667 169.127 18.0267 169.034 18.6C169.021 18.7333 168.994 18.8667 168.954 19C168.914 19.1333 168.861 19.2533 168.794 19.36C168.594 19.6933 168.327 19.84 167.994 19.8C167.821 19.8 167.674 19.7533 167.554 19.66C167.434 19.5667 167.327 19.4467 167.234 19.3C167.181 19.18 167.141 19.0533 167.114 18.92C167.101 18.7867 167.081 18.6533 167.054 18.52C166.987 17.9867 166.914 17.4533 166.834 16.92C166.767 16.3733 166.721 15.8333 166.694 15.3C166.667 14.94 166.667 14.58 166.694 14.22C166.721 13.86 166.761 13.5 166.814 13.14C166.814 13.0733 166.827 13.0133 166.854 12.96C166.881 12.8933 166.901 12.8333 166.914 12.78C167.034 12.4467 167.254 12.3 167.574 12.34C167.707 12.3533 167.827 12.4133 167.934 12.52C168.041 12.6267 168.101 12.7533 168.114 12.9C168.154 13.22 168.187 13.5333 168.214 13.84C168.254 14.1467 168.301 14.4533 168.354 14.76C168.367 14.8133 168.374 14.88 168.374 14.96C168.374 15.0267 168.394 15.0933 168.434 15.16C168.501 15.1333 168.541 15.1 168.554 15.06C168.567 15.0067 168.581 14.96 168.594 14.92C168.727 14.6533 168.861 14.3933 168.994 14.14C169.127 13.8733 169.281 13.6333 169.454 13.42C169.534 13.3133 169.614 13.2133 169.694 13.12C169.774 13.0133 169.867 12.92 169.974 12.84C170.321 12.56 170.694 12.4533 171.094 12.52C171.494 12.5733 171.821 12.7933 172.074 13.18C172.194 13.3933 172.287 13.62 172.354 13.86C172.421 14.0867 172.467 14.32 172.494 14.56C172.561 14.96 172.614 15.3667 172.654 15.78C172.707 16.18 172.761 16.58 172.814 16.98C172.841 17.22 172.874 17.46 172.914 17.7C172.967 17.9267 173.007 18.16 173.034 18.4C173.061 18.4933 173.094 18.5733 173.134 18.64C173.174 18.7067 173.241 18.7733 173.334 18.84C173.614 18.9867 173.701 19.22 173.594 19.54C173.474 19.8733 173.267 20.08 172.974 20.16C172.681 20.24 172.401 20.1733 172.134 19.96C172.014 19.8533 171.914 19.74 171.834 19.62C171.754 19.5 171.681 19.3733 171.614 19.24C171.401 18.8533 171.241 18.46 171.134 18.06C171.027 17.66 170.947 17.24 170.894 16.8C170.854 16.4933 170.821 16.18 170.794 15.86C170.767 15.54 170.721 15.2267 170.654 14.92C170.654 14.8933 170.647 14.8667 170.634 14.84C170.634 14.8 170.634 14.7533 170.634 14.7ZM174.233 16.42C174.233 15.7933 174.319 15.1933 174.493 14.62C174.679 14.0333 174.919 13.46 175.213 12.9C175.359 12.6333 175.533 12.38 175.733 12.14C175.933 11.9 176.159 11.6933 176.413 11.52C176.759 11.28 177.119 11.14 177.493 11.1C177.893 11.0733 178.253 11.16 178.573 11.36C178.893 11.56 179.139 11.8333 179.313 12.18C179.486 12.5133 179.539 12.8933 179.473 13.32C179.459 13.44 179.433 13.5667 179.393 13.7C179.353 13.8333 179.299 13.96 179.233 14.08C179.059 14.4133 178.853 14.7333 178.613 15.04C178.386 15.3333 178.106 15.5933 177.773 15.82C177.559 15.9667 177.333 16.0933 177.093 16.2C176.866 16.2933 176.619 16.3333 176.353 16.32C176.259 16.32 176.199 16.3333 176.173 16.36C176.159 16.3867 176.153 16.4467 176.153 16.54C176.139 16.7533 176.153 16.9667 176.193 17.18C176.233 17.3933 176.286 17.6067 176.353 17.82C176.433 17.9933 176.506 18.0933 176.573 18.12C176.639 18.1467 176.759 18.1067 176.933 18C177.186 17.8667 177.413 17.6867 177.613 17.46C177.733 17.3533 177.853 17.26 177.973 17.18C178.093 17.0867 178.213 16.9933 178.333 16.9C178.386 16.8467 178.466 16.7933 178.573 16.74C178.773 16.6733 178.939 16.6933 179.073 16.8C179.219 16.8933 179.293 17.0467 179.293 17.26C179.293 17.3533 179.286 17.4467 179.273 17.54C179.259 17.6333 179.239 17.7267 179.213 17.82C179.039 18.3267 178.793 18.7667 178.473 19.14C178.153 19.5133 177.719 19.7867 177.173 19.96C176.413 20.16 175.753 19.98 175.193 19.42C174.899 19.1267 174.693 18.8 174.573 18.44C174.453 18.08 174.359 17.7067 174.293 17.32C174.279 17.1733 174.266 17.0267 174.253 16.88C174.253 16.72 174.246 16.5667 174.233 16.42ZM177.973 13.12C177.973 13.0267 177.966 12.9467 177.953 12.88C177.939 12.8 177.899 12.7467 177.833 12.72C177.739 12.6667 177.619 12.7 177.473 12.82C177.419 12.8467 177.373 12.88 177.333 12.92C177.293 12.96 177.246 13.0067 177.193 13.06C177.019 13.2733 176.873 13.5067 176.753 13.76C176.646 14.0133 176.546 14.2667 176.453 14.52C176.386 14.6133 176.393 14.6867 176.473 14.74C176.499 14.7667 176.533 14.78 176.573 14.78C176.626 14.7667 176.666 14.7533 176.693 14.74C177.293 14.4067 177.713 13.9133 177.953 13.26C177.966 13.2333 177.973 13.2067 177.973 13.18C177.973 13.14 177.973 13.12 177.973 13.12ZM185.032 19.12C185.339 18.8933 185.579 18.6533 185.752 18.4C185.992 18.0667 186.226 17.7267 186.452 17.38C186.692 17.0333 186.899 16.6733 187.072 16.3C187.086 16.2467 187.099 16.2067 187.112 16.18C187.126 16.14 187.132 16.1 187.132 16.06C187.146 15.78 187.306 15.6067 187.612 15.54C187.919 15.5133 188.146 15.6267 188.292 15.88C188.372 15.9733 188.419 16.0733 188.432 16.18C188.459 16.2733 188.472 16.38 188.472 16.5C188.419 17.2067 188.232 17.8867 187.912 18.54C187.512 19.3267 186.979 19.98 186.312 20.5C186.166 20.62 186.012 20.72 185.852 20.8C185.706 20.8933 185.539 20.96 185.352 21C185.019 21.08 184.686 21.0467 184.352 20.9C184.019 20.7667 183.752 20.5533 183.552 20.26C183.432 20.06 183.326 19.8533 183.232 19.64C183.139 19.4133 183.059 19.1867 182.992 18.96C182.819 18.4667 182.692 17.96 182.612 17.44C182.532 16.92 182.459 16.4 182.392 15.88C182.286 15.1333 182.206 14.3733 182.152 13.6C182.086 12.8267 182.052 12.0533 182.052 11.28C182.052 11.1333 182.039 11.0467 182.012 11.02C181.986 10.9933 181.892 10.9933 181.732 11.02C181.559 11.06 181.386 11.1067 181.212 11.16C181.026 11.2 180.839 11.2333 180.652 11.26C180.426 11.3133 180.186 11.28 179.932 11.16C179.692 11.0133 179.559 10.8133 179.532 10.56C179.506 10.2933 179.586 10.0667 179.772 9.88C179.959 9.72 180.159 9.60667 180.372 9.54C180.612 9.47333 180.852 9.40667 181.092 9.34C181.319 9.27333 181.552 9.21333 181.792 9.16C181.952 9.13333 182.052 9.10667 182.092 9.08C182.119 9.04 182.139 8.93333 182.152 8.76C182.166 8.30667 182.206 7.86 182.272 7.42C182.326 6.96667 182.412 6.51333 182.532 6.06C182.586 5.9 182.632 5.74 182.672 5.58C182.726 5.40667 182.799 5.24667 182.892 5.1C182.972 4.99333 183.052 4.9 183.132 4.82C183.212 4.72667 183.306 4.65333 183.412 4.6C183.666 4.42667 183.946 4.41333 184.252 4.56C184.386 4.65333 184.466 4.76667 184.492 4.9C184.532 5.03333 184.539 5.17333 184.512 5.32C184.486 5.61333 184.432 5.90667 184.352 6.2C184.272 6.48 184.219 6.77333 184.192 7.08C184.166 7.33333 184.132 7.58667 184.092 7.84C184.066 8.09333 184.039 8.35333 184.012 8.62C184.012 8.74 184.019 8.81333 184.032 8.84C184.059 8.85333 184.139 8.86 184.272 8.86C184.539 8.86 184.792 8.85333 185.032 8.84C185.272 8.82667 185.519 8.82 185.772 8.82C186.226 8.82 186.606 8.99333 186.912 9.34C186.992 9.40667 187.052 9.48667 187.092 9.58C187.146 9.66 187.179 9.74667 187.192 9.84C187.219 10.0667 187.146 10.2667 186.972 10.44C186.799 10.6 186.619 10.64 186.432 10.56C186.406 10.56 186.372 10.56 186.332 10.56C186.306 10.5467 186.272 10.5467 186.232 10.56C185.939 10.6667 185.639 10.7133 185.332 10.7C185.039 10.6867 184.739 10.7 184.432 10.74H184.152C183.992 10.74 183.912 10.82 183.912 10.98C183.939 11.2333 183.952 11.4867 183.952 11.74C183.952 11.98 183.959 12.2267 183.972 12.48C183.999 13.1333 184.046 13.7867 184.112 14.44C184.179 15.0933 184.266 15.74 184.372 16.38C184.412 16.7133 184.459 17.0467 184.512 17.38C184.579 17.7 184.659 18.0267 184.752 18.36C184.779 18.48 184.819 18.6 184.872 18.72C184.926 18.84 184.979 18.9733 185.032 19.12ZM48.7941 37.8C49.0341 37.8267 49.2874 37.8467 49.5541 37.86C49.8207 37.86 50.0807 37.8933 50.3341 37.96C50.4941 38 50.6474 38.0533 50.7941 38.12C50.9407 38.1867 51.0741 38.2733 51.1941 38.38C51.3807 38.5133 51.4341 38.6933 51.3541 38.92C51.2474 39.12 51.0941 39.22 50.8941 39.22C50.8407 39.22 50.8007 39.2067 50.7741 39.18C50.3207 39.1133 49.8741 39.1 49.4341 39.14C49.0074 39.1667 48.5674 39.2 48.1141 39.24C48.0607 39.2533 48.0007 39.2667 47.9341 39.28C47.8807 39.2933 47.8207 39.3133 47.7541 39.34C47.4341 39.4067 47.1541 39.3467 46.9141 39.16C46.6741 38.92 46.6007 38.66 46.6941 38.38C46.8007 38.0733 47.0007 37.9133 47.2941 37.9C47.6274 37.8333 47.9607 37.8 48.2941 37.8H48.7941ZM59.8372 36.84C59.7572 37.0667 59.6972 37.2867 59.6572 37.5C59.6172 37.7133 59.5839 37.9267 59.5572 38.14C59.5172 38.6867 59.4905 39.2467 59.4772 39.82C59.4772 40.38 59.4772 40.94 59.4772 41.5C59.4772 41.6867 59.5639 41.7533 59.7372 41.7C60.1372 41.6333 60.5505 41.6133 60.9772 41.64C61.4439 41.68 61.6639 41.92 61.6372 42.36C61.6372 42.5067 61.5839 42.6267 61.4772 42.72C61.3839 42.8133 61.2839 42.8933 61.1772 42.96C60.9639 43.0667 60.7505 43.16 60.5372 43.24C60.3372 43.3067 60.1305 43.3733 59.9172 43.44C59.7439 43.4933 59.6439 43.5467 59.6172 43.6C59.5905 43.64 59.5839 43.76 59.5972 43.96C59.6105 44.1333 59.6239 44.3133 59.6372 44.5C59.6505 44.6867 59.6439 44.8733 59.6172 45.06C59.6172 45.8333 59.5972 46.5933 59.5572 47.34C59.5572 47.42 59.5505 47.4867 59.5372 47.54C59.5372 47.6067 59.5239 47.6733 59.4972 47.74C59.3505 47.9933 59.1439 48.1133 58.8772 48.1C58.7572 48.1 58.6439 48.0467 58.5372 47.94C58.4305 47.8467 58.3505 47.7267 58.2972 47.58C58.2705 47.4467 58.2372 47.3067 58.1972 47.16C58.1705 47.0133 58.1439 46.8733 58.1172 46.74C58.0639 46.3667 57.9972 45.9933 57.9172 45.62C57.8372 45.26 57.7839 44.8867 57.7572 44.5C57.7439 44.42 57.7372 44.3333 57.7372 44.24C57.7372 44.16 57.7239 44.0867 57.6972 44.02C57.6972 43.9133 57.6839 43.8133 57.6572 43.72C57.6439 43.6267 57.5972 43.5333 57.5172 43.44C57.3039 43.1733 57.2972 42.8733 57.4972 42.54C57.5905 42.38 57.6372 42.2333 57.6372 42.1C57.5839 40.9533 57.5839 39.8333 57.6372 38.74C57.6639 38.3533 57.6972 37.96 57.7372 37.56C57.7905 37.1467 57.8772 36.7467 57.9972 36.36C58.0772 36.1333 58.1705 35.92 58.2772 35.72C58.3972 35.52 58.5439 35.3467 58.7172 35.2C58.9839 34.9733 59.2705 34.8467 59.5772 34.82C59.8839 34.7933 60.1772 34.88 60.4572 35.08C60.5772 35.1467 60.6839 35.2333 60.7772 35.34C60.8705 35.4467 60.9572 35.56 61.0372 35.68C61.3705 36.2133 61.5905 36.78 61.6972 37.38C61.7105 37.5267 61.7105 37.68 61.6972 37.84C61.6972 38.1333 61.5639 38.32 61.2972 38.4C61.1639 38.4533 61.0439 38.46 60.9372 38.42C60.8305 38.3667 60.7439 38.2933 60.6772 38.2C60.6239 38.1067 60.5639 38.02 60.4972 37.94C60.4439 37.8467 60.4039 37.7533 60.3772 37.66C60.2972 37.5133 60.2172 37.3733 60.1372 37.24C60.0705 37.0933 59.9705 36.96 59.8372 36.84ZM65.0366 37.48C65.1299 37.4133 65.1899 37.3467 65.2166 37.28C65.2432 37.2 65.2699 37.1333 65.2966 37.08C65.4166 36.8533 65.5566 36.64 65.7166 36.44C65.8766 36.2267 66.0699 36.0533 66.2966 35.92C66.6032 35.7333 66.9032 35.6267 67.1966 35.6C67.5032 35.56 67.8099 35.6333 68.1166 35.82C68.3432 35.94 68.5099 36.12 68.6166 36.36C68.7366 36.6 68.7699 36.84 68.7166 37.08C68.6766 37.3333 68.5699 37.5 68.3966 37.58C68.2232 37.66 68.0232 37.6333 67.7966 37.5C67.6766 37.4333 67.5766 37.4 67.4966 37.4C67.4166 37.4 67.3232 37.4533 67.2166 37.56C67.1632 37.6133 67.1099 37.68 67.0566 37.76C67.0166 37.84 66.9699 37.9133 66.9166 37.98C66.8232 38.1933 66.7432 38.4067 66.6766 38.62C66.6099 38.82 66.5432 39.0267 66.4766 39.24C66.3566 39.6533 66.2432 40.0733 66.1366 40.5C66.0432 40.9133 65.9632 41.3333 65.8966 41.76C65.8699 42.0267 65.8432 42.2933 65.8166 42.56C65.7899 42.8267 65.7766 43.0933 65.7766 43.36C65.7766 43.4533 65.7699 43.5533 65.7566 43.66C65.7566 43.7667 65.7366 43.8733 65.6966 43.98C65.5632 44.38 65.2899 44.58 64.8766 44.58C64.4632 44.62 64.1632 44.4533 63.9766 44.08C63.9232 43.9733 63.8832 43.86 63.8566 43.74C63.8432 43.62 63.8232 43.5133 63.7966 43.42C63.7032 42.86 63.6232 42.3067 63.5566 41.76C63.4899 41.2 63.4232 40.64 63.3566 40.08C63.3032 39.5333 63.2699 38.98 63.2566 38.42C63.2432 37.8467 63.2432 37.2733 63.2566 36.7C63.2566 36.3267 63.3966 36.0533 63.6766 35.88C63.9166 35.7333 64.1632 35.7133 64.4166 35.82C64.6699 35.9133 64.8366 36.0933 64.9166 36.36C64.9966 36.5733 65.0366 36.7867 65.0366 37C65.0232 37.0667 65.0166 37.14 65.0166 37.22C65.0299 37.3 65.0366 37.3867 65.0366 37.48ZM69.6428 40.42C69.6428 39.7933 69.7295 39.1933 69.9028 38.62C70.0895 38.0333 70.3295 37.46 70.6228 36.9C70.7695 36.6333 70.9428 36.38 71.1428 36.14C71.3428 35.9 71.5695 35.6933 71.8228 35.52C72.1695 35.28 72.5295 35.14 72.9028 35.1C73.3028 35.0733 73.6628 35.16 73.9828 35.36C74.3028 35.56 74.5495 35.8333 74.7228 36.18C74.8961 36.5133 74.9495 36.8933 74.8828 37.32C74.8695 37.44 74.8428 37.5667 74.8028 37.7C74.7628 37.8333 74.7095 37.96 74.6428 38.08C74.4695 38.4133 74.2628 38.7333 74.0228 39.04C73.7961 39.3333 73.5161 39.5933 73.1828 39.82C72.9695 39.9667 72.7428 40.0933 72.5028 40.2C72.2761 40.2933 72.0295 40.3333 71.7628 40.32C71.6695 40.32 71.6095 40.3333 71.5828 40.36C71.5695 40.3867 71.5628 40.4467 71.5628 40.54C71.5495 40.7533 71.5628 40.9667 71.6028 41.18C71.6428 41.3933 71.6961 41.6067 71.7628 41.82C71.8428 41.9933 71.9161 42.0933 71.9828 42.12C72.0495 42.1467 72.1695 42.1067 72.3428 42C72.5961 41.8667 72.8228 41.6867 73.0228 41.46C73.1428 41.3533 73.2628 41.26 73.3828 41.18C73.5028 41.0867 73.6228 40.9933 73.7428 40.9C73.7961 40.8467 73.8761 40.7933 73.9828 40.74C74.1828 40.6733 74.3495 40.6933 74.4828 40.8C74.6295 40.8933 74.7028 41.0467 74.7028 41.26C74.7028 41.3533 74.6961 41.4467 74.6828 41.54C74.6695 41.6333 74.6495 41.7267 74.6228 41.82C74.4495 42.3267 74.2028 42.7667 73.8828 43.14C73.5628 43.5133 73.1295 43.7867 72.5828 43.96C71.8228 44.16 71.1628 43.98 70.6028 43.42C70.3095 43.1267 70.1028 42.8 69.9828 42.44C69.8628 42.08 69.7695 41.7067 69.7028 41.32C69.6895 41.1733 69.6761 41.0267 69.6628 40.88C69.6628 40.72 69.6561 40.5667 69.6428 40.42ZM73.3828 37.12C73.3828 37.0267 73.3761 36.9467 73.3628 36.88C73.3495 36.8 73.3095 36.7467 73.2428 36.72C73.1495 36.6667 73.0295 36.7 72.8828 36.82C72.8295 36.8467 72.7828 36.88 72.7428 36.92C72.7028 36.96 72.6561 37.0067 72.6028 37.06C72.4295 37.2733 72.2828 37.5067 72.1628 37.76C72.0561 38.0133 71.9561 38.2667 71.8628 38.52C71.7961 38.6133 71.8028 38.6867 71.8828 38.74C71.9095 38.7667 71.9428 38.78 71.9828 38.78C72.0361 38.7667 72.0761 38.7533 72.1028 38.74C72.7028 38.4067 73.1228 37.9133 73.3628 37.26C73.3761 37.2333 73.3828 37.2067 73.3828 37.18C73.3828 37.14 73.3828 37.12 73.3828 37.12ZM76.4202 40.42C76.4202 39.7933 76.5068 39.1933 76.6802 38.62C76.8668 38.0333 77.1068 37.46 77.4002 36.9C77.5468 36.6333 77.7202 36.38 77.9202 36.14C78.1202 35.9 78.3468 35.6933 78.6002 35.52C78.9468 35.28 79.3068 35.14 79.6802 35.1C80.0802 35.0733 80.4402 35.16 80.7602 35.36C81.0802 35.56 81.3268 35.8333 81.5002 36.18C81.6735 36.5133 81.7268 36.8933 81.6602 37.32C81.6468 37.44 81.6202 37.5667 81.5802 37.7C81.5402 37.8333 81.4868 37.96 81.4202 38.08C81.2468 38.4133 81.0402 38.7333 80.8002 39.04C80.5735 39.3333 80.2935 39.5933 79.9602 39.82C79.7468 39.9667 79.5202 40.0933 79.2802 40.2C79.0535 40.2933 78.8068 40.3333 78.5402 40.32C78.4468 40.32 78.3868 40.3333 78.3602 40.36C78.3468 40.3867 78.3402 40.4467 78.3402 40.54C78.3268 40.7533 78.3402 40.9667 78.3802 41.18C78.4202 41.3933 78.4735 41.6067 78.5402 41.82C78.6202 41.9933 78.6935 42.0933 78.7602 42.12C78.8268 42.1467 78.9468 42.1067 79.1202 42C79.3735 41.8667 79.6002 41.6867 79.8002 41.46C79.9202 41.3533 80.0402 41.26 80.1602 41.18C80.2802 41.0867 80.4002 40.9933 80.5202 40.9C80.5735 40.8467 80.6535 40.7933 80.7602 40.74C80.9602 40.6733 81.1268 40.6933 81.2602 40.8C81.4068 40.8933 81.4802 41.0467 81.4802 41.26C81.4802 41.3533 81.4735 41.4467 81.4602 41.54C81.4468 41.6333 81.4268 41.7267 81.4002 41.82C81.2268 42.3267 80.9802 42.7667 80.6602 43.14C80.3402 43.5133 79.9068 43.7867 79.3602 43.96C78.6002 44.16 77.9402 43.98 77.3802 43.42C77.0868 43.1267 76.8802 42.8 76.7602 42.44C76.6402 42.08 76.5468 41.7067 76.4802 41.32C76.4668 41.1733 76.4535 41.0267 76.4402 40.88C76.4402 40.72 76.4335 40.5667 76.4202 40.42ZM80.1602 37.12C80.1602 37.0267 80.1535 36.9467 80.1402 36.88C80.1268 36.8 80.0868 36.7467 80.0202 36.72C79.9268 36.6667 79.8068 36.7 79.6602 36.82C79.6068 36.8467 79.5602 36.88 79.5202 36.92C79.4802 36.96 79.4335 37.0067 79.3802 37.06C79.2068 37.2733 79.0602 37.5067 78.9402 37.76C78.8335 38.0133 78.7335 38.2667 78.6402 38.52C78.5735 38.6133 78.5802 38.6867 78.6602 38.74C78.6868 38.7667 78.7202 38.78 78.7602 38.78C78.8135 38.7667 78.8535 38.7533 78.8802 38.74C79.4802 38.4067 79.9002 37.9133 80.1402 37.26C80.1535 37.2333 80.1602 37.2067 80.1602 37.18C80.1602 37.14 80.1602 37.12 80.1602 37.12ZM89.3097 43.12C89.6164 42.8933 89.8564 42.6533 90.0297 42.4C90.2697 42.0667 90.503 41.7267 90.7297 41.38C90.9697 41.0333 91.1764 40.6733 91.3497 40.3C91.363 40.2467 91.3764 40.2067 91.3897 40.18C91.403 40.14 91.4097 40.1 91.4097 40.06C91.423 39.78 91.583 39.6067 91.8897 39.54C92.1964 39.5133 92.423 39.6267 92.5697 39.88C92.6497 39.9733 92.6964 40.0733 92.7097 40.18C92.7364 40.2733 92.7497 40.38 92.7497 40.5C92.6964 41.2067 92.5097 41.8867 92.1897 42.54C91.7897 43.3267 91.2564 43.98 90.5897 44.5C90.443 44.62 90.2897 44.72 90.1297 44.8C89.983 44.8933 89.8164 44.96 89.6297 45C89.2964 45.08 88.963 45.0467 88.6297 44.9C88.2964 44.7667 88.0297 44.5533 87.8297 44.26C87.7097 44.06 87.603 43.8533 87.5097 43.64C87.4164 43.4133 87.3364 43.1867 87.2697 42.96C87.0964 42.4667 86.9697 41.96 86.8897 41.44C86.8097 40.92 86.7364 40.4 86.6697 39.88C86.563 39.1333 86.483 38.3733 86.4297 37.6C86.363 36.8267 86.3297 36.0533 86.3297 35.28C86.3297 35.1333 86.3164 35.0467 86.2897 35.02C86.263 34.9933 86.1697 34.9933 86.0097 35.02C85.8364 35.06 85.663 35.1067 85.4897 35.16C85.303 35.2 85.1164 35.2333 84.9297 35.26C84.703 35.3133 84.463 35.28 84.2097 35.16C83.9697 35.0133 83.8364 34.8133 83.8097 34.56C83.783 34.2933 83.863 34.0667 84.0497 33.88C84.2364 33.72 84.4364 33.6067 84.6497 33.54C84.8897 33.4733 85.1297 33.4067 85.3697 33.34C85.5964 33.2733 85.8297 33.2133 86.0697 33.16C86.2297 33.1333 86.3297 33.1067 86.3697 33.08C86.3964 33.04 86.4164 32.9333 86.4297 32.76C86.443 32.3067 86.483 31.86 86.5497 31.42C86.603 30.9667 86.6897 30.5133 86.8097 30.06C86.863 29.9 86.9097 29.74 86.9497 29.58C87.003 29.4067 87.0764 29.2467 87.1697 29.1C87.2497 28.9933 87.3297 28.9 87.4097 28.82C87.4897 28.7267 87.583 28.6533 87.6897 28.6C87.943 28.4267 88.223 28.4133 88.5297 28.56C88.663 28.6533 88.743 28.7667 88.7697 28.9C88.8097 29.0333 88.8164 29.1733 88.7897 29.32C88.763 29.6133 88.7097 29.9067 88.6297 30.2C88.5497 30.48 88.4964 30.7733 88.4697 31.08C88.443 31.3333 88.4097 31.5867 88.3697 31.84C88.343 32.0933 88.3164 32.3533 88.2897 32.62C88.2897 32.74 88.2964 32.8133 88.3097 32.84C88.3364 32.8533 88.4164 32.86 88.5497 32.86C88.8164 32.86 89.0697 32.8533 89.3097 32.84C89.5497 32.8267 89.7964 32.82 90.0497 32.82C90.503 32.82 90.883 32.9933 91.1897 33.34C91.2697 33.4067 91.3297 33.4867 91.3697 33.58C91.423 33.66 91.4564 33.7467 91.4697 33.84C91.4964 34.0667 91.423 34.2667 91.2497 34.44C91.0764 34.6 90.8964 34.64 90.7097 34.56C90.683 34.56 90.6497 34.56 90.6097 34.56C90.583 34.5467 90.5497 34.5467 90.5097 34.56C90.2164 34.6667 89.9164 34.7133 89.6097 34.7C89.3164 34.6867 89.0164 34.7 88.7097 34.74H88.4297C88.2697 34.74 88.1897 34.82 88.1897 34.98C88.2164 35.2333 88.2297 35.4867 88.2297 35.74C88.2297 35.98 88.2364 36.2267 88.2497 36.48C88.2764 37.1333 88.323 37.7867 88.3897 38.44C88.4564 39.0933 88.543 39.74 88.6497 40.38C88.6897 40.7133 88.7364 41.0467 88.7897 41.38C88.8564 41.7 88.9364 42.0267 89.0297 42.36C89.0564 42.48 89.0964 42.6 89.1497 42.72C89.203 42.84 89.2564 42.9733 89.3097 43.12ZM100.232 39.58C100.165 40.8867 99.6851 42.1067 98.7917 43.24C98.6317 43.4533 98.4451 43.64 98.2317 43.8C98.0184 43.9467 97.7784 44.06 97.5117 44.14C96.9917 44.26 96.4917 44.2 96.0117 43.96C95.8384 43.8533 95.6717 43.7267 95.5117 43.58C95.3517 43.42 95.2184 43.2533 95.1117 43.08C94.7651 42.5333 94.5317 41.9733 94.4117 41.4C94.2917 40.8133 94.2517 40.2133 94.2917 39.6C94.3451 39.0533 94.4651 38.5333 94.6517 38.04C94.8384 37.5333 95.1117 37.0733 95.4717 36.66C95.7784 36.3267 96.1451 36.12 96.5717 36.04C96.7717 35.9867 96.9517 35.9867 97.1117 36.04C97.2717 36.08 97.4251 36.16 97.5717 36.28C97.6117 36.32 97.6584 36.3467 97.7117 36.36C97.7651 36.36 97.8251 36.36 97.8917 36.36C98.2517 36.32 98.5717 36.3733 98.8517 36.52C99.1451 36.6667 99.3984 36.8867 99.6117 37.18C99.8517 37.5133 100.012 37.8733 100.092 38.26C100.185 38.6333 100.232 39.0733 100.232 39.58ZM97.3917 38.08C97.2451 38.08 97.0917 38.1 96.9317 38.14C96.7984 38.14 96.6984 38.1733 96.6317 38.24C96.5651 38.3067 96.5051 38.4 96.4517 38.52C96.2651 39.0133 96.1651 39.5067 96.1517 40C96.1517 40.4933 96.2251 40.9933 96.3717 41.5C96.4517 41.7133 96.5784 41.9333 96.7517 42.16C96.8451 42.2533 96.9117 42.3067 96.9517 42.32C97.0051 42.32 97.0784 42.2733 97.1717 42.18C97.2917 42.06 97.4051 41.94 97.5117 41.82C97.6317 41.6867 97.7317 41.5467 97.8117 41.4C97.8784 41.24 97.9451 41.0733 98.0117 40.9C98.0917 40.7267 98.1517 40.5533 98.1917 40.38C98.2584 40.1267 98.3117 39.8733 98.3517 39.62C98.3917 39.3533 98.3784 39.0867 98.3117 38.82C98.2451 38.54 98.1451 38.3467 98.0117 38.24C97.8784 38.1333 97.6717 38.08 97.3917 38.08ZM110.704 42.46C110.611 42.5267 110.538 42.6133 110.484 42.72C110.444 42.8133 110.391 42.8933 110.324 42.96C110.191 43.16 110.044 43.3467 109.884 43.52C109.724 43.68 109.531 43.8067 109.304 43.9C108.931 44.0733 108.551 44.0867 108.164 43.94C107.791 43.78 107.531 43.5067 107.384 43.12C107.091 42.3733 107.004 41.66 107.124 40.98C107.258 40.3 107.564 39.6533 108.044 39.04C108.311 38.7067 108.624 38.4733 108.984 38.34C109.358 38.1933 109.764 38.1667 110.204 38.26C110.231 38.26 110.251 38.2667 110.264 38.28C110.291 38.28 110.318 38.28 110.344 38.28C110.398 38.1733 110.411 38.08 110.384 38C110.358 37.9067 110.338 37.8133 110.324 37.72C110.271 37.4267 110.204 37.1467 110.124 36.88C110.058 36.6133 109.971 36.3533 109.864 36.1C109.704 35.7533 109.558 35.5667 109.424 35.54C109.304 35.5133 109.104 35.62 108.824 35.86C108.384 36.2333 108.004 36.68 107.684 37.2C107.578 37.3333 107.524 37.4667 107.524 37.6C107.524 37.8933 107.384 38.08 107.104 38.16C107.011 38.1867 106.898 38.1733 106.764 38.12C106.631 38.0667 106.524 37.9933 106.444 37.9C106.271 37.6333 106.211 37.34 106.264 37.02C106.318 36.7133 106.404 36.4267 106.524 36.16C106.644 35.88 106.791 35.62 106.964 35.38C107.151 35.1133 107.351 34.8733 107.564 34.66C107.778 34.4333 108.018 34.2333 108.284 34.06C108.711 33.7933 109.171 33.68 109.664 33.72C110.171 33.7467 110.618 33.98 111.004 34.42C111.178 34.5933 111.311 34.7867 111.404 35C111.511 35.2 111.611 35.4133 111.704 35.64C111.851 36.0533 111.971 36.4733 112.064 36.9C112.171 37.3267 112.251 37.76 112.304 38.2C112.371 38.8 112.431 39.3933 112.484 39.98C112.538 40.5667 112.584 41.16 112.624 41.76C112.664 42.1067 112.664 42.46 112.624 42.82C112.598 43.22 112.431 43.5067 112.124 43.68C111.818 43.84 111.498 43.8133 111.164 43.6C111.031 43.5067 110.938 43.3933 110.884 43.26C110.831 43.1267 110.791 42.9867 110.764 42.84C110.751 42.7733 110.744 42.7133 110.744 42.66C110.744 42.5933 110.731 42.5267 110.704 42.46ZM109.004 42C109.218 41.7733 109.424 41.5533 109.624 41.34C109.824 41.1133 109.998 40.8667 110.144 40.6C110.184 40.52 110.178 40.4267 110.124 40.32C110.084 40.2 110.018 40.1133 109.924 40.06C109.831 39.9933 109.758 39.9867 109.704 40.04C109.664 40.08 109.611 40.1133 109.544 40.14C109.531 40.1667 109.511 40.1933 109.484 40.22C109.458 40.2467 109.438 40.2733 109.424 40.3C109.251 40.5533 109.124 40.82 109.044 41.1C108.964 41.3667 108.951 41.6667 109.004 42ZM117.591 43.12C117.898 42.8933 118.138 42.6533 118.311 42.4C118.551 42.0667 118.784 41.7267 119.011 41.38C119.251 41.0333 119.458 40.6733 119.631 40.3C119.644 40.2467 119.658 40.2067 119.671 40.18C119.684 40.14 119.691 40.1 119.691 40.06C119.704 39.78 119.864 39.6067 120.171 39.54C120.478 39.5133 120.704 39.6267 120.851 39.88C120.931 39.9733 120.978 40.0733 120.991 40.18C121.018 40.2733 121.031 40.38 121.031 40.5C120.978 41.2067 120.791 41.8867 120.471 42.54C120.071 43.3267 119.538 43.98 118.871 44.5C118.724 44.62 118.571 44.72 118.411 44.8C118.264 44.8933 118.098 44.96 117.911 45C117.578 45.08 117.244 45.0467 116.911 44.9C116.578 44.7667 116.311 44.5533 116.111 44.26C115.991 44.06 115.884 43.8533 115.791 43.64C115.698 43.4133 115.618 43.1867 115.551 42.96C115.378 42.4667 115.251 41.96 115.171 41.44C115.091 40.92 115.018 40.4 114.951 39.88C114.844 39.1333 114.764 38.3733 114.711 37.6C114.644 36.8267 114.611 36.0533 114.611 35.28C114.611 35.1333 114.598 35.0467 114.571 35.02C114.544 34.9933 114.451 34.9933 114.291 35.02C114.118 35.06 113.944 35.1067 113.771 35.16C113.584 35.2 113.398 35.2333 113.211 35.26C112.984 35.3133 112.744 35.28 112.491 35.16C112.251 35.0133 112.118 34.8133 112.091 34.56C112.064 34.2933 112.144 34.0667 112.331 33.88C112.518 33.72 112.718 33.6067 112.931 33.54C113.171 33.4733 113.411 33.4067 113.651 33.34C113.878 33.2733 114.111 33.2133 114.351 33.16C114.511 33.1333 114.611 33.1067 114.651 33.08C114.678 33.04 114.698 32.9333 114.711 32.76C114.724 32.3067 114.764 31.86 114.831 31.42C114.884 30.9667 114.971 30.5133 115.091 30.06C115.144 29.9 115.191 29.74 115.231 29.58C115.284 29.4067 115.358 29.2467 115.451 29.1C115.531 28.9933 115.611 28.9 115.691 28.82C115.771 28.7267 115.864 28.6533 115.971 28.6C116.224 28.4267 116.504 28.4133 116.811 28.56C116.944 28.6533 117.024 28.7667 117.051 28.9C117.091 29.0333 117.098 29.1733 117.071 29.32C117.044 29.6133 116.991 29.9067 116.911 30.2C116.831 30.48 116.778 30.7733 116.751 31.08C116.724 31.3333 116.691 31.5867 116.651 31.84C116.624 32.0933 116.598 32.3533 116.571 32.62C116.571 32.74 116.578 32.8133 116.591 32.84C116.618 32.8533 116.698 32.86 116.831 32.86C117.098 32.86 117.351 32.8533 117.591 32.84C117.831 32.8267 118.078 32.82 118.331 32.82C118.784 32.82 119.164 32.9933 119.471 33.34C119.551 33.4067 119.611 33.4867 119.651 33.58C119.704 33.66 119.738 33.7467 119.751 33.84C119.778 34.0667 119.704 34.2667 119.531 34.44C119.358 34.6 119.178 34.64 118.991 34.56C118.964 34.56 118.931 34.56 118.891 34.56C118.864 34.5467 118.831 34.5467 118.791 34.56C118.498 34.6667 118.198 34.7133 117.891 34.7C117.598 34.6867 117.298 34.7 116.991 34.74H116.711C116.551 34.74 116.471 34.82 116.471 34.98C116.498 35.2333 116.511 35.4867 116.511 35.74C116.511 35.98 116.518 36.2267 116.531 36.48C116.558 37.1333 116.604 37.7867 116.671 38.44C116.738 39.0933 116.824 39.74 116.931 40.38C116.971 40.7133 117.018 41.0467 117.071 41.38C117.138 41.7 117.218 42.0267 117.311 42.36C117.338 42.48 117.378 42.6 117.431 42.72C117.484 42.84 117.538 42.9733 117.591 43.12ZM126.282 43.12C126.589 42.8933 126.829 42.6533 127.002 42.4C127.242 42.0667 127.476 41.7267 127.702 41.38C127.942 41.0333 128.149 40.6733 128.322 40.3C128.336 40.2467 128.349 40.2067 128.362 40.18C128.376 40.14 128.382 40.1 128.382 40.06C128.396 39.78 128.556 39.6067 128.862 39.54C129.169 39.5133 129.396 39.6267 129.542 39.88C129.622 39.9733 129.669 40.0733 129.682 40.18C129.709 40.2733 129.722 40.38 129.722 40.5C129.669 41.2067 129.482 41.8867 129.162 42.54C128.762 43.3267 128.229 43.98 127.562 44.5C127.416 44.62 127.262 44.72 127.102 44.8C126.956 44.8933 126.789 44.96 126.602 45C126.269 45.08 125.936 45.0467 125.602 44.9C125.269 44.7667 125.002 44.5533 124.802 44.26C124.682 44.06 124.576 43.8533 124.482 43.64C124.389 43.4133 124.309 43.1867 124.242 42.96C124.069 42.4667 123.942 41.96 123.862 41.44C123.782 40.92 123.709 40.4 123.642 39.88C123.536 39.1333 123.456 38.3733 123.402 37.6C123.336 36.8267 123.302 36.0533 123.302 35.28C123.302 35.1333 123.289 35.0467 123.262 35.02C123.236 34.9933 123.142 34.9933 122.982 35.02C122.809 35.06 122.636 35.1067 122.462 35.16C122.276 35.2 122.089 35.2333 121.902 35.26C121.676 35.3133 121.436 35.28 121.182 35.16C120.942 35.0133 120.809 34.8133 120.782 34.56C120.756 34.2933 120.836 34.0667 121.022 33.88C121.209 33.72 121.409 33.6067 121.622 33.54C121.862 33.4733 122.102 33.4067 122.342 33.34C122.569 33.2733 122.802 33.2133 123.042 33.16C123.202 33.1333 123.302 33.1067 123.342 33.08C123.369 33.04 123.389 32.9333 123.402 32.76C123.416 32.3067 123.456 31.86 123.522 31.42C123.576 30.9667 123.662 30.5133 123.782 30.06C123.836 29.9 123.882 29.74 123.922 29.58C123.976 29.4067 124.049 29.2467 124.142 29.1C124.222 28.9933 124.302 28.9 124.382 28.82C124.462 28.7267 124.556 28.6533 124.662 28.6C124.916 28.4267 125.196 28.4133 125.502 28.56C125.636 28.6533 125.716 28.7667 125.742 28.9C125.782 29.0333 125.789 29.1733 125.762 29.32C125.736 29.6133 125.682 29.9067 125.602 30.2C125.522 30.48 125.469 30.7733 125.442 31.08C125.416 31.3333 125.382 31.5867 125.342 31.84C125.316 32.0933 125.289 32.3533 125.262 32.62C125.262 32.74 125.269 32.8133 125.282 32.84C125.309 32.8533 125.389 32.86 125.522 32.86C125.789 32.86 126.042 32.8533 126.282 32.84C126.522 32.8267 126.769 32.82 127.022 32.82C127.476 32.82 127.856 32.9933 128.162 33.34C128.242 33.4067 128.302 33.4867 128.342 33.58C128.396 33.66 128.429 33.7467 128.442 33.84C128.469 34.0667 128.396 34.2667 128.222 34.44C128.049 34.6 127.869 34.64 127.682 34.56C127.656 34.56 127.622 34.56 127.582 34.56C127.556 34.5467 127.522 34.5467 127.482 34.56C127.189 34.6667 126.889 34.7133 126.582 34.7C126.289 34.6867 125.989 34.7 125.682 34.74H125.402C125.242 34.74 125.162 34.82 125.162 34.98C125.189 35.2333 125.202 35.4867 125.202 35.74C125.202 35.98 125.209 36.2267 125.222 36.48C125.249 37.1333 125.296 37.7867 125.362 38.44C125.429 39.0933 125.516 39.74 125.622 40.38C125.662 40.7133 125.709 41.0467 125.762 41.38C125.829 41.7 125.909 42.0267 126.002 42.36C126.029 42.48 126.069 42.6 126.122 42.72C126.176 42.84 126.229 42.9733 126.282 43.12ZM131.244 40.42C131.244 39.7933 131.331 39.1933 131.504 38.62C131.691 38.0333 131.931 37.46 132.224 36.9C132.371 36.6333 132.544 36.38 132.744 36.14C132.944 35.9 133.171 35.6933 133.424 35.52C133.771 35.28 134.131 35.14 134.504 35.1C134.904 35.0733 135.264 35.16 135.584 35.36C135.904 35.56 136.151 35.8333 136.324 36.18C136.498 36.5133 136.551 36.8933 136.484 37.32C136.471 37.44 136.444 37.5667 136.404 37.7C136.364 37.8333 136.311 37.96 136.244 38.08C136.071 38.4133 135.864 38.7333 135.624 39.04C135.398 39.3333 135.118 39.5933 134.784 39.82C134.571 39.9667 134.344 40.0933 134.104 40.2C133.878 40.2933 133.631 40.3333 133.364 40.32C133.271 40.32 133.211 40.3333 133.184 40.36C133.171 40.3867 133.164 40.4467 133.164 40.54C133.151 40.7533 133.164 40.9667 133.204 41.18C133.244 41.3933 133.298 41.6067 133.364 41.82C133.444 41.9933 133.518 42.0933 133.584 42.12C133.651 42.1467 133.771 42.1067 133.944 42C134.198 41.8667 134.424 41.6867 134.624 41.46C134.744 41.3533 134.864 41.26 134.984 41.18C135.104 41.0867 135.224 40.9933 135.344 40.9C135.398 40.8467 135.478 40.7933 135.584 40.74C135.784 40.6733 135.951 40.6933 136.084 40.8C136.231 40.8933 136.304 41.0467 136.304 41.26C136.304 41.3533 136.298 41.4467 136.284 41.54C136.271 41.6333 136.251 41.7267 136.224 41.82C136.051 42.3267 135.804 42.7667 135.484 43.14C135.164 43.5133 134.731 43.7867 134.184 43.96C133.424 44.16 132.764 43.98 132.204 43.42C131.911 43.1267 131.704 42.8 131.584 42.44C131.464 42.08 131.371 41.7067 131.304 41.32C131.291 41.1733 131.278 41.0267 131.264 40.88C131.264 40.72 131.258 40.5667 131.244 40.42ZM134.984 37.12C134.984 37.0267 134.978 36.9467 134.964 36.88C134.951 36.8 134.911 36.7467 134.844 36.72C134.751 36.6667 134.631 36.7 134.484 36.82C134.431 36.8467 134.384 36.88 134.344 36.92C134.304 36.96 134.258 37.0067 134.204 37.06C134.031 37.2733 133.884 37.5067 133.764 37.76C133.658 38.0133 133.558 38.2667 133.464 38.52C133.398 38.6133 133.404 38.6867 133.484 38.74C133.511 38.7667 133.544 38.78 133.584 38.78C133.638 38.7667 133.678 38.7533 133.704 38.74C134.304 38.4067 134.724 37.9133 134.964 37.26C134.978 37.2333 134.984 37.2067 134.984 37.18C134.984 37.14 134.984 37.12 134.984 37.12ZM141.982 38.7C141.742 38.9133 141.568 39.1333 141.462 39.36C141.182 39.8533 140.955 40.3733 140.782 40.92C140.608 41.4667 140.475 42.0267 140.382 42.6C140.368 42.7333 140.342 42.8667 140.302 43C140.262 43.1333 140.208 43.2533 140.142 43.36C139.942 43.6933 139.675 43.84 139.342 43.8C139.168 43.8 139.022 43.7533 138.902 43.66C138.782 43.5667 138.675 43.4467 138.582 43.3C138.528 43.18 138.488 43.0533 138.462 42.92C138.448 42.7867 138.428 42.6533 138.402 42.52C138.335 41.9867 138.262 41.4533 138.182 40.92C138.115 40.3733 138.068 39.8333 138.042 39.3C138.015 38.94 138.015 38.58 138.042 38.22C138.068 37.86 138.108 37.5 138.162 37.14C138.162 37.0733 138.175 37.0133 138.202 36.96C138.228 36.8933 138.248 36.8333 138.262 36.78C138.382 36.4467 138.602 36.3 138.922 36.34C139.055 36.3533 139.175 36.4133 139.282 36.52C139.388 36.6267 139.448 36.7533 139.462 36.9C139.502 37.22 139.535 37.5333 139.562 37.84C139.602 38.1467 139.648 38.4533 139.702 38.76C139.715 38.8133 139.722 38.88 139.722 38.96C139.722 39.0267 139.742 39.0933 139.782 39.16C139.848 39.1333 139.888 39.1 139.902 39.06C139.915 39.0067 139.928 38.96 139.942 38.92C140.075 38.6533 140.208 38.3933 140.342 38.14C140.475 37.8733 140.628 37.6333 140.802 37.42C140.882 37.3133 140.962 37.2133 141.042 37.12C141.122 37.0133 141.215 36.92 141.322 36.84C141.668 36.56 142.042 36.4533 142.442 36.52C142.842 36.5733 143.168 36.7933 143.422 37.18C143.542 37.3933 143.635 37.62 143.702 37.86C143.768 38.0867 143.815 38.32 143.842 38.56C143.908 38.96 143.962 39.3667 144.002 39.78C144.055 40.18 144.108 40.58 144.162 40.98C144.188 41.22 144.222 41.46 144.262 41.7C144.315 41.9267 144.355 42.16 144.382 42.4C144.408 42.4933 144.442 42.5733 144.482 42.64C144.522 42.7067 144.588 42.7733 144.682 42.84C144.962 42.9867 145.048 43.22 144.942 43.54C144.822 43.8733 144.615 44.08 144.322 44.16C144.028 44.24 143.748 44.1733 143.482 43.96C143.362 43.8533 143.262 43.74 143.182 43.62C143.102 43.5 143.028 43.3733 142.962 43.24C142.748 42.8533 142.588 42.46 142.482 42.06C142.375 41.66 142.295 41.24 142.242 40.8C142.202 40.4933 142.168 40.18 142.142 39.86C142.115 39.54 142.068 39.2267 142.002 38.92C142.002 38.8933 141.995 38.8667 141.982 38.84C141.982 38.8 141.982 38.7533 141.982 38.7ZM150.68 41.32C150.56 41.5333 150.454 41.7267 150.36 41.9C150.28 42.06 150.187 42.2267 150.08 42.4C149.907 42.6533 149.727 42.8867 149.54 43.1C149.354 43.3 149.134 43.4867 148.88 43.66C148.4 43.98 147.9 44.1 147.38 44.02C146.794 43.9 146.34 43.5667 146.02 43.02C145.86 42.74 145.747 42.4533 145.68 42.16C145.614 41.8533 145.58 41.5333 145.58 41.2C145.594 40.3333 145.767 39.5467 146.1 38.84C146.434 38.1333 146.9 37.4867 147.5 36.9C147.687 36.74 147.88 36.5867 148.08 36.44C148.28 36.2933 148.507 36.2 148.76 36.16C148.987 36.1067 149.2 36.0867 149.4 36.1C149.614 36.1133 149.827 36.1533 150.04 36.22C150.067 36.2333 150.107 36.2467 150.16 36.26C150.214 36.26 150.267 36.2467 150.32 36.22C150.32 36.0067 150.32 35.7867 150.32 35.56C150.334 35.32 150.334 35.0867 150.32 34.86C150.32 34.34 150.34 33.8333 150.38 33.34C150.394 33.0333 150.394 32.7333 150.38 32.44C150.38 32.1467 150.38 31.8533 150.38 31.56C150.394 31.3067 150.4 31.0467 150.4 30.78C150.414 30.5133 150.434 30.2533 150.46 30C150.487 29.8133 150.52 29.6333 150.56 29.46C150.614 29.2867 150.694 29.1267 150.8 28.98C150.894 28.7667 151.054 28.66 151.28 28.66C151.547 28.62 151.747 28.7267 151.88 28.98C151.974 29.1267 152.04 29.2867 152.08 29.46C152.134 29.62 152.167 29.7933 152.18 29.98C152.22 30.3133 152.24 30.6533 152.24 31C152.254 31.3467 152.254 31.6933 152.24 32.04C152.24 32.84 152.234 33.6467 152.22 34.46C152.207 35.26 152.194 36.0667 152.18 36.88C152.18 37.3333 152.18 37.7867 152.18 38.24C152.194 38.68 152.194 39.1267 152.18 39.58C152.167 40.0333 152.16 40.4933 152.16 40.96C152.16 41.4133 152.187 41.8733 152.24 42.34C152.24 42.54 152.267 42.74 152.32 42.94C152.454 43.2867 152.354 43.5467 152.02 43.72C151.74 43.8533 151.48 43.7733 151.24 43.48C151.187 43.3867 151.14 43.2867 151.1 43.18C151.06 43.0733 151.027 42.9733 151 42.88C150.947 42.64 150.894 42.3933 150.84 42.14C150.8 41.8733 150.747 41.6 150.68 41.32ZM149.68 37.9C149.534 37.8733 149.407 37.8867 149.3 37.94C149.194 37.98 149.094 38.0333 149 38.1C148.88 38.18 148.774 38.2733 148.68 38.38C148.587 38.4733 148.494 38.58 148.4 38.7C148.08 39.1133 147.834 39.5467 147.66 40C147.5 40.4533 147.447 40.94 147.5 41.46C147.5 41.58 147.507 41.7133 147.52 41.86C147.547 41.9933 147.62 42.0733 147.74 42.1C147.847 42.1267 147.94 42.0933 148.02 42C148.114 41.8933 148.187 41.7933 148.24 41.7C148.507 41.34 148.72 40.9733 148.88 40.6C149.054 40.2267 149.2 39.8333 149.32 39.42C149.4 39.1667 149.467 38.92 149.52 38.68C149.574 38.4267 149.627 38.1667 149.68 37.9ZM154.261 36.9V34C154.274 33.3733 154.281 32.7533 154.281 32.14C154.294 31.5267 154.314 30.9133 154.341 30.3C154.367 29.8733 154.394 29.44 154.421 29C154.461 28.5467 154.507 28.1 154.561 27.66C154.587 27.3933 154.654 27.1667 154.761 26.98C154.934 26.62 155.187 26.46 155.521 26.5C155.707 26.5133 155.861 26.5733 155.981 26.68C156.101 26.7867 156.187 26.9267 156.241 27.1C156.307 27.2733 156.334 27.4533 156.321 27.64C156.321 27.8267 156.314 28.0133 156.301 28.2C156.274 28.5333 156.261 28.8667 156.261 29.2C156.261 29.52 156.254 29.84 156.241 30.16C156.227 30.68 156.187 31.1933 156.121 31.7C156.067 32.2067 156.014 32.7133 155.961 33.22C155.947 33.4733 155.934 33.7267 155.921 33.98C155.921 34.2333 155.907 34.48 155.881 34.72C155.827 35.1067 155.787 35.5 155.761 35.9C155.747 36.3 155.714 36.6933 155.661 37.08C155.634 37.3067 155.614 37.5333 155.601 37.76C155.587 37.9867 155.567 38.22 155.541 38.46C155.501 38.9 155.461 39.3467 155.421 39.8C155.394 40.24 155.354 40.6867 155.301 41.14C155.301 41.2333 155.287 41.3267 155.261 41.42C155.234 41.5 155.201 41.5867 155.161 41.68C155.054 41.8933 154.901 41.98 154.701 41.94C154.514 41.94 154.387 41.8333 154.321 41.62C154.267 41.4467 154.234 41.28 154.221 41.12C154.221 40.96 154.221 40.7933 154.221 40.62C154.221 40.0733 154.221 39.5067 154.221 38.92C154.221 38.32 154.234 37.6467 154.261 36.9ZM155.341 44.92C155.327 45.0133 155.314 45.0933 155.301 45.16C155.287 45.24 155.267 45.32 155.241 45.4C155.094 45.7467 154.834 45.9067 154.461 45.88C154.314 45.8533 154.181 45.7733 154.061 45.64C153.954 45.5067 153.901 45.3533 153.901 45.18C153.901 44.9933 153.934 44.8133 154.001 44.64C154.081 44.48 154.207 44.3533 154.381 44.26C154.567 44.1133 154.761 44.08 154.961 44.16C155.161 44.2533 155.274 44.4133 155.301 44.64C155.327 44.6933 155.334 44.74 155.321 44.78C155.321 44.82 155.327 44.8667 155.341 44.92Z" fill="black"/>
<path d="M203.8 23.025C203.25 23.025 202.779 22.825 202.387 22.425C201.996 22.025 201.8 21.55 201.8 21C201.8 20.45 201.996 19.9792 202.387 19.5875C202.779 19.1958 203.25 19 203.8 19L204.4 18.425C204.533 18.2917 204.687 18.1875 204.862 18.1125C205.037 18.0375 205.216 18 205.4 18C205.783 18 206.112 18.1417 206.387 18.425C206.662 18.7083 206.8 19.0417 206.8 19.425V19.85C206.8 20.1833 206.908 20.4583 207.125 20.675C207.341 20.8917 207.616 21 207.95 21C208.2 21 208.425 20.925 208.625 20.775C208.825 20.625 208.966 20.4333 209.05 20.2L209.35 19.375C209.5 18.975 209.741 18.6458 210.075 18.3875C210.408 18.1292 210.791 18 211.225 18C211.408 17.5333 211.554 17.05 211.662 16.55C211.771 16.05 211.825 15.5333 211.825 15C211.825 13.5167 211.454 12.1625 210.712 10.9375C209.971 9.7125 209 8.75 207.8 8.05V9C207.8 9.55 207.604 10.0208 207.212 10.4125C206.821 10.8042 206.35 11 205.8 11H204.8V13C204.8 13.2833 204.704 13.5208 204.512 13.7125C204.321 13.9042 204.083 14 203.8 14H202.8V15.7C202.8 16.0667 202.675 16.375 202.425 16.625C202.175 16.875 201.866 17 201.5 17C201.266 17 201.054 16.95 200.862 16.85C200.671 16.75 200.516 16.6083 200.4 16.425L198.8 14H197.8V15C197.8 15.5167 197.625 15.9583 197.275 16.325C196.925 16.6917 196.508 16.9083 196.025 16.975C196.458 18.7083 197.396 20.15 198.837 21.3C200.279 22.45 201.933 23.025 203.8 23.025ZM205.8 17C205.516 17 205.279 16.9042 205.087 16.7125C204.896 16.5208 204.8 16.2833 204.8 16C204.8 15.7167 204.896 15.4792 205.087 15.2875C205.279 15.0958 205.516 15 205.8 15H206.8C207.083 15 207.321 15.0958 207.512 15.2875C207.704 15.4792 207.8 15.7167 207.8 16C207.8 16.2833 207.704 16.5208 207.512 16.7125C207.321 16.9042 207.083 17 206.8 17H205.8ZM208.125 14C207.791 14 207.529 13.8708 207.337 13.6125C207.146 13.3542 207.1 13.0667 207.2 12.75L207.575 11.65C207.641 11.45 207.758 11.2917 207.925 11.175C208.091 11.0583 208.275 11 208.475 11C208.808 11 209.071 11.1292 209.262 11.3875C209.454 11.6458 209.5 11.9333 209.4 12.25L209.025 13.35C208.958 13.55 208.841 13.7083 208.675 13.825C208.508 13.9417 208.325 14 208.125 14ZM203.8 25C202.416 25 201.116 24.7375 199.9 24.2125C198.683 23.6875 197.625 22.975 196.725 22.075C195.825 21.175 195.112 20.1167 194.587 18.9C194.062 17.6833 193.8 16.3833 193.8 15C193.8 13.6167 194.062 12.3167 194.587 11.1C195.112 9.88333 195.825 8.825 196.725 7.925C197.625 7.025 198.683 6.3125 199.9 5.7875C201.116 5.2625 202.416 5 203.8 5C205.183 5 206.483 5.2625 207.7 5.7875C208.916 6.3125 209.975 7.025 210.875 7.925C211.775 8.825 212.487 9.88333 213.012 11.1C213.537 12.3167 213.8 13.6167 213.8 15C213.8 16.3833 213.537 17.6833 213.012 18.9C212.487 20.1167 211.775 21.175 210.875 22.075C209.975 22.975 208.916 23.6875 207.7 24.2125C206.483 24.7375 205.183 25 203.8 25Z" fill="#006D41"/>
<path d="M222.981 14.9095C222.434 14.9873 222.054 15.4936 222.132 16.0404C222.209 16.5871 222.716 16.9674 223.262 16.8896L222.981 14.9095ZM284.989 53.909C285.42 54.2547 286.049 54.1858 286.395 53.7552L292.029 46.7367C292.375 46.3061 292.306 45.6766 291.875 45.3309C291.445 44.9852 290.815 45.0541 290.469 45.4847L285.461 51.7233L279.223 46.7153C278.792 46.3696 278.163 46.4385 277.817 46.8692C277.471 47.2998 277.54 47.9292 277.971 48.275L284.989 53.909ZM223.122 15.8996L223.262 16.8896C230.829 15.8134 244.903 13.1703 257.754 16.6764C264.145 18.4202 270.196 21.6793 274.974 27.3994C279.754 33.1223 283.324 41.3837 284.621 53.2379L285.615 53.1292L286.609 53.0204C285.28 40.8698 281.597 32.2087 276.509 26.1172C271.418 20.0228 264.983 16.5756 258.28 14.7469C244.942 11.1079 230.396 13.8549 222.981 14.9095L223.122 15.8996Z" fill="black"/>
</svg>
