<svg width="213" height="25" viewBox="0 0 213 25" fill="none" xmlns="http://www.w3.org/2000/svg">
<path d="M0.509766 2.78008C66.3198 -0.19992 132.33 -0.12992 198.11 3.73008C202.74 4.06008 207.63 4.07008 211.54 7.16008C213.05 8.42008 213.26 10.7901 211.45 12.0101C209.67 13.2801 207.41 13.5101 205.47 13.6801C202.41 13.8901 199.37 13.6101 196.46 13.2801C179.03 11.4601 161.51 10.6501 143.99 10.1201C114.81 9.36008 85.4998 8.96008 56.4298 11.7401C50.8098 12.4201 44.8398 13.0301 39.5898 14.9901C38.2798 15.4901 37.5198 16.0701 36.5998 17.1901C36.1898 17.6801 35.8198 18.2401 35.7198 18.5701C35.6798 18.7401 35.7198 18.6801 35.6798 18.6401C38.1098 19.6901 41.3498 19.1001 44.0398 19.0301C61.4898 17.4301 78.9198 14.7801 96.4398 13.6101C119.82 11.8801 143.38 11.6801 166.72 14.1201C175.42 15.1301 184.28 16.4301 192.42 19.7901C194.98 21.0001 198.01 22.3101 199.26 25.0101C198.7 23.6301 197.43 22.7401 196.24 21.9501C194.5 20.7901 192.25 19.9501 190.29 19.2201C171.34 13.5601 151.21 13.8601 131.6 13.7501C102.27 13.7701 73.3098 18.1501 44.2298 21.5301C41.9898 21.7101 39.7198 21.8601 37.4398 21.6801C36.1098 21.5101 34.4098 21.3901 33.4698 19.9401C32.2098 17.6101 34.8298 15.1601 36.3898 13.7601C39.7098 11.6301 43.6898 11.0501 47.3498 10.3101C56.0698 8.83008 64.8998 8.20008 73.7098 7.68008C114.74 5.80008 155.88 6.43008 196.75 10.5001C200.89 10.9201 205.24 11.5101 209.11 10.1901C209.65 9.99008 210.03 9.62008 210.03 9.59008C210.01 9.59008 210.03 9.65008 210.01 9.57008C209.28 8.51008 207.77 7.99008 206.31 7.52008C203.6 6.71008 200.8 6.55008 197.93 6.39008C132.22 2.28008 66.3298 1.43008 0.509766 2.78008Z" fill="#3EA26D"/>
</svg>
