<svg width="291" height="56" viewBox="0 0 291 56" fill="none" xmlns="http://www.w3.org/2000/svg">
<path d="M39.8644 14.22C39.8777 15.82 40.5444 17.06 41.8644 17.94C42.1844 18.1533 42.5177 18.34 42.8644 18.5C43.2244 18.66 43.571 18.8133 43.9044 18.96C44.2377 19.0933 44.571 19.2467 44.9044 19.42C45.2377 19.58 45.5444 19.7733 45.8244 20C45.971 20.1067 46.1044 20.2267 46.2244 20.36C46.3444 20.4933 46.4444 20.6467 46.5244 20.82C46.671 21.1533 46.7244 21.4733 46.6844 21.78C46.6577 22.0867 46.551 22.3933 46.3644 22.7C46.2044 22.9933 45.9977 23.2533 45.7444 23.48C45.5044 23.7067 45.2444 23.92 44.9644 24.12C44.591 24.36 44.1977 24.56 43.7844 24.72C43.3844 24.88 42.9577 24.9667 42.5044 24.98C42.0644 25.02 41.651 24.9533 41.2644 24.78C40.931 24.5933 40.7044 24.34 40.5844 24.02C40.4777 23.7 40.4977 23.3733 40.6444 23.04C40.711 22.8667 40.8044 22.7133 40.9244 22.58C41.0444 22.4467 41.171 22.32 41.3044 22.2C41.5577 21.9733 41.7777 21.9533 41.9644 22.14C42.1644 22.2867 42.2044 22.5067 42.0844 22.8C42.071 22.84 42.0444 22.8867 42.0044 22.94C41.9777 22.9933 41.951 23.0467 41.9244 23.1C41.8844 23.1933 41.871 23.26 41.8844 23.3C41.911 23.3267 41.9777 23.34 42.0844 23.34C42.4977 23.3533 42.8844 23.2933 43.2444 23.16C43.5377 23.04 43.811 22.9 44.0644 22.74C44.331 22.58 44.571 22.38 44.7844 22.14C44.971 21.9133 45.0577 21.74 45.0444 21.62C45.0444 21.4867 44.9177 21.34 44.6644 21.18C44.4377 21.0067 44.191 20.8667 43.9244 20.76C43.671 20.64 43.4177 20.52 43.1644 20.4C42.7777 20.2267 42.391 20.0533 42.0044 19.88C41.6177 19.7067 41.251 19.5 40.9044 19.26C40.451 18.9533 40.0444 18.6067 39.6844 18.22C39.3244 17.82 39.0244 17.3667 38.7844 16.86C38.491 16.22 38.311 15.5267 38.2444 14.78C38.2177 14.26 38.2377 13.74 38.3044 13.22C38.371 12.7 38.511 12.1933 38.7244 11.7C38.911 11.22 39.1577 10.7867 39.4644 10.4C39.771 10 40.151 9.67333 40.6044 9.42C41.111 9.11333 41.6777 8.96 42.3044 8.96C42.931 8.96 43.5444 9.25333 44.1444 9.84C44.651 10.2933 45.0577 10.8067 45.3644 11.38C45.6844 11.94 45.931 12.5467 46.1044 13.2C46.1444 13.36 46.1644 13.5267 46.1644 13.7C46.1777 13.8733 46.1777 14.0533 46.1644 14.24C46.151 14.3467 46.1177 14.4467 46.0644 14.54C46.011 14.6333 45.931 14.7067 45.8244 14.76C45.611 14.8267 45.4044 14.7667 45.2044 14.58C45.151 14.5267 45.1044 14.4667 45.0644 14.4C45.0244 14.3333 44.991 14.2733 44.9644 14.22C44.8577 14.0467 44.7644 13.8667 44.6844 13.68C44.6044 13.4933 44.5177 13.3133 44.4244 13.14C44.291 12.8333 44.1444 12.5333 43.9844 12.24C43.8244 11.9467 43.6377 11.6733 43.4244 11.42C43.331 11.3133 43.2377 11.2133 43.1444 11.12C43.051 11.0133 42.9444 10.9267 42.8244 10.86C42.451 10.5533 42.031 10.5133 41.5644 10.74C41.4044 10.8333 41.251 10.94 41.1044 11.06C40.9577 11.18 40.831 11.32 40.7244 11.48C40.4844 11.7733 40.2977 12.1 40.1644 12.46C40.0444 12.8067 39.9644 13.1733 39.9244 13.56C39.911 13.68 39.891 13.8 39.8644 13.92C39.851 14.0267 39.851 14.1267 39.8644 14.22ZM47.5998 21.42C47.5998 20.7933 47.6865 20.1933 47.8598 19.62C48.0465 19.0333 48.2865 18.46 48.5798 17.9C48.7265 17.6333 48.8998 17.38 49.0998 17.14C49.2998 16.9 49.5265 16.6933 49.7798 16.52C50.1265 16.28 50.4865 16.14 50.8598 16.1C51.2598 16.0733 51.6198 16.16 51.9398 16.36C52.2598 16.56 52.5065 16.8333 52.6798 17.18C52.8532 17.5133 52.9065 17.8933 52.8398 18.32C52.8265 18.44 52.7998 18.5667 52.7598 18.7C52.7198 18.8333 52.6665 18.96 52.5998 19.08C52.4265 19.4133 52.2198 19.7333 51.9798 20.04C51.7532 20.3333 51.4732 20.5933 51.1398 20.82C50.9265 20.9667 50.6998 21.0933 50.4598 21.2C50.2332 21.2933 49.9865 21.3333 49.7198 21.32C49.6265 21.32 49.5665 21.3333 49.5398 21.36C49.5265 21.3867 49.5198 21.4467 49.5198 21.54C49.5065 21.7533 49.5198 21.9667 49.5598 22.18C49.5998 22.3933 49.6532 22.6067 49.7198 22.82C49.7998 22.9933 49.8732 23.0933 49.9398 23.12C50.0065 23.1467 50.1265 23.1067 50.2998 23C50.5532 22.8667 50.7798 22.6867 50.9798 22.46C51.0998 22.3533 51.2198 22.26 51.3398 22.18C51.4598 22.0867 51.5798 21.9933 51.6998 21.9C51.7532 21.8467 51.8332 21.7933 51.9398 21.74C52.1398 21.6733 52.3065 21.6933 52.4398 21.8C52.5865 21.8933 52.6598 22.0467 52.6598 22.26C52.6598 22.3533 52.6532 22.4467 52.6398 22.54C52.6265 22.6333 52.6065 22.7267 52.5798 22.82C52.4065 23.3267 52.1598 23.7667 51.8398 24.14C51.5198 24.5133 51.0865 24.7867 50.5398 24.96C49.7798 25.16 49.1198 24.98 48.5598 24.42C48.2665 24.1267 48.0598 23.8 47.9398 23.44C47.8198 23.08 47.7265 22.7067 47.6598 22.32C47.6465 22.1733 47.6332 22.0267 47.6198 21.88C47.6198 21.72 47.6132 21.5667 47.5998 21.42ZM51.3398 18.12C51.3398 18.0267 51.3332 17.9467 51.3198 17.88C51.3065 17.8 51.2665 17.7467 51.1998 17.72C51.1065 17.6667 50.9865 17.7 50.8398 17.82C50.7865 17.8467 50.7398 17.88 50.6998 17.92C50.6598 17.96 50.6132 18.0067 50.5598 18.06C50.3865 18.2733 50.2398 18.5067 50.1198 18.76C50.0132 19.0133 49.9132 19.2667 49.8198 19.52C49.7532 19.6133 49.7598 19.6867 49.8398 19.74C49.8665 19.7667 49.8998 19.78 49.9398 19.78C49.9932 19.7667 50.0332 19.7533 50.0598 19.74C50.6598 19.4067 51.0798 18.9133 51.3198 18.26C51.3332 18.2333 51.3398 18.2067 51.3398 18.18C51.3398 18.14 51.3398 18.12 51.3398 18.12ZM56.2572 23.1C56.2572 23.2867 56.2639 23.48 56.2772 23.68C56.2905 23.88 56.2839 24.0867 56.2572 24.3C56.2572 24.3533 56.2572 24.42 56.2572 24.5C56.2572 24.5667 56.2505 24.64 56.2372 24.72C56.1972 24.9867 56.0572 25.1467 55.8172 25.2C55.5505 25.2133 55.3372 25.1333 55.1772 24.96C55.0839 24.8533 55.0105 24.7333 54.9572 24.6C54.9172 24.4667 54.8705 24.3333 54.8172 24.2C54.7639 23.96 54.7172 23.72 54.6772 23.48C54.6505 23.24 54.6305 23 54.6172 22.76C54.5372 22.0267 54.4839 21.2933 54.4572 20.56C54.4439 19.8267 54.4239 19.0933 54.3972 18.36C54.3839 17.3067 54.3705 16.26 54.3572 15.22C54.3572 14.18 54.3639 13.1333 54.3772 12.08C54.3772 11.9867 54.3772 11.9 54.3772 11.82C54.3905 11.7267 54.4105 11.6333 54.4372 11.54C54.5039 11.3533 54.6105 11.2 54.7572 11.08C54.9039 10.9467 55.0772 10.88 55.2772 10.88C55.6905 10.88 55.9572 11.1 56.0772 11.54C56.1172 11.66 56.1372 11.78 56.1372 11.9C56.1905 12.7667 56.2239 13.6333 56.2372 14.5C56.2639 15.3667 56.2839 16.2333 56.2972 17.1C56.2972 17.1933 56.2972 17.4133 56.2972 17.76C56.2972 18.1067 56.2972 18.52 56.2972 19C56.2972 19.4667 56.2905 19.96 56.2772 20.48C56.2772 21 56.2772 21.4933 56.2772 21.96C56.2772 22.4133 56.2705 22.7933 56.2572 23.1ZM60.2552 17.84C60.1752 18.0667 60.1152 18.2867 60.0752 18.5C60.0352 18.7133 60.0018 18.9267 59.9752 19.14C59.9352 19.6867 59.9085 20.2467 59.8952 20.82C59.8952 21.38 59.8952 21.94 59.8952 22.5C59.8952 22.6867 59.9818 22.7533 60.1552 22.7C60.5552 22.6333 60.9685 22.6133 61.3952 22.64C61.8618 22.68 62.0818 22.92 62.0552 23.36C62.0552 23.5067 62.0018 23.6267 61.8952 23.72C61.8018 23.8133 61.7018 23.8933 61.5952 23.96C61.3818 24.0667 61.1685 24.16 60.9552 24.24C60.7552 24.3067 60.5485 24.3733 60.3352 24.44C60.1618 24.4933 60.0618 24.5467 60.0352 24.6C60.0085 24.64 60.0018 24.76 60.0152 24.96C60.0285 25.1333 60.0418 25.3133 60.0552 25.5C60.0685 25.6867 60.0618 25.8733 60.0352 26.06C60.0352 26.8333 60.0152 27.5933 59.9752 28.34C59.9752 28.42 59.9685 28.4867 59.9552 28.54C59.9552 28.6067 59.9418 28.6733 59.9152 28.74C59.7685 28.9933 59.5618 29.1133 59.2952 29.1C59.1752 29.1 59.0618 29.0467 58.9552 28.94C58.8485 28.8467 58.7685 28.7267 58.7152 28.58C58.6885 28.4467 58.6552 28.3067 58.6152 28.16C58.5885 28.0133 58.5618 27.8733 58.5352 27.74C58.4818 27.3667 58.4152 26.9933 58.3352 26.62C58.2552 26.26 58.2018 25.8867 58.1752 25.5C58.1618 25.42 58.1552 25.3333 58.1552 25.24C58.1552 25.16 58.1418 25.0867 58.1152 25.02C58.1152 24.9133 58.1018 24.8133 58.0752 24.72C58.0618 24.6267 58.0152 24.5333 57.9352 24.44C57.7218 24.1733 57.7152 23.8733 57.9152 23.54C58.0085 23.38 58.0552 23.2333 58.0552 23.1C58.0018 21.9533 58.0018 20.8333 58.0552 19.74C58.0818 19.3533 58.1152 18.96 58.1552 18.56C58.2085 18.1467 58.2952 17.7467 58.4152 17.36C58.4952 17.1333 58.5885 16.92 58.6952 16.72C58.8152 16.52 58.9618 16.3467 59.1352 16.2C59.4018 15.9733 59.6885 15.8467 59.9952 15.82C60.3018 15.7933 60.5952 15.88 60.8752 16.08C60.9952 16.1467 61.1018 16.2333 61.1952 16.34C61.2885 16.4467 61.3752 16.56 61.4552 16.68C61.7885 17.2133 62.0085 17.78 62.1152 18.38C62.1285 18.5267 62.1285 18.68 62.1152 18.84C62.1152 19.1333 61.9818 19.32 61.7152 19.4C61.5818 19.4533 61.4618 19.46 61.3552 19.42C61.2485 19.3667 61.1618 19.2933 61.0952 19.2C61.0418 19.1067 60.9818 19.02 60.9152 18.94C60.8618 18.8467 60.8218 18.7533 60.7952 18.66C60.7152 18.5133 60.6352 18.3733 60.5552 18.24C60.4885 18.0933 60.3885 17.96 60.2552 17.84ZM65.7745 18.8C66.0145 18.8267 66.2679 18.8467 66.5345 18.86C66.8012 18.86 67.0612 18.8933 67.3145 18.96C67.4745 19 67.6279 19.0533 67.7745 19.12C67.9212 19.1867 68.0545 19.2733 68.1745 19.38C68.3612 19.5133 68.4145 19.6933 68.3345 19.92C68.2279 20.12 68.0745 20.22 67.8745 20.22C67.8212 20.22 67.7812 20.2067 67.7545 20.18C67.3012 20.1133 66.8545 20.1 66.4145 20.14C65.9879 20.1667 65.5479 20.2 65.0945 20.24C65.0412 20.2533 64.9812 20.2667 64.9145 20.28C64.8612 20.2933 64.8012 20.3133 64.7345 20.34C64.4145 20.4067 64.1345 20.3467 63.8945 20.16C63.6545 19.92 63.5812 19.66 63.6745 19.38C63.7812 19.0733 63.9812 18.9133 64.2745 18.9C64.6079 18.8333 64.9412 18.8 65.2745 18.8H65.7745ZM71.9655 19.74C72.0055 19.62 72.0455 19.5 72.0855 19.38C72.1255 19.26 72.1721 19.1467 72.2255 19.04C72.4788 18.4133 72.8388 17.8733 73.3055 17.42C73.4521 17.3 73.5921 17.2 73.7255 17.12C73.8721 17.04 74.0321 17 74.2055 17C74.4988 17 74.7321 17.0733 74.9055 17.22C75.0788 17.3667 75.2255 17.5533 75.3455 17.78C75.4121 17.9 75.4588 18.0267 75.4855 18.16C75.5121 18.2933 75.5455 18.4267 75.5855 18.56C75.6655 18.52 75.7188 18.4733 75.7455 18.42C75.7721 18.3533 75.7921 18.2933 75.8055 18.24C75.9388 17.9733 76.0788 17.72 76.2255 17.48C76.3855 17.24 76.5721 17.02 76.7855 16.82C77.1721 16.4867 77.5988 16.3133 78.0655 16.3C78.5321 16.2867 78.9388 16.5333 79.2855 17.04C79.4721 17.2933 79.6055 17.56 79.6855 17.84C79.7655 18.12 79.8321 18.4 79.8855 18.68C79.9788 19.2533 80.0388 19.82 80.0655 20.38C80.0921 20.94 80.0721 21.5067 80.0055 22.08C79.9521 22.3467 79.9188 22.6133 79.9055 22.88C79.8921 23.1333 79.8721 23.3933 79.8455 23.66C79.8321 23.7933 79.8455 23.9467 79.8855 24.12C79.9121 24.2667 79.8855 24.4067 79.8055 24.54C79.7388 24.6733 79.6321 24.76 79.4855 24.8C79.3521 24.8533 79.2188 24.86 79.0855 24.82C78.9655 24.7667 78.8588 24.6733 78.7655 24.54C78.6855 24.3533 78.6255 24.1733 78.5855 24C78.5321 23.5867 78.4721 23.1733 78.4055 22.76C78.3388 22.3467 78.2721 21.94 78.2055 21.54C78.1788 21.2733 78.1588 21.0067 78.1455 20.74C78.1455 20.4733 78.1455 20.2067 78.1455 19.94C78.1321 19.7133 78.1055 19.4933 78.0655 19.28C78.0255 19.0667 77.9921 18.8467 77.9655 18.62C77.9521 18.5533 77.9321 18.4867 77.9055 18.42C77.8921 18.3533 77.8521 18.2933 77.7855 18.24C77.6388 18.3067 77.5121 18.4 77.4055 18.52C77.2988 18.6267 77.1921 18.7533 77.0855 18.9C76.9121 19.1667 76.7455 19.4533 76.5855 19.76C76.4388 20.0533 76.3055 20.3533 76.1855 20.66C76.0921 20.9533 75.9988 21.2533 75.9055 21.56C75.8255 21.8533 75.7588 22.1533 75.7055 22.46C75.6921 22.5667 75.6855 22.6733 75.6855 22.78C75.6855 22.8733 75.6721 22.9667 75.6455 23.06C75.6188 23.5267 75.3988 23.78 74.9855 23.82C74.5988 23.8867 74.3388 23.6933 74.2055 23.24C74.1388 23.0133 74.0921 22.7867 74.0655 22.56C74.0521 22.3333 74.0188 22.1133 73.9655 21.9C73.9255 21.5133 73.8921 21.1333 73.8655 20.76C73.8521 20.3867 73.8388 20.0133 73.8255 19.64C73.8255 19.56 73.8055 19.5133 73.7655 19.5C73.6855 19.54 73.6321 19.6 73.6055 19.68C73.5788 19.7467 73.5521 19.8133 73.5255 19.88C72.9788 21.2533 72.6855 22.6667 72.6455 24.12C72.6455 24.2133 72.6388 24.32 72.6255 24.44C72.6121 24.56 72.5721 24.6733 72.5055 24.78C72.3321 25.0333 72.1055 25.1667 71.8255 25.18C71.5455 25.2067 71.2988 25.1 71.0855 24.86C70.9521 24.6867 70.8521 24.46 70.7855 24.18C70.6655 23.7267 70.5588 23.2667 70.4655 22.8C70.3721 22.3333 70.2921 21.8733 70.2255 21.42C70.1321 20.86 70.0521 20.3067 69.9855 19.76C69.9188 19.2 69.8855 18.64 69.8855 18.08C69.8721 17.8933 69.8721 17.7 69.8855 17.5C69.8988 17.3 69.9388 17.1067 70.0055 16.92C70.0855 16.7733 70.1988 16.6467 70.3455 16.54C70.4921 16.4333 70.6388 16.3867 70.7855 16.4C70.9588 16.4 71.1055 16.4533 71.2255 16.56C71.3588 16.6667 71.4521 16.8067 71.5055 16.98C71.5721 17.14 71.6055 17.3067 71.6055 17.48C71.6188 17.64 71.6388 17.8133 71.6655 18C71.7321 18.4933 71.7921 19.0133 71.8455 19.56C71.8455 19.6267 71.8855 19.6867 71.9655 19.74ZM85.7708 23.46C85.6774 23.5267 85.6041 23.6133 85.5508 23.72C85.5108 23.8133 85.4574 23.8933 85.3908 23.96C85.2574 24.16 85.1108 24.3467 84.9508 24.52C84.7908 24.68 84.5974 24.8067 84.3708 24.9C83.9974 25.0733 83.6174 25.0867 83.2308 24.94C82.8574 24.78 82.5974 24.5067 82.4508 24.12C82.1574 23.3733 82.0708 22.66 82.1908 21.98C82.3241 21.3 82.6308 20.6533 83.1108 20.04C83.3774 19.7067 83.6908 19.4733 84.0508 19.34C84.4241 19.1933 84.8308 19.1667 85.2708 19.26C85.2974 19.26 85.3174 19.2667 85.3308 19.28C85.3574 19.28 85.3841 19.28 85.4108 19.28C85.4641 19.1733 85.4774 19.08 85.4508 19C85.4241 18.9067 85.4041 18.8133 85.3908 18.72C85.3374 18.4267 85.2708 18.1467 85.1908 17.88C85.1241 17.6133 85.0374 17.3533 84.9308 17.1C84.7708 16.7533 84.6241 16.5667 84.4908 16.54C84.3708 16.5133 84.1708 16.62 83.8908 16.86C83.4508 17.2333 83.0708 17.68 82.7508 18.2C82.6441 18.3333 82.5908 18.4667 82.5908 18.6C82.5908 18.8933 82.4508 19.08 82.1708 19.16C82.0774 19.1867 81.9641 19.1733 81.8308 19.12C81.6974 19.0667 81.5908 18.9933 81.5108 18.9C81.3374 18.6333 81.2774 18.34 81.3308 18.02C81.3841 17.7133 81.4708 17.4267 81.5908 17.16C81.7108 16.88 81.8574 16.62 82.0308 16.38C82.2174 16.1133 82.4174 15.8733 82.6308 15.66C82.8441 15.4333 83.0841 15.2333 83.3508 15.06C83.7774 14.7933 84.2374 14.68 84.7308 14.72C85.2374 14.7467 85.6841 14.98 86.0708 15.42C86.2441 15.5933 86.3774 15.7867 86.4708 16C86.5774 16.2 86.6774 16.4133 86.7708 16.64C86.9174 17.0533 87.0374 17.4733 87.1308 17.9C87.2374 18.3267 87.3174 18.76 87.3708 19.2C87.4374 19.8 87.4974 20.3933 87.5508 20.98C87.6041 21.5667 87.6508 22.16 87.6908 22.76C87.7308 23.1067 87.7308 23.46 87.6908 23.82C87.6641 24.22 87.4974 24.5067 87.1908 24.68C86.8841 24.84 86.5641 24.8133 86.2308 24.6C86.0974 24.5067 86.0041 24.3933 85.9508 24.26C85.8974 24.1267 85.8574 23.9867 85.8308 23.84C85.8174 23.7733 85.8108 23.7133 85.8108 23.66C85.8108 23.5933 85.7974 23.5267 85.7708 23.46ZM84.0708 23C84.2841 22.7733 84.4908 22.5533 84.6908 22.34C84.8908 22.1133 85.0641 21.8667 85.2108 21.6C85.2508 21.52 85.2441 21.4267 85.1908 21.32C85.1508 21.2 85.0841 21.1133 84.9908 21.06C84.8974 20.9933 84.8241 20.9867 84.7708 21.04C84.7308 21.08 84.6774 21.1133 84.6108 21.14C84.5974 21.1667 84.5774 21.1933 84.5508 21.22C84.5241 21.2467 84.5041 21.2733 84.4908 21.3C84.3174 21.5533 84.1908 21.82 84.1108 22.1C84.0308 22.3667 84.0174 22.6667 84.0708 23ZM93.2005 19.7C92.9605 19.9133 92.7871 20.1333 92.6805 20.36C92.4005 20.8533 92.1738 21.3733 92.0005 21.92C91.8271 22.4667 91.6938 23.0267 91.6005 23.6C91.5871 23.7333 91.5605 23.8667 91.5205 24C91.4805 24.1333 91.4271 24.2533 91.3605 24.36C91.1605 24.6933 90.8938 24.84 90.5605 24.8C90.3871 24.8 90.2405 24.7533 90.1205 24.66C90.0005 24.5667 89.8938 24.4467 89.8005 24.3C89.7471 24.18 89.7071 24.0533 89.6805 23.92C89.6671 23.7867 89.6471 23.6533 89.6205 23.52C89.5538 22.9867 89.4805 22.4533 89.4005 21.92C89.3338 21.3733 89.2871 20.8333 89.2605 20.3C89.2338 19.94 89.2338 19.58 89.2605 19.22C89.2871 18.86 89.3271 18.5 89.3805 18.14C89.3805 18.0733 89.3938 18.0133 89.4205 17.96C89.4471 17.8933 89.4671 17.8333 89.4805 17.78C89.6005 17.4467 89.8205 17.3 90.1405 17.34C90.2738 17.3533 90.3938 17.4133 90.5005 17.52C90.6071 17.6267 90.6671 17.7533 90.6805 17.9C90.7205 18.22 90.7538 18.5333 90.7805 18.84C90.8205 19.1467 90.8671 19.4533 90.9205 19.76C90.9338 19.8133 90.9405 19.88 90.9405 19.96C90.9405 20.0267 90.9605 20.0933 91.0005 20.16C91.0671 20.1333 91.1071 20.1 91.1205 20.06C91.1338 20.0067 91.1471 19.96 91.1605 19.92C91.2938 19.6533 91.4271 19.3933 91.5605 19.14C91.6938 18.8733 91.8471 18.6333 92.0205 18.42C92.1005 18.3133 92.1805 18.2133 92.2605 18.12C92.3405 18.0133 92.4338 17.92 92.5405 17.84C92.8871 17.56 93.2605 17.4533 93.6605 17.52C94.0605 17.5733 94.3871 17.7933 94.6405 18.18C94.7605 18.3933 94.8538 18.62 94.9205 18.86C94.9871 19.0867 95.0338 19.32 95.0605 19.56C95.1271 19.96 95.1805 20.3667 95.2205 20.78C95.2738 21.18 95.3271 21.58 95.3805 21.98C95.4071 22.22 95.4405 22.46 95.4805 22.7C95.5338 22.9267 95.5738 23.16 95.6005 23.4C95.6271 23.4933 95.6605 23.5733 95.7005 23.64C95.7405 23.7067 95.8071 23.7733 95.9005 23.84C96.1805 23.9867 96.2671 24.22 96.1605 24.54C96.0405 24.8733 95.8338 25.08 95.5405 25.16C95.2471 25.24 94.9671 25.1733 94.7005 24.96C94.5805 24.8533 94.4805 24.74 94.4005 24.62C94.3205 24.5 94.2471 24.3733 94.1805 24.24C93.9671 23.8533 93.8071 23.46 93.7005 23.06C93.5938 22.66 93.5138 22.24 93.4605 21.8C93.4205 21.4933 93.3871 21.18 93.3605 20.86C93.3338 20.54 93.2871 20.2267 93.2205 19.92C93.2205 19.8933 93.2138 19.8667 93.2005 19.84C93.2005 19.8 93.2005 19.7533 93.2005 19.7ZM100.966 23.46C100.873 23.5267 100.799 23.6133 100.746 23.72C100.706 23.8133 100.653 23.8933 100.586 23.96C100.453 24.16 100.306 24.3467 100.146 24.52C99.9861 24.68 99.7928 24.8067 99.5661 24.9C99.1928 25.0733 98.8128 25.0867 98.4261 24.94C98.0528 24.78 97.7928 24.5067 97.6461 24.12C97.3528 23.3733 97.2661 22.66 97.3861 21.98C97.5194 21.3 97.8261 20.6533 98.3061 20.04C98.5728 19.7067 98.8861 19.4733 99.2461 19.34C99.6194 19.1933 100.026 19.1667 100.466 19.26C100.493 19.26 100.513 19.2667 100.526 19.28C100.553 19.28 100.579 19.28 100.606 19.28C100.659 19.1733 100.673 19.08 100.646 19C100.619 18.9067 100.599 18.8133 100.586 18.72C100.533 18.4267 100.466 18.1467 100.386 17.88C100.319 17.6133 100.233 17.3533 100.126 17.1C99.9661 16.7533 99.8194 16.5667 99.6861 16.54C99.5661 16.5133 99.3661 16.62 99.0861 16.86C98.6461 17.2333 98.2661 17.68 97.9461 18.2C97.8394 18.3333 97.7861 18.4667 97.7861 18.6C97.7861 18.8933 97.6461 19.08 97.3661 19.16C97.2728 19.1867 97.1594 19.1733 97.0261 19.12C96.8928 19.0667 96.7861 18.9933 96.7061 18.9C96.5328 18.6333 96.4728 18.34 96.5261 18.02C96.5794 17.7133 96.6661 17.4267 96.7861 17.16C96.9061 16.88 97.0528 16.62 97.2261 16.38C97.4128 16.1133 97.6128 15.8733 97.8261 15.66C98.0394 15.4333 98.2794 15.2333 98.5461 15.06C98.9728 14.7933 99.4328 14.68 99.9261 14.72C100.433 14.7467 100.879 14.98 101.266 15.42C101.439 15.5933 101.573 15.7867 101.666 16C101.773 16.2 101.873 16.4133 101.966 16.64C102.113 17.0533 102.233 17.4733 102.326 17.9C102.433 18.3267 102.513 18.76 102.566 19.2C102.633 19.8 102.693 20.3933 102.746 20.98C102.799 21.5667 102.846 22.16 102.886 22.76C102.926 23.1067 102.926 23.46 102.886 23.82C102.859 24.22 102.693 24.5067 102.386 24.68C102.079 24.84 101.759 24.8133 101.426 24.6C101.293 24.5067 101.199 24.3933 101.146 24.26C101.093 24.1267 101.053 23.9867 101.026 23.84C101.013 23.7733 101.006 23.7133 101.006 23.66C101.006 23.5933 100.993 23.5267 100.966 23.46ZM99.2661 23C99.4794 22.7733 99.6861 22.5533 99.8861 22.34C100.086 22.1133 100.259 21.8667 100.406 21.6C100.446 21.52 100.439 21.4267 100.386 21.32C100.346 21.2 100.279 21.1133 100.186 21.06C100.093 20.9933 100.019 20.9867 99.9661 21.04C99.9261 21.08 99.8728 21.1133 99.8061 21.14C99.7928 21.1667 99.7728 21.1933 99.7461 21.22C99.7194 21.2467 99.6994 21.2733 99.6861 21.3C99.5128 21.5533 99.3861 21.82 99.3061 22.1C99.2261 22.3667 99.2128 22.6667 99.2661 23ZM108.416 21.96C108.362 22.08 108.302 22.2 108.236 22.32C108.182 22.44 108.122 22.56 108.056 22.68C107.989 22.84 107.902 23 107.796 23.16C107.689 23.32 107.569 23.46 107.436 23.58C107.102 23.8867 106.736 24.0333 106.336 24.02C105.936 24.0067 105.582 23.8267 105.276 23.48C105.102 23.2933 104.962 23.08 104.856 22.84C104.762 22.5867 104.682 22.3333 104.616 22.08C104.309 20.92 104.369 19.78 104.796 18.66C104.929 18.3 105.096 17.96 105.296 17.64C105.509 17.32 105.782 17.0467 106.116 16.82C106.449 16.5933 106.789 16.4533 107.136 16.4C107.482 16.3333 107.842 16.3733 108.216 16.52C108.322 16.5467 108.416 16.5667 108.496 16.58C108.589 16.5933 108.682 16.5733 108.776 16.52C109.042 16.4133 109.302 16.44 109.556 16.6C109.822 16.7467 109.982 16.96 110.036 17.24C110.116 17.5867 110.169 17.9333 110.196 18.28C110.222 18.6267 110.242 18.9733 110.256 19.32C110.296 20.0667 110.322 20.82 110.336 21.58C110.349 22.3267 110.342 23.0733 110.316 23.82C110.302 24.18 110.276 24.5467 110.236 24.92C110.209 25.28 110.136 25.64 110.016 26C109.896 26.4133 109.729 26.7933 109.516 27.14C109.316 27.5 109.062 27.82 108.756 28.1C108.516 28.3133 108.242 28.4533 107.936 28.52C107.549 28.6 107.176 28.5133 106.816 28.26C106.469 28.0067 106.262 27.6867 106.196 27.3C106.169 27.06 106.242 26.8867 106.416 26.78C106.482 26.74 106.556 26.7133 106.636 26.7C106.729 26.6867 106.822 26.7067 106.916 26.76C106.996 26.8 107.062 26.84 107.116 26.88C107.169 26.9333 107.222 26.9933 107.276 27.06C107.396 27.1533 107.516 27.1333 107.636 27C107.889 26.64 108.062 26.26 108.156 25.86C108.302 25.2333 108.389 24.5933 108.416 23.94C108.442 23.2733 108.442 22.6133 108.416 21.96ZM106.596 21.98C106.729 21.8733 106.829 21.7533 106.896 21.62C106.976 21.4733 107.056 21.3133 107.136 21.14C107.296 20.74 107.429 20.3267 107.536 19.9C107.656 19.46 107.749 19.0133 107.816 18.56C107.856 18.2533 107.729 18.1467 107.436 18.24C107.276 18.2933 107.136 18.38 107.016 18.5C106.909 18.62 106.822 18.74 106.756 18.86C106.689 18.98 106.622 19.1133 106.556 19.26C106.422 19.5933 106.349 19.94 106.336 20.3C106.322 20.66 106.336 21.02 106.376 21.38C106.402 21.4867 106.422 21.5933 106.436 21.7C106.462 21.7933 106.516 21.8867 106.596 21.98ZM111.858 21.42C111.858 20.7933 111.944 20.1933 112.118 19.62C112.304 19.0333 112.544 18.46 112.838 17.9C112.984 17.6333 113.158 17.38 113.358 17.14C113.558 16.9 113.784 16.6933 114.038 16.52C114.384 16.28 114.744 16.14 115.118 16.1C115.518 16.0733 115.878 16.16 116.198 16.36C116.518 16.56 116.764 16.8333 116.938 17.18C117.111 17.5133 117.164 17.8933 117.098 18.32C117.084 18.44 117.058 18.5667 117.018 18.7C116.978 18.8333 116.924 18.96 116.858 19.08C116.684 19.4133 116.478 19.7333 116.238 20.04C116.011 20.3333 115.731 20.5933 115.398 20.82C115.184 20.9667 114.958 21.0933 114.718 21.2C114.491 21.2933 114.244 21.3333 113.978 21.32C113.884 21.32 113.824 21.3333 113.798 21.36C113.784 21.3867 113.778 21.4467 113.778 21.54C113.764 21.7533 113.778 21.9667 113.818 22.18C113.858 22.3933 113.911 22.6067 113.978 22.82C114.058 22.9933 114.131 23.0933 114.198 23.12C114.264 23.1467 114.384 23.1067 114.558 23C114.811 22.8667 115.038 22.6867 115.238 22.46C115.358 22.3533 115.478 22.26 115.598 22.18C115.718 22.0867 115.838 21.9933 115.958 21.9C116.011 21.8467 116.091 21.7933 116.198 21.74C116.398 21.6733 116.564 21.6933 116.698 21.8C116.844 21.8933 116.918 22.0467 116.918 22.26C116.918 22.3533 116.911 22.4467 116.898 22.54C116.884 22.6333 116.864 22.7267 116.838 22.82C116.664 23.3267 116.418 23.7667 116.098 24.14C115.778 24.5133 115.344 24.7867 114.798 24.96C114.038 25.16 113.378 24.98 112.818 24.42C112.524 24.1267 112.318 23.8 112.198 23.44C112.078 23.08 111.984 22.7067 111.918 22.32C111.904 22.1733 111.891 22.0267 111.878 21.88C111.878 21.72 111.871 21.5667 111.858 21.42ZM115.598 18.12C115.598 18.0267 115.591 17.9467 115.578 17.88C115.564 17.8 115.524 17.7467 115.458 17.72C115.364 17.6667 115.244 17.7 115.098 17.82C115.044 17.8467 114.998 17.88 114.958 17.92C114.918 17.96 114.871 18.0067 114.818 18.06C114.644 18.2733 114.498 18.5067 114.378 18.76C114.271 19.0133 114.171 19.2667 114.078 19.52C114.011 19.6133 114.018 19.6867 114.098 19.74C114.124 19.7667 114.158 19.78 114.198 19.78C114.251 19.7667 114.291 19.7533 114.318 19.74C114.918 19.4067 115.338 18.9133 115.578 18.26C115.591 18.2333 115.598 18.2067 115.598 18.18C115.598 18.14 115.598 18.12 115.598 18.12ZM123.735 22.32C123.615 22.5333 123.508 22.7267 123.415 22.9C123.335 23.06 123.242 23.2267 123.135 23.4C122.962 23.6533 122.782 23.8867 122.595 24.1C122.408 24.3 122.188 24.4867 121.935 24.66C121.455 24.98 120.955 25.1 120.435 25.02C119.848 24.9 119.395 24.5667 119.075 24.02C118.915 23.74 118.802 23.4533 118.735 23.16C118.668 22.8533 118.635 22.5333 118.635 22.2C118.648 21.3333 118.822 20.5467 119.155 19.84C119.488 19.1333 119.955 18.4867 120.555 17.9C120.742 17.74 120.935 17.5867 121.135 17.44C121.335 17.2933 121.562 17.2 121.815 17.16C122.042 17.1067 122.255 17.0867 122.455 17.1C122.668 17.1133 122.882 17.1533 123.095 17.22C123.122 17.2333 123.162 17.2467 123.215 17.26C123.268 17.26 123.322 17.2467 123.375 17.22C123.375 17.0067 123.375 16.7867 123.375 16.56C123.388 16.32 123.388 16.0867 123.375 15.86C123.375 15.34 123.395 14.8333 123.435 14.34C123.448 14.0333 123.448 13.7333 123.435 13.44C123.435 13.1467 123.435 12.8533 123.435 12.56C123.448 12.3067 123.455 12.0467 123.455 11.78C123.468 11.5133 123.488 11.2533 123.515 11C123.542 10.8133 123.575 10.6333 123.615 10.46C123.668 10.2867 123.748 10.1267 123.855 9.98C123.948 9.76667 124.108 9.66 124.335 9.66C124.602 9.62 124.802 9.72667 124.935 9.98C125.028 10.1267 125.095 10.2867 125.135 10.46C125.188 10.62 125.222 10.7933 125.235 10.98C125.275 11.3133 125.295 11.6533 125.295 12C125.308 12.3467 125.308 12.6933 125.295 13.04C125.295 13.84 125.288 14.6467 125.275 15.46C125.262 16.26 125.248 17.0667 125.235 17.88C125.235 18.3333 125.235 18.7867 125.235 19.24C125.248 19.68 125.248 20.1267 125.235 20.58C125.222 21.0333 125.215 21.4933 125.215 21.96C125.215 22.4133 125.242 22.8733 125.295 23.34C125.295 23.54 125.322 23.74 125.375 23.94C125.508 24.2867 125.408 24.5467 125.075 24.72C124.795 24.8533 124.535 24.7733 124.295 24.48C124.242 24.3867 124.195 24.2867 124.155 24.18C124.115 24.0733 124.082 23.9733 124.055 23.88C124.002 23.64 123.948 23.3933 123.895 23.14C123.855 22.8733 123.802 22.6 123.735 22.32ZM122.735 18.9C122.588 18.8733 122.462 18.8867 122.355 18.94C122.248 18.98 122.148 19.0333 122.055 19.1C121.935 19.18 121.828 19.2733 121.735 19.38C121.642 19.4733 121.548 19.58 121.455 19.7C121.135 20.1133 120.888 20.5467 120.715 21C120.555 21.4533 120.502 21.94 120.555 22.46C120.555 22.58 120.562 22.7133 120.575 22.86C120.602 22.9933 120.675 23.0733 120.795 23.1C120.902 23.1267 120.995 23.0933 121.075 23C121.168 22.8933 121.242 22.7933 121.295 22.7C121.562 22.34 121.775 21.9733 121.935 21.6C122.108 21.2267 122.255 20.8333 122.375 20.42C122.455 20.1667 122.522 19.92 122.575 19.68C122.628 19.4267 122.682 19.1667 122.735 18.9ZM133.868 22.98C134.014 22.8333 134.134 22.68 134.228 22.52C134.321 22.3467 134.414 22.18 134.508 22.02C134.641 21.7267 134.748 21.44 134.828 21.16C134.921 20.8667 135.014 20.5733 135.108 20.28C135.228 19.9467 135.321 19.6067 135.388 19.26C135.454 18.9133 135.481 18.56 135.468 18.2C135.468 17.9733 135.534 17.78 135.668 17.62C135.801 17.46 135.961 17.3533 136.148 17.3C136.588 17.2067 136.941 17.36 137.208 17.76C137.301 17.9333 137.381 18.1133 137.448 18.3C137.488 18.4867 137.534 18.6867 137.588 18.9C137.641 19.1 137.694 19.3 137.748 19.5C137.881 19.9267 138.021 20.36 138.168 20.8C138.328 21.2267 138.514 21.6333 138.728 22.02C138.781 22.0867 138.828 22.16 138.868 22.24C138.908 22.3067 138.974 22.36 139.068 22.4C139.134 22.3333 139.181 22.2267 139.208 22.08C139.314 21.6933 139.388 21.3133 139.428 20.94C139.468 20.5667 139.494 20.1867 139.508 19.8C139.508 19.5067 139.508 19.22 139.508 18.94C139.508 18.66 139.501 18.3867 139.488 18.12C139.488 17.9733 139.481 17.84 139.468 17.72C139.454 17.6 139.441 17.4733 139.428 17.34C139.374 17.1667 139.374 17 139.428 16.84C139.494 16.68 139.634 16.5533 139.848 16.46C140.168 16.3133 140.448 16.3867 140.688 16.68C140.834 16.8133 140.954 16.9933 141.048 17.22C141.234 17.6733 141.348 18.14 141.388 18.62C141.428 19.1 141.434 19.58 141.408 20.06C141.381 20.3933 141.348 20.72 141.308 21.04C141.281 21.36 141.234 21.6733 141.168 21.98C141.114 22.2467 141.041 22.5133 140.948 22.78C140.868 23.0333 140.768 23.2867 140.648 23.54C140.594 23.6333 140.541 23.7333 140.488 23.84C140.434 23.9333 140.368 24.0133 140.288 24.08C139.768 24.64 139.148 24.74 138.428 24.38C138.281 24.3133 138.141 24.22 138.008 24.1C137.888 23.9667 137.768 23.84 137.648 23.72C137.221 23.2 136.874 22.6 136.608 21.92C136.581 21.88 136.554 21.8267 136.528 21.76C136.501 21.68 136.454 21.6133 136.388 21.56C136.268 21.92 136.148 22.26 136.028 22.58C135.934 22.7933 135.841 23 135.748 23.2C135.668 23.3867 135.574 23.5733 135.468 23.76C135.361 23.9067 135.248 24.0467 135.128 24.18C135.021 24.3133 134.894 24.44 134.748 24.56C134.401 24.8533 134.021 24.9733 133.608 24.92C133.208 24.8533 132.888 24.6933 132.648 24.44C132.301 24.08 132.061 23.6933 131.928 23.28C131.714 22.68 131.568 22.0667 131.488 21.44C131.421 20.8133 131.428 20.1867 131.508 19.56C131.534 19.32 131.574 19.0733 131.628 18.82C131.694 18.5667 131.774 18.3333 131.868 18.12C131.908 18 131.961 17.8867 132.028 17.78C132.094 17.66 132.181 17.56 132.288 17.48C132.501 17.2667 132.741 17.22 133.008 17.34C133.274 17.46 133.394 17.6667 133.368 17.96C133.368 18.2133 133.361 18.4667 133.348 18.72C133.334 18.9733 133.327 19.2333 133.327 19.5C133.314 19.8733 133.314 20.2467 133.327 20.62C133.354 20.9933 133.394 21.3667 133.448 21.74C133.474 21.9533 133.521 22.16 133.588 22.36C133.654 22.56 133.748 22.7667 133.868 22.98ZM148.911 20.58C148.845 21.8867 148.365 23.1067 147.471 24.24C147.311 24.4533 147.125 24.64 146.911 24.8C146.698 24.9467 146.458 25.06 146.191 25.14C145.671 25.26 145.171 25.2 144.691 24.96C144.518 24.8533 144.351 24.7267 144.191 24.58C144.031 24.42 143.898 24.2533 143.791 24.08C143.445 23.5333 143.211 22.9733 143.091 22.4C142.971 21.8133 142.931 21.2133 142.971 20.6C143.025 20.0533 143.145 19.5333 143.331 19.04C143.518 18.5333 143.791 18.0733 144.151 17.66C144.458 17.3267 144.825 17.12 145.251 17.04C145.451 16.9867 145.631 16.9867 145.791 17.04C145.951 17.08 146.105 17.16 146.251 17.28C146.291 17.32 146.338 17.3467 146.391 17.36C146.445 17.36 146.505 17.36 146.571 17.36C146.931 17.32 147.251 17.3733 147.531 17.52C147.825 17.6667 148.078 17.8867 148.291 18.18C148.531 18.5133 148.691 18.8733 148.771 19.26C148.865 19.6333 148.911 20.0733 148.911 20.58ZM146.071 19.08C145.925 19.08 145.771 19.1 145.611 19.14C145.478 19.14 145.378 19.1733 145.311 19.24C145.245 19.3067 145.185 19.4 145.131 19.52C144.945 20.0133 144.845 20.5067 144.831 21C144.831 21.4933 144.905 21.9933 145.051 22.5C145.131 22.7133 145.258 22.9333 145.431 23.16C145.525 23.2533 145.591 23.3067 145.631 23.32C145.685 23.32 145.758 23.2733 145.851 23.18C145.971 23.06 146.085 22.94 146.191 22.82C146.311 22.6867 146.411 22.5467 146.491 22.4C146.558 22.24 146.625 22.0733 146.691 21.9C146.771 21.7267 146.831 21.5533 146.871 21.38C146.938 21.1267 146.991 20.8733 147.031 20.62C147.071 20.3533 147.058 20.0867 146.991 19.82C146.925 19.54 146.825 19.3467 146.691 19.24C146.558 19.1333 146.351 19.08 146.071 19.08ZM152.232 18.48C152.325 18.4133 152.385 18.3467 152.412 18.28C152.439 18.2 152.465 18.1333 152.492 18.08C152.612 17.8533 152.752 17.64 152.912 17.44C153.072 17.2267 153.265 17.0533 153.492 16.92C153.799 16.7333 154.099 16.6267 154.392 16.6C154.699 16.56 155.005 16.6333 155.312 16.82C155.539 16.94 155.705 17.12 155.812 17.36C155.932 17.6 155.965 17.84 155.912 18.08C155.872 18.3333 155.765 18.5 155.592 18.58C155.419 18.66 155.219 18.6333 154.992 18.5C154.872 18.4333 154.772 18.4 154.692 18.4C154.612 18.4 154.519 18.4533 154.412 18.56C154.359 18.6133 154.305 18.68 154.252 18.76C154.212 18.84 154.165 18.9133 154.112 18.98C154.019 19.1933 153.939 19.4067 153.872 19.62C153.805 19.82 153.739 20.0267 153.672 20.24C153.552 20.6533 153.439 21.0733 153.332 21.5C153.239 21.9133 153.159 22.3333 153.092 22.76C153.065 23.0267 153.039 23.2933 153.012 23.56C152.985 23.8267 152.972 24.0933 152.972 24.36C152.972 24.4533 152.965 24.5533 152.952 24.66C152.952 24.7667 152.932 24.8733 152.892 24.98C152.759 25.38 152.485 25.58 152.072 25.58C151.659 25.62 151.359 25.4533 151.172 25.08C151.119 24.9733 151.079 24.86 151.052 24.74C151.039 24.62 151.019 24.5133 150.992 24.42C150.899 23.86 150.819 23.3067 150.752 22.76C150.685 22.2 150.619 21.64 150.552 21.08C150.499 20.5333 150.465 19.98 150.452 19.42C150.439 18.8467 150.439 18.2733 150.452 17.7C150.452 17.3267 150.592 17.0533 150.872 16.88C151.112 16.7333 151.359 16.7133 151.612 16.82C151.865 16.9133 152.032 17.0933 152.112 17.36C152.192 17.5733 152.232 17.7867 152.232 18C152.219 18.0667 152.212 18.14 152.212 18.22C152.225 18.3 152.232 18.3867 152.232 18.48ZM159.684 19.64C159.764 19.5333 159.837 19.4267 159.904 19.32C159.984 19.2133 160.064 19.1133 160.144 19.02C160.384 18.66 160.61 18.2933 160.824 17.92C161.037 17.5467 161.25 17.18 161.464 16.82C161.504 16.7267 161.557 16.6467 161.624 16.58C161.704 16.5133 161.777 16.4533 161.844 16.4C162.057 16.2933 162.257 16.2933 162.444 16.4C162.644 16.4933 162.757 16.6533 162.784 16.88C162.81 17.1467 162.777 17.3667 162.684 17.54C162.43 18.0733 162.164 18.5933 161.884 19.1C161.604 19.5933 161.27 20.0533 160.884 20.48C160.75 20.6267 160.684 20.72 160.684 20.76C160.684 20.7867 160.744 20.8867 160.864 21.06C161.13 21.42 161.424 21.7533 161.744 22.06C162.064 22.3533 162.417 22.62 162.804 22.86C162.87 22.8867 162.93 22.92 162.984 22.96C163.037 22.9867 163.097 23.0133 163.164 23.04C163.537 23.1067 163.737 23.3133 163.764 23.66C163.79 23.8333 163.75 24 163.644 24.16C163.55 24.3067 163.43 24.4133 163.284 24.48C163.137 24.5333 162.984 24.5667 162.824 24.58C162.677 24.58 162.53 24.5667 162.384 24.54C161.824 24.38 161.324 24.1267 160.884 23.78C160.697 23.6333 160.51 23.4733 160.324 23.3C160.15 23.1267 159.97 22.96 159.784 22.8C159.797 22.9867 159.81 23.1733 159.824 23.36C159.837 23.5467 159.85 23.74 159.864 23.94C159.89 24.0333 159.91 24.1333 159.924 24.24C159.937 24.3467 159.957 24.4467 159.984 24.54C160.024 24.8067 159.944 24.9933 159.744 25.1C159.557 25.2467 159.357 25.24 159.144 25.08C158.97 24.96 158.844 24.8 158.764 24.6C158.67 24.3733 158.597 24.1333 158.544 23.88C158.49 23.6267 158.444 23.3733 158.404 23.12C158.297 22.6667 158.21 22.2133 158.144 21.76C158.077 21.2933 158.024 20.8267 157.984 20.36C157.93 19.8533 157.864 19.3467 157.784 18.84C157.717 18.32 157.67 17.8067 157.644 17.3C157.617 16.9267 157.59 16.5533 157.564 16.18C157.537 15.8067 157.524 15.4333 157.524 15.06C157.524 14.4867 157.51 13.9133 157.484 13.34C157.457 12.7533 157.444 12.1733 157.444 11.6C157.457 11.24 157.464 10.8867 157.464 10.54C157.464 10.1933 157.484 9.84667 157.524 9.5C157.55 9.39333 157.57 9.3 157.584 9.22C157.61 9.14 157.65 9.06667 157.704 9C157.93 8.70667 158.21 8.58667 158.544 8.64C158.717 8.68 158.864 8.76 158.984 8.88C159.117 8.98667 159.19 9.13333 159.204 9.32C159.23 9.4 159.244 9.48 159.244 9.56C159.244 9.62667 159.244 9.70667 159.244 9.8C159.284 10.5333 159.31 11.2667 159.324 12C159.35 12.7333 159.37 13.4733 159.384 14.22C159.41 15.1 159.444 15.9867 159.484 16.88C159.537 17.76 159.577 18.64 159.604 19.52C159.604 19.5867 159.63 19.6267 159.684 19.64ZM34.345 47.46C34.2517 47.5267 34.1783 47.6133 34.125 47.72C34.085 47.8133 34.0317 47.8933 33.965 47.96C33.8317 48.16 33.685 48.3467 33.525 48.52C33.365 48.68 33.1717 48.8067 32.945 48.9C32.5717 49.0733 32.1917 49.0867 31.805 48.94C31.4317 48.78 31.1717 48.5067 31.025 48.12C30.7317 47.3733 30.645 46.66 30.765 45.98C30.8983 45.3 31.205 44.6533 31.685 44.04C31.9517 43.7067 32.265 43.4733 32.625 43.34C32.9983 43.1933 33.405 43.1667 33.845 43.26C33.8717 43.26 33.8917 43.2667 33.905 43.28C33.9317 43.28 33.9583 43.28 33.985 43.28C34.0383 43.1733 34.0517 43.08 34.025 43C33.9983 42.9067 33.9783 42.8133 33.965 42.72C33.9117 42.4267 33.845 42.1467 33.765 41.88C33.6983 41.6133 33.6117 41.3533 33.505 41.1C33.345 40.7533 33.1983 40.5667 33.065 40.54C32.945 40.5133 32.745 40.62 32.465 40.86C32.025 41.2333 31.645 41.68 31.325 42.2C31.2183 42.3333 31.165 42.4667 31.165 42.6C31.165 42.8933 31.025 43.08 30.745 43.16C30.6517 43.1867 30.5383 43.1733 30.405 43.12C30.2717 43.0667 30.165 42.9933 30.085 42.9C29.9117 42.6333 29.8517 42.34 29.905 42.02C29.9583 41.7133 30.045 41.4267 30.165 41.16C30.285 40.88 30.4317 40.62 30.605 40.38C30.7917 40.1133 30.9917 39.8733 31.205 39.66C31.4183 39.4333 31.6583 39.2333 31.925 39.06C32.3517 38.7933 32.8117 38.68 33.305 38.72C33.8117 38.7467 34.2583 38.98 34.645 39.42C34.8183 39.5933 34.9517 39.7867 35.045 40C35.1517 40.2 35.2517 40.4133 35.345 40.64C35.4917 41.0533 35.6117 41.4733 35.705 41.9C35.8117 42.3267 35.8917 42.76 35.945 43.2C36.0117 43.8 36.0717 44.3933 36.125 44.98C36.1783 45.5667 36.225 46.16 36.265 46.76C36.305 47.1067 36.305 47.46 36.265 47.82C36.2383 48.22 36.0717 48.5067 35.765 48.68C35.4583 48.84 35.1383 48.8133 34.805 48.6C34.6717 48.5067 34.5783 48.3933 34.525 48.26C34.4717 48.1267 34.4317 47.9867 34.405 47.84C34.3917 47.7733 34.385 47.7133 34.385 47.66C34.385 47.5933 34.3717 47.5267 34.345 47.46ZM32.645 47C32.8583 46.7733 33.065 46.5533 33.265 46.34C33.465 46.1133 33.6383 45.8667 33.785 45.6C33.825 45.52 33.8183 45.4267 33.765 45.32C33.725 45.2 33.6583 45.1133 33.565 45.06C33.4717 44.9933 33.3983 44.9867 33.345 45.04C33.305 45.08 33.2517 45.1133 33.185 45.14C33.1717 45.1667 33.1517 45.1933 33.125 45.22C33.0983 45.2467 33.0783 45.2733 33.065 45.3C32.8917 45.5533 32.765 45.82 32.685 46.1C32.605 46.3667 32.5917 46.6667 32.645 47ZM41.7747 43.7C41.5347 43.9133 41.3614 44.1333 41.2547 44.36C40.9747 44.8533 40.748 45.3733 40.5747 45.92C40.4014 46.4667 40.268 47.0267 40.1747 47.6C40.1614 47.7333 40.1347 47.8667 40.0947 48C40.0547 48.1333 40.0014 48.2533 39.9347 48.36C39.7347 48.6933 39.468 48.84 39.1347 48.8C38.9614 48.8 38.8147 48.7533 38.6947 48.66C38.5747 48.5667 38.468 48.4467 38.3747 48.3C38.3214 48.18 38.2814 48.0533 38.2547 47.92C38.2414 47.7867 38.2214 47.6533 38.1947 47.52C38.128 46.9867 38.0547 46.4533 37.9747 45.92C37.908 45.3733 37.8614 44.8333 37.8347 44.3C37.808 43.94 37.808 43.58 37.8347 43.22C37.8614 42.86 37.9014 42.5 37.9547 42.14C37.9547 42.0733 37.968 42.0133 37.9947 41.96C38.0214 41.8933 38.0414 41.8333 38.0547 41.78C38.1747 41.4467 38.3947 41.3 38.7147 41.34C38.848 41.3533 38.968 41.4133 39.0747 41.52C39.1814 41.6267 39.2414 41.7533 39.2547 41.9C39.2947 42.22 39.328 42.5333 39.3547 42.84C39.3947 43.1467 39.4414 43.4533 39.4947 43.76C39.508 43.8133 39.5147 43.88 39.5147 43.96C39.5147 44.0267 39.5347 44.0933 39.5747 44.16C39.6414 44.1333 39.6814 44.1 39.6947 44.06C39.708 44.0067 39.7214 43.96 39.7347 43.92C39.868 43.6533 40.0014 43.3933 40.1347 43.14C40.268 42.8733 40.4214 42.6333 40.5947 42.42C40.6747 42.3133 40.7547 42.2133 40.8347 42.12C40.9147 42.0133 41.008 41.92 41.1147 41.84C41.4614 41.56 41.8347 41.4533 42.2347 41.52C42.6347 41.5733 42.9614 41.7933 43.2147 42.18C43.3347 42.3933 43.428 42.62 43.4947 42.86C43.5614 43.0867 43.608 43.32 43.6347 43.56C43.7014 43.96 43.7547 44.3667 43.7947 44.78C43.848 45.18 43.9014 45.58 43.9547 45.98C43.9814 46.22 44.0147 46.46 44.0547 46.7C44.108 46.9267 44.148 47.16 44.1747 47.4C44.2014 47.4933 44.2347 47.5733 44.2747 47.64C44.3147 47.7067 44.3814 47.7733 44.4747 47.84C44.7547 47.9867 44.8414 48.22 44.7347 48.54C44.6147 48.8733 44.408 49.08 44.1147 49.16C43.8214 49.24 43.5414 49.1733 43.2747 48.96C43.1547 48.8533 43.0547 48.74 42.9747 48.62C42.8947 48.5 42.8214 48.3733 42.7547 48.24C42.5414 47.8533 42.3814 47.46 42.2747 47.06C42.168 46.66 42.088 46.24 42.0347 45.8C41.9947 45.4933 41.9614 45.18 41.9347 44.86C41.908 44.54 41.8614 44.2267 41.7947 43.92C41.7947 43.8933 41.788 43.8667 41.7747 43.84C41.7747 43.8 41.7747 43.7533 41.7747 43.7ZM50.4733 46.32C50.3533 46.5333 50.2466 46.7267 50.1533 46.9C50.0733 47.06 49.9799 47.2267 49.8733 47.4C49.6999 47.6533 49.5199 47.8867 49.3333 48.1C49.1466 48.3 48.9266 48.4867 48.6733 48.66C48.1933 48.98 47.6933 49.1 47.1733 49.02C46.5866 48.9 46.1333 48.5667 45.8133 48.02C45.6533 47.74 45.5399 47.4533 45.4733 47.16C45.4066 46.8533 45.3733 46.5333 45.3733 46.2C45.3866 45.3333 45.5599 44.5467 45.8933 43.84C46.2266 43.1333 46.6933 42.4867 47.2933 41.9C47.4799 41.74 47.6733 41.5867 47.8733 41.44C48.0733 41.2933 48.2999 41.2 48.5533 41.16C48.7799 41.1067 48.9933 41.0867 49.1933 41.1C49.4066 41.1133 49.6199 41.1533 49.8333 41.22C49.8599 41.2333 49.8999 41.2467 49.9533 41.26C50.0066 41.26 50.0599 41.2467 50.1133 41.22C50.1133 41.0067 50.1133 40.7867 50.1133 40.56C50.1266 40.32 50.1266 40.0867 50.1133 39.86C50.1133 39.34 50.1333 38.8333 50.1733 38.34C50.1866 38.0333 50.1866 37.7333 50.1733 37.44C50.1733 37.1467 50.1733 36.8533 50.1733 36.56C50.1866 36.3067 50.1933 36.0467 50.1933 35.78C50.2066 35.5133 50.2266 35.2533 50.2533 35C50.2799 34.8133 50.3133 34.6333 50.3533 34.46C50.4066 34.2867 50.4866 34.1267 50.5933 33.98C50.6866 33.7667 50.8466 33.66 51.0733 33.66C51.3399 33.62 51.5399 33.7267 51.6733 33.98C51.7666 34.1267 51.8333 34.2867 51.8733 34.46C51.9266 34.62 51.9599 34.7933 51.9733 34.98C52.0133 35.3133 52.0333 35.6533 52.0333 36C52.0466 36.3467 52.0466 36.6933 52.0333 37.04C52.0333 37.84 52.0266 38.6467 52.0133 39.46C51.9999 40.26 51.9866 41.0667 51.9733 41.88C51.9733 42.3333 51.9733 42.7867 51.9733 43.24C51.9866 43.68 51.9866 44.1267 51.9733 44.58C51.9599 45.0333 51.9533 45.4933 51.9533 45.96C51.9533 46.4133 51.9799 46.8733 52.0333 47.34C52.0333 47.54 52.0599 47.74 52.1133 47.94C52.2466 48.2867 52.1466 48.5467 51.8133 48.72C51.5333 48.8533 51.2733 48.7733 51.0333 48.48C50.9799 48.3867 50.9333 48.2867 50.8933 48.18C50.8533 48.0733 50.8199 47.9733 50.7933 47.88C50.7399 47.64 50.6866 47.3933 50.6333 47.14C50.5933 46.8733 50.5399 46.6 50.4733 46.32ZM49.4733 42.9C49.3266 42.8733 49.1999 42.8867 49.0933 42.94C48.9866 42.98 48.8866 43.0333 48.7933 43.1C48.6733 43.18 48.5666 43.2733 48.4733 43.38C48.3799 43.4733 48.2866 43.58 48.1933 43.7C47.8733 44.1133 47.6266 44.5467 47.4533 45C47.2933 45.4533 47.2399 45.94 47.2933 46.46C47.2933 46.58 47.2999 46.7133 47.3133 46.86C47.3399 46.9933 47.4133 47.0733 47.5333 47.1C47.6399 47.1267 47.7333 47.0933 47.8133 47C47.9066 46.8933 47.9799 46.7933 48.0333 46.7C48.2999 46.34 48.5133 45.9733 48.6733 45.6C48.8466 45.2267 48.9933 44.8333 49.1133 44.42C49.1933 44.1667 49.2599 43.92 49.3133 43.68C49.3666 43.4267 49.4199 43.1667 49.4733 42.9ZM59.8058 48.12C60.1124 47.8933 60.3524 47.6533 60.5258 47.4C60.7658 47.0667 60.9991 46.7267 61.2258 46.38C61.4658 46.0333 61.6724 45.6733 61.8458 45.3C61.8591 45.2467 61.8724 45.2067 61.8858 45.18C61.8991 45.14 61.9058 45.1 61.9058 45.06C61.9191 44.78 62.0791 44.6067 62.3858 44.54C62.6924 44.5133 62.9191 44.6267 63.0658 44.88C63.1458 44.9733 63.1924 45.0733 63.2058 45.18C63.2324 45.2733 63.2458 45.38 63.2458 45.5C63.1924 46.2067 63.0058 46.8867 62.6858 47.54C62.2858 48.3267 61.7524 48.98 61.0858 49.5C60.9391 49.62 60.7858 49.72 60.6258 49.8C60.4791 49.8933 60.3124 49.96 60.1258 50C59.7924 50.08 59.4591 50.0467 59.1258 49.9C58.7924 49.7667 58.5258 49.5533 58.3258 49.26C58.2058 49.06 58.0991 48.8533 58.0058 48.64C57.9124 48.4133 57.8324 48.1867 57.7658 47.96C57.5924 47.4667 57.4658 46.96 57.3858 46.44C57.3058 45.92 57.2324 45.4 57.1658 44.88C57.0591 44.1333 56.9791 43.3733 56.9258 42.6C56.8591 41.8267 56.8258 41.0533 56.8258 40.28C56.8258 40.1333 56.8124 40.0467 56.7858 40.02C56.7591 39.9933 56.6658 39.9933 56.5058 40.02C56.3324 40.06 56.1591 40.1067 55.9858 40.16C55.7991 40.2 55.6124 40.2333 55.4258 40.26C55.1991 40.3133 54.9591 40.28 54.7058 40.16C54.4658 40.0133 54.3324 39.8133 54.3058 39.56C54.2791 39.2933 54.3591 39.0667 54.5458 38.88C54.7324 38.72 54.9324 38.6067 55.1458 38.54C55.3858 38.4733 55.6258 38.4067 55.8658 38.34C56.0924 38.2733 56.3258 38.2133 56.5658 38.16C56.7258 38.1333 56.8258 38.1067 56.8658 38.08C56.8924 38.04 56.9124 37.9333 56.9258 37.76C56.9391 37.3067 56.9791 36.86 57.0458 36.42C57.0991 35.9667 57.1858 35.5133 57.3058 35.06C57.3591 34.9 57.4058 34.74 57.4458 34.58C57.4991 34.4067 57.5724 34.2467 57.6658 34.1C57.7458 33.9933 57.8258 33.9 57.9058 33.82C57.9858 33.7267 58.0791 33.6533 58.1858 33.6C58.4391 33.4267 58.7191 33.4133 59.0258 33.56C59.1591 33.6533 59.2391 33.7667 59.2658 33.9C59.3058 34.0333 59.3124 34.1733 59.2858 34.32C59.2591 34.6133 59.2058 34.9067 59.1258 35.2C59.0458 35.48 58.9924 35.7733 58.9658 36.08C58.9391 36.3333 58.9058 36.5867 58.8658 36.84C58.8391 37.0933 58.8124 37.3533 58.7858 37.62C58.7858 37.74 58.7924 37.8133 58.8058 37.84C58.8324 37.8533 58.9124 37.86 59.0458 37.86C59.3124 37.86 59.5658 37.8533 59.8058 37.84C60.0458 37.8267 60.2924 37.82 60.5458 37.82C60.9991 37.82 61.3791 37.9933 61.6858 38.34C61.7658 38.4067 61.8258 38.4867 61.8658 38.58C61.9191 38.66 61.9524 38.7467 61.9658 38.84C61.9924 39.0667 61.9191 39.2667 61.7458 39.44C61.5724 39.6 61.3924 39.64 61.2058 39.56C61.1791 39.56 61.1458 39.56 61.1058 39.56C61.0791 39.5467 61.0458 39.5467 61.0058 39.56C60.7124 39.6667 60.4124 39.7133 60.1058 39.7C59.8124 39.6867 59.5124 39.7 59.2058 39.74H58.9258C58.7658 39.74 58.6858 39.82 58.6858 39.98C58.7124 40.2333 58.7258 40.4867 58.7258 40.74C58.7258 40.98 58.7324 41.2267 58.7458 41.48C58.7724 42.1333 58.8191 42.7867 58.8858 43.44C58.9524 44.0933 59.0391 44.74 59.1458 45.38C59.1858 45.7133 59.2324 46.0467 59.2858 46.38C59.3524 46.7 59.4324 47.0267 59.5258 47.36C59.5524 47.48 59.5924 47.6 59.6458 47.72C59.6991 47.84 59.7524 47.9733 59.8058 48.12ZM65.9678 39.12C65.5811 39.2933 65.2478 39.24 64.9678 38.96C64.8745 38.8533 64.8145 38.7133 64.7878 38.54C64.7611 38.3667 64.7811 38.2 64.8478 38.04C64.9278 37.8667 65.0611 37.7267 65.2478 37.62C65.4345 37.5 65.6211 37.44 65.8078 37.44C66.1945 37.44 66.4545 37.62 66.5878 37.98C66.6545 38.14 66.6611 38.3067 66.6078 38.48C66.5678 38.64 66.4745 38.78 66.3278 38.9C66.2745 38.9533 66.2145 39 66.1478 39.04C66.0945 39.0667 66.0345 39.0933 65.9678 39.12ZM66.7678 47.42C66.8211 47.7 66.7345 47.9 66.5078 48.02C66.2678 48.14 66.0278 48.1133 65.7878 47.94C65.6811 47.8467 65.6011 47.74 65.5478 47.62C65.4945 47.5 65.4411 47.3733 65.3878 47.24C65.3478 47.0533 65.3078 46.86 65.2678 46.66C65.2411 46.46 65.2145 46.2667 65.1878 46.08C65.1078 45.4133 65.0411 44.7467 64.9878 44.08C64.9478 43.4 64.9545 42.7267 65.0078 42.06C65.0211 41.9133 65.0411 41.7667 65.0678 41.62C65.0945 41.46 65.1545 41.3133 65.2478 41.18C65.3145 41.0467 65.4011 40.94 65.5078 40.86C65.6278 40.78 65.7678 40.74 65.9278 40.74C66.2345 40.7533 66.4545 40.9133 66.5878 41.22C66.7078 41.46 66.7678 41.72 66.7678 42V44.76C66.7545 44.92 66.7411 45.1133 66.7278 45.34C66.7145 45.5667 66.7078 45.8133 66.7078 46.08C66.7078 46.2933 66.7078 46.5133 66.7078 46.74C66.7211 46.9667 66.7411 47.1933 66.7678 47.42ZM70.403 43.74C70.443 43.62 70.483 43.5 70.523 43.38C70.563 43.26 70.6096 43.1467 70.663 43.04C70.9163 42.4133 71.2763 41.8733 71.743 41.42C71.8896 41.3 72.0296 41.2 72.163 41.12C72.3096 41.04 72.4696 41 72.643 41C72.9363 41 73.1696 41.0733 73.343 41.22C73.5163 41.3667 73.663 41.5533 73.783 41.78C73.8496 41.9 73.8963 42.0267 73.923 42.16C73.9496 42.2933 73.983 42.4267 74.023 42.56C74.103 42.52 74.1563 42.4733 74.183 42.42C74.2096 42.3533 74.2296 42.2933 74.243 42.24C74.3763 41.9733 74.5163 41.72 74.663 41.48C74.823 41.24 75.0096 41.02 75.223 40.82C75.6096 40.4867 76.0363 40.3133 76.503 40.3C76.9696 40.2867 77.3763 40.5333 77.723 41.04C77.9096 41.2933 78.043 41.56 78.123 41.84C78.203 42.12 78.2696 42.4 78.323 42.68C78.4163 43.2533 78.4763 43.82 78.503 44.38C78.5296 44.94 78.5096 45.5067 78.443 46.08C78.3896 46.3467 78.3563 46.6133 78.343 46.88C78.3296 47.1333 78.3096 47.3933 78.283 47.66C78.2696 47.7933 78.283 47.9467 78.323 48.12C78.3496 48.2667 78.323 48.4067 78.243 48.54C78.1763 48.6733 78.0696 48.76 77.923 48.8C77.7896 48.8533 77.6563 48.86 77.523 48.82C77.403 48.7667 77.2963 48.6733 77.203 48.54C77.123 48.3533 77.063 48.1733 77.023 48C76.9696 47.5867 76.9096 47.1733 76.843 46.76C76.7763 46.3467 76.7096 45.94 76.643 45.54C76.6163 45.2733 76.5963 45.0067 76.583 44.74C76.583 44.4733 76.583 44.2067 76.583 43.94C76.5696 43.7133 76.543 43.4933 76.503 43.28C76.463 43.0667 76.4296 42.8467 76.403 42.62C76.3896 42.5533 76.3696 42.4867 76.343 42.42C76.3296 42.3533 76.2896 42.2933 76.223 42.24C76.0763 42.3067 75.9496 42.4 75.843 42.52C75.7363 42.6267 75.6296 42.7533 75.523 42.9C75.3496 43.1667 75.183 43.4533 75.023 43.76C74.8763 44.0533 74.743 44.3533 74.623 44.66C74.5296 44.9533 74.4363 45.2533 74.343 45.56C74.263 45.8533 74.1963 46.1533 74.143 46.46C74.1296 46.5667 74.123 46.6733 74.123 46.78C74.123 46.8733 74.1096 46.9667 74.083 47.06C74.0563 47.5267 73.8363 47.78 73.423 47.82C73.0363 47.8867 72.7763 47.6933 72.643 47.24C72.5763 47.0133 72.5296 46.7867 72.503 46.56C72.4896 46.3333 72.4563 46.1133 72.403 45.9C72.363 45.5133 72.3296 45.1333 72.303 44.76C72.2896 44.3867 72.2763 44.0133 72.263 43.64C72.263 43.56 72.243 43.5133 72.203 43.5C72.123 43.54 72.0696 43.6 72.043 43.68C72.0163 43.7467 71.9896 43.8133 71.963 43.88C71.4163 45.2533 71.123 46.6667 71.083 48.12C71.083 48.2133 71.0763 48.32 71.063 48.44C71.0496 48.56 71.0096 48.6733 70.943 48.78C70.7696 49.0333 70.543 49.1667 70.263 49.18C69.983 49.2067 69.7363 49.1 69.523 48.86C69.3896 48.6867 69.2896 48.46 69.223 48.18C69.103 47.7267 68.9963 47.2667 68.903 46.8C68.8096 46.3333 68.7296 45.8733 68.663 45.42C68.5696 44.86 68.4896 44.3067 68.423 43.76C68.3563 43.2 68.323 42.64 68.323 42.08C68.3096 41.8933 68.3096 41.7 68.323 41.5C68.3363 41.3 68.3763 41.1067 68.443 40.92C68.523 40.7733 68.6363 40.6467 68.783 40.54C68.9296 40.4333 69.0763 40.3867 69.223 40.4C69.3963 40.4 69.543 40.4533 69.663 40.56C69.7963 40.6667 69.8896 40.8067 69.943 40.98C70.0096 41.14 70.043 41.3067 70.043 41.48C70.0563 41.64 70.0763 41.8133 70.103 42C70.1696 42.4933 70.2296 43.0133 70.283 43.56C70.283 43.6267 70.323 43.6867 70.403 43.74ZM80.0413 45.42C80.0413 44.7933 80.1279 44.1933 80.3013 43.62C80.4879 43.0333 80.7279 42.46 81.0213 41.9C81.1679 41.6333 81.3413 41.38 81.5413 41.14C81.7413 40.9 81.9679 40.6933 82.2212 40.52C82.5679 40.28 82.9279 40.14 83.3013 40.1C83.7013 40.0733 84.0613 40.16 84.3813 40.36C84.7013 40.56 84.9479 40.8333 85.1213 41.18C85.2946 41.5133 85.3479 41.8933 85.2813 42.32C85.2679 42.44 85.2413 42.5667 85.2013 42.7C85.1613 42.8333 85.1079 42.96 85.0413 43.08C84.8679 43.4133 84.6613 43.7333 84.4212 44.04C84.1946 44.3333 83.9146 44.5933 83.5813 44.82C83.3679 44.9667 83.1413 45.0933 82.9013 45.2C82.6746 45.2933 82.4279 45.3333 82.1613 45.32C82.0679 45.32 82.0079 45.3333 81.9813 45.36C81.9679 45.3867 81.9613 45.4467 81.9613 45.54C81.9479 45.7533 81.9613 45.9667 82.0013 46.18C82.0413 46.3933 82.0946 46.6067 82.1613 46.82C82.2413 46.9933 82.3146 47.0933 82.3813 47.12C82.4479 47.1467 82.5679 47.1067 82.7413 47C82.9946 46.8667 83.2213 46.6867 83.4213 46.46C83.5413 46.3533 83.6613 46.26 83.7813 46.18C83.9013 46.0867 84.0213 45.9933 84.1413 45.9C84.1946 45.8467 84.2746 45.7933 84.3813 45.74C84.5813 45.6733 84.7479 45.6933 84.8813 45.8C85.0279 45.8933 85.1013 46.0467 85.1013 46.26C85.1013 46.3533 85.0946 46.4467 85.0813 46.54C85.0679 46.6333 85.0479 46.7267 85.0213 46.82C84.8479 47.3267 84.6013 47.7667 84.2812 48.14C83.9613 48.5133 83.5279 48.7867 82.9813 48.96C82.2213 49.16 81.5613 48.98 81.0013 48.42C80.7079 48.1267 80.5013 47.8 80.3813 47.44C80.2613 47.08 80.1679 46.7067 80.1013 46.32C80.0879 46.1733 80.0746 46.0267 80.0613 45.88C80.0613 45.72 80.0546 45.5667 80.0413 45.42ZM83.7813 42.12C83.7813 42.0267 83.7746 41.9467 83.7613 41.88C83.7479 41.8 83.7079 41.7467 83.6413 41.72C83.5479 41.6667 83.4279 41.7 83.2813 41.82C83.2279 41.8467 83.1813 41.88 83.1413 41.92C83.1013 41.96 83.0546 42.0067 83.0013 42.06C82.8279 42.2733 82.6813 42.5067 82.5613 42.76C82.4546 43.0133 82.3546 43.2667 82.2613 43.52C82.1946 43.6133 82.2013 43.6867 82.2813 43.74C82.3079 43.7667 82.3413 43.78 82.3813 43.78C82.4346 43.7667 82.4746 43.7533 82.5013 43.74C83.1013 43.4067 83.5213 42.9133 83.7613 42.26C83.7746 42.2333 83.7813 42.2067 83.7813 42.18C83.7813 42.14 83.7813 42.12 83.7813 42.12ZM93.4108 43.74C93.4508 43.62 93.4908 43.5 93.5308 43.38C93.5708 43.26 93.6174 43.1467 93.6708 43.04C93.9241 42.4133 94.2841 41.8733 94.7508 41.42C94.8974 41.3 95.0374 41.2 95.1708 41.12C95.3174 41.04 95.4774 41 95.6508 41C95.9441 41 96.1774 41.0733 96.3508 41.22C96.5241 41.3667 96.6708 41.5533 96.7908 41.78C96.8574 41.9 96.9041 42.0267 96.9308 42.16C96.9574 42.2933 96.9908 42.4267 97.0308 42.56C97.1108 42.52 97.1641 42.4733 97.1908 42.42C97.2174 42.3533 97.2374 42.2933 97.2508 42.24C97.3841 41.9733 97.5241 41.72 97.6708 41.48C97.8308 41.24 98.0174 41.02 98.2308 40.82C98.6174 40.4867 99.0441 40.3133 99.5108 40.3C99.9774 40.2867 100.384 40.5333 100.731 41.04C100.917 41.2933 101.051 41.56 101.131 41.84C101.211 42.12 101.277 42.4 101.331 42.68C101.424 43.2533 101.484 43.82 101.511 44.38C101.537 44.94 101.517 45.5067 101.451 46.08C101.397 46.3467 101.364 46.6133 101.351 46.88C101.337 47.1333 101.317 47.3933 101.291 47.66C101.277 47.7933 101.291 47.9467 101.331 48.12C101.357 48.2667 101.331 48.4067 101.251 48.54C101.184 48.6733 101.077 48.76 100.931 48.8C100.797 48.8533 100.664 48.86 100.531 48.82C100.411 48.7667 100.304 48.6733 100.211 48.54C100.131 48.3533 100.071 48.1733 100.031 48C99.9774 47.5867 99.9174 47.1733 99.8508 46.76C99.7841 46.3467 99.7174 45.94 99.6508 45.54C99.6241 45.2733 99.6041 45.0067 99.5908 44.74C99.5908 44.4733 99.5908 44.2067 99.5908 43.94C99.5774 43.7133 99.5508 43.4933 99.5108 43.28C99.4708 43.0667 99.4374 42.8467 99.4108 42.62C99.3974 42.5533 99.3774 42.4867 99.3508 42.42C99.3374 42.3533 99.2974 42.2933 99.2308 42.24C99.0841 42.3067 98.9574 42.4 98.8508 42.52C98.7441 42.6267 98.6374 42.7533 98.5308 42.9C98.3574 43.1667 98.1908 43.4533 98.0308 43.76C97.8841 44.0533 97.7508 44.3533 97.6308 44.66C97.5374 44.9533 97.4441 45.2533 97.3508 45.56C97.2708 45.8533 97.2041 46.1533 97.1508 46.46C97.1374 46.5667 97.1308 46.6733 97.1308 46.78C97.1308 46.8733 97.1174 46.9667 97.0908 47.06C97.0641 47.5267 96.8441 47.78 96.4308 47.82C96.0441 47.8867 95.7841 47.6933 95.6508 47.24C95.5841 47.0133 95.5374 46.7867 95.5108 46.56C95.4974 46.3333 95.4641 46.1133 95.4108 45.9C95.3708 45.5133 95.3374 45.1333 95.3108 44.76C95.2974 44.3867 95.2841 44.0133 95.2708 43.64C95.2708 43.56 95.2508 43.5133 95.2108 43.5C95.1308 43.54 95.0774 43.6 95.0508 43.68C95.0241 43.7467 94.9974 43.8133 94.9708 43.88C94.4241 45.2533 94.1308 46.6667 94.0908 48.12C94.0908 48.2133 94.0841 48.32 94.0708 48.44C94.0574 48.56 94.0174 48.6733 93.9508 48.78C93.7774 49.0333 93.5508 49.1667 93.2708 49.18C92.9908 49.2067 92.7441 49.1 92.5308 48.86C92.3974 48.6867 92.2974 48.46 92.2308 48.18C92.1108 47.7267 92.0041 47.2667 91.9108 46.8C91.8174 46.3333 91.7374 45.8733 91.6708 45.42C91.5774 44.86 91.4974 44.3067 91.4308 43.76C91.3641 43.2 91.3308 42.64 91.3308 42.08C91.3174 41.8933 91.3174 41.7 91.3308 41.5C91.3441 41.3 91.3841 41.1067 91.4508 40.92C91.5308 40.7733 91.6441 40.6467 91.7908 40.54C91.9374 40.4333 92.0841 40.3867 92.2308 40.4C92.4041 40.4 92.5508 40.4533 92.6708 40.56C92.8041 40.6667 92.8974 40.8067 92.9508 40.98C93.0174 41.14 93.0508 41.3067 93.0508 41.48C93.0641 41.64 93.0841 41.8133 93.1108 42C93.1774 42.4933 93.2374 43.0133 93.2908 43.56C93.2908 43.6267 93.3308 43.6867 93.4108 43.74ZM107.216 47.46C107.123 47.5267 107.049 47.6133 106.996 47.72C106.956 47.8133 106.903 47.8933 106.836 47.96C106.703 48.16 106.556 48.3467 106.396 48.52C106.236 48.68 106.043 48.8067 105.816 48.9C105.443 49.0733 105.063 49.0867 104.676 48.94C104.303 48.78 104.043 48.5067 103.896 48.12C103.603 47.3733 103.516 46.66 103.636 45.98C103.769 45.3 104.076 44.6533 104.556 44.04C104.823 43.7067 105.136 43.4733 105.496 43.34C105.869 43.1933 106.276 43.1667 106.716 43.26C106.743 43.26 106.763 43.2667 106.776 43.28C106.803 43.28 106.829 43.28 106.856 43.28C106.909 43.1733 106.923 43.08 106.896 43C106.869 42.9067 106.849 42.8133 106.836 42.72C106.783 42.4267 106.716 42.1467 106.636 41.88C106.569 41.6133 106.483 41.3533 106.376 41.1C106.216 40.7533 106.069 40.5667 105.936 40.54C105.816 40.5133 105.616 40.62 105.336 40.86C104.896 41.2333 104.516 41.68 104.196 42.2C104.089 42.3333 104.036 42.4667 104.036 42.6C104.036 42.8933 103.896 43.08 103.616 43.16C103.523 43.1867 103.409 43.1733 103.276 43.12C103.143 43.0667 103.036 42.9933 102.956 42.9C102.783 42.6333 102.723 42.34 102.776 42.02C102.829 41.7133 102.916 41.4267 103.036 41.16C103.156 40.88 103.303 40.62 103.476 40.38C103.663 40.1133 103.863 39.8733 104.076 39.66C104.289 39.4333 104.529 39.2333 104.796 39.06C105.223 38.7933 105.683 38.68 106.176 38.72C106.683 38.7467 107.129 38.98 107.516 39.42C107.689 39.5933 107.823 39.7867 107.916 40C108.023 40.2 108.123 40.4133 108.216 40.64C108.363 41.0533 108.483 41.4733 108.576 41.9C108.683 42.3267 108.763 42.76 108.816 43.2C108.883 43.8 108.943 44.3933 108.996 44.98C109.049 45.5667 109.096 46.16 109.136 46.76C109.176 47.1067 109.176 47.46 109.136 47.82C109.109 48.22 108.943 48.5067 108.636 48.68C108.329 48.84 108.009 48.8133 107.676 48.6C107.543 48.5067 107.449 48.3933 107.396 48.26C107.343 48.1267 107.303 47.9867 107.276 47.84C107.263 47.7733 107.256 47.7133 107.256 47.66C107.256 47.5933 107.243 47.5267 107.216 47.46ZM105.516 47C105.729 46.7733 105.936 46.5533 106.136 46.34C106.336 46.1133 106.509 45.8667 106.656 45.6C106.696 45.52 106.689 45.4267 106.636 45.32C106.596 45.2 106.529 45.1133 106.436 45.06C106.343 44.9933 106.269 44.9867 106.216 45.04C106.176 45.08 106.123 45.1133 106.056 45.14C106.043 45.1667 106.023 45.1933 105.996 45.22C105.969 45.2467 105.949 45.2733 105.936 45.3C105.763 45.5533 105.636 45.82 105.556 46.1C105.476 46.3667 105.463 46.6667 105.516 47ZM114.646 43.7C114.406 43.9133 114.232 44.1333 114.126 44.36C113.846 44.8533 113.619 45.3733 113.446 45.92C113.272 46.4667 113.139 47.0267 113.046 47.6C113.032 47.7333 113.006 47.8667 112.966 48C112.926 48.1333 112.872 48.2533 112.806 48.36C112.606 48.6933 112.339 48.84 112.006 48.8C111.832 48.8 111.686 48.7533 111.566 48.66C111.446 48.5667 111.339 48.4467 111.246 48.3C111.192 48.18 111.152 48.0533 111.126 47.92C111.112 47.7867 111.092 47.6533 111.066 47.52C110.999 46.9867 110.926 46.4533 110.846 45.92C110.779 45.3733 110.732 44.8333 110.706 44.3C110.679 43.94 110.679 43.58 110.706 43.22C110.732 42.86 110.772 42.5 110.826 42.14C110.826 42.0733 110.839 42.0133 110.866 41.96C110.892 41.8933 110.912 41.8333 110.926 41.78C111.046 41.4467 111.266 41.3 111.586 41.34C111.719 41.3533 111.839 41.4133 111.946 41.52C112.052 41.6267 112.112 41.7533 112.126 41.9C112.166 42.22 112.199 42.5333 112.226 42.84C112.266 43.1467 112.312 43.4533 112.366 43.76C112.379 43.8133 112.386 43.88 112.386 43.96C112.386 44.0267 112.406 44.0933 112.446 44.16C112.512 44.1333 112.552 44.1 112.566 44.06C112.579 44.0067 112.592 43.96 112.606 43.92C112.739 43.6533 112.872 43.3933 113.006 43.14C113.139 42.8733 113.292 42.6333 113.466 42.42C113.546 42.3133 113.626 42.2133 113.706 42.12C113.786 42.0133 113.879 41.92 113.986 41.84C114.332 41.56 114.706 41.4533 115.106 41.52C115.506 41.5733 115.832 41.7933 116.086 42.18C116.206 42.3933 116.299 42.62 116.366 42.86C116.432 43.0867 116.479 43.32 116.506 43.56C116.572 43.96 116.626 44.3667 116.666 44.78C116.719 45.18 116.772 45.58 116.826 45.98C116.852 46.22 116.886 46.46 116.926 46.7C116.979 46.9267 117.019 47.16 117.046 47.4C117.072 47.4933 117.106 47.5733 117.146 47.64C117.186 47.7067 117.252 47.7733 117.346 47.84C117.626 47.9867 117.712 48.22 117.606 48.54C117.486 48.8733 117.279 49.08 116.986 49.16C116.692 49.24 116.412 49.1733 116.146 48.96C116.026 48.8533 115.926 48.74 115.846 48.62C115.766 48.5 115.692 48.3733 115.626 48.24C115.412 47.8533 115.252 47.46 115.146 47.06C115.039 46.66 114.959 46.24 114.906 45.8C114.866 45.4933 114.832 45.18 114.806 44.86C114.779 44.54 114.732 44.2267 114.666 43.92C114.666 43.8933 114.659 43.8667 114.646 43.84C114.646 43.8 114.646 43.7533 114.646 43.7ZM122.411 47.46C122.318 47.5267 122.245 47.6133 122.191 47.72C122.151 47.8133 122.098 47.8933 122.031 47.96C121.898 48.16 121.751 48.3467 121.591 48.52C121.431 48.68 121.238 48.8067 121.011 48.9C120.638 49.0733 120.258 49.0867 119.871 48.94C119.498 48.78 119.238 48.5067 119.091 48.12C118.798 47.3733 118.711 46.66 118.831 45.98C118.965 45.3 119.271 44.6533 119.751 44.04C120.018 43.7067 120.331 43.4733 120.691 43.34C121.065 43.1933 121.471 43.1667 121.911 43.26C121.938 43.26 121.958 43.2667 121.971 43.28C121.998 43.28 122.025 43.28 122.051 43.28C122.105 43.1733 122.118 43.08 122.091 43C122.065 42.9067 122.045 42.8133 122.031 42.72C121.978 42.4267 121.911 42.1467 121.831 41.88C121.765 41.6133 121.678 41.3533 121.571 41.1C121.411 40.7533 121.265 40.5667 121.131 40.54C121.011 40.5133 120.811 40.62 120.531 40.86C120.091 41.2333 119.711 41.68 119.391 42.2C119.285 42.3333 119.231 42.4667 119.231 42.6C119.231 42.8933 119.091 43.08 118.811 43.16C118.718 43.1867 118.605 43.1733 118.471 43.12C118.338 43.0667 118.231 42.9933 118.151 42.9C117.978 42.6333 117.918 42.34 117.971 42.02C118.025 41.7133 118.111 41.4267 118.231 41.16C118.351 40.88 118.498 40.62 118.671 40.38C118.858 40.1133 119.058 39.8733 119.271 39.66C119.485 39.4333 119.725 39.2333 119.991 39.06C120.418 38.7933 120.878 38.68 121.371 38.72C121.878 38.7467 122.325 38.98 122.711 39.42C122.885 39.5933 123.018 39.7867 123.111 40C123.218 40.2 123.318 40.4133 123.411 40.64C123.558 41.0533 123.678 41.4733 123.771 41.9C123.878 42.3267 123.958 42.76 124.011 43.2C124.078 43.8 124.138 44.3933 124.191 44.98C124.245 45.5667 124.291 46.16 124.331 46.76C124.371 47.1067 124.371 47.46 124.331 47.82C124.305 48.22 124.138 48.5067 123.831 48.68C123.525 48.84 123.205 48.8133 122.871 48.6C122.738 48.5067 122.645 48.3933 122.591 48.26C122.538 48.1267 122.498 47.9867 122.471 47.84C122.458 47.7733 122.451 47.7133 122.451 47.66C122.451 47.5933 122.438 47.5267 122.411 47.46ZM120.711 47C120.925 46.7733 121.131 46.5533 121.331 46.34C121.531 46.1133 121.705 45.8667 121.851 45.6C121.891 45.52 121.885 45.4267 121.831 45.32C121.791 45.2 121.725 45.1133 121.631 45.06C121.538 44.9933 121.465 44.9867 121.411 45.04C121.371 45.08 121.318 45.1133 121.251 45.14C121.238 45.1667 121.218 45.1933 121.191 45.22C121.165 45.2467 121.145 45.2733 121.131 45.3C120.958 45.5533 120.831 45.82 120.751 46.1C120.671 46.3667 120.658 46.6667 120.711 47ZM129.861 45.96C129.808 46.08 129.748 46.2 129.681 46.32C129.628 46.44 129.568 46.56 129.501 46.68C129.434 46.84 129.348 47 129.241 47.16C129.134 47.32 129.014 47.46 128.881 47.58C128.548 47.8867 128.181 48.0333 127.781 48.02C127.381 48.0067 127.028 47.8267 126.721 47.48C126.548 47.2933 126.408 47.08 126.301 46.84C126.208 46.5867 126.128 46.3333 126.061 46.08C125.754 44.92 125.814 43.78 126.241 42.66C126.374 42.3 126.541 41.96 126.741 41.64C126.954 41.32 127.228 41.0467 127.561 40.82C127.894 40.5933 128.234 40.4533 128.581 40.4C128.928 40.3333 129.288 40.3733 129.661 40.52C129.768 40.5467 129.861 40.5667 129.941 40.58C130.034 40.5933 130.128 40.5733 130.221 40.52C130.488 40.4133 130.748 40.44 131.001 40.6C131.268 40.7467 131.428 40.96 131.481 41.24C131.561 41.5867 131.614 41.9333 131.641 42.28C131.668 42.6267 131.688 42.9733 131.701 43.32C131.741 44.0667 131.768 44.82 131.781 45.58C131.794 46.3267 131.788 47.0733 131.761 47.82C131.748 48.18 131.721 48.5467 131.681 48.92C131.654 49.28 131.581 49.64 131.461 50C131.341 50.4133 131.174 50.7933 130.961 51.14C130.761 51.5 130.508 51.82 130.201 52.1C129.961 52.3133 129.688 52.4533 129.381 52.52C128.994 52.6 128.621 52.5133 128.261 52.26C127.914 52.0067 127.708 51.6867 127.641 51.3C127.614 51.06 127.688 50.8867 127.861 50.78C127.928 50.74 128.001 50.7133 128.081 50.7C128.174 50.6867 128.268 50.7067 128.361 50.76C128.441 50.8 128.508 50.84 128.561 50.88C128.614 50.9333 128.668 50.9933 128.721 51.06C128.841 51.1533 128.961 51.1333 129.081 51C129.334 50.64 129.508 50.26 129.601 49.86C129.748 49.2333 129.834 48.5933 129.861 47.94C129.888 47.2733 129.888 46.6133 129.861 45.96ZM128.041 45.98C128.174 45.8733 128.274 45.7533 128.341 45.62C128.421 45.4733 128.501 45.3133 128.581 45.14C128.741 44.74 128.874 44.3267 128.981 43.9C129.101 43.46 129.194 43.0133 129.261 42.56C129.301 42.2533 129.174 42.1467 128.881 42.24C128.721 42.2933 128.581 42.38 128.461 42.5C128.354 42.62 128.268 42.74 128.201 42.86C128.134 42.98 128.068 43.1133 128.001 43.26C127.868 43.5933 127.794 43.94 127.781 44.3C127.768 44.66 127.781 45.02 127.821 45.38C127.848 45.4867 127.868 45.5933 127.881 45.7C127.908 45.7933 127.961 45.8867 128.041 45.98ZM133.303 45.42C133.303 44.7933 133.39 44.1933 133.563 43.62C133.75 43.0333 133.99 42.46 134.283 41.9C134.43 41.6333 134.603 41.38 134.803 41.14C135.003 40.9 135.23 40.6933 135.483 40.52C135.83 40.28 136.19 40.14 136.563 40.1C136.963 40.0733 137.323 40.16 137.643 40.36C137.963 40.56 138.21 40.8333 138.383 41.18C138.556 41.5133 138.61 41.8933 138.543 42.32C138.53 42.44 138.503 42.5667 138.463 42.7C138.423 42.8333 138.37 42.96 138.303 43.08C138.13 43.4133 137.923 43.7333 137.683 44.04C137.456 44.3333 137.176 44.5933 136.843 44.82C136.63 44.9667 136.403 45.0933 136.163 45.2C135.936 45.2933 135.69 45.3333 135.423 45.32C135.33 45.32 135.27 45.3333 135.243 45.36C135.23 45.3867 135.223 45.4467 135.223 45.54C135.21 45.7533 135.223 45.9667 135.263 46.18C135.303 46.3933 135.356 46.6067 135.423 46.82C135.503 46.9933 135.576 47.0933 135.643 47.12C135.71 47.1467 135.83 47.1067 136.003 47C136.256 46.8667 136.483 46.6867 136.683 46.46C136.803 46.3533 136.923 46.26 137.043 46.18C137.163 46.0867 137.283 45.9933 137.403 45.9C137.456 45.8467 137.536 45.7933 137.643 45.74C137.843 45.6733 138.01 45.6933 138.143 45.8C138.29 45.8933 138.363 46.0467 138.363 46.26C138.363 46.3533 138.356 46.4467 138.343 46.54C138.33 46.6333 138.31 46.7267 138.283 46.82C138.11 47.3267 137.863 47.7667 137.543 48.14C137.223 48.5133 136.79 48.7867 136.243 48.96C135.483 49.16 134.823 48.98 134.263 48.42C133.97 48.1267 133.763 47.8 133.643 47.44C133.523 47.08 133.43 46.7067 133.363 46.32C133.35 46.1733 133.336 46.0267 133.323 45.88C133.323 45.72 133.316 45.5667 133.303 45.42ZM137.043 42.12C137.043 42.0267 137.036 41.9467 137.023 41.88C137.01 41.8 136.97 41.7467 136.903 41.72C136.81 41.6667 136.69 41.7 136.543 41.82C136.49 41.8467 136.443 41.88 136.403 41.92C136.363 41.96 136.316 42.0067 136.263 42.06C136.09 42.2733 135.943 42.5067 135.823 42.76C135.716 43.0133 135.616 43.2667 135.523 43.52C135.456 43.6133 135.463 43.6867 135.543 43.74C135.57 43.7667 135.603 43.78 135.643 43.78C135.696 43.7667 135.736 43.7533 135.763 43.74C136.363 43.4067 136.783 42.9133 137.023 42.26C137.036 42.2333 137.043 42.2067 137.043 42.18C137.043 42.14 137.043 42.12 137.043 42.12ZM142.18 43.74C142.22 43.62 142.26 43.5 142.3 43.38C142.34 43.26 142.387 43.1467 142.44 43.04C142.694 42.4133 143.054 41.8733 143.52 41.42C143.667 41.3 143.807 41.2 143.94 41.12C144.087 41.04 144.247 41 144.42 41C144.714 41 144.947 41.0733 145.12 41.22C145.294 41.3667 145.44 41.5533 145.56 41.78C145.627 41.9 145.674 42.0267 145.7 42.16C145.727 42.2933 145.76 42.4267 145.8 42.56C145.88 42.52 145.934 42.4733 145.96 42.42C145.987 42.3533 146.007 42.2933 146.02 42.24C146.154 41.9733 146.294 41.72 146.44 41.48C146.6 41.24 146.787 41.02 147 40.82C147.387 40.4867 147.814 40.3133 148.28 40.3C148.747 40.2867 149.154 40.5333 149.5 41.04C149.687 41.2933 149.82 41.56 149.9 41.84C149.98 42.12 150.047 42.4 150.1 42.68C150.194 43.2533 150.254 43.82 150.28 44.38C150.307 44.94 150.287 45.5067 150.22 46.08C150.167 46.3467 150.134 46.6133 150.12 46.88C150.107 47.1333 150.087 47.3933 150.06 47.66C150.047 47.7933 150.06 47.9467 150.1 48.12C150.127 48.2667 150.1 48.4067 150.02 48.54C149.954 48.6733 149.847 48.76 149.7 48.8C149.567 48.8533 149.434 48.86 149.3 48.82C149.18 48.7667 149.074 48.6733 148.98 48.54C148.9 48.3533 148.84 48.1733 148.8 48C148.747 47.5867 148.687 47.1733 148.62 46.76C148.554 46.3467 148.487 45.94 148.42 45.54C148.394 45.2733 148.374 45.0067 148.36 44.74C148.36 44.4733 148.36 44.2067 148.36 43.94C148.347 43.7133 148.32 43.4933 148.28 43.28C148.24 43.0667 148.207 42.8467 148.18 42.62C148.167 42.5533 148.147 42.4867 148.12 42.42C148.107 42.3533 148.067 42.2933 148 42.24C147.854 42.3067 147.727 42.4 147.62 42.52C147.514 42.6267 147.407 42.7533 147.3 42.9C147.127 43.1667 146.96 43.4533 146.8 43.76C146.654 44.0533 146.52 44.3533 146.4 44.66C146.307 44.9533 146.214 45.2533 146.12 45.56C146.04 45.8533 145.974 46.1533 145.92 46.46C145.907 46.5667 145.9 46.6733 145.9 46.78C145.9 46.8733 145.887 46.9667 145.86 47.06C145.834 47.5267 145.614 47.78 145.2 47.82C144.814 47.8867 144.554 47.6933 144.42 47.24C144.354 47.0133 144.307 46.7867 144.28 46.56C144.267 46.3333 144.234 46.1133 144.18 45.9C144.14 45.5133 144.107 45.1333 144.08 44.76C144.067 44.3867 144.054 44.0133 144.04 43.64C144.04 43.56 144.02 43.5133 143.98 43.5C143.9 43.54 143.847 43.6 143.82 43.68C143.794 43.7467 143.767 43.8133 143.74 43.88C143.194 45.2533 142.9 46.6667 142.86 48.12C142.86 48.2133 142.854 48.32 142.84 48.44C142.827 48.56 142.787 48.6733 142.72 48.78C142.547 49.0333 142.32 49.1667 142.04 49.18C141.76 49.2067 141.514 49.1 141.3 48.86C141.167 48.6867 141.067 48.46 141 48.18C140.88 47.7267 140.774 47.2667 140.68 46.8C140.587 46.3333 140.507 45.8733 140.44 45.42C140.347 44.86 140.267 44.3067 140.2 43.76C140.134 43.2 140.1 42.64 140.1 42.08C140.087 41.8933 140.087 41.7 140.1 41.5C140.114 41.3 140.154 41.1067 140.22 40.92C140.3 40.7733 140.414 40.6467 140.56 40.54C140.707 40.4333 140.854 40.3867 141 40.4C141.174 40.4 141.32 40.4533 141.44 40.56C141.574 40.6667 141.667 40.8067 141.72 40.98C141.787 41.14 141.82 41.3067 141.82 41.48C141.834 41.64 141.854 41.8133 141.88 42C141.947 42.4933 142.007 43.0133 142.06 43.56C142.06 43.6267 142.1 43.6867 142.18 43.74ZM151.819 45.42C151.819 44.7933 151.905 44.1933 152.079 43.62C152.265 43.0333 152.505 42.46 152.799 41.9C152.945 41.6333 153.119 41.38 153.319 41.14C153.519 40.9 153.745 40.6933 153.999 40.52C154.345 40.28 154.705 40.14 155.079 40.1C155.479 40.0733 155.839 40.16 156.159 40.36C156.479 40.56 156.725 40.8333 156.899 41.18C157.072 41.5133 157.125 41.8933 157.059 42.32C157.045 42.44 157.019 42.5667 156.979 42.7C156.939 42.8333 156.885 42.96 156.819 43.08C156.645 43.4133 156.439 43.7333 156.199 44.04C155.972 44.3333 155.692 44.5933 155.359 44.82C155.145 44.9667 154.919 45.0933 154.679 45.2C154.452 45.2933 154.205 45.3333 153.939 45.32C153.845 45.32 153.785 45.3333 153.759 45.36C153.745 45.3867 153.739 45.4467 153.739 45.54C153.725 45.7533 153.739 45.9667 153.779 46.18C153.819 46.3933 153.872 46.6067 153.939 46.82C154.019 46.9933 154.092 47.0933 154.159 47.12C154.225 47.1467 154.345 47.1067 154.519 47C154.772 46.8667 154.999 46.6867 155.199 46.46C155.319 46.3533 155.439 46.26 155.559 46.18C155.679 46.0867 155.799 45.9933 155.919 45.9C155.972 45.8467 156.052 45.7933 156.159 45.74C156.359 45.6733 156.525 45.6933 156.659 45.8C156.805 45.8933 156.879 46.0467 156.879 46.26C156.879 46.3533 156.872 46.4467 156.859 46.54C156.845 46.6333 156.825 46.7267 156.799 46.82C156.625 47.3267 156.379 47.7667 156.059 48.14C155.739 48.5133 155.305 48.7867 154.759 48.96C153.999 49.16 153.339 48.98 152.779 48.42C152.485 48.1267 152.279 47.8 152.159 47.44C152.039 47.08 151.945 46.7067 151.879 46.32C151.865 46.1733 151.852 46.0267 151.839 45.88C151.839 45.72 151.832 45.5667 151.819 45.42ZM155.559 42.12C155.559 42.0267 155.552 41.9467 155.539 41.88C155.525 41.8 155.485 41.7467 155.419 41.72C155.325 41.6667 155.205 41.7 155.059 41.82C155.005 41.8467 154.959 41.88 154.919 41.92C154.879 41.96 154.832 42.0067 154.779 42.06C154.605 42.2733 154.459 42.5067 154.339 42.76C154.232 43.0133 154.132 43.2667 154.039 43.52C153.972 43.6133 153.979 43.6867 154.059 43.74C154.085 43.7667 154.119 43.78 154.159 43.78C154.212 43.7667 154.252 43.7533 154.279 43.74C154.879 43.4067 155.299 42.9133 155.539 42.26C155.552 42.2333 155.559 42.2067 155.559 42.18C155.559 42.14 155.559 42.12 155.559 42.12ZM162.556 43.7C162.316 43.9133 162.143 44.1333 162.036 44.36C161.756 44.8533 161.529 45.3733 161.356 45.92C161.183 46.4667 161.049 47.0267 160.956 47.6C160.943 47.7333 160.916 47.8667 160.876 48C160.836 48.1333 160.783 48.2533 160.716 48.36C160.516 48.6933 160.249 48.84 159.916 48.8C159.743 48.8 159.596 48.7533 159.476 48.66C159.356 48.5667 159.249 48.4467 159.156 48.3C159.103 48.18 159.063 48.0533 159.036 47.92C159.023 47.7867 159.003 47.6533 158.976 47.52C158.909 46.9867 158.836 46.4533 158.756 45.92C158.689 45.3733 158.643 44.8333 158.616 44.3C158.589 43.94 158.589 43.58 158.616 43.22C158.643 42.86 158.683 42.5 158.736 42.14C158.736 42.0733 158.749 42.0133 158.776 41.96C158.803 41.8933 158.823 41.8333 158.836 41.78C158.956 41.4467 159.176 41.3 159.496 41.34C159.629 41.3533 159.749 41.4133 159.856 41.52C159.963 41.6267 160.023 41.7533 160.036 41.9C160.076 42.22 160.109 42.5333 160.136 42.84C160.176 43.1467 160.223 43.4533 160.276 43.76C160.289 43.8133 160.296 43.88 160.296 43.96C160.296 44.0267 160.316 44.0933 160.356 44.16C160.423 44.1333 160.463 44.1 160.476 44.06C160.489 44.0067 160.503 43.96 160.516 43.92C160.649 43.6533 160.783 43.3933 160.916 43.14C161.049 42.8733 161.203 42.6333 161.376 42.42C161.456 42.3133 161.536 42.2133 161.616 42.12C161.696 42.0133 161.789 41.92 161.896 41.84C162.243 41.56 162.616 41.4533 163.016 41.52C163.416 41.5733 163.743 41.7933 163.996 42.18C164.116 42.3933 164.209 42.62 164.276 42.86C164.343 43.0867 164.389 43.32 164.416 43.56C164.483 43.96 164.536 44.3667 164.576 44.78C164.629 45.18 164.683 45.58 164.736 45.98C164.763 46.22 164.796 46.46 164.836 46.7C164.889 46.9267 164.929 47.16 164.956 47.4C164.983 47.4933 165.016 47.5733 165.056 47.64C165.096 47.7067 165.163 47.7733 165.256 47.84C165.536 47.9867 165.623 48.22 165.516 48.54C165.396 48.8733 165.189 49.08 164.896 49.16C164.603 49.24 164.323 49.1733 164.056 48.96C163.936 48.8533 163.836 48.74 163.756 48.62C163.676 48.5 163.603 48.3733 163.536 48.24C163.323 47.8533 163.163 47.46 163.056 47.06C162.949 46.66 162.869 46.24 162.816 45.8C162.776 45.4933 162.743 45.18 162.716 44.86C162.689 44.54 162.643 44.2267 162.576 43.92C162.576 43.8933 162.569 43.8667 162.556 43.84C162.556 43.8 162.556 43.7533 162.556 43.7ZM168.673 48.12C168.98 47.8933 169.22 47.6533 169.393 47.4C169.633 47.0667 169.866 46.7267 170.093 46.38C170.333 46.0333 170.54 45.6733 170.713 45.3C170.726 45.2467 170.74 45.2067 170.753 45.18C170.766 45.14 170.773 45.1 170.773 45.06C170.786 44.78 170.946 44.6067 171.253 44.54C171.56 44.5133 171.786 44.6267 171.933 44.88C172.013 44.9733 172.06 45.0733 172.073 45.18C172.1 45.2733 172.113 45.38 172.113 45.5C172.06 46.2067 171.873 46.8867 171.553 47.54C171.153 48.3267 170.62 48.98 169.953 49.5C169.806 49.62 169.653 49.72 169.493 49.8C169.346 49.8933 169.18 49.96 168.993 50C168.66 50.08 168.326 50.0467 167.993 49.9C167.66 49.7667 167.393 49.5533 167.193 49.26C167.073 49.06 166.966 48.8533 166.873 48.64C166.78 48.4133 166.7 48.1867 166.633 47.96C166.46 47.4667 166.333 46.96 166.253 46.44C166.173 45.92 166.1 45.4 166.033 44.88C165.926 44.1333 165.846 43.3733 165.793 42.6C165.726 41.8267 165.693 41.0533 165.693 40.28C165.693 40.1333 165.68 40.0467 165.653 40.02C165.626 39.9933 165.533 39.9933 165.373 40.02C165.2 40.06 165.026 40.1067 164.853 40.16C164.666 40.2 164.48 40.2333 164.293 40.26C164.066 40.3133 163.826 40.28 163.573 40.16C163.333 40.0133 163.2 39.8133 163.173 39.56C163.146 39.2933 163.226 39.0667 163.413 38.88C163.6 38.72 163.8 38.6067 164.013 38.54C164.253 38.4733 164.493 38.4067 164.733 38.34C164.96 38.2733 165.193 38.2133 165.433 38.16C165.593 38.1333 165.693 38.1067 165.733 38.08C165.76 38.04 165.78 37.9333 165.793 37.76C165.806 37.3067 165.846 36.86 165.913 36.42C165.966 35.9667 166.053 35.5133 166.173 35.06C166.226 34.9 166.273 34.74 166.313 34.58C166.366 34.4067 166.44 34.2467 166.533 34.1C166.613 33.9933 166.693 33.9 166.773 33.82C166.853 33.7267 166.946 33.6533 167.053 33.6C167.306 33.4267 167.586 33.4133 167.893 33.56C168.026 33.6533 168.106 33.7667 168.133 33.9C168.173 34.0333 168.18 34.1733 168.153 34.32C168.126 34.6133 168.073 34.9067 167.993 35.2C167.913 35.48 167.86 35.7733 167.833 36.08C167.806 36.3333 167.773 36.5867 167.733 36.84C167.706 37.0933 167.68 37.3533 167.653 37.62C167.653 37.74 167.66 37.8133 167.673 37.84C167.7 37.8533 167.78 37.86 167.913 37.86C168.18 37.86 168.433 37.8533 168.673 37.84C168.913 37.8267 169.16 37.82 169.413 37.82C169.866 37.82 170.246 37.9933 170.553 38.34C170.633 38.4067 170.693 38.4867 170.733 38.58C170.786 38.66 170.82 38.7467 170.833 38.84C170.86 39.0667 170.786 39.2667 170.613 39.44C170.44 39.6 170.26 39.64 170.073 39.56C170.046 39.56 170.013 39.56 169.973 39.56C169.946 39.5467 169.913 39.5467 169.873 39.56C169.58 39.6667 169.28 39.7133 168.973 39.7C168.68 39.6867 168.38 39.7 168.073 39.74H167.793C167.633 39.74 167.553 39.82 167.553 39.98C167.58 40.2333 167.593 40.4867 167.593 40.74C167.593 40.98 167.6 41.2267 167.613 41.48C167.64 42.1333 167.686 42.7867 167.753 43.44C167.82 44.0933 167.906 44.74 168.013 45.38C168.053 45.7133 168.1 46.0467 168.153 46.38C168.22 46.7 168.3 47.0267 168.393 47.36C168.42 47.48 168.46 47.6 168.513 47.72C168.566 47.84 168.62 47.9733 168.673 48.12Z" fill="black"/>
<g clip-path="url(#clip0_137_894)">
<path d="M20 23C21.1 23 21.99 22.1 21.99 21L22 10C22 8.9 21.1 8 20 8H4C2.9 8 2 8.9 2 10V21C2 22.1 2.9 23 4 23H0C0 24.1 0.9 25 2 25H22C23.1 25 24 24.1 24 23H20ZM4 10H20V21H4V10ZM12 24C11.45 24 11 23.55 11 23C11 22.45 11.45 22 12 22C12.55 22 13 22.45 13 23C13 23.55 12.55 24 12 24Z" fill="black"/>
</g>
<g clip-path="url(#clip1_137_894)">
<path d="M11.99 34C6.47 34 2 38.48 2 44C2 49.52 6.47 54 11.99 54C17.52 54 22 49.52 22 44C22 38.48 17.52 34 11.99 34ZM12 52C7.58 52 4 48.42 4 44C4 39.58 7.58 36 12 36C16.42 36 20 39.58 20 44C20 48.42 16.42 52 12 52Z" fill="black"/>
<path d="M12.5 39H11V45L16.25 48.15L17 46.92L12.5 44.25V39Z" fill="black"/>
</g>
<g clip-path="url(#clip2_137_894)">
<path d="M265.849 10.26C275.609 5.64999 278.649 0.509987 278.649 0.509987C278.649 0.509987 281.729 -0.410014 290.109 15.86" stroke="black" stroke-miterlimit="10" stroke-linecap="round"/>
<path opacity="0.95" d="M278.648 6.72003C278.648 6.72003 273.478 34.29 235.928 38.07C202.738 41.41 188.498 31.31 188.498 31.31" stroke="black" stroke-miterlimit="10" stroke-linecap="round"/>
</g>
<defs>
<clipPath id="clip0_137_894">
<rect width="24" height="24" fill="white" transform="translate(0 5)"/>
</clipPath>
<clipPath id="clip1_137_894">
<rect width="24" height="24" fill="white" transform="translate(0 32)"/>
</clipPath>
<clipPath id="clip2_137_894">
<rect width="102.61" height="39.25" fill="white" transform="matrix(-1 1.74846e-07 1.74846e-07 1 290.609 0)"/>
</clipPath>
</defs>
</svg>
