<svg width="280" height="53" viewBox="0 0 280 53" fill="none" xmlns="http://www.w3.org/2000/svg">
<path d="M119.364 9.22C119.378 10.82 120.044 12.06 121.364 12.94C121.684 13.1533 122.018 13.34 122.364 13.5C122.724 13.66 123.071 13.8133 123.404 13.96C123.738 14.0933 124.071 14.2467 124.404 14.42C124.738 14.58 125.044 14.7733 125.324 15C125.471 15.1067 125.604 15.2267 125.724 15.36C125.844 15.4933 125.944 15.6467 126.024 15.82C126.171 16.1533 126.224 16.4733 126.184 16.78C126.158 17.0867 126.051 17.3933 125.864 17.7C125.704 17.9933 125.498 18.2533 125.244 18.48C125.004 18.7067 124.744 18.92 124.464 19.12C124.091 19.36 123.698 19.56 123.284 19.72C122.884 19.88 122.458 19.9667 122.004 19.98C121.564 20.02 121.151 19.9533 120.764 19.78C120.431 19.5933 120.204 19.34 120.084 19.02C119.978 18.7 119.998 18.3733 120.144 18.04C120.211 17.8667 120.304 17.7133 120.424 17.58C120.544 17.4467 120.671 17.32 120.804 17.2C121.058 16.9733 121.278 16.9533 121.464 17.14C121.664 17.2867 121.704 17.5067 121.584 17.8C121.571 17.84 121.544 17.8867 121.504 17.94C121.478 17.9933 121.451 18.0467 121.424 18.1C121.384 18.1933 121.371 18.26 121.384 18.3C121.411 18.3267 121.478 18.34 121.584 18.34C121.998 18.3533 122.384 18.2933 122.744 18.16C123.038 18.04 123.311 17.9 123.564 17.74C123.831 17.58 124.071 17.38 124.284 17.14C124.471 16.9133 124.558 16.74 124.544 16.62C124.544 16.4867 124.418 16.34 124.164 16.18C123.938 16.0067 123.691 15.8667 123.424 15.76C123.171 15.64 122.918 15.52 122.664 15.4C122.278 15.2267 121.891 15.0533 121.504 14.88C121.118 14.7067 120.751 14.5 120.404 14.26C119.951 13.9533 119.544 13.6067 119.184 13.22C118.824 12.82 118.524 12.3667 118.284 11.86C117.991 11.22 117.811 10.5267 117.744 9.78C117.718 9.26 117.738 8.74 117.804 8.22C117.871 7.7 118.011 7.19333 118.224 6.7C118.411 6.22 118.658 5.78667 118.964 5.4C119.271 5 119.651 4.67333 120.104 4.42C120.611 4.11333 121.178 3.96 121.804 3.96C122.431 3.96 123.044 4.25333 123.644 4.84C124.151 5.29333 124.558 5.80667 124.864 6.38C125.184 6.94 125.431 7.54667 125.604 8.2C125.644 8.36 125.664 8.52667 125.664 8.7C125.678 8.87333 125.678 9.05333 125.664 9.24C125.651 9.34667 125.618 9.44667 125.564 9.54C125.511 9.63333 125.431 9.70667 125.324 9.76C125.111 9.82667 124.904 9.76667 124.704 9.58C124.651 9.52667 124.604 9.46667 124.564 9.4C124.524 9.33333 124.491 9.27333 124.464 9.22C124.358 9.04667 124.264 8.86667 124.184 8.68C124.104 8.49333 124.018 8.31333 123.924 8.14C123.791 7.83333 123.644 7.53333 123.484 7.24C123.324 6.94667 123.138 6.67333 122.924 6.42C122.831 6.31333 122.738 6.21333 122.644 6.12C122.551 6.01333 122.444 5.92667 122.324 5.86C121.951 5.55333 121.531 5.51333 121.064 5.74C120.904 5.83333 120.751 5.94 120.604 6.06C120.458 6.18 120.331 6.32 120.224 6.48C119.984 6.77333 119.798 7.1 119.664 7.46C119.544 7.80667 119.464 8.17333 119.424 8.56C119.411 8.68 119.391 8.8 119.364 8.92C119.351 9.02667 119.351 9.12667 119.364 9.22ZM127.1 16.42C127.1 15.7933 127.187 15.1933 127.36 14.62C127.547 14.0333 127.787 13.46 128.08 12.9C128.227 12.6333 128.4 12.38 128.6 12.14C128.8 11.9 129.027 11.6933 129.28 11.52C129.627 11.28 129.987 11.14 130.36 11.1C130.76 11.0733 131.12 11.16 131.44 11.36C131.76 11.56 132.007 11.8333 132.18 12.18C132.353 12.5133 132.407 12.8933 132.34 13.32C132.327 13.44 132.3 13.5667 132.26 13.7C132.22 13.8333 132.167 13.96 132.1 14.08C131.927 14.4133 131.72 14.7333 131.48 15.04C131.253 15.3333 130.973 15.5933 130.64 15.82C130.427 15.9667 130.2 16.0933 129.96 16.2C129.733 16.2933 129.487 16.3333 129.22 16.32C129.127 16.32 129.067 16.3333 129.04 16.36C129.027 16.3867 129.02 16.4467 129.02 16.54C129.007 16.7533 129.02 16.9667 129.06 17.18C129.1 17.3933 129.153 17.6067 129.22 17.82C129.3 17.9933 129.373 18.0933 129.44 18.12C129.507 18.1467 129.627 18.1067 129.8 18C130.053 17.8667 130.28 17.6867 130.48 17.46C130.6 17.3533 130.72 17.26 130.84 17.18C130.96 17.0867 131.08 16.9933 131.2 16.9C131.253 16.8467 131.333 16.7933 131.44 16.74C131.64 16.6733 131.807 16.6933 131.94 16.8C132.087 16.8933 132.16 17.0467 132.16 17.26C132.16 17.3533 132.153 17.4467 132.14 17.54C132.127 17.6333 132.107 17.7267 132.08 17.82C131.907 18.3267 131.66 18.7667 131.34 19.14C131.02 19.5133 130.587 19.7867 130.04 19.96C129.28 20.16 128.62 19.98 128.06 19.42C127.767 19.1267 127.56 18.8 127.44 18.44C127.32 18.08 127.227 17.7067 127.16 17.32C127.147 17.1733 127.133 17.0267 127.12 16.88C127.12 16.72 127.113 16.5667 127.1 16.42ZM130.84 13.12C130.84 13.0267 130.833 12.9467 130.82 12.88C130.807 12.8 130.767 12.7467 130.7 12.72C130.607 12.6667 130.487 12.7 130.34 12.82C130.287 12.8467 130.24 12.88 130.2 12.92C130.16 12.96 130.113 13.0067 130.06 13.06C129.887 13.2733 129.74 13.5067 129.62 13.76C129.513 14.0133 129.413 14.2667 129.32 14.52C129.253 14.6133 129.26 14.6867 129.34 14.74C129.367 14.7667 129.4 14.78 129.44 14.78C129.493 14.7667 129.533 14.7533 129.56 14.74C130.16 14.4067 130.58 13.9133 130.82 13.26C130.833 13.2333 130.84 13.2067 130.84 13.18C130.84 13.14 130.84 13.12 130.84 13.12ZM135.757 18.1C135.757 18.2867 135.764 18.48 135.777 18.68C135.791 18.88 135.784 19.0867 135.757 19.3C135.757 19.3533 135.757 19.42 135.757 19.5C135.757 19.5667 135.751 19.64 135.737 19.72C135.697 19.9867 135.557 20.1467 135.317 20.2C135.051 20.2133 134.837 20.1333 134.677 19.96C134.584 19.8533 134.511 19.7333 134.457 19.6C134.417 19.4667 134.371 19.3333 134.317 19.2C134.264 18.96 134.217 18.72 134.177 18.48C134.151 18.24 134.131 18 134.117 17.76C134.037 17.0267 133.984 16.2933 133.957 15.56C133.944 14.8267 133.924 14.0933 133.897 13.36C133.884 12.3067 133.871 11.26 133.857 10.22C133.857 9.18 133.864 8.13333 133.877 7.08C133.877 6.98667 133.877 6.9 133.877 6.82C133.891 6.72667 133.911 6.63333 133.937 6.54C134.004 6.35333 134.111 6.2 134.257 6.08C134.404 5.94667 134.577 5.88 134.777 5.88C135.191 5.88 135.457 6.1 135.577 6.54C135.617 6.66 135.637 6.78 135.637 6.9C135.691 7.76667 135.724 8.63333 135.737 9.5C135.764 10.3667 135.784 11.2333 135.797 12.1C135.797 12.1933 135.797 12.4133 135.797 12.76C135.797 13.1067 135.797 13.52 135.797 14C135.797 14.4667 135.791 14.96 135.777 15.48C135.777 16 135.777 16.4933 135.777 16.96C135.777 17.4133 135.771 17.7933 135.757 18.1ZM139.755 12.84C139.675 13.0667 139.615 13.2867 139.575 13.5C139.535 13.7133 139.502 13.9267 139.475 14.14C139.435 14.6867 139.408 15.2467 139.395 15.82C139.395 16.38 139.395 16.94 139.395 17.5C139.395 17.6867 139.482 17.7533 139.655 17.7C140.055 17.6333 140.468 17.6133 140.895 17.64C141.362 17.68 141.582 17.92 141.555 18.36C141.555 18.5067 141.502 18.6267 141.395 18.72C141.302 18.8133 141.202 18.8933 141.095 18.96C140.882 19.0667 140.668 19.16 140.455 19.24C140.255 19.3067 140.048 19.3733 139.835 19.44C139.662 19.4933 139.562 19.5467 139.535 19.6C139.508 19.64 139.502 19.76 139.515 19.96C139.528 20.1333 139.542 20.3133 139.555 20.5C139.568 20.6867 139.562 20.8733 139.535 21.06C139.535 21.8333 139.515 22.5933 139.475 23.34C139.475 23.42 139.468 23.4867 139.455 23.54C139.455 23.6067 139.442 23.6733 139.415 23.74C139.268 23.9933 139.062 24.1133 138.795 24.1C138.675 24.1 138.562 24.0467 138.455 23.94C138.348 23.8467 138.268 23.7267 138.215 23.58C138.188 23.4467 138.155 23.3067 138.115 23.16C138.088 23.0133 138.062 22.8733 138.035 22.74C137.982 22.3667 137.915 21.9933 137.835 21.62C137.755 21.26 137.702 20.8867 137.675 20.5C137.662 20.42 137.655 20.3333 137.655 20.24C137.655 20.16 137.642 20.0867 137.615 20.02C137.615 19.9133 137.602 19.8133 137.575 19.72C137.562 19.6267 137.515 19.5333 137.435 19.44C137.222 19.1733 137.215 18.8733 137.415 18.54C137.508 18.38 137.555 18.2333 137.555 18.1C137.502 16.9533 137.502 15.8333 137.555 14.74C137.582 14.3533 137.615 13.96 137.655 13.56C137.708 13.1467 137.795 12.7467 137.915 12.36C137.995 12.1333 138.088 11.92 138.195 11.72C138.315 11.52 138.462 11.3467 138.635 11.2C138.902 10.9733 139.188 10.8467 139.495 10.82C139.802 10.7933 140.095 10.88 140.375 11.08C140.495 11.1467 140.602 11.2333 140.695 11.34C140.788 11.4467 140.875 11.56 140.955 11.68C141.288 12.2133 141.508 12.78 141.615 13.38C141.628 13.5267 141.628 13.68 141.615 13.84C141.615 14.1333 141.482 14.32 141.215 14.4C141.082 14.4533 140.962 14.46 140.855 14.42C140.748 14.3667 140.662 14.2933 140.595 14.2C140.542 14.1067 140.482 14.02 140.415 13.94C140.362 13.8467 140.322 13.7533 140.295 13.66C140.215 13.5133 140.135 13.3733 140.055 13.24C139.988 13.0933 139.888 12.96 139.755 12.84ZM145.275 13.8C145.515 13.8267 145.768 13.8467 146.035 13.86C146.301 13.86 146.561 13.8933 146.815 13.96C146.975 14 147.128 14.0533 147.275 14.12C147.421 14.1867 147.555 14.2733 147.675 14.38C147.861 14.5133 147.915 14.6933 147.835 14.92C147.728 15.12 147.575 15.22 147.375 15.22C147.321 15.22 147.281 15.2067 147.255 15.18C146.801 15.1133 146.355 15.1 145.915 15.14C145.488 15.1667 145.048 15.2 144.595 15.24C144.541 15.2533 144.481 15.2667 144.415 15.28C144.361 15.2933 144.301 15.3133 144.235 15.34C143.915 15.4067 143.635 15.3467 143.395 15.16C143.155 14.92 143.081 14.66 143.175 14.38C143.281 14.0733 143.481 13.9133 143.775 13.9C144.108 13.8333 144.441 13.8 144.775 13.8H145.275ZM151.465 14.74C151.505 14.62 151.545 14.5 151.585 14.38C151.625 14.26 151.672 14.1467 151.725 14.04C151.979 13.4133 152.339 12.8733 152.805 12.42C152.952 12.3 153.092 12.2 153.225 12.12C153.372 12.04 153.532 12 153.705 12C153.999 12 154.232 12.0733 154.405 12.22C154.579 12.3667 154.725 12.5533 154.845 12.78C154.912 12.9 154.959 13.0267 154.985 13.16C155.012 13.2933 155.045 13.4267 155.085 13.56C155.165 13.52 155.219 13.4733 155.245 13.42C155.272 13.3533 155.292 13.2933 155.305 13.24C155.439 12.9733 155.579 12.72 155.725 12.48C155.885 12.24 156.072 12.02 156.285 11.82C156.672 11.4867 157.099 11.3133 157.565 11.3C158.032 11.2867 158.439 11.5333 158.785 12.04C158.972 12.2933 159.105 12.56 159.185 12.84C159.265 13.12 159.332 13.4 159.385 13.68C159.479 14.2533 159.539 14.82 159.565 15.38C159.592 15.94 159.572 16.5067 159.505 17.08C159.452 17.3467 159.419 17.6133 159.405 17.88C159.392 18.1333 159.372 18.3933 159.345 18.66C159.332 18.7933 159.345 18.9467 159.385 19.12C159.412 19.2667 159.385 19.4067 159.305 19.54C159.239 19.6733 159.132 19.76 158.985 19.8C158.852 19.8533 158.719 19.86 158.585 19.82C158.465 19.7667 158.359 19.6733 158.265 19.54C158.185 19.3533 158.125 19.1733 158.085 19C158.032 18.5867 157.972 18.1733 157.905 17.76C157.839 17.3467 157.772 16.94 157.705 16.54C157.679 16.2733 157.659 16.0067 157.645 15.74C157.645 15.4733 157.645 15.2067 157.645 14.94C157.632 14.7133 157.605 14.4933 157.565 14.28C157.525 14.0667 157.492 13.8467 157.465 13.62C157.452 13.5533 157.432 13.4867 157.405 13.42C157.392 13.3533 157.352 13.2933 157.285 13.24C157.139 13.3067 157.012 13.4 156.905 13.52C156.799 13.6267 156.692 13.7533 156.585 13.9C156.412 14.1667 156.245 14.4533 156.085 14.76C155.939 15.0533 155.805 15.3533 155.685 15.66C155.592 15.9533 155.499 16.2533 155.405 16.56C155.325 16.8533 155.259 17.1533 155.205 17.46C155.192 17.5667 155.185 17.6733 155.185 17.78C155.185 17.8733 155.172 17.9667 155.145 18.06C155.119 18.5267 154.899 18.78 154.485 18.82C154.099 18.8867 153.839 18.6933 153.705 18.24C153.639 18.0133 153.592 17.7867 153.565 17.56C153.552 17.3333 153.519 17.1133 153.465 16.9C153.425 16.5133 153.392 16.1333 153.365 15.76C153.352 15.3867 153.339 15.0133 153.325 14.64C153.325 14.56 153.305 14.5133 153.265 14.5C153.185 14.54 153.132 14.6 153.105 14.68C153.079 14.7467 153.052 14.8133 153.025 14.88C152.479 16.2533 152.185 17.6667 152.145 19.12C152.145 19.2133 152.139 19.32 152.125 19.44C152.112 19.56 152.072 19.6733 152.005 19.78C151.832 20.0333 151.605 20.1667 151.325 20.18C151.045 20.2067 150.799 20.1 150.585 19.86C150.452 19.6867 150.352 19.46 150.285 19.18C150.165 18.7267 150.059 18.2667 149.965 17.8C149.872 17.3333 149.792 16.8733 149.725 16.42C149.632 15.86 149.552 15.3067 149.485 14.76C149.419 14.2 149.385 13.64 149.385 13.08C149.372 12.8933 149.372 12.7 149.385 12.5C149.399 12.3 149.439 12.1067 149.505 11.92C149.585 11.7733 149.699 11.6467 149.845 11.54C149.992 11.4333 150.139 11.3867 150.285 11.4C150.459 11.4 150.605 11.4533 150.725 11.56C150.859 11.6667 150.952 11.8067 151.005 11.98C151.072 12.14 151.105 12.3067 151.105 12.48C151.119 12.64 151.139 12.8133 151.165 13C151.232 13.4933 151.292 14.0133 151.345 14.56C151.345 14.6267 151.385 14.6867 151.465 14.74ZM165.271 18.46C165.177 18.5267 165.104 18.6133 165.051 18.72C165.011 18.8133 164.957 18.8933 164.891 18.96C164.757 19.16 164.611 19.3467 164.451 19.52C164.291 19.68 164.097 19.8067 163.871 19.9C163.497 20.0733 163.117 20.0867 162.731 19.94C162.357 19.78 162.097 19.5067 161.951 19.12C161.657 18.3733 161.571 17.66 161.691 16.98C161.824 16.3 162.131 15.6533 162.611 15.04C162.877 14.7067 163.191 14.4733 163.551 14.34C163.924 14.1933 164.331 14.1667 164.771 14.26C164.797 14.26 164.817 14.2667 164.831 14.28C164.857 14.28 164.884 14.28 164.911 14.28C164.964 14.1733 164.977 14.08 164.951 14C164.924 13.9067 164.904 13.8133 164.891 13.72C164.837 13.4267 164.771 13.1467 164.691 12.88C164.624 12.6133 164.537 12.3533 164.431 12.1C164.271 11.7533 164.124 11.5667 163.991 11.54C163.871 11.5133 163.671 11.62 163.391 11.86C162.951 12.2333 162.571 12.68 162.251 13.2C162.144 13.3333 162.091 13.4667 162.091 13.6C162.091 13.8933 161.951 14.08 161.671 14.16C161.577 14.1867 161.464 14.1733 161.331 14.12C161.197 14.0667 161.091 13.9933 161.011 13.9C160.837 13.6333 160.777 13.34 160.831 13.02C160.884 12.7133 160.971 12.4267 161.091 12.16C161.211 11.88 161.357 11.62 161.531 11.38C161.717 11.1133 161.917 10.8733 162.131 10.66C162.344 10.4333 162.584 10.2333 162.851 10.06C163.277 9.79333 163.737 9.68 164.231 9.72C164.737 9.74667 165.184 9.98 165.571 10.42C165.744 10.5933 165.877 10.7867 165.971 11C166.077 11.2 166.177 11.4133 166.271 11.64C166.417 12.0533 166.537 12.4733 166.631 12.9C166.737 13.3267 166.817 13.76 166.871 14.2C166.937 14.8 166.997 15.3933 167.051 15.98C167.104 16.5667 167.151 17.16 167.191 17.76C167.231 18.1067 167.231 18.46 167.191 18.82C167.164 19.22 166.997 19.5067 166.691 19.68C166.384 19.84 166.064 19.8133 165.731 19.6C165.597 19.5067 165.504 19.3933 165.451 19.26C165.397 19.1267 165.357 18.9867 165.331 18.84C165.317 18.7733 165.311 18.7133 165.311 18.66C165.311 18.5933 165.297 18.5267 165.271 18.46ZM163.571 18C163.784 17.7733 163.991 17.5533 164.191 17.34C164.391 17.1133 164.564 16.8667 164.711 16.6C164.751 16.52 164.744 16.4267 164.691 16.32C164.651 16.2 164.584 16.1133 164.491 16.06C164.397 15.9933 164.324 15.9867 164.271 16.04C164.231 16.08 164.177 16.1133 164.111 16.14C164.097 16.1667 164.077 16.1933 164.051 16.22C164.024 16.2467 164.004 16.2733 163.991 16.3C163.817 16.5533 163.691 16.82 163.611 17.1C163.531 17.3667 163.517 17.6667 163.571 18ZM172.7 14.7C172.46 14.9133 172.287 15.1333 172.18 15.36C171.9 15.8533 171.674 16.3733 171.5 16.92C171.327 17.4667 171.194 18.0267 171.1 18.6C171.087 18.7333 171.06 18.8667 171.02 19C170.98 19.1333 170.927 19.2533 170.86 19.36C170.66 19.6933 170.394 19.84 170.06 19.8C169.887 19.8 169.74 19.7533 169.62 19.66C169.5 19.5667 169.394 19.4467 169.3 19.3C169.247 19.18 169.207 19.0533 169.18 18.92C169.167 18.7867 169.147 18.6533 169.12 18.52C169.054 17.9867 168.98 17.4533 168.9 16.92C168.834 16.3733 168.787 15.8333 168.76 15.3C168.734 14.94 168.734 14.58 168.76 14.22C168.787 13.86 168.827 13.5 168.88 13.14C168.88 13.0733 168.894 13.0133 168.92 12.96C168.947 12.8933 168.967 12.8333 168.98 12.78C169.1 12.4467 169.32 12.3 169.64 12.34C169.774 12.3533 169.894 12.4133 170 12.52C170.107 12.6267 170.167 12.7533 170.18 12.9C170.22 13.22 170.254 13.5333 170.28 13.84C170.32 14.1467 170.367 14.4533 170.42 14.76C170.434 14.8133 170.44 14.88 170.44 14.96C170.44 15.0267 170.46 15.0933 170.5 15.16C170.567 15.1333 170.607 15.1 170.62 15.06C170.634 15.0067 170.647 14.96 170.66 14.92C170.794 14.6533 170.927 14.3933 171.06 14.14C171.194 13.8733 171.347 13.6333 171.52 13.42C171.6 13.3133 171.68 13.2133 171.76 13.12C171.84 13.0133 171.934 12.92 172.04 12.84C172.387 12.56 172.76 12.4533 173.16 12.52C173.56 12.5733 173.887 12.7933 174.14 13.18C174.26 13.3933 174.354 13.62 174.42 13.86C174.487 14.0867 174.534 14.32 174.56 14.56C174.627 14.96 174.68 15.3667 174.72 15.78C174.774 16.18 174.827 16.58 174.88 16.98C174.907 17.22 174.94 17.46 174.98 17.7C175.034 17.9267 175.074 18.16 175.1 18.4C175.127 18.4933 175.16 18.5733 175.2 18.64C175.24 18.7067 175.307 18.7733 175.4 18.84C175.68 18.9867 175.767 19.22 175.66 19.54C175.54 19.8733 175.334 20.08 175.04 20.16C174.747 20.24 174.467 20.1733 174.2 19.96C174.08 19.8533 173.98 19.74 173.9 19.62C173.82 19.5 173.747 19.3733 173.68 19.24C173.467 18.8533 173.307 18.46 173.2 18.06C173.094 17.66 173.014 17.24 172.96 16.8C172.92 16.4933 172.887 16.18 172.86 15.86C172.834 15.54 172.787 15.2267 172.72 14.92C172.72 14.8933 172.714 14.8667 172.7 14.84C172.7 14.8 172.7 14.7533 172.7 14.7ZM180.466 18.46C180.373 18.5267 180.299 18.6133 180.246 18.72C180.206 18.8133 180.153 18.8933 180.086 18.96C179.953 19.16 179.806 19.3467 179.646 19.52C179.486 19.68 179.293 19.8067 179.066 19.9C178.693 20.0733 178.313 20.0867 177.926 19.94C177.553 19.78 177.293 19.5067 177.146 19.12C176.853 18.3733 176.766 17.66 176.886 16.98C177.019 16.3 177.326 15.6533 177.806 15.04C178.073 14.7067 178.386 14.4733 178.746 14.34C179.119 14.1933 179.526 14.1667 179.966 14.26C179.993 14.26 180.013 14.2667 180.026 14.28C180.053 14.28 180.079 14.28 180.106 14.28C180.159 14.1733 180.173 14.08 180.146 14C180.119 13.9067 180.099 13.8133 180.086 13.72C180.033 13.4267 179.966 13.1467 179.886 12.88C179.819 12.6133 179.733 12.3533 179.626 12.1C179.466 11.7533 179.319 11.5667 179.186 11.54C179.066 11.5133 178.866 11.62 178.586 11.86C178.146 12.2333 177.766 12.68 177.446 13.2C177.339 13.3333 177.286 13.4667 177.286 13.6C177.286 13.8933 177.146 14.08 176.866 14.16C176.773 14.1867 176.659 14.1733 176.526 14.12C176.393 14.0667 176.286 13.9933 176.206 13.9C176.033 13.6333 175.973 13.34 176.026 13.02C176.079 12.7133 176.166 12.4267 176.286 12.16C176.406 11.88 176.553 11.62 176.726 11.38C176.913 11.1133 177.113 10.8733 177.326 10.66C177.539 10.4333 177.779 10.2333 178.046 10.06C178.473 9.79333 178.933 9.68 179.426 9.72C179.933 9.74667 180.379 9.98 180.766 10.42C180.939 10.5933 181.073 10.7867 181.166 11C181.273 11.2 181.373 11.4133 181.466 11.64C181.613 12.0533 181.733 12.4733 181.826 12.9C181.933 13.3267 182.013 13.76 182.066 14.2C182.133 14.8 182.193 15.3933 182.246 15.98C182.299 16.5667 182.346 17.16 182.386 17.76C182.426 18.1067 182.426 18.46 182.386 18.82C182.359 19.22 182.193 19.5067 181.886 19.68C181.579 19.84 181.259 19.8133 180.926 19.6C180.793 19.5067 180.699 19.3933 180.646 19.26C180.593 19.1267 180.553 18.9867 180.526 18.84C180.513 18.7733 180.506 18.7133 180.506 18.66C180.506 18.5933 180.493 18.5267 180.466 18.46ZM178.766 18C178.979 17.7733 179.186 17.5533 179.386 17.34C179.586 17.1133 179.759 16.8667 179.906 16.6C179.946 16.52 179.939 16.4267 179.886 16.32C179.846 16.2 179.779 16.1133 179.686 16.06C179.593 15.9933 179.519 15.9867 179.466 16.04C179.426 16.08 179.373 16.1133 179.306 16.14C179.293 16.1667 179.273 16.1933 179.246 16.22C179.219 16.2467 179.199 16.2733 179.186 16.3C179.013 16.5533 178.886 16.82 178.806 17.1C178.726 17.3667 178.713 17.6667 178.766 18ZM187.916 16.96C187.862 17.08 187.802 17.2 187.736 17.32C187.682 17.44 187.622 17.56 187.556 17.68C187.489 17.84 187.402 18 187.296 18.16C187.189 18.32 187.069 18.46 186.936 18.58C186.602 18.8867 186.236 19.0333 185.836 19.02C185.436 19.0067 185.082 18.8267 184.776 18.48C184.602 18.2933 184.462 18.08 184.356 17.84C184.262 17.5867 184.182 17.3333 184.116 17.08C183.809 15.92 183.869 14.78 184.296 13.66C184.429 13.3 184.596 12.96 184.796 12.64C185.009 12.32 185.282 12.0467 185.616 11.82C185.949 11.5933 186.289 11.4533 186.636 11.4C186.982 11.3333 187.342 11.3733 187.716 11.52C187.822 11.5467 187.916 11.5667 187.996 11.58C188.089 11.5933 188.182 11.5733 188.276 11.52C188.542 11.4133 188.802 11.44 189.056 11.6C189.322 11.7467 189.482 11.96 189.536 12.24C189.616 12.5867 189.669 12.9333 189.696 13.28C189.722 13.6267 189.742 13.9733 189.756 14.32C189.796 15.0667 189.822 15.82 189.836 16.58C189.849 17.3267 189.842 18.0733 189.816 18.82C189.802 19.18 189.776 19.5467 189.736 19.92C189.709 20.28 189.636 20.64 189.516 21C189.396 21.4133 189.229 21.7933 189.016 22.14C188.816 22.5 188.562 22.82 188.256 23.1C188.016 23.3133 187.742 23.4533 187.436 23.52C187.049 23.6 186.676 23.5133 186.316 23.26C185.969 23.0067 185.762 22.6867 185.696 22.3C185.669 22.06 185.742 21.8867 185.916 21.78C185.982 21.74 186.056 21.7133 186.136 21.7C186.229 21.6867 186.322 21.7067 186.416 21.76C186.496 21.8 186.562 21.84 186.616 21.88C186.669 21.9333 186.722 21.9933 186.776 22.06C186.896 22.1533 187.016 22.1333 187.136 22C187.389 21.64 187.562 21.26 187.656 20.86C187.802 20.2333 187.889 19.5933 187.916 18.94C187.942 18.2733 187.942 17.6133 187.916 16.96ZM186.096 16.98C186.229 16.8733 186.329 16.7533 186.396 16.62C186.476 16.4733 186.556 16.3133 186.636 16.14C186.796 15.74 186.929 15.3267 187.036 14.9C187.156 14.46 187.249 14.0133 187.316 13.56C187.356 13.2533 187.229 13.1467 186.936 13.24C186.776 13.2933 186.636 13.38 186.516 13.5C186.409 13.62 186.322 13.74 186.256 13.86C186.189 13.98 186.122 14.1133 186.056 14.26C185.922 14.5933 185.849 14.94 185.836 15.3C185.822 15.66 185.836 16.02 185.876 16.38C185.902 16.4867 185.922 16.5933 185.936 16.7C185.962 16.7933 186.016 16.8867 186.096 16.98ZM191.358 16.42C191.358 15.7933 191.444 15.1933 191.618 14.62C191.804 14.0333 192.044 13.46 192.338 12.9C192.484 12.6333 192.658 12.38 192.858 12.14C193.058 11.9 193.284 11.6933 193.538 11.52C193.884 11.28 194.244 11.14 194.618 11.1C195.018 11.0733 195.378 11.16 195.698 11.36C196.018 11.56 196.264 11.8333 196.438 12.18C196.611 12.5133 196.664 12.8933 196.598 13.32C196.584 13.44 196.558 13.5667 196.518 13.7C196.478 13.8333 196.424 13.96 196.358 14.08C196.184 14.4133 195.978 14.7333 195.738 15.04C195.511 15.3333 195.231 15.5933 194.898 15.82C194.684 15.9667 194.458 16.0933 194.218 16.2C193.991 16.2933 193.744 16.3333 193.478 16.32C193.384 16.32 193.324 16.3333 193.298 16.36C193.284 16.3867 193.278 16.4467 193.278 16.54C193.264 16.7533 193.278 16.9667 193.318 17.18C193.358 17.3933 193.411 17.6067 193.478 17.82C193.558 17.9933 193.631 18.0933 193.698 18.12C193.764 18.1467 193.884 18.1067 194.058 18C194.311 17.8667 194.538 17.6867 194.738 17.46C194.858 17.3533 194.978 17.26 195.098 17.18C195.218 17.0867 195.338 16.9933 195.458 16.9C195.511 16.8467 195.591 16.7933 195.698 16.74C195.898 16.6733 196.064 16.6933 196.198 16.8C196.344 16.8933 196.418 17.0467 196.418 17.26C196.418 17.3533 196.411 17.4467 196.398 17.54C196.384 17.6333 196.364 17.7267 196.338 17.82C196.164 18.3267 195.918 18.7667 195.598 19.14C195.278 19.5133 194.844 19.7867 194.298 19.96C193.538 20.16 192.878 19.98 192.318 19.42C192.024 19.1267 191.818 18.8 191.698 18.44C191.578 18.08 191.484 17.7067 191.418 17.32C191.404 17.1733 191.391 17.0267 191.378 16.88C191.378 16.72 191.371 16.5667 191.358 16.42ZM195.098 13.12C195.098 13.0267 195.091 12.9467 195.078 12.88C195.064 12.8 195.024 12.7467 194.958 12.72C194.864 12.6667 194.744 12.7 194.598 12.82C194.544 12.8467 194.498 12.88 194.458 12.92C194.418 12.96 194.371 13.0067 194.318 13.06C194.144 13.2733 193.998 13.5067 193.878 13.76C193.771 14.0133 193.671 14.2667 193.578 14.52C193.511 14.6133 193.518 14.6867 193.598 14.74C193.624 14.7667 193.658 14.78 193.698 14.78C193.751 14.7667 193.791 14.7533 193.818 14.74C194.418 14.4067 194.838 13.9133 195.078 13.26C195.091 13.2333 195.098 13.2067 195.098 13.18C195.098 13.14 195.098 13.12 195.098 13.12ZM203.235 17.32C203.115 17.5333 203.008 17.7267 202.915 17.9C202.835 18.06 202.742 18.2267 202.635 18.4C202.462 18.6533 202.282 18.8867 202.095 19.1C201.908 19.3 201.688 19.4867 201.435 19.66C200.955 19.98 200.455 20.1 199.935 20.02C199.348 19.9 198.895 19.5667 198.575 19.02C198.415 18.74 198.302 18.4533 198.235 18.16C198.168 17.8533 198.135 17.5333 198.135 17.2C198.148 16.3333 198.322 15.5467 198.655 14.84C198.988 14.1333 199.455 13.4867 200.055 12.9C200.242 12.74 200.435 12.5867 200.635 12.44C200.835 12.2933 201.062 12.2 201.315 12.16C201.542 12.1067 201.755 12.0867 201.955 12.1C202.168 12.1133 202.382 12.1533 202.595 12.22C202.622 12.2333 202.662 12.2467 202.715 12.26C202.768 12.26 202.822 12.2467 202.875 12.22C202.875 12.0067 202.875 11.7867 202.875 11.56C202.888 11.32 202.888 11.0867 202.875 10.86C202.875 10.34 202.895 9.83333 202.935 9.34C202.948 9.03333 202.948 8.73333 202.935 8.44C202.935 8.14667 202.935 7.85333 202.935 7.56C202.948 7.30667 202.955 7.04667 202.955 6.78C202.968 6.51333 202.988 6.25333 203.015 6C203.042 5.81333 203.075 5.63333 203.115 5.46C203.168 5.28667 203.248 5.12667 203.355 4.98C203.448 4.76667 203.608 4.66 203.835 4.66C204.102 4.62 204.302 4.72667 204.435 4.98C204.528 5.12667 204.595 5.28667 204.635 5.46C204.688 5.62 204.722 5.79333 204.735 5.98C204.775 6.31333 204.795 6.65333 204.795 7C204.808 7.34667 204.808 7.69333 204.795 8.04C204.795 8.84 204.788 9.64667 204.775 10.46C204.762 11.26 204.748 12.0667 204.735 12.88C204.735 13.3333 204.735 13.7867 204.735 14.24C204.748 14.68 204.748 15.1267 204.735 15.58C204.722 16.0333 204.715 16.4933 204.715 16.96C204.715 17.4133 204.742 17.8733 204.795 18.34C204.795 18.54 204.822 18.74 204.875 18.94C205.008 19.2867 204.908 19.5467 204.575 19.72C204.295 19.8533 204.035 19.7733 203.795 19.48C203.742 19.3867 203.695 19.2867 203.655 19.18C203.615 19.0733 203.582 18.9733 203.555 18.88C203.502 18.64 203.448 18.3933 203.395 18.14C203.355 17.8733 203.302 17.6 203.235 17.32ZM202.235 13.9C202.088 13.8733 201.962 13.8867 201.855 13.94C201.748 13.98 201.648 14.0333 201.555 14.1C201.435 14.18 201.328 14.2733 201.235 14.38C201.142 14.4733 201.048 14.58 200.955 14.7C200.635 15.1133 200.388 15.5467 200.215 16C200.055 16.4533 200.002 16.94 200.055 17.46C200.055 17.58 200.062 17.7133 200.075 17.86C200.102 17.9933 200.175 18.0733 200.295 18.1C200.402 18.1267 200.495 18.0933 200.575 18C200.668 17.8933 200.742 17.7933 200.795 17.7C201.062 17.34 201.275 16.9733 201.435 16.6C201.608 16.2267 201.755 15.8333 201.875 15.42C201.955 15.1667 202.022 14.92 202.075 14.68C202.128 14.4267 202.182 14.1667 202.235 13.9ZM213.368 17.98C213.514 17.8333 213.634 17.68 213.728 17.52C213.821 17.3467 213.914 17.18 214.008 17.02C214.141 16.7267 214.248 16.44 214.328 16.16C214.421 15.8667 214.514 15.5733 214.608 15.28C214.728 14.9467 214.821 14.6067 214.888 14.26C214.954 13.9133 214.981 13.56 214.968 13.2C214.968 12.9733 215.034 12.78 215.168 12.62C215.301 12.46 215.461 12.3533 215.648 12.3C216.088 12.2067 216.441 12.36 216.708 12.76C216.801 12.9333 216.881 13.1133 216.948 13.3C216.988 13.4867 217.034 13.6867 217.088 13.9C217.141 14.1 217.194 14.3 217.248 14.5C217.381 14.9267 217.521 15.36 217.668 15.8C217.828 16.2267 218.014 16.6333 218.228 17.02C218.281 17.0867 218.328 17.16 218.368 17.24C218.408 17.3067 218.474 17.36 218.568 17.4C218.634 17.3333 218.681 17.2267 218.708 17.08C218.814 16.6933 218.888 16.3133 218.928 15.94C218.968 15.5667 218.994 15.1867 219.008 14.8C219.008 14.5067 219.008 14.22 219.008 13.94C219.008 13.66 219.001 13.3867 218.988 13.12C218.988 12.9733 218.981 12.84 218.968 12.72C218.954 12.6 218.941 12.4733 218.928 12.34C218.874 12.1667 218.874 12 218.928 11.84C218.994 11.68 219.134 11.5533 219.348 11.46C219.668 11.3133 219.948 11.3867 220.188 11.68C220.334 11.8133 220.454 11.9933 220.548 12.22C220.734 12.6733 220.848 13.14 220.888 13.62C220.928 14.1 220.934 14.58 220.908 15.06C220.881 15.3933 220.848 15.72 220.808 16.04C220.781 16.36 220.734 16.6733 220.668 16.98C220.614 17.2467 220.541 17.5133 220.448 17.78C220.368 18.0333 220.268 18.2867 220.148 18.54C220.094 18.6333 220.041 18.7333 219.988 18.84C219.934 18.9333 219.868 19.0133 219.788 19.08C219.268 19.64 218.648 19.74 217.928 19.38C217.781 19.3133 217.641 19.22 217.508 19.1C217.388 18.9667 217.268 18.84 217.148 18.72C216.721 18.2 216.374 17.6 216.108 16.92C216.081 16.88 216.054 16.8267 216.028 16.76C216.001 16.68 215.954 16.6133 215.888 16.56C215.768 16.92 215.648 17.26 215.528 17.58C215.434 17.7933 215.341 18 215.248 18.2C215.168 18.3867 215.074 18.5733 214.968 18.76C214.861 18.9067 214.748 19.0467 214.628 19.18C214.521 19.3133 214.394 19.44 214.248 19.56C213.901 19.8533 213.521 19.9733 213.108 19.92C212.708 19.8533 212.388 19.6933 212.148 19.44C211.801 19.08 211.561 18.6933 211.428 18.28C211.214 17.68 211.068 17.0667 210.988 16.44C210.921 15.8133 210.928 15.1867 211.008 14.56C211.034 14.32 211.074 14.0733 211.128 13.82C211.194 13.5667 211.274 13.3333 211.368 13.12C211.408 13 211.461 12.8867 211.528 12.78C211.594 12.66 211.681 12.56 211.788 12.48C212.001 12.2667 212.241 12.22 212.508 12.34C212.774 12.46 212.894 12.6667 212.868 12.96C212.868 13.2133 212.861 13.4667 212.848 13.72C212.834 13.9733 212.827 14.2333 212.827 14.5C212.814 14.8733 212.814 15.2467 212.827 15.62C212.854 15.9933 212.894 16.3667 212.948 16.74C212.974 16.9533 213.021 17.16 213.088 17.36C213.154 17.56 213.248 17.7667 213.368 17.98ZM228.411 15.58C228.345 16.8867 227.865 18.1067 226.971 19.24C226.811 19.4533 226.625 19.64 226.411 19.8C226.198 19.9467 225.958 20.06 225.691 20.14C225.171 20.26 224.671 20.2 224.191 19.96C224.018 19.8533 223.851 19.7267 223.691 19.58C223.531 19.42 223.398 19.2533 223.291 19.08C222.945 18.5333 222.711 17.9733 222.591 17.4C222.471 16.8133 222.431 16.2133 222.471 15.6C222.525 15.0533 222.645 14.5333 222.831 14.04C223.018 13.5333 223.291 13.0733 223.651 12.66C223.958 12.3267 224.325 12.12 224.751 12.04C224.951 11.9867 225.131 11.9867 225.291 12.04C225.451 12.08 225.605 12.16 225.751 12.28C225.791 12.32 225.838 12.3467 225.891 12.36C225.945 12.36 226.005 12.36 226.071 12.36C226.431 12.32 226.751 12.3733 227.031 12.52C227.325 12.6667 227.578 12.8867 227.791 13.18C228.031 13.5133 228.191 13.8733 228.271 14.26C228.365 14.6333 228.411 15.0733 228.411 15.58ZM225.571 14.08C225.425 14.08 225.271 14.1 225.111 14.14C224.978 14.14 224.878 14.1733 224.811 14.24C224.745 14.3067 224.685 14.4 224.631 14.52C224.445 15.0133 224.345 15.5067 224.331 16C224.331 16.4933 224.405 16.9933 224.551 17.5C224.631 17.7133 224.758 17.9333 224.931 18.16C225.025 18.2533 225.091 18.3067 225.131 18.32C225.185 18.32 225.258 18.2733 225.351 18.18C225.471 18.06 225.585 17.94 225.691 17.82C225.811 17.6867 225.911 17.5467 225.991 17.4C226.058 17.24 226.125 17.0733 226.191 16.9C226.271 16.7267 226.331 16.5533 226.371 16.38C226.438 16.1267 226.491 15.8733 226.531 15.62C226.571 15.3533 226.558 15.0867 226.491 14.82C226.425 14.54 226.325 14.3467 226.191 14.24C226.058 14.1333 225.851 14.08 225.571 14.08ZM231.732 13.48C231.825 13.4133 231.885 13.3467 231.912 13.28C231.939 13.2 231.965 13.1333 231.992 13.08C232.112 12.8533 232.252 12.64 232.412 12.44C232.572 12.2267 232.765 12.0533 232.992 11.92C233.299 11.7333 233.599 11.6267 233.892 11.6C234.199 11.56 234.505 11.6333 234.812 11.82C235.039 11.94 235.205 12.12 235.312 12.36C235.432 12.6 235.465 12.84 235.412 13.08C235.372 13.3333 235.265 13.5 235.092 13.58C234.919 13.66 234.719 13.6333 234.492 13.5C234.372 13.4333 234.272 13.4 234.192 13.4C234.112 13.4 234.019 13.4533 233.912 13.56C233.859 13.6133 233.805 13.68 233.752 13.76C233.712 13.84 233.665 13.9133 233.612 13.98C233.519 14.1933 233.439 14.4067 233.372 14.62C233.305 14.82 233.239 15.0267 233.172 15.24C233.052 15.6533 232.939 16.0733 232.832 16.5C232.739 16.9133 232.659 17.3333 232.592 17.76C232.565 18.0267 232.539 18.2933 232.512 18.56C232.485 18.8267 232.472 19.0933 232.472 19.36C232.472 19.4533 232.465 19.5533 232.452 19.66C232.452 19.7667 232.432 19.8733 232.392 19.98C232.259 20.38 231.985 20.58 231.572 20.58C231.159 20.62 230.859 20.4533 230.672 20.08C230.619 19.9733 230.579 19.86 230.552 19.74C230.539 19.62 230.519 19.5133 230.492 19.42C230.399 18.86 230.319 18.3067 230.252 17.76C230.185 17.2 230.119 16.64 230.052 16.08C229.999 15.5333 229.965 14.98 229.952 14.42C229.939 13.8467 229.939 13.2733 229.952 12.7C229.952 12.3267 230.092 12.0533 230.372 11.88C230.612 11.7333 230.859 11.7133 231.112 11.82C231.365 11.9133 231.532 12.0933 231.612 12.36C231.692 12.5733 231.732 12.7867 231.732 13C231.719 13.0667 231.712 13.14 231.712 13.22C231.725 13.3 231.732 13.3867 231.732 13.48ZM239.184 14.64C239.264 14.5333 239.337 14.4267 239.404 14.32C239.484 14.2133 239.564 14.1133 239.644 14.02C239.884 13.66 240.11 13.2933 240.324 12.92C240.537 12.5467 240.75 12.18 240.964 11.82C241.004 11.7267 241.057 11.6467 241.124 11.58C241.204 11.5133 241.277 11.4533 241.344 11.4C241.557 11.2933 241.757 11.2933 241.944 11.4C242.144 11.4933 242.257 11.6533 242.284 11.88C242.31 12.1467 242.277 12.3667 242.184 12.54C241.93 13.0733 241.664 13.5933 241.384 14.1C241.104 14.5933 240.77 15.0533 240.384 15.48C240.25 15.6267 240.184 15.72 240.184 15.76C240.184 15.7867 240.244 15.8867 240.364 16.06C240.63 16.42 240.924 16.7533 241.244 17.06C241.564 17.3533 241.917 17.62 242.304 17.86C242.37 17.8867 242.43 17.92 242.484 17.96C242.537 17.9867 242.597 18.0133 242.664 18.04C243.037 18.1067 243.237 18.3133 243.264 18.66C243.29 18.8333 243.25 19 243.144 19.16C243.05 19.3067 242.93 19.4133 242.784 19.48C242.637 19.5333 242.484 19.5667 242.324 19.58C242.177 19.58 242.03 19.5667 241.884 19.54C241.324 19.38 240.824 19.1267 240.384 18.78C240.197 18.6333 240.01 18.4733 239.824 18.3C239.65 18.1267 239.47 17.96 239.284 17.8C239.297 17.9867 239.31 18.1733 239.324 18.36C239.337 18.5467 239.35 18.74 239.364 18.94C239.39 19.0333 239.41 19.1333 239.424 19.24C239.437 19.3467 239.457 19.4467 239.484 19.54C239.524 19.8067 239.444 19.9933 239.244 20.1C239.057 20.2467 238.857 20.24 238.644 20.08C238.47 19.96 238.344 19.8 238.264 19.6C238.17 19.3733 238.097 19.1333 238.044 18.88C237.99 18.6267 237.944 18.3733 237.904 18.12C237.797 17.6667 237.71 17.2133 237.644 16.76C237.577 16.2933 237.524 15.8267 237.484 15.36C237.43 14.8533 237.364 14.3467 237.284 13.84C237.217 13.32 237.17 12.8067 237.144 12.3C237.117 11.9267 237.09 11.5533 237.064 11.18C237.037 10.8067 237.024 10.4333 237.024 10.06C237.024 9.48667 237.01 8.91333 236.984 8.34C236.957 7.75333 236.944 7.17333 236.944 6.6C236.957 6.24 236.964 5.88667 236.964 5.54C236.964 5.19333 236.984 4.84667 237.024 4.5C237.05 4.39333 237.07 4.3 237.084 4.22C237.11 4.14 237.15 4.06667 237.204 4C237.43 3.70667 237.71 3.58667 238.044 3.64C238.217 3.68 238.364 3.76 238.484 3.88C238.617 3.98667 238.69 4.13333 238.704 4.32C238.73 4.4 238.744 4.48 238.744 4.56C238.744 4.62667 238.744 4.70667 238.744 4.8C238.784 5.53333 238.81 6.26667 238.824 7C238.85 7.73333 238.87 8.47333 238.884 9.22C238.91 10.1 238.944 10.9867 238.984 11.88C239.037 12.76 239.077 13.64 239.104 14.52C239.104 14.5867 239.13 14.6267 239.184 14.64ZM113.845 42.46C113.752 42.5267 113.678 42.6133 113.625 42.72C113.585 42.8133 113.532 42.8933 113.465 42.96C113.332 43.16 113.185 43.3467 113.025 43.52C112.865 43.68 112.672 43.8067 112.445 43.9C112.072 44.0733 111.692 44.0867 111.305 43.94C110.932 43.78 110.672 43.5067 110.525 43.12C110.232 42.3733 110.145 41.66 110.265 40.98C110.398 40.3 110.705 39.6533 111.185 39.04C111.452 38.7067 111.765 38.4733 112.125 38.34C112.498 38.1933 112.905 38.1667 113.345 38.26C113.372 38.26 113.392 38.2667 113.405 38.28C113.432 38.28 113.458 38.28 113.485 38.28C113.538 38.1733 113.552 38.08 113.525 38C113.498 37.9067 113.478 37.8133 113.465 37.72C113.412 37.4267 113.345 37.1467 113.265 36.88C113.198 36.6133 113.112 36.3533 113.005 36.1C112.845 35.7533 112.698 35.5667 112.565 35.54C112.445 35.5133 112.245 35.62 111.965 35.86C111.525 36.2333 111.145 36.68 110.825 37.2C110.718 37.3333 110.665 37.4667 110.665 37.6C110.665 37.8933 110.525 38.08 110.245 38.16C110.152 38.1867 110.038 38.1733 109.905 38.12C109.772 38.0667 109.665 37.9933 109.585 37.9C109.412 37.6333 109.352 37.34 109.405 37.02C109.458 36.7133 109.545 36.4267 109.665 36.16C109.785 35.88 109.932 35.62 110.105 35.38C110.292 35.1133 110.492 34.8733 110.705 34.66C110.918 34.4333 111.158 34.2333 111.425 34.06C111.852 33.7933 112.312 33.68 112.805 33.72C113.312 33.7467 113.758 33.98 114.145 34.42C114.318 34.5933 114.452 34.7867 114.545 35C114.652 35.2 114.752 35.4133 114.845 35.64C114.992 36.0533 115.112 36.4733 115.205 36.9C115.312 37.3267 115.392 37.76 115.445 38.2C115.512 38.8 115.572 39.3933 115.625 39.98C115.678 40.5667 115.725 41.16 115.765 41.76C115.805 42.1067 115.805 42.46 115.765 42.82C115.738 43.22 115.572 43.5067 115.265 43.68C114.958 43.84 114.638 43.8133 114.305 43.6C114.172 43.5067 114.078 43.3933 114.025 43.26C113.972 43.1267 113.932 42.9867 113.905 42.84C113.892 42.7733 113.885 42.7133 113.885 42.66C113.885 42.5933 113.872 42.5267 113.845 42.46ZM112.145 42C112.358 41.7733 112.565 41.5533 112.765 41.34C112.965 41.1133 113.138 40.8667 113.285 40.6C113.325 40.52 113.318 40.4267 113.265 40.32C113.225 40.2 113.158 40.1133 113.065 40.06C112.972 39.9933 112.898 39.9867 112.845 40.04C112.805 40.08 112.752 40.1133 112.685 40.14C112.672 40.1667 112.652 40.1933 112.625 40.22C112.598 40.2467 112.578 40.2733 112.565 40.3C112.392 40.5533 112.265 40.82 112.185 41.1C112.105 41.3667 112.092 41.6667 112.145 42ZM121.275 38.7C121.035 38.9133 120.861 39.1333 120.755 39.36C120.475 39.8533 120.248 40.3733 120.075 40.92C119.901 41.4667 119.768 42.0267 119.675 42.6C119.661 42.7333 119.635 42.8667 119.595 43C119.555 43.1333 119.501 43.2533 119.435 43.36C119.235 43.6933 118.968 43.84 118.635 43.8C118.461 43.8 118.315 43.7533 118.195 43.66C118.075 43.5667 117.968 43.4467 117.875 43.3C117.821 43.18 117.781 43.0533 117.755 42.92C117.741 42.7867 117.721 42.6533 117.695 42.52C117.628 41.9867 117.555 41.4533 117.475 40.92C117.408 40.3733 117.361 39.8333 117.335 39.3C117.308 38.94 117.308 38.58 117.335 38.22C117.361 37.86 117.401 37.5 117.455 37.14C117.455 37.0733 117.468 37.0133 117.495 36.96C117.521 36.8933 117.541 36.8333 117.555 36.78C117.675 36.4467 117.895 36.3 118.215 36.34C118.348 36.3533 118.468 36.4133 118.575 36.52C118.681 36.6267 118.741 36.7533 118.755 36.9C118.795 37.22 118.828 37.5333 118.855 37.84C118.895 38.1467 118.941 38.4533 118.995 38.76C119.008 38.8133 119.015 38.88 119.015 38.96C119.015 39.0267 119.035 39.0933 119.075 39.16C119.141 39.1333 119.181 39.1 119.195 39.06C119.208 39.0067 119.221 38.96 119.235 38.92C119.368 38.6533 119.501 38.3933 119.635 38.14C119.768 37.8733 119.921 37.6333 120.095 37.42C120.175 37.3133 120.255 37.2133 120.335 37.12C120.415 37.0133 120.508 36.92 120.615 36.84C120.961 36.56 121.335 36.4533 121.735 36.52C122.135 36.5733 122.461 36.7933 122.715 37.18C122.835 37.3933 122.928 37.62 122.995 37.86C123.061 38.0867 123.108 38.32 123.135 38.56C123.201 38.96 123.255 39.3667 123.295 39.78C123.348 40.18 123.401 40.58 123.455 40.98C123.481 41.22 123.515 41.46 123.555 41.7C123.608 41.9267 123.648 42.16 123.675 42.4C123.701 42.4933 123.735 42.5733 123.775 42.64C123.815 42.7067 123.881 42.7733 123.975 42.84C124.255 42.9867 124.341 43.22 124.235 43.54C124.115 43.8733 123.908 44.08 123.615 44.16C123.321 44.24 123.041 44.1733 122.775 43.96C122.655 43.8533 122.555 43.74 122.475 43.62C122.395 43.5 122.321 43.3733 122.255 43.24C122.041 42.8533 121.881 42.46 121.775 42.06C121.668 41.66 121.588 41.24 121.535 40.8C121.495 40.4933 121.461 40.18 121.435 39.86C121.408 39.54 121.361 39.2267 121.295 38.92C121.295 38.8933 121.288 38.8667 121.275 38.84C121.275 38.8 121.275 38.7533 121.275 38.7ZM129.973 41.32C129.853 41.5333 129.747 41.7267 129.653 41.9C129.573 42.06 129.48 42.2267 129.373 42.4C129.2 42.6533 129.02 42.8867 128.833 43.1C128.647 43.3 128.427 43.4867 128.173 43.66C127.693 43.98 127.193 44.1 126.673 44.02C126.087 43.9 125.633 43.5667 125.313 43.02C125.153 42.74 125.04 42.4533 124.973 42.16C124.907 41.8533 124.873 41.5333 124.873 41.2C124.887 40.3333 125.06 39.5467 125.393 38.84C125.727 38.1333 126.193 37.4867 126.793 36.9C126.98 36.74 127.173 36.5867 127.373 36.44C127.573 36.2933 127.8 36.2 128.053 36.16C128.28 36.1067 128.493 36.0867 128.693 36.1C128.907 36.1133 129.12 36.1533 129.333 36.22C129.36 36.2333 129.4 36.2467 129.453 36.26C129.507 36.26 129.56 36.2467 129.613 36.22C129.613 36.0067 129.613 35.7867 129.613 35.56C129.627 35.32 129.627 35.0867 129.613 34.86C129.613 34.34 129.633 33.8333 129.673 33.34C129.687 33.0333 129.687 32.7333 129.673 32.44C129.673 32.1467 129.673 31.8533 129.673 31.56C129.687 31.3067 129.693 31.0467 129.693 30.78C129.707 30.5133 129.727 30.2533 129.753 30C129.78 29.8133 129.813 29.6333 129.853 29.46C129.907 29.2867 129.987 29.1267 130.093 28.98C130.187 28.7667 130.347 28.66 130.573 28.66C130.84 28.62 131.04 28.7267 131.173 28.98C131.267 29.1267 131.333 29.2867 131.373 29.46C131.427 29.62 131.46 29.7933 131.473 29.98C131.513 30.3133 131.533 30.6533 131.533 31C131.547 31.3467 131.547 31.6933 131.533 32.04C131.533 32.84 131.527 33.6467 131.513 34.46C131.5 35.26 131.487 36.0667 131.473 36.88C131.473 37.3333 131.473 37.7867 131.473 38.24C131.487 38.68 131.487 39.1267 131.473 39.58C131.46 40.0333 131.453 40.4933 131.453 40.96C131.453 41.4133 131.48 41.8733 131.533 42.34C131.533 42.54 131.56 42.74 131.613 42.94C131.747 43.2867 131.647 43.5467 131.313 43.72C131.033 43.8533 130.773 43.7733 130.533 43.48C130.48 43.3867 130.433 43.2867 130.393 43.18C130.353 43.0733 130.32 42.9733 130.293 42.88C130.24 42.64 130.187 42.3933 130.133 42.14C130.093 41.8733 130.04 41.6 129.973 41.32ZM128.973 37.9C128.827 37.8733 128.7 37.8867 128.593 37.94C128.487 37.98 128.387 38.0333 128.293 38.1C128.173 38.18 128.067 38.2733 127.973 38.38C127.88 38.4733 127.787 38.58 127.693 38.7C127.373 39.1133 127.127 39.5467 126.953 40C126.793 40.4533 126.74 40.94 126.793 41.46C126.793 41.58 126.8 41.7133 126.813 41.86C126.84 41.9933 126.913 42.0733 127.033 42.1C127.14 42.1267 127.233 42.0933 127.313 42C127.407 41.8933 127.48 41.7933 127.533 41.7C127.8 41.34 128.013 40.9733 128.173 40.6C128.347 40.2267 128.493 39.8333 128.613 39.42C128.693 39.1667 128.76 38.92 128.813 38.68C128.867 38.4267 128.92 38.1667 128.973 37.9ZM139.306 43.12C139.612 42.8933 139.852 42.6533 140.026 42.4C140.266 42.0667 140.499 41.7267 140.726 41.38C140.966 41.0333 141.172 40.6733 141.346 40.3C141.359 40.2467 141.372 40.2067 141.386 40.18C141.399 40.14 141.406 40.1 141.406 40.06C141.419 39.78 141.579 39.6067 141.886 39.54C142.192 39.5133 142.419 39.6267 142.566 39.88C142.646 39.9733 142.692 40.0733 142.706 40.18C142.732 40.2733 142.746 40.38 142.746 40.5C142.692 41.2067 142.506 41.8867 142.186 42.54C141.786 43.3267 141.252 43.98 140.586 44.5C140.439 44.62 140.286 44.72 140.126 44.8C139.979 44.8933 139.812 44.96 139.626 45C139.292 45.08 138.959 45.0467 138.626 44.9C138.292 44.7667 138.026 44.5533 137.826 44.26C137.706 44.06 137.599 43.8533 137.506 43.64C137.412 43.4133 137.332 43.1867 137.266 42.96C137.092 42.4667 136.966 41.96 136.886 41.44C136.806 40.92 136.732 40.4 136.666 39.88C136.559 39.1333 136.479 38.3733 136.426 37.6C136.359 36.8267 136.326 36.0533 136.326 35.28C136.326 35.1333 136.312 35.0467 136.286 35.02C136.259 34.9933 136.166 34.9933 136.006 35.02C135.832 35.06 135.659 35.1067 135.486 35.16C135.299 35.2 135.112 35.2333 134.926 35.26C134.699 35.3133 134.459 35.28 134.206 35.16C133.966 35.0133 133.832 34.8133 133.806 34.56C133.779 34.2933 133.859 34.0667 134.046 33.88C134.232 33.72 134.432 33.6067 134.646 33.54C134.886 33.4733 135.126 33.4067 135.366 33.34C135.592 33.2733 135.826 33.2133 136.066 33.16C136.226 33.1333 136.326 33.1067 136.366 33.08C136.392 33.04 136.412 32.9333 136.426 32.76C136.439 32.3067 136.479 31.86 136.546 31.42C136.599 30.9667 136.686 30.5133 136.806 30.06C136.859 29.9 136.906 29.74 136.946 29.58C136.999 29.4067 137.072 29.2467 137.166 29.1C137.246 28.9933 137.326 28.9 137.406 28.82C137.486 28.7267 137.579 28.6533 137.686 28.6C137.939 28.4267 138.219 28.4133 138.526 28.56C138.659 28.6533 138.739 28.7667 138.766 28.9C138.806 29.0333 138.812 29.1733 138.786 29.32C138.759 29.6133 138.706 29.9067 138.626 30.2C138.546 30.48 138.492 30.7733 138.466 31.08C138.439 31.3333 138.406 31.5867 138.366 31.84C138.339 32.0933 138.312 32.3533 138.286 32.62C138.286 32.74 138.292 32.8133 138.306 32.84C138.332 32.8533 138.412 32.86 138.546 32.86C138.812 32.86 139.066 32.8533 139.306 32.84C139.546 32.8267 139.792 32.82 140.046 32.82C140.499 32.82 140.879 32.9933 141.186 33.34C141.266 33.4067 141.326 33.4867 141.366 33.58C141.419 33.66 141.452 33.7467 141.466 33.84C141.492 34.0667 141.419 34.2667 141.246 34.44C141.072 34.6 140.892 34.64 140.706 34.56C140.679 34.56 140.646 34.56 140.606 34.56C140.579 34.5467 140.546 34.5467 140.506 34.56C140.212 34.6667 139.912 34.7133 139.606 34.7C139.312 34.6867 139.012 34.7 138.706 34.74H138.426C138.266 34.74 138.186 34.82 138.186 34.98C138.212 35.2333 138.226 35.4867 138.226 35.74C138.226 35.98 138.232 36.2267 138.246 36.48C138.272 37.1333 138.319 37.7867 138.386 38.44C138.452 39.0933 138.539 39.74 138.646 40.38C138.686 40.7133 138.732 41.0467 138.786 41.38C138.852 41.7 138.932 42.0267 139.026 42.36C139.052 42.48 139.092 42.6 139.146 42.72C139.199 42.84 139.252 42.9733 139.306 43.12ZM145.468 34.12C145.081 34.2933 144.748 34.24 144.468 33.96C144.374 33.8533 144.314 33.7133 144.288 33.54C144.261 33.3667 144.281 33.2 144.348 33.04C144.428 32.8667 144.561 32.7267 144.748 32.62C144.934 32.5 145.121 32.44 145.308 32.44C145.694 32.44 145.954 32.62 146.088 32.98C146.154 33.14 146.161 33.3067 146.108 33.48C146.068 33.64 145.974 33.78 145.828 33.9C145.774 33.9533 145.714 34 145.648 34.04C145.594 34.0667 145.534 34.0933 145.468 34.12ZM146.268 42.42C146.321 42.7 146.234 42.9 146.008 43.02C145.768 43.14 145.528 43.1133 145.288 42.94C145.181 42.8467 145.101 42.74 145.048 42.62C144.994 42.5 144.941 42.3733 144.888 42.24C144.848 42.0533 144.808 41.86 144.768 41.66C144.741 41.46 144.714 41.2667 144.688 41.08C144.608 40.4133 144.541 39.7467 144.488 39.08C144.448 38.4 144.454 37.7267 144.508 37.06C144.521 36.9133 144.541 36.7667 144.568 36.62C144.594 36.46 144.654 36.3133 144.748 36.18C144.814 36.0467 144.901 35.94 145.008 35.86C145.128 35.78 145.268 35.74 145.428 35.74C145.734 35.7533 145.954 35.9133 146.088 36.22C146.208 36.46 146.268 36.72 146.268 37V39.76C146.254 39.92 146.241 40.1133 146.228 40.34C146.214 40.5667 146.208 40.8133 146.208 41.08C146.208 41.2933 146.208 41.5133 146.208 41.74C146.221 41.9667 146.241 42.1933 146.268 42.42ZM149.903 38.74C149.943 38.62 149.983 38.5 150.023 38.38C150.063 38.26 150.11 38.1467 150.163 38.04C150.416 37.4133 150.776 36.8733 151.243 36.42C151.39 36.3 151.53 36.2 151.663 36.12C151.81 36.04 151.97 36 152.143 36C152.436 36 152.67 36.0733 152.843 36.22C153.016 36.3667 153.163 36.5533 153.283 36.78C153.35 36.9 153.396 37.0267 153.423 37.16C153.45 37.2933 153.483 37.4267 153.523 37.56C153.603 37.52 153.656 37.4733 153.683 37.42C153.71 37.3533 153.73 37.2933 153.743 37.24C153.876 36.9733 154.016 36.72 154.163 36.48C154.323 36.24 154.51 36.02 154.723 35.82C155.11 35.4867 155.536 35.3133 156.003 35.3C156.47 35.2867 156.876 35.5333 157.223 36.04C157.41 36.2933 157.543 36.56 157.623 36.84C157.703 37.12 157.77 37.4 157.823 37.68C157.916 38.2533 157.976 38.82 158.003 39.38C158.03 39.94 158.01 40.5067 157.943 41.08C157.89 41.3467 157.856 41.6133 157.843 41.88C157.83 42.1333 157.81 42.3933 157.783 42.66C157.77 42.7933 157.783 42.9467 157.823 43.12C157.85 43.2667 157.823 43.4067 157.743 43.54C157.676 43.6733 157.57 43.76 157.423 43.8C157.29 43.8533 157.156 43.86 157.023 43.82C156.903 43.7667 156.796 43.6733 156.703 43.54C156.623 43.3533 156.563 43.1733 156.523 43C156.47 42.5867 156.41 42.1733 156.343 41.76C156.276 41.3467 156.21 40.94 156.143 40.54C156.116 40.2733 156.096 40.0067 156.083 39.74C156.083 39.4733 156.083 39.2067 156.083 38.94C156.07 38.7133 156.043 38.4933 156.003 38.28C155.963 38.0667 155.93 37.8467 155.903 37.62C155.89 37.5533 155.87 37.4867 155.843 37.42C155.83 37.3533 155.79 37.2933 155.723 37.24C155.576 37.3067 155.45 37.4 155.343 37.52C155.236 37.6267 155.13 37.7533 155.023 37.9C154.85 38.1667 154.683 38.4533 154.523 38.76C154.376 39.0533 154.243 39.3533 154.123 39.66C154.03 39.9533 153.936 40.2533 153.843 40.56C153.763 40.8533 153.696 41.1533 153.643 41.46C153.63 41.5667 153.623 41.6733 153.623 41.78C153.623 41.8733 153.61 41.9667 153.583 42.06C153.556 42.5267 153.336 42.78 152.923 42.82C152.536 42.8867 152.276 42.6933 152.143 42.24C152.076 42.0133 152.03 41.7867 152.003 41.56C151.99 41.3333 151.956 41.1133 151.903 40.9C151.863 40.5133 151.83 40.1333 151.803 39.76C151.79 39.3867 151.776 39.0133 151.763 38.64C151.763 38.56 151.743 38.5133 151.703 38.5C151.623 38.54 151.57 38.6 151.543 38.68C151.516 38.7467 151.49 38.8133 151.463 38.88C150.916 40.2533 150.623 41.6667 150.583 43.12C150.583 43.2133 150.576 43.32 150.563 43.44C150.55 43.56 150.51 43.6733 150.443 43.78C150.27 44.0333 150.043 44.1667 149.763 44.18C149.483 44.2067 149.236 44.1 149.023 43.86C148.89 43.6867 148.79 43.46 148.723 43.18C148.603 42.7267 148.496 42.2667 148.403 41.8C148.31 41.3333 148.23 40.8733 148.163 40.42C148.07 39.86 147.99 39.3067 147.923 38.76C147.856 38.2 147.823 37.64 147.823 37.08C147.81 36.8933 147.81 36.7 147.823 36.5C147.836 36.3 147.876 36.1067 147.943 35.92C148.023 35.7733 148.136 35.6467 148.283 35.54C148.43 35.4333 148.576 35.3867 148.723 35.4C148.896 35.4 149.043 35.4533 149.163 35.56C149.296 35.6667 149.39 35.8067 149.443 35.98C149.51 36.14 149.543 36.3067 149.543 36.48C149.556 36.64 149.576 36.8133 149.603 37C149.67 37.4933 149.73 38.0133 149.783 38.56C149.783 38.6267 149.823 38.6867 149.903 38.74ZM159.541 40.42C159.541 39.7933 159.628 39.1933 159.801 38.62C159.988 38.0333 160.228 37.46 160.521 36.9C160.668 36.6333 160.841 36.38 161.041 36.14C161.241 35.9 161.468 35.6933 161.721 35.52C162.068 35.28 162.428 35.14 162.801 35.1C163.201 35.0733 163.561 35.16 163.881 35.36C164.201 35.56 164.448 35.8333 164.621 36.18C164.795 36.5133 164.848 36.8933 164.781 37.32C164.768 37.44 164.741 37.5667 164.701 37.7C164.661 37.8333 164.608 37.96 164.541 38.08C164.368 38.4133 164.161 38.7333 163.921 39.04C163.695 39.3333 163.415 39.5933 163.081 39.82C162.868 39.9667 162.641 40.0933 162.401 40.2C162.175 40.2933 161.928 40.3333 161.661 40.32C161.568 40.32 161.508 40.3333 161.481 40.36C161.468 40.3867 161.461 40.4467 161.461 40.54C161.448 40.7533 161.461 40.9667 161.501 41.18C161.541 41.3933 161.595 41.6067 161.661 41.82C161.741 41.9933 161.815 42.0933 161.881 42.12C161.948 42.1467 162.068 42.1067 162.241 42C162.495 41.8667 162.721 41.6867 162.921 41.46C163.041 41.3533 163.161 41.26 163.281 41.18C163.401 41.0867 163.521 40.9933 163.641 40.9C163.695 40.8467 163.775 40.7933 163.881 40.74C164.081 40.6733 164.248 40.6933 164.381 40.8C164.528 40.8933 164.601 41.0467 164.601 41.26C164.601 41.3533 164.595 41.4467 164.581 41.54C164.568 41.6333 164.548 41.7267 164.521 41.82C164.348 42.3267 164.101 42.7667 163.781 43.14C163.461 43.5133 163.028 43.7867 162.481 43.96C161.721 44.16 161.061 43.98 160.501 43.42C160.208 43.1267 160.001 42.8 159.881 42.44C159.761 42.08 159.668 41.7067 159.601 41.32C159.588 41.1733 159.575 41.0267 159.561 40.88C159.561 40.72 159.555 40.5667 159.541 40.42ZM163.281 37.12C163.281 37.0267 163.275 36.9467 163.261 36.88C163.248 36.8 163.208 36.7467 163.141 36.72C163.048 36.6667 162.928 36.7 162.781 36.82C162.728 36.8467 162.681 36.88 162.641 36.92C162.601 36.96 162.555 37.0067 162.501 37.06C162.328 37.2733 162.181 37.5067 162.061 37.76C161.955 38.0133 161.855 38.2667 161.761 38.52C161.695 38.6133 161.701 38.6867 161.781 38.74C161.808 38.7667 161.841 38.78 161.881 38.78C161.935 38.7667 161.975 38.7533 162.001 38.74C162.601 38.4067 163.021 37.9133 163.261 37.26C163.275 37.2333 163.281 37.2067 163.281 37.18C163.281 37.14 163.281 37.12 163.281 37.12ZM172.911 38.74C172.951 38.62 172.991 38.5 173.031 38.38C173.071 38.26 173.117 38.1467 173.171 38.04C173.424 37.4133 173.784 36.8733 174.251 36.42C174.397 36.3 174.537 36.2 174.671 36.12C174.817 36.04 174.977 36 175.151 36C175.444 36 175.677 36.0733 175.851 36.22C176.024 36.3667 176.171 36.5533 176.291 36.78C176.357 36.9 176.404 37.0267 176.431 37.16C176.457 37.2933 176.491 37.4267 176.531 37.56C176.611 37.52 176.664 37.4733 176.691 37.42C176.717 37.3533 176.737 37.2933 176.751 37.24C176.884 36.9733 177.024 36.72 177.171 36.48C177.331 36.24 177.517 36.02 177.731 35.82C178.117 35.4867 178.544 35.3133 179.011 35.3C179.477 35.2867 179.884 35.5333 180.231 36.04C180.417 36.2933 180.551 36.56 180.631 36.84C180.711 37.12 180.777 37.4 180.831 37.68C180.924 38.2533 180.984 38.82 181.011 39.38C181.037 39.94 181.017 40.5067 180.951 41.08C180.897 41.3467 180.864 41.6133 180.851 41.88C180.837 42.1333 180.817 42.3933 180.791 42.66C180.777 42.7933 180.791 42.9467 180.831 43.12C180.857 43.2667 180.831 43.4067 180.751 43.54C180.684 43.6733 180.577 43.76 180.431 43.8C180.297 43.8533 180.164 43.86 180.031 43.82C179.911 43.7667 179.804 43.6733 179.711 43.54C179.631 43.3533 179.571 43.1733 179.531 43C179.477 42.5867 179.417 42.1733 179.351 41.76C179.284 41.3467 179.217 40.94 179.151 40.54C179.124 40.2733 179.104 40.0067 179.091 39.74C179.091 39.4733 179.091 39.2067 179.091 38.94C179.077 38.7133 179.051 38.4933 179.011 38.28C178.971 38.0667 178.937 37.8467 178.911 37.62C178.897 37.5533 178.877 37.4867 178.851 37.42C178.837 37.3533 178.797 37.2933 178.731 37.24C178.584 37.3067 178.457 37.4 178.351 37.52C178.244 37.6267 178.137 37.7533 178.031 37.9C177.857 38.1667 177.691 38.4533 177.531 38.76C177.384 39.0533 177.251 39.3533 177.131 39.66C177.037 39.9533 176.944 40.2533 176.851 40.56C176.771 40.8533 176.704 41.1533 176.651 41.46C176.637 41.5667 176.631 41.6733 176.631 41.78C176.631 41.8733 176.617 41.9667 176.591 42.06C176.564 42.5267 176.344 42.78 175.931 42.82C175.544 42.8867 175.284 42.6933 175.151 42.24C175.084 42.0133 175.037 41.7867 175.011 41.56C174.997 41.3333 174.964 41.1133 174.911 40.9C174.871 40.5133 174.837 40.1333 174.811 39.76C174.797 39.3867 174.784 39.0133 174.771 38.64C174.771 38.56 174.751 38.5133 174.711 38.5C174.631 38.54 174.577 38.6 174.551 38.68C174.524 38.7467 174.497 38.8133 174.471 38.88C173.924 40.2533 173.631 41.6667 173.591 43.12C173.591 43.2133 173.584 43.32 173.571 43.44C173.557 43.56 173.517 43.6733 173.451 43.78C173.277 44.0333 173.051 44.1667 172.771 44.18C172.491 44.2067 172.244 44.1 172.031 43.86C171.897 43.6867 171.797 43.46 171.731 43.18C171.611 42.7267 171.504 42.2667 171.411 41.8C171.317 41.3333 171.237 40.8733 171.171 40.42C171.077 39.86 170.997 39.3067 170.931 38.76C170.864 38.2 170.831 37.64 170.831 37.08C170.817 36.8933 170.817 36.7 170.831 36.5C170.844 36.3 170.884 36.1067 170.951 35.92C171.031 35.7733 171.144 35.6467 171.291 35.54C171.437 35.4333 171.584 35.3867 171.731 35.4C171.904 35.4 172.051 35.4533 172.171 35.56C172.304 35.6667 172.397 35.8067 172.451 35.98C172.517 36.14 172.551 36.3067 172.551 36.48C172.564 36.64 172.584 36.8133 172.611 37C172.677 37.4933 172.737 38.0133 172.791 38.56C172.791 38.6267 172.831 38.6867 172.911 38.74ZM186.716 42.46C186.623 42.5267 186.549 42.6133 186.496 42.72C186.456 42.8133 186.403 42.8933 186.336 42.96C186.203 43.16 186.056 43.3467 185.896 43.52C185.736 43.68 185.543 43.8067 185.316 43.9C184.943 44.0733 184.563 44.0867 184.176 43.94C183.803 43.78 183.543 43.5067 183.396 43.12C183.103 42.3733 183.016 41.66 183.136 40.98C183.269 40.3 183.576 39.6533 184.056 39.04C184.323 38.7067 184.636 38.4733 184.996 38.34C185.369 38.1933 185.776 38.1667 186.216 38.26C186.243 38.26 186.263 38.2667 186.276 38.28C186.303 38.28 186.329 38.28 186.356 38.28C186.409 38.1733 186.423 38.08 186.396 38C186.369 37.9067 186.349 37.8133 186.336 37.72C186.283 37.4267 186.216 37.1467 186.136 36.88C186.069 36.6133 185.983 36.3533 185.876 36.1C185.716 35.7533 185.569 35.5667 185.436 35.54C185.316 35.5133 185.116 35.62 184.836 35.86C184.396 36.2333 184.016 36.68 183.696 37.2C183.589 37.3333 183.536 37.4667 183.536 37.6C183.536 37.8933 183.396 38.08 183.116 38.16C183.023 38.1867 182.909 38.1733 182.776 38.12C182.643 38.0667 182.536 37.9933 182.456 37.9C182.283 37.6333 182.223 37.34 182.276 37.02C182.329 36.7133 182.416 36.4267 182.536 36.16C182.656 35.88 182.803 35.62 182.976 35.38C183.163 35.1133 183.363 34.8733 183.576 34.66C183.789 34.4333 184.029 34.2333 184.296 34.06C184.723 33.7933 185.183 33.68 185.676 33.72C186.183 33.7467 186.629 33.98 187.016 34.42C187.189 34.5933 187.323 34.7867 187.416 35C187.523 35.2 187.623 35.4133 187.716 35.64C187.863 36.0533 187.983 36.4733 188.076 36.9C188.183 37.3267 188.263 37.76 188.316 38.2C188.383 38.8 188.443 39.3933 188.496 39.98C188.549 40.5667 188.596 41.16 188.636 41.76C188.676 42.1067 188.676 42.46 188.636 42.82C188.609 43.22 188.443 43.5067 188.136 43.68C187.829 43.84 187.509 43.8133 187.176 43.6C187.043 43.5067 186.949 43.3933 186.896 43.26C186.843 43.1267 186.803 42.9867 186.776 42.84C186.763 42.7733 186.756 42.7133 186.756 42.66C186.756 42.5933 186.743 42.5267 186.716 42.46ZM185.016 42C185.229 41.7733 185.436 41.5533 185.636 41.34C185.836 41.1133 186.009 40.8667 186.156 40.6C186.196 40.52 186.189 40.4267 186.136 40.32C186.096 40.2 186.029 40.1133 185.936 40.06C185.843 39.9933 185.769 39.9867 185.716 40.04C185.676 40.08 185.623 40.1133 185.556 40.14C185.543 40.1667 185.523 40.1933 185.496 40.22C185.469 40.2467 185.449 40.2733 185.436 40.3C185.263 40.5533 185.136 40.82 185.056 41.1C184.976 41.3667 184.963 41.6667 185.016 42ZM194.146 38.7C193.906 38.9133 193.732 39.1333 193.626 39.36C193.346 39.8533 193.119 40.3733 192.946 40.92C192.772 41.4667 192.639 42.0267 192.546 42.6C192.532 42.7333 192.506 42.8667 192.466 43C192.426 43.1333 192.372 43.2533 192.306 43.36C192.106 43.6933 191.839 43.84 191.506 43.8C191.332 43.8 191.186 43.7533 191.066 43.66C190.946 43.5667 190.839 43.4467 190.746 43.3C190.692 43.18 190.652 43.0533 190.626 42.92C190.612 42.7867 190.592 42.6533 190.566 42.52C190.499 41.9867 190.426 41.4533 190.346 40.92C190.279 40.3733 190.232 39.8333 190.206 39.3C190.179 38.94 190.179 38.58 190.206 38.22C190.232 37.86 190.272 37.5 190.326 37.14C190.326 37.0733 190.339 37.0133 190.366 36.96C190.392 36.8933 190.412 36.8333 190.426 36.78C190.546 36.4467 190.766 36.3 191.086 36.34C191.219 36.3533 191.339 36.4133 191.446 36.52C191.552 36.6267 191.612 36.7533 191.626 36.9C191.666 37.22 191.699 37.5333 191.726 37.84C191.766 38.1467 191.812 38.4533 191.866 38.76C191.879 38.8133 191.886 38.88 191.886 38.96C191.886 39.0267 191.906 39.0933 191.946 39.16C192.012 39.1333 192.052 39.1 192.066 39.06C192.079 39.0067 192.092 38.96 192.106 38.92C192.239 38.6533 192.372 38.3933 192.506 38.14C192.639 37.8733 192.792 37.6333 192.966 37.42C193.046 37.3133 193.126 37.2133 193.206 37.12C193.286 37.0133 193.379 36.92 193.486 36.84C193.832 36.56 194.206 36.4533 194.606 36.52C195.006 36.5733 195.332 36.7933 195.586 37.18C195.706 37.3933 195.799 37.62 195.866 37.86C195.932 38.0867 195.979 38.32 196.006 38.56C196.072 38.96 196.126 39.3667 196.166 39.78C196.219 40.18 196.272 40.58 196.326 40.98C196.352 41.22 196.386 41.46 196.426 41.7C196.479 41.9267 196.519 42.16 196.546 42.4C196.572 42.4933 196.606 42.5733 196.646 42.64C196.686 42.7067 196.752 42.7733 196.846 42.84C197.126 42.9867 197.212 43.22 197.106 43.54C196.986 43.8733 196.779 44.08 196.486 44.16C196.192 44.24 195.912 44.1733 195.646 43.96C195.526 43.8533 195.426 43.74 195.346 43.62C195.266 43.5 195.192 43.3733 195.126 43.24C194.912 42.8533 194.752 42.46 194.646 42.06C194.539 41.66 194.459 41.24 194.406 40.8C194.366 40.4933 194.332 40.18 194.306 39.86C194.279 39.54 194.232 39.2267 194.166 38.92C194.166 38.8933 194.159 38.8667 194.146 38.84C194.146 38.8 194.146 38.7533 194.146 38.7ZM201.911 42.46C201.818 42.5267 201.745 42.6133 201.691 42.72C201.651 42.8133 201.598 42.8933 201.531 42.96C201.398 43.16 201.251 43.3467 201.091 43.52C200.931 43.68 200.738 43.8067 200.511 43.9C200.138 44.0733 199.758 44.0867 199.371 43.94C198.998 43.78 198.738 43.5067 198.591 43.12C198.298 42.3733 198.211 41.66 198.331 40.98C198.465 40.3 198.771 39.6533 199.251 39.04C199.518 38.7067 199.831 38.4733 200.191 38.34C200.565 38.1933 200.971 38.1667 201.411 38.26C201.438 38.26 201.458 38.2667 201.471 38.28C201.498 38.28 201.525 38.28 201.551 38.28C201.605 38.1733 201.618 38.08 201.591 38C201.565 37.9067 201.545 37.8133 201.531 37.72C201.478 37.4267 201.411 37.1467 201.331 36.88C201.265 36.6133 201.178 36.3533 201.071 36.1C200.911 35.7533 200.765 35.5667 200.631 35.54C200.511 35.5133 200.311 35.62 200.031 35.86C199.591 36.2333 199.211 36.68 198.891 37.2C198.785 37.3333 198.731 37.4667 198.731 37.6C198.731 37.8933 198.591 38.08 198.311 38.16C198.218 38.1867 198.105 38.1733 197.971 38.12C197.838 38.0667 197.731 37.9933 197.651 37.9C197.478 37.6333 197.418 37.34 197.471 37.02C197.525 36.7133 197.611 36.4267 197.731 36.16C197.851 35.88 197.998 35.62 198.171 35.38C198.358 35.1133 198.558 34.8733 198.771 34.66C198.985 34.4333 199.225 34.2333 199.491 34.06C199.918 33.7933 200.378 33.68 200.871 33.72C201.378 33.7467 201.825 33.98 202.211 34.42C202.385 34.5933 202.518 34.7867 202.611 35C202.718 35.2 202.818 35.4133 202.911 35.64C203.058 36.0533 203.178 36.4733 203.271 36.9C203.378 37.3267 203.458 37.76 203.511 38.2C203.578 38.8 203.638 39.3933 203.691 39.98C203.745 40.5667 203.791 41.16 203.831 41.76C203.871 42.1067 203.871 42.46 203.831 42.82C203.805 43.22 203.638 43.5067 203.331 43.68C203.025 43.84 202.705 43.8133 202.371 43.6C202.238 43.5067 202.145 43.3933 202.091 43.26C202.038 43.1267 201.998 42.9867 201.971 42.84C201.958 42.7733 201.951 42.7133 201.951 42.66C201.951 42.5933 201.938 42.5267 201.911 42.46ZM200.211 42C200.425 41.7733 200.631 41.5533 200.831 41.34C201.031 41.1133 201.205 40.8667 201.351 40.6C201.391 40.52 201.385 40.4267 201.331 40.32C201.291 40.2 201.225 40.1133 201.131 40.06C201.038 39.9933 200.965 39.9867 200.911 40.04C200.871 40.08 200.818 40.1133 200.751 40.14C200.738 40.1667 200.718 40.1933 200.691 40.22C200.665 40.2467 200.645 40.2733 200.631 40.3C200.458 40.5533 200.331 40.82 200.251 41.1C200.171 41.3667 200.158 41.6667 200.211 42ZM209.361 40.96C209.308 41.08 209.248 41.2 209.181 41.32C209.128 41.44 209.068 41.56 209.001 41.68C208.934 41.84 208.848 42 208.741 42.16C208.634 42.32 208.514 42.46 208.381 42.58C208.048 42.8867 207.681 43.0333 207.281 43.02C206.881 43.0067 206.528 42.8267 206.221 42.48C206.048 42.2933 205.908 42.08 205.801 41.84C205.708 41.5867 205.628 41.3333 205.561 41.08C205.254 39.92 205.314 38.78 205.741 37.66C205.874 37.3 206.041 36.96 206.241 36.64C206.454 36.32 206.728 36.0467 207.061 35.82C207.394 35.5933 207.734 35.4533 208.081 35.4C208.428 35.3333 208.788 35.3733 209.161 35.52C209.268 35.5467 209.361 35.5667 209.441 35.58C209.534 35.5933 209.628 35.5733 209.721 35.52C209.988 35.4133 210.248 35.44 210.501 35.6C210.768 35.7467 210.928 35.96 210.981 36.24C211.061 36.5867 211.114 36.9333 211.141 37.28C211.168 37.6267 211.188 37.9733 211.201 38.32C211.241 39.0667 211.268 39.82 211.281 40.58C211.294 41.3267 211.288 42.0733 211.261 42.82C211.248 43.18 211.221 43.5467 211.181 43.92C211.154 44.28 211.081 44.64 210.961 45C210.841 45.4133 210.674 45.7933 210.461 46.14C210.261 46.5 210.008 46.82 209.701 47.1C209.461 47.3133 209.188 47.4533 208.881 47.52C208.494 47.6 208.121 47.5133 207.761 47.26C207.414 47.0067 207.208 46.6867 207.141 46.3C207.114 46.06 207.188 45.8867 207.361 45.78C207.428 45.74 207.501 45.7133 207.581 45.7C207.674 45.6867 207.768 45.7067 207.861 45.76C207.941 45.8 208.008 45.84 208.061 45.88C208.114 45.9333 208.168 45.9933 208.221 46.06C208.341 46.1533 208.461 46.1333 208.581 46C208.834 45.64 209.008 45.26 209.101 44.86C209.248 44.2333 209.334 43.5933 209.361 42.94C209.388 42.2733 209.388 41.6133 209.361 40.96ZM207.541 40.98C207.674 40.8733 207.774 40.7533 207.841 40.62C207.921 40.4733 208.001 40.3133 208.081 40.14C208.241 39.74 208.374 39.3267 208.481 38.9C208.601 38.46 208.694 38.0133 208.761 37.56C208.801 37.2533 208.674 37.1467 208.381 37.24C208.221 37.2933 208.081 37.38 207.961 37.5C207.854 37.62 207.768 37.74 207.701 37.86C207.634 37.98 207.568 38.1133 207.501 38.26C207.368 38.5933 207.294 38.94 207.281 39.3C207.268 39.66 207.281 40.02 207.321 40.38C207.348 40.4867 207.368 40.5933 207.381 40.7C207.408 40.7933 207.461 40.8867 207.541 40.98ZM212.803 40.42C212.803 39.7933 212.89 39.1933 213.063 38.62C213.25 38.0333 213.49 37.46 213.783 36.9C213.93 36.6333 214.103 36.38 214.303 36.14C214.503 35.9 214.73 35.6933 214.983 35.52C215.33 35.28 215.69 35.14 216.063 35.1C216.463 35.0733 216.823 35.16 217.143 35.36C217.463 35.56 217.71 35.8333 217.883 36.18C218.056 36.5133 218.11 36.8933 218.043 37.32C218.03 37.44 218.003 37.5667 217.963 37.7C217.923 37.8333 217.87 37.96 217.803 38.08C217.63 38.4133 217.423 38.7333 217.183 39.04C216.956 39.3333 216.676 39.5933 216.343 39.82C216.13 39.9667 215.903 40.0933 215.663 40.2C215.436 40.2933 215.19 40.3333 214.923 40.32C214.83 40.32 214.77 40.3333 214.743 40.36C214.73 40.3867 214.723 40.4467 214.723 40.54C214.71 40.7533 214.723 40.9667 214.763 41.18C214.803 41.3933 214.856 41.6067 214.923 41.82C215.003 41.9933 215.076 42.0933 215.143 42.12C215.21 42.1467 215.33 42.1067 215.503 42C215.756 41.8667 215.983 41.6867 216.183 41.46C216.303 41.3533 216.423 41.26 216.543 41.18C216.663 41.0867 216.783 40.9933 216.903 40.9C216.956 40.8467 217.036 40.7933 217.143 40.74C217.343 40.6733 217.51 40.6933 217.643 40.8C217.79 40.8933 217.863 41.0467 217.863 41.26C217.863 41.3533 217.856 41.4467 217.843 41.54C217.83 41.6333 217.81 41.7267 217.783 41.82C217.61 42.3267 217.363 42.7667 217.043 43.14C216.723 43.5133 216.29 43.7867 215.743 43.96C214.983 44.16 214.323 43.98 213.763 43.42C213.47 43.1267 213.263 42.8 213.143 42.44C213.023 42.08 212.93 41.7067 212.863 41.32C212.85 41.1733 212.836 41.0267 212.823 40.88C212.823 40.72 212.816 40.5667 212.803 40.42ZM216.543 37.12C216.543 37.0267 216.536 36.9467 216.523 36.88C216.51 36.8 216.47 36.7467 216.403 36.72C216.31 36.6667 216.19 36.7 216.043 36.82C215.99 36.8467 215.943 36.88 215.903 36.92C215.863 36.96 215.816 37.0067 215.763 37.06C215.59 37.2733 215.443 37.5067 215.323 37.76C215.216 38.0133 215.116 38.2667 215.023 38.52C214.956 38.6133 214.963 38.6867 215.043 38.74C215.07 38.7667 215.103 38.78 215.143 38.78C215.196 38.7667 215.236 38.7533 215.263 38.74C215.863 38.4067 216.283 37.9133 216.523 37.26C216.536 37.2333 216.543 37.2067 216.543 37.18C216.543 37.14 216.543 37.12 216.543 37.12ZM221.68 38.74C221.72 38.62 221.76 38.5 221.8 38.38C221.84 38.26 221.887 38.1467 221.94 38.04C222.194 37.4133 222.554 36.8733 223.02 36.42C223.167 36.3 223.307 36.2 223.44 36.12C223.587 36.04 223.747 36 223.92 36C224.214 36 224.447 36.0733 224.62 36.22C224.794 36.3667 224.94 36.5533 225.06 36.78C225.127 36.9 225.174 37.0267 225.2 37.16C225.227 37.2933 225.26 37.4267 225.3 37.56C225.38 37.52 225.434 37.4733 225.46 37.42C225.487 37.3533 225.507 37.2933 225.52 37.24C225.654 36.9733 225.794 36.72 225.94 36.48C226.1 36.24 226.287 36.02 226.5 35.82C226.887 35.4867 227.314 35.3133 227.78 35.3C228.247 35.2867 228.654 35.5333 229 36.04C229.187 36.2933 229.32 36.56 229.4 36.84C229.48 37.12 229.547 37.4 229.6 37.68C229.694 38.2533 229.754 38.82 229.78 39.38C229.807 39.94 229.787 40.5067 229.72 41.08C229.667 41.3467 229.634 41.6133 229.62 41.88C229.607 42.1333 229.587 42.3933 229.56 42.66C229.547 42.7933 229.56 42.9467 229.6 43.12C229.627 43.2667 229.6 43.4067 229.52 43.54C229.454 43.6733 229.347 43.76 229.2 43.8C229.067 43.8533 228.934 43.86 228.8 43.82C228.68 43.7667 228.574 43.6733 228.48 43.54C228.4 43.3533 228.34 43.1733 228.3 43C228.247 42.5867 228.187 42.1733 228.12 41.76C228.054 41.3467 227.987 40.94 227.92 40.54C227.894 40.2733 227.874 40.0067 227.86 39.74C227.86 39.4733 227.86 39.2067 227.86 38.94C227.847 38.7133 227.82 38.4933 227.78 38.28C227.74 38.0667 227.707 37.8467 227.68 37.62C227.667 37.5533 227.647 37.4867 227.62 37.42C227.607 37.3533 227.567 37.2933 227.5 37.24C227.354 37.3067 227.227 37.4 227.12 37.52C227.014 37.6267 226.907 37.7533 226.8 37.9C226.627 38.1667 226.46 38.4533 226.3 38.76C226.154 39.0533 226.02 39.3533 225.9 39.66C225.807 39.9533 225.714 40.2533 225.62 40.56C225.54 40.8533 225.474 41.1533 225.42 41.46C225.407 41.5667 225.4 41.6733 225.4 41.78C225.4 41.8733 225.387 41.9667 225.36 42.06C225.334 42.5267 225.114 42.78 224.7 42.82C224.314 42.8867 224.054 42.6933 223.92 42.24C223.854 42.0133 223.807 41.7867 223.78 41.56C223.767 41.3333 223.734 41.1133 223.68 40.9C223.64 40.5133 223.607 40.1333 223.58 39.76C223.567 39.3867 223.554 39.0133 223.54 38.64C223.54 38.56 223.52 38.5133 223.48 38.5C223.4 38.54 223.347 38.6 223.32 38.68C223.294 38.7467 223.267 38.8133 223.24 38.88C222.694 40.2533 222.4 41.6667 222.36 43.12C222.36 43.2133 222.354 43.32 222.34 43.44C222.327 43.56 222.287 43.6733 222.22 43.78C222.047 44.0333 221.82 44.1667 221.54 44.18C221.26 44.2067 221.014 44.1 220.8 43.86C220.667 43.6867 220.567 43.46 220.5 43.18C220.38 42.7267 220.274 42.2667 220.18 41.8C220.087 41.3333 220.007 40.8733 219.94 40.42C219.847 39.86 219.767 39.3067 219.7 38.76C219.634 38.2 219.6 37.64 219.6 37.08C219.587 36.8933 219.587 36.7 219.6 36.5C219.614 36.3 219.654 36.1067 219.72 35.92C219.8 35.7733 219.914 35.6467 220.06 35.54C220.207 35.4333 220.354 35.3867 220.5 35.4C220.674 35.4 220.82 35.4533 220.94 35.56C221.074 35.6667 221.167 35.8067 221.22 35.98C221.287 36.14 221.32 36.3067 221.32 36.48C221.334 36.64 221.354 36.8133 221.38 37C221.447 37.4933 221.507 38.0133 221.56 38.56C221.56 38.6267 221.6 38.6867 221.68 38.74ZM231.319 40.42C231.319 39.7933 231.405 39.1933 231.579 38.62C231.765 38.0333 232.005 37.46 232.299 36.9C232.445 36.6333 232.619 36.38 232.819 36.14C233.019 35.9 233.245 35.6933 233.499 35.52C233.845 35.28 234.205 35.14 234.579 35.1C234.979 35.0733 235.339 35.16 235.659 35.36C235.979 35.56 236.225 35.8333 236.399 36.18C236.572 36.5133 236.625 36.8933 236.559 37.32C236.545 37.44 236.519 37.5667 236.479 37.7C236.439 37.8333 236.385 37.96 236.319 38.08C236.145 38.4133 235.939 38.7333 235.699 39.04C235.472 39.3333 235.192 39.5933 234.859 39.82C234.645 39.9667 234.419 40.0933 234.179 40.2C233.952 40.2933 233.705 40.3333 233.439 40.32C233.345 40.32 233.285 40.3333 233.259 40.36C233.245 40.3867 233.239 40.4467 233.239 40.54C233.225 40.7533 233.239 40.9667 233.279 41.18C233.319 41.3933 233.372 41.6067 233.439 41.82C233.519 41.9933 233.592 42.0933 233.659 42.12C233.725 42.1467 233.845 42.1067 234.019 42C234.272 41.8667 234.499 41.6867 234.699 41.46C234.819 41.3533 234.939 41.26 235.059 41.18C235.179 41.0867 235.299 40.9933 235.419 40.9C235.472 40.8467 235.552 40.7933 235.659 40.74C235.859 40.6733 236.025 40.6933 236.159 40.8C236.305 40.8933 236.379 41.0467 236.379 41.26C236.379 41.3533 236.372 41.4467 236.359 41.54C236.345 41.6333 236.325 41.7267 236.299 41.82C236.125 42.3267 235.879 42.7667 235.559 43.14C235.239 43.5133 234.805 43.7867 234.259 43.96C233.499 44.16 232.839 43.98 232.279 43.42C231.985 43.1267 231.779 42.8 231.659 42.44C231.539 42.08 231.445 41.7067 231.379 41.32C231.365 41.1733 231.352 41.0267 231.339 40.88C231.339 40.72 231.332 40.5667 231.319 40.42ZM235.059 37.12C235.059 37.0267 235.052 36.9467 235.039 36.88C235.025 36.8 234.985 36.7467 234.919 36.72C234.825 36.6667 234.705 36.7 234.559 36.82C234.505 36.8467 234.459 36.88 234.419 36.92C234.379 36.96 234.332 37.0067 234.279 37.06C234.105 37.2733 233.959 37.5067 233.839 37.76C233.732 38.0133 233.632 38.2667 233.539 38.52C233.472 38.6133 233.479 38.6867 233.559 38.74C233.585 38.7667 233.619 38.78 233.659 38.78C233.712 38.7667 233.752 38.7533 233.779 38.74C234.379 38.4067 234.799 37.9133 235.039 37.26C235.052 37.2333 235.059 37.2067 235.059 37.18C235.059 37.14 235.059 37.12 235.059 37.12ZM242.056 38.7C241.816 38.9133 241.643 39.1333 241.536 39.36C241.256 39.8533 241.029 40.3733 240.856 40.92C240.683 41.4667 240.549 42.0267 240.456 42.6C240.443 42.7333 240.416 42.8667 240.376 43C240.336 43.1333 240.283 43.2533 240.216 43.36C240.016 43.6933 239.749 43.84 239.416 43.8C239.243 43.8 239.096 43.7533 238.976 43.66C238.856 43.5667 238.749 43.4467 238.656 43.3C238.603 43.18 238.563 43.0533 238.536 42.92C238.523 42.7867 238.503 42.6533 238.476 42.52C238.409 41.9867 238.336 41.4533 238.256 40.92C238.189 40.3733 238.143 39.8333 238.116 39.3C238.089 38.94 238.089 38.58 238.116 38.22C238.143 37.86 238.183 37.5 238.236 37.14C238.236 37.0733 238.249 37.0133 238.276 36.96C238.303 36.8933 238.323 36.8333 238.336 36.78C238.456 36.4467 238.676 36.3 238.996 36.34C239.129 36.3533 239.249 36.4133 239.356 36.52C239.463 36.6267 239.523 36.7533 239.536 36.9C239.576 37.22 239.609 37.5333 239.636 37.84C239.676 38.1467 239.723 38.4533 239.776 38.76C239.789 38.8133 239.796 38.88 239.796 38.96C239.796 39.0267 239.816 39.0933 239.856 39.16C239.923 39.1333 239.963 39.1 239.976 39.06C239.989 39.0067 240.003 38.96 240.016 38.92C240.149 38.6533 240.283 38.3933 240.416 38.14C240.549 37.8733 240.703 37.6333 240.876 37.42C240.956 37.3133 241.036 37.2133 241.116 37.12C241.196 37.0133 241.289 36.92 241.396 36.84C241.743 36.56 242.116 36.4533 242.516 36.52C242.916 36.5733 243.243 36.7933 243.496 37.18C243.616 37.3933 243.709 37.62 243.776 37.86C243.843 38.0867 243.889 38.32 243.916 38.56C243.983 38.96 244.036 39.3667 244.076 39.78C244.129 40.18 244.183 40.58 244.236 40.98C244.263 41.22 244.296 41.46 244.336 41.7C244.389 41.9267 244.429 42.16 244.456 42.4C244.483 42.4933 244.516 42.5733 244.556 42.64C244.596 42.7067 244.663 42.7733 244.756 42.84C245.036 42.9867 245.123 43.22 245.016 43.54C244.896 43.8733 244.689 44.08 244.396 44.16C244.103 44.24 243.823 44.1733 243.556 43.96C243.436 43.8533 243.336 43.74 243.256 43.62C243.176 43.5 243.103 43.3733 243.036 43.24C242.823 42.8533 242.663 42.46 242.556 42.06C242.449 41.66 242.369 41.24 242.316 40.8C242.276 40.4933 242.243 40.18 242.216 39.86C242.189 39.54 242.143 39.2267 242.076 38.92C242.076 38.8933 242.069 38.8667 242.056 38.84C242.056 38.8 242.056 38.7533 242.056 38.7ZM248.173 43.12C248.48 42.8933 248.72 42.6533 248.893 42.4C249.133 42.0667 249.366 41.7267 249.593 41.38C249.833 41.0333 250.04 40.6733 250.213 40.3C250.226 40.2467 250.24 40.2067 250.253 40.18C250.266 40.14 250.273 40.1 250.273 40.06C250.286 39.78 250.446 39.6067 250.753 39.54C251.06 39.5133 251.286 39.6267 251.433 39.88C251.513 39.9733 251.56 40.0733 251.573 40.18C251.6 40.2733 251.613 40.38 251.613 40.5C251.56 41.2067 251.373 41.8867 251.053 42.54C250.653 43.3267 250.12 43.98 249.453 44.5C249.306 44.62 249.153 44.72 248.993 44.8C248.846 44.8933 248.68 44.96 248.493 45C248.16 45.08 247.826 45.0467 247.493 44.9C247.16 44.7667 246.893 44.5533 246.693 44.26C246.573 44.06 246.466 43.8533 246.373 43.64C246.28 43.4133 246.2 43.1867 246.133 42.96C245.96 42.4667 245.833 41.96 245.753 41.44C245.673 40.92 245.6 40.4 245.533 39.88C245.426 39.1333 245.346 38.3733 245.293 37.6C245.226 36.8267 245.193 36.0533 245.193 35.28C245.193 35.1333 245.18 35.0467 245.153 35.02C245.126 34.9933 245.033 34.9933 244.873 35.02C244.7 35.06 244.526 35.1067 244.353 35.16C244.166 35.2 243.98 35.2333 243.793 35.26C243.566 35.3133 243.326 35.28 243.073 35.16C242.833 35.0133 242.7 34.8133 242.673 34.56C242.646 34.2933 242.726 34.0667 242.913 33.88C243.1 33.72 243.3 33.6067 243.513 33.54C243.753 33.4733 243.993 33.4067 244.233 33.34C244.46 33.2733 244.693 33.2133 244.933 33.16C245.093 33.1333 245.193 33.1067 245.233 33.08C245.26 33.04 245.28 32.9333 245.293 32.76C245.306 32.3067 245.346 31.86 245.413 31.42C245.466 30.9667 245.553 30.5133 245.673 30.06C245.726 29.9 245.773 29.74 245.813 29.58C245.866 29.4067 245.94 29.2467 246.033 29.1C246.113 28.9933 246.193 28.9 246.273 28.82C246.353 28.7267 246.446 28.6533 246.553 28.6C246.806 28.4267 247.086 28.4133 247.393 28.56C247.526 28.6533 247.606 28.7667 247.633 28.9C247.673 29.0333 247.68 29.1733 247.653 29.32C247.626 29.6133 247.573 29.9067 247.493 30.2C247.413 30.48 247.36 30.7733 247.333 31.08C247.306 31.3333 247.273 31.5867 247.233 31.84C247.206 32.0933 247.18 32.3533 247.153 32.62C247.153 32.74 247.16 32.8133 247.173 32.84C247.2 32.8533 247.28 32.86 247.413 32.86C247.68 32.86 247.933 32.8533 248.173 32.84C248.413 32.8267 248.66 32.82 248.913 32.82C249.366 32.82 249.746 32.9933 250.053 33.34C250.133 33.4067 250.193 33.4867 250.233 33.58C250.286 33.66 250.32 33.7467 250.333 33.84C250.36 34.0667 250.286 34.2667 250.113 34.44C249.94 34.6 249.76 34.64 249.573 34.56C249.546 34.56 249.513 34.56 249.473 34.56C249.446 34.5467 249.413 34.5467 249.373 34.56C249.08 34.6667 248.78 34.7133 248.473 34.7C248.18 34.6867 247.88 34.7 247.573 34.74H247.293C247.133 34.74 247.053 34.82 247.053 34.98C247.08 35.2333 247.093 35.4867 247.093 35.74C247.093 35.98 247.1 36.2267 247.113 36.48C247.14 37.1333 247.186 37.7867 247.253 38.44C247.32 39.0933 247.406 39.74 247.513 40.38C247.553 40.7133 247.6 41.0467 247.653 41.38C247.72 41.7 247.8 42.0267 247.893 42.36C247.92 42.48 247.96 42.6 248.013 42.72C248.066 42.84 248.12 42.9733 248.173 43.12Z" fill="black"/>
<g clip-path="url(#clip0_3330_4182)">
<path d="M267.99 27C262.47 27 258 31.48 258 37C258 42.52 262.47 47 267.99 47C273.52 47 278 42.52 278 37C278 31.48 273.52 27 267.99 27ZM268 45C263.58 45 260 41.42 260 37C260 32.58 263.58 29 268 29C272.42 29 276 32.58 276 37C276 41.42 272.42 45 268 45Z" fill="#006D41"/>
<path d="M268.5 32H267V38L272.25 41.15L273 39.92L268.5 37.25V32Z" fill="#006D41"/>
</g>
<g clip-path="url(#clip1_3330_4182)">
<path d="M268 18C269.1 18 269.99 17.1 269.99 16L270 5C270 3.9 269.1 3 268 3H252C250.9 3 250 3.9 250 5V16C250 17.1 250.9 18 252 18H248C248 19.1 248.9 20 250 20H270C271.1 20 272 19.1 272 18H268ZM252 5H268V16H252V5ZM260 19C259.45 19 259 18.55 259 18C259 17.45 259.45 17 260 17C260.55 17 261 17.45 261 18C261 18.55 260.55 19 260 19Z" fill="#006D41"/>
</g>
<path d="M94.3922 32.7063C94.9003 32.4897 95.1365 31.9023 94.9199 31.3942C94.7032 30.8862 94.1158 30.65 93.6078 30.8666L94.3922 32.7063ZM24.4028 11.0847C23.8973 10.8622 23.3072 11.0917 23.0847 11.5972L19.4592 19.8346C19.2367 20.3401 19.4661 20.9302 19.9716 21.1527C20.4771 21.3752 21.0673 21.1458 21.2897 20.6403L24.5124 13.3181L31.8346 16.5408C32.3401 16.7633 32.9302 16.5339 33.1527 16.0284C33.3752 15.5229 33.1458 14.9327 32.6403 14.7103L24.4028 11.0847ZM94 31.7865L93.6078 30.8666C86.5773 33.8645 73.6668 40.0602 60.3469 39.9996C53.7218 39.9694 47.034 38.3873 40.9381 34.0989C34.8393 29.8083 29.253 22.7523 24.932 11.6377L24 12L23.068 12.3623C27.497 23.7548 33.2957 31.1677 39.7874 35.7346C46.2821 40.3037 53.3904 41.9679 60.3378 41.9995C74.1628 42.0625 87.5022 35.6444 94.3922 32.7063L94 31.7865Z" fill="black"/>
<defs>
<clipPath id="clip0_3330_4182">
<rect width="24" height="24" fill="white" transform="translate(256 25)"/>
</clipPath>
<clipPath id="clip1_3330_4182">
<rect width="24" height="24" fill="white" transform="translate(248)"/>
</clipPath>
</defs>
</svg>
