<?xml version="1.0" encoding="UTF-8"?>
<svg id="Layer_1" data-name="Layer 1" preserveAspectRatio="none" xmlns="http://www.w3.org/2000/svg" xmlns:xlink="http://www.w3.org/1999/xlink" viewBox="0 0 547 139">
  <defs>
    <style>
      .cls-1 {
        fill: none;
      }

      .cls-2 {
        fill: rgba(181, 204, 186, .3);
      }

      .cls-3 {
        clip-path: url(#clippath);
      }
    </style>
    <clipPath id="clippath">
      <rect class="cls-1" width="547" height="139"/>
    </clipPath>
  </defs>
  <g class="cls-3">
    <g>
      <path class="cls-2" d="M471.05,22.71c.48,1.04,1.52,2.17,1.34,3.07-.51,2.46.2,4.32,1.89,6.09.73.76-.36,2.13-1.62,2.27-3.2.35-6.28.2-9.28-1.2-1.67-.77-3.2-.23-2.81.52.34.65.78,1.5,1.4,1.72,2.95,1.06,5.97,1.93,9.14,2.92,6.33-1.93,12.71-3.87,18.8-5.72,2.94.33,4.71,1.93,5.95,3.86,2.72,4.24,7.38,6.69,10.42,10.66,1.33,1.74,3.54,3.08,5.64,4,1.67.73,3.79.45,5.68.78,2.71.48,5.53.77,8.05,1.75,4.41,1.73,8.68,3.41,13.61,3.62,3.83.16,6.23,2.93,7.74,6.13-.07,2.88-1.86,5.04-2.97,7.42-1.24,2.68-1.06,5.09.82,7.43.7.87,1.18,1.9,1.7,2.76-.8,2.2-2.39,3.62-4.48,2.92-2.34-.77-4.74,0-6.96-.8-2.19-.78-3.79.19-5.35,1.45-2.53,2.04-3.86,4.73-4.77,7.81,1.16.9,2.45,1.78,3.54,2.83.49.47.94,1.44.75,1.95-.18.5-1.19.96-1.88,1.04-3.14.35-6.29.51-9.44.82-1.52.15-2.81,1.74-2.56,3.23.12.74.46,1.44.62,2.17.17.82-.17,1.48-1.01,1.73-.3.09-.75-.18-1.09-.37-.34-.19-.6-.49-.94-.7-2.85-1.81-3.36-1.68-5.63,1.21-.23.29-.3.7-.46,1.05l.04-.06c-4.51.56-8.58,2.21-11.16,5.81-1.82,2.54-4.18,3.26-6.97,3.74-1.72.3-2.97,1.36-3.06,3-.16,3.14-1.48,5.91-2.85,8.62-1.22,2.43-2.06,4.87-2.43,7.54-.27,1.92-2.16,3.22-4.3,3.17-2.77-.07-5.71.2-8.27-.6-3.51-1.09-7-1.26-10.59-1.37-3.17-.1-6.32-.01-9.48-.84-2.96-.77-6.13-.4-8.69-2.8-1.39-1.31-3.74-1.1-5.6,0-1.69.99-3.33,2.05-4.93,3.04-7.27.89-14.43.6-21.59.34-1.19-.04-2.49,0-3.53-.46-4.54-2.02-9.37-1.53-14.11-1.66-4.38-.12-8.76-.05-13.15-.03-3.99.01-7.87,0-11.75-1.44-3.67-1.36-7.92-.54-11.65-2.23-.93-.43-2.43-.25-3.44.15-4.91,1.95-10.35.57-15.27,2.28-5.39-1.31-11.1-.38-16.43-2.27-1.83-.64-3.87-.99-5.82-1.05-4.77-.13-9.56-.14-14.33.05-4.31.18-8.56,1.38-12.94.27-1.08-.27-2.49-.13-3.51.33-4.15,1.87-8.54,1.59-12.91,1.59h-16.59c-2.34-1.8-4.32-3.64-6.63-5-2.35-1.39-5-2.32-7.9-3.62-1.59.34-3.5.74-5.4,1.14-4.44-1.57-8.89-3.17-13.35-4.72-3.43-1.18-7.05-.68-10.88,1.53.28,1.97,2.41,1.18,3.37,2.04.5.45.95,1.3.85,1.89-.1.6-.82,1.49-1.37,1.57-5.12.7-10.17,1.18-15.21-.86-5.9-2.4-12.14-3.4-18.61-3.04-1.56.09-3.14-.26-4.95-.44-.95-1.18-1.84-2.4-2.86-3.52-1.05-1.15-2.19-2.17-4.06-1.46-1.49.57-3.18,1-4.65.34-3.51-1.57-7.96-1.41-10.37-5.03-2.56-1.01-5.11-2.03-7.97-3.15-2.42.54-5.05,1.31-7.76,1.7-3.36.5-6.27-.44-8.36-3.2-.22-.28-.65-.42-1.37-.88-5.52-.86-11.5-.2-17.45-.36-1.57-.04-3.16.08-4.57-.88-.72-.49-1.14-1.05-.92-1.91.09-.33.34-.75.63-.87,1.06-.44,2.16-.75,3.25-1.11.98-.33,1.96-.64,3.39-1.1-3.59-1.43-6.8-.94-9.94-.86-2.27.05-3.51,1.49-4.18,4.49-.32,1.43-1.02,2.2-2.08,2.21-3.94.04-7.92.34-11.68-.3-.45-1.39-.78-2.42-1.11-3.44-.72-.29-1.45-.58-2.17-.87-1.78-.73-2.66-2.11-2.64-4.14.01-1.56-.41-2.23-1.6-2.37-1.98-.21-4.14.04-5.9-.63-4.3-1.66-8.34-1.73-12.67-.04-2.23.87-4.7.13-6.97-.75-1.54-.6-3.07-.57-4.6.13-2.65,1.22-5.48,1.38-8.12.36-3.04-1.18-6.12-1.57-9.33-1.59-1.19,0-2.53.12-3.54-.33-5.26-2.32-10.88-1.91-16.41-2.26-2.1-.13-3.84-1.14-4.84-2.9C.12,87.13-.03,85.92,0,84.85c.02-.63.59-1.53,1.18-1.83,3.2-1.63,6.8-1.72,10.3-2.08.76-.08,1.61.43,2.34.29,2.71-.49,5.36-1.32,8.08-1.66,2.35-.29,4.77-.11,7.16-.14.39,0,.82-.03,1.18-.16,6.89-2.52,14.09-1.9,21.24-1.96,2.36-.02,4.89-.1,7.05-.88,3.87-1.42,7.78-1.37,11.76-1.34,5.97.04,11.95.02,17.92-.09.99-.02,1.96-.58,3.84-1.18-5.12-1.58-9.63-.15-13.79-1.49-.32-.73.11-1.18.65-1.82,1.12-1.35.47-3.24-1.02-3.2-1.55.03-3.09.32-4.84.52-4.33-2.33-8.29-5.63-13.54-6.65-3.29-.64-4.97-3.68-7.68-5.41-3.15-1.47-6.94-.8-10.17-2.76-4.35-2.65-8.93-4.95-12.85-8.19-.87-.72-1.48-1.75-2.16-2.68-.52-.71-.27-2.5.49-3.16.86-.75,1.71-1.7,2.76-2.08,11.52-4.19,23.6-6.54,35.51-9.43,3.42-.83,7.06-.69,10.48-1.96,1.3-.48,3.15-.04,4.6.41,2.3.72,4.59,1.22,7,1.2,3.2-.02,6.36-.09,9.22-1.79,4.24-2.51,8.95-2.92,13.81-2.74,4.36.16,8.71-.14,12.93,1.59,2.18.89,4.67.53,7.04-.12,2.28-.63,4.74-.77,6.9-1.63,5.32-2.09,10.85-2.1,16.41-2.14,10.36-.07,20.71-.12,31.07-.16,3.19-.01,6.33-.11,9.41-1.16,1.83-.62,3.88-.75,5.85-.86,3.98-.21,7.88-.41,11.75-1.67,3.39-1.1,7.15-1.12,10.62-.28,2.44.59,4.59.48,6.97.07,1.45-.25,3.14.23,4.61.69,2.36.73,4.65.93,6.98,0,.73-.29,1.47-.72,2.23-.77,3.56-.26,7.15-.43,10.72-.62,3.58-.2,6.76-2.07,10.48-2.04,5.13.04,10.4.44,15.21-1.96,3.98-.16,7.95-.36,11.93-.46,2.39-.05,4.73-.08,7.05-.89,5.76-2.03,11.76-1.4,17.72-1.16.39.01.81.09,1.18.22,9.33,3.3,18.74,1.75,28.14.52,1.57-1.84,3.27-3.28,6-3.18,3.17.12,6.35-.21,9.39,1.16,1,.45,2.44.76,3.4.43,3.52-1.21,7.08,1.77,10.51-.28.33-.2.75-.36,1.12-.36,1.15,0,2.35-.09,3.46.17,7.83,1.87,15.67,1.77,23.49.15,3.01,1.01,5.92,2.33,9,2.95,3.55.72,6.98-.11,10.43-1.46,3.04-1.19,4.36-4,7.06-5.62.47,1.24.79,2.32,1.28,3.34.49.99,2.16,1.53,3.02,1.07.69-.38,1.45-.7,1.99-1.22,2.14-2.04,4.73-2.6,7.64-2.56,5.98.1,11.95.1,17.93.13l-.04-.04c.95.63,1.82,1.6,2.85,1.81,1.92.38,3.94.38,5.92.4,3.18.04,6.31.1,9.32,1.42,1.38.6,3.08.65,4.65.72,3.95.15,7.96-.08,11.64,1.73,3.52-.23,6.97-.05,10.48.57,3.54.62,7.08-.27,10.19-1.94,2.38,1.43,4.36,2.62,6.53,3.93.97-.24,2.12-.41,3.2-.8,1.5-.53,2.95-1.02,4.61-.68.94.2,2.04,1.78,1.73,2.58-.73,1.92-2.18,3.2-4.17,3.66-1.51.35-3.15.22-4.74.27-4.76.16-9.52.31-14.28.45-3.92,2.02-8.53,1.54-12.58,3.12-.69.27-1.54.16-2.57.26-.51-.84-1.29-1.71-1.57-2.71-.3-1.07-.12-2.26-.14-3.39.7-.07,1.39-.1,2.08-.21.32-.05.67-.22.89-.44.14-.13.1-.46.14-.69-.6-.05-1.33-.33-1.77-.1-.56.27-.87.97-1.3,1.48-1.15,0-2.32.02-3.47-.02-4.87-.17-9.24.49-11.68,5.33-.38.76-1.89,1.17-2.96,1.41-1.1.25-2.3.11-3.46.13-.13-.27-.21-.59-.41-.81-.13-.14-.44-.13-.65-.19.37.32.74.63,1.11.95l.05.02ZM455.66,28.38c1.63,1.29,3.56,1.05,5.45.89.89-.07,1.59-.64,1.43-1.34-.47-1.96,1.83-2.83,1.89-4.56-4.54-.5-5.3-.05-8.76,5h-.01ZM382.12,13.97c-.87.22-2,.35-2.93.83-.39.21-.58,1.21-.45,1.78.18.8,1.06,1.22,1.82.87.95-.44,1.77-1.14,2.59-1.81.18-.15.24-.69.11-.92-.16-.27-.59-.41-1.14-.75ZM91.4,98.65c-.86-.09-1.93-.34-2.97-.26-.91.05-1.33.74-1.09,1.47.37,1.14,1.49,1.81,2.53,1.59,1.09-.24,2.09-1.68,1.54-2.79h0ZM117.66,101.46c-.27-.23-.5-.54-.82-.67-.34-.14-.78-.23-1.11-.13-.69.21-1.33.56-1.99.85.65.28,1.32.8,1.97.79.65,0,1.31-.52,1.95-.83ZM390.54,17.1c-.15-.23-.26-.58-.48-.64-.27-.09-.74-.08-.94.09-.59.49-.36.9.6.97.26.01.55-.26.82-.41Z"/>
      <path class="cls-2" d="M59.67,102.74c-2.88-.13-4.86-.2-6.82-.35-.34-.02-.63-.43-.95-.64.41-.43.78-1.2,1.23-1.23,3.93-.32,7.81-.76,11.53-2.13.65-.24,1.67-.12,2.28.22.56.31.95,1.09,1.15,1.74.24.77-.24,1.57-1.14,1.69-2.71.35-5.45.54-7.29.71h0Z"/>
      <path class="cls-2" d="M198.08,134.08c4.91-2.15,8.04-3.61,11.56-3.91,1.1-.1,2.29.27,3.38.6.88.26,1.3,1.05.94,1.79-.29.61-.85,1.44-1.43,1.56-4.23.86-8.42.39-14.45-.03h.01Z"/>
      <path class="cls-2" d="M341.47,4.48c-.7-.23-1.79-.56-2.83-.98-.29-.12-.53-.52-.65-.84-.32-.86.04-1.45.86-1.91,1.86-1.01,3.79-.94,5.63-.14.53.23,1.07,1.17,1.02,1.74-.04.6-.67,1.35-1.25,1.67-.64.35-1.54.27-2.77.46h-.01Z"/>
      <path class="cls-2" d="M506.88,107.17c1.59.08,3.38.1,4.26,1.47.96,1.5,2.09,2.06,3.82,1.88.23-.02.75.48.72.68-.1.66-.18,1.57-.65,1.9-1.24.87-2.68,1.48-3.99,2.17-2.48-2.43-2.2-5.79-4.12-8.14l-.04.06Z"/>
      <path class="cls-2" d="M71.04,104.69c1.13.32,2.23.61,3.31.95.04.01,0,.68-.14.74-2.44,1.08-4.88,2.25-7.62,2.28-.44,0-.97-.9-1.31-1.48-.14-.24.05-.74.25-1.03.21-.29.57-.61.91-.68,1.5-.31,3.04-.52,4.61-.78h-.01Z"/>
      <path class="cls-2" d="M500.21,27.26c.63.22,1.68.51,2.66.96,1.07.49,1.07,2.04.05,2.66-2.36,1.47-5.55.61-6.38-1.84-.13-.37.51-1.24,1.01-1.48.62-.31,1.46-.19,2.66-.29Z"/>
      <path class="cls-2" d="M231.03,131.48c-.09.7-.03,1.1-.18,1.41-.38.79-1.1,1.21-1.94.99-.73-.18-1.55-.5-2.03-1-.45-.48-.89-1.51-.64-1.89.32-.5,1.39-.9,2.01-.79,1.01.2,1.93.86,2.78,1.28Z"/>
      <path class="cls-2" d="M421.9,2.29c.46.21,1.18.4,1.71.81.59.45-.75,1.44-2.11,1.45-.73,0-1.51.04-2.19-.17-.61-.2-1.1-.71-1.65-1.08.62-.33,1.2-.8,1.86-.96.69-.16,1.46-.03,2.38-.03h0Z"/>
      <path class="cls-2" d="M539.71,100.89c-.41.9-1.9,1.28-2.65.52-.42-.42-.74-1.24-.63-1.79.2-.94,1.83-1.29,2.61-.54.42.4.46,1.19.66,1.81Z"/>
      <path class="cls-2" d="M244.51,130.9c-.13.26-.18.64-.39.76-1.01.59-2.08.59-3.09,0-.22-.13-.43-.54-.38-.76.21-.76,1.45-1.06,3.03-.69.32.08.55.44.84.67v.02Z"/>
      <path class="cls-2" d="M544.51,103.17c-.27.06-.68.26-.78.15-.22-.2-.39-.57-.36-.84.03-.27.29-.63.56-.73.15-.07.63.24.71.46.1.27-.08.63-.13.96h.01Z"/>
      <path class="cls-2" d="M119.54,115.83c-.34-.11-.86-.14-.96-.35-.36-.72.09-1.13,1.09-.98.28.04.51.47.76.72-.29.21-.6.41-.89.62h0Z"/>
      <path class="cls-2" d="M461.47,4.51c.36-.35.71-.7,1.07-1.05-.08.22-.08.5-.23.62-.24.19-.58.26-.88.37l.04.04h0Z"/>
    </g>
  </g>
</svg>