<svg width="113" height="6" viewBox="0 0 113 6" preserveAspectRatio="none" fill="none" xmlns="http://www.w3.org/2000/svg">
<g clip-path="url(#clip0_83_3457)">
<path d="M0 0.496494C0 0.496494 53.0578 -0.468066 106.499 1.07097C114.15 1.29084 114.762 3.17031 105.088 2.6833C79.6745 1.40195 24.093 1.28847 19.2424 3.44218C12.3207 6.51554 36.4775 2.91499 70.5538 2.91499C104.63 2.91499 105.833 5.75193 105.833 5.75193" fill="white"/>
<path d="M0 0.49636C35.04 -0.208146 70.1864 -0.189233 105.21 0.720952C107.676 0.798967 110.279 0.801332 112.361 1.53184C113.165 1.82972 113.277 2.39002 112.313 2.67844C111.365 2.97868 110.162 3.03306 109.129 3.07325C107.5 3.12289 105.881 3.0567 104.332 2.97868C95.0514 2.54841 85.723 2.35692 76.3947 2.23162C60.858 2.05195 45.2522 1.95738 29.7741 2.61461C26.7818 2.77537 23.6031 2.91958 20.8078 3.38295C20.1103 3.50115 19.7057 3.63827 19.2158 3.90305C18.9975 4.01889 18.8005 4.15129 18.7473 4.2293C18.726 4.26949 18.7473 4.25531 18.726 4.24585C20.0198 4.49408 21.7449 4.3546 23.1772 4.33805C32.4683 3.95979 41.7487 3.3333 51.0771 3.0567C63.5256 2.64771 76.0699 2.60042 88.4971 3.17727C93.1293 3.41604 97.8467 3.72338 102.181 4.51772C103.544 4.80378 105.157 5.11348 105.823 5.75179C105.525 5.42554 104.848 5.21514 104.215 5.02837C103.288 4.75414 102.09 4.55555 101.047 4.38297C90.9569 3.04488 80.2389 3.1158 69.7977 3.0898C54.1812 3.09452 38.7617 4.13001 23.2783 4.92908C22.0857 4.97163 20.877 5.0071 19.6631 4.96454C18.9549 4.92435 18.0498 4.89598 17.5493 4.55319C16.8784 4.00235 18.2734 3.42314 19.104 3.09216C20.8717 2.5886 22.9908 2.45149 24.9395 2.27654C29.5824 1.92665 34.2839 1.77771 38.9747 1.65478C60.8208 1.21032 82.7254 1.35926 104.486 2.32146C106.691 2.42075 109.007 2.56023 111.067 2.24817C111.355 2.20089 111.557 2.11342 111.557 2.10632C111.546 2.10632 111.557 2.12051 111.546 2.1016C111.158 1.851 110.354 1.72807 109.576 1.61695C108.133 1.42546 106.643 1.38763 105.115 1.34981C70.1332 0.378155 35.0453 0.179569 0 0.49636Z" fill="black"/>
</g>
<defs>
<clipPath id="clip0_83_3457">
<rect width="113" height="5.75426" fill="white"/>
</clipPath>
</defs>
</svg>
